<svg width="303" height="293" viewBox="0 0 303 293" fill="none" xmlns="http://www.w3.org/2000/svg">
<g filter="url(#filter0_dd_999_28946)">
<rect x="30.9062" y="71.9316" width="148" height="167.129" rx="10" transform="rotate(-3 30.9062 71.9316)" fill="#343539"/>
</g>
<g filter="url(#filter1_d_999_28946)">
<g clip-path="url(#clip0_999_28946)">
<rect x="44.6523" y="181.361" width="132" height="48" rx="2" transform="rotate(-3 44.6523 181.361)" fill="#4D4F54"/>
<path d="M56.0389 196.786L57.2135 196.724L56.8079 188.984L55.6225 189.046L53.6602 190.602L53.7198 191.739L55.6688 190.238L55.6957 190.237L56.0389 196.786ZM61.935 196.606C63.7801 196.509 64.8098 194.912 64.681 192.455L64.6805 192.444C64.5517 189.988 63.361 188.512 61.5159 188.609C59.6654 188.706 58.6409 190.297 58.7696 192.754L58.7702 192.765C58.8989 195.221 60.0845 196.703 61.935 196.606ZM61.8825 195.603C60.7775 195.661 60.0796 194.557 59.9824 192.701L59.9818 192.691C59.8846 190.835 60.4638 189.675 61.5687 189.617C62.6683 189.559 63.371 190.652 63.4682 192.508L63.4688 192.519C63.5661 194.374 62.982 195.545 61.8825 195.603ZM66.3178 191.052C66.7094 191.031 67.0042 190.704 66.9834 190.307C66.9628 189.915 66.6354 189.62 66.2439 189.641C65.847 189.662 65.5522 189.989 65.5727 190.381C65.5935 190.778 65.9209 191.072 66.3178 191.052ZM66.5289 195.08C66.9205 195.059 67.2153 194.732 67.1947 194.34C67.1739 193.943 66.8468 193.654 66.4553 193.674C66.0584 193.695 65.7633 194.017 65.7841 194.414C65.8046 194.806 66.132 195.1 66.5289 195.08ZM71.1231 196.124C72.7644 196.038 73.8789 195.033 73.8094 193.708L73.8089 193.698C73.7521 192.614 72.9544 191.968 71.812 191.925L71.8106 191.899C72.7442 191.651 73.397 190.971 73.3467 190.011L73.3461 190C73.2837 188.809 72.2326 188.047 70.6932 188.128C69.1807 188.207 68.1955 189.114 68.1453 190.413L68.1427 190.466L69.2691 190.407L69.2719 190.359C69.3094 189.636 69.8865 189.154 70.7447 189.109C71.619 189.063 72.1459 189.471 72.185 190.217L72.1856 190.228C72.2232 190.946 71.6498 191.498 70.7647 191.545L69.8583 191.592L69.9072 192.525L70.8458 192.476C71.881 192.422 72.5395 192.877 72.5854 193.751L72.5859 193.762C72.6253 194.513 72.0145 195.072 71.0705 195.121C70.1104 195.172 69.4361 194.723 69.325 194.04L69.3166 193.982L68.1634 194.042L68.1724 194.111C68.3457 195.366 69.4711 196.211 71.1231 196.124ZM77.8868 195.77C79.7319 195.673 80.7615 194.076 80.6328 191.619L80.6322 191.608C80.5034 189.152 79.3128 187.676 77.4676 187.773C75.6171 187.87 74.5926 189.461 74.7214 191.918L74.7219 191.929C74.8507 194.385 76.0363 195.867 77.8868 195.77ZM77.8342 194.767C76.7293 194.825 76.0314 193.721 75.9341 191.865L75.9336 191.855C75.8363 189.999 76.4156 188.839 77.5205 188.781C78.62 188.723 79.3227 189.816 79.42 191.672L79.4206 191.683C79.5178 193.538 78.9338 194.709 77.8342 194.767Z" fill="#A8AAB5"/>
<path d="M55.1602 212.854L56.5801 212.78L56.4163 209.654L58.4004 209.551C60.1943 209.456 61.3727 208.168 61.279 206.38L61.2783 206.368C61.1843 204.574 59.8787 203.434 58.0848 203.529L54.6808 203.707L55.1602 212.854ZM57.7926 204.745C59.0287 204.68 59.7736 205.309 59.8334 206.45L59.834 206.462C59.8941 207.61 59.2191 208.313 57.983 208.377L56.3539 208.463L56.1635 204.831L57.7926 204.745ZM62.6782 212.46L64.0474 212.388L63.8391 208.414C63.7869 207.419 64.3019 206.813 65.183 206.767C65.4492 206.753 65.6917 206.772 65.8018 206.811L65.7351 205.537C65.6263 205.523 65.4535 205.501 65.257 205.511C64.4963 205.551 63.9641 206.068 63.7894 206.859L63.7577 206.861L63.6979 205.72L62.3287 205.791L62.6782 212.46ZM69.5185 212.235C71.4266 212.135 72.6126 210.751 72.5 208.602L72.4993 208.589C72.3873 206.453 71.0508 205.207 69.1491 205.307C67.2537 205.406 66.0614 206.791 66.173 208.921L66.1737 208.933C66.286 211.076 67.6042 212.335 69.5185 212.235ZM69.4648 211.087C68.3935 211.143 67.652 210.337 67.5746 208.86L67.5739 208.847C67.4975 207.389 68.157 206.509 69.2092 206.454C70.2805 206.398 71.022 207.205 71.0984 208.663L71.0991 208.675C71.1761 210.146 70.536 211.031 69.4648 211.087ZM74.059 204.147C74.5091 204.123 74.8391 203.75 74.8165 203.319C74.7936 202.882 74.4263 202.545 73.9763 202.569C73.5325 202.592 73.1962 202.965 73.2191 203.403C73.2417 203.834 73.6153 204.17 74.059 204.147ZM73.0832 214.152C74.5602 214.075 75.23 213.391 75.1589 212.035L74.7974 205.138L73.4282 205.21L73.789 212.094C73.8242 212.766 73.5819 212.995 72.9037 213.03C72.8339 213.034 72.7702 213.031 72.7068 213.034L72.7656 214.156C72.8547 214.158 72.9755 214.158 73.0832 214.152ZM79.4137 211.716C81.0301 211.632 82.0065 210.614 82.1665 209.544L82.1756 209.474L80.8761 209.542L80.8597 209.594C80.7148 210.104 80.1979 210.55 79.3865 210.593C78.2962 210.65 77.5668 209.951 77.4753 208.691L82.1978 208.443L82.1736 207.98C82.0686 205.977 80.8508 204.694 78.9808 204.792C77.1108 204.89 75.9795 206.347 76.0888 208.433L76.0891 208.439C76.1994 210.544 77.4549 211.819 79.4137 211.716ZM79.046 205.913C79.9398 205.866 80.6159 206.397 80.7905 207.544L77.4435 207.72C77.5055 206.598 78.1585 205.96 79.046 205.913ZM86.2914 211.356C87.8952 211.272 88.957 210.187 89.0327 208.841L89.0367 208.797L87.7182 208.866L87.7145 208.917C87.5876 209.648 87.0744 210.164 86.2313 210.209C85.1727 210.264 84.4242 209.445 84.3478 207.987L84.3475 207.981C84.2727 206.555 84.9172 205.631 85.9821 205.575C86.8759 205.528 87.4119 206.053 87.5919 206.699L87.6073 206.749L88.9131 206.68L88.9044 206.636C88.7246 205.387 87.6272 204.338 85.9093 204.428C84.0076 204.528 82.8353 205.931 82.9459 208.042L82.9462 208.048C83.0582 210.184 84.3454 211.458 86.2914 211.356ZM92.4719 211.032C92.7508 211.017 93.0091 210.972 93.1662 210.938L93.1107 209.88C93.01 209.898 92.8902 209.917 92.7444 209.924C92.1675 209.955 91.8526 209.768 91.8171 209.09L91.6211 205.35L92.8699 205.284L92.8127 204.194L91.564 204.259L91.4729 202.522L90.072 202.596L90.163 204.333L89.2059 204.383L89.263 205.473L90.2202 205.423L90.4205 209.245C90.4903 210.577 91.1534 211.101 92.4719 211.032ZM97.0987 210.656L98.506 210.582L98.1508 203.806L98.1889 203.804L103.254 210.334L104.56 210.265L104.08 201.118L102.673 201.192L103.028 207.955L102.989 207.957L97.9315 201.44L96.6193 201.509L97.0987 210.656ZM108.364 210.199C109.378 210.146 110.032 209.648 110.345 208.958L110.377 208.956L110.43 209.957L111.805 209.885L111.456 203.217L110.08 203.289L110.284 207.181C110.339 208.221 109.754 208.944 108.79 208.995C107.839 209.044 107.341 208.511 107.288 207.503L107.075 203.446L105.706 203.518L105.933 207.841C106.013 209.375 106.899 210.276 108.364 210.199ZM116.034 209.797C117.638 209.713 118.699 208.628 118.775 207.283L118.779 207.238L117.461 207.307L117.457 207.358C117.33 208.089 116.817 208.606 115.974 208.65C114.915 208.705 114.167 207.886 114.09 206.429L114.09 206.422C114.015 204.996 114.66 204.072 115.724 204.016C116.618 203.97 117.154 204.495 117.334 205.14L117.35 205.19L118.655 205.121L118.647 205.077C118.467 203.828 117.37 202.78 115.652 202.87C113.75 202.969 112.578 204.372 112.688 206.483L112.689 206.489C112.801 208.626 114.088 209.899 116.034 209.797ZM119.919 209.46L121.288 209.388L120.809 200.241L119.44 200.313L119.919 209.46ZM125.549 209.299C127.165 209.214 128.141 208.197 128.301 207.127L128.311 207.056L127.011 207.124L126.995 207.176C126.85 207.686 126.333 208.132 125.521 208.175C124.431 208.232 123.702 207.533 123.61 206.273L128.333 206.025L128.309 205.563C128.204 203.559 126.986 202.276 125.116 202.374C123.246 202.472 122.114 203.929 122.224 206.015L122.224 206.021C122.334 208.126 123.59 209.401 125.549 209.299ZM125.181 203.495C126.075 203.449 126.751 203.979 126.925 205.127L123.578 205.302C123.64 204.18 124.293 203.542 125.181 203.495ZM131.83 208.969C132.845 208.916 133.499 208.418 133.812 207.728L133.844 207.726L133.896 208.728L135.272 208.656L134.922 201.987L133.547 202.059L133.751 205.951C133.805 206.991 133.22 207.714 132.257 207.765C131.306 207.815 130.808 207.281 130.755 206.273L130.542 202.217L129.173 202.288L129.4 206.611C129.48 208.145 130.366 209.046 131.83 208.969ZM139.133 208.587C140.705 208.504 141.802 207.608 141.738 206.391L141.738 206.384C141.688 205.427 141.14 204.916 139.76 204.67L138.663 204.48C137.938 204.346 137.651 204.081 137.629 203.669L137.629 203.663C137.601 203.131 138.046 202.758 138.781 202.719C139.554 202.679 140.032 203.06 140.145 203.639L140.154 203.683L141.44 203.616L141.43 203.54C141.301 202.409 140.304 201.578 138.725 201.661C137.191 201.741 136.195 202.613 136.257 203.805L136.258 203.811C136.308 204.781 136.968 205.357 138.251 205.582L139.354 205.772C140.079 205.906 140.333 206.14 140.356 206.571L140.356 206.578C140.384 207.116 139.908 207.485 139.084 207.528C138.241 207.572 137.765 207.235 137.606 206.626L137.59 206.564L136.234 206.635L136.243 206.691C136.446 207.901 137.466 208.674 139.133 208.587Z" fill="white"/>
<path d="M44.6523 181.361L48.6469 181.152L51.159 229.086L47.1645 229.296L44.6523 181.361Z" fill="#82BDFF"/>
</g>
</g>
<g filter="url(#filter2_d_999_28946)">
<g clip-path="url(#clip1_999_28946)">
<rect x="39.3125" y="79.502" width="132" height="24" rx="2" transform="rotate(-3 39.3125 79.502)" fill="#4D4F54"/>
<path d="M49.0352 96.0161L52.7054 95.8238C54.6515 95.7218 55.773 94.6841 55.689 93.0804L55.6883 93.0677C55.6252 91.8633 54.7353 91.0137 53.4288 90.9487L53.4275 90.9233C54.3837 90.7334 55.0658 89.8014 55.0153 88.8378L55.0147 88.8252C54.9423 87.4433 53.8298 86.5926 52.207 86.6777L48.5558 86.869L49.0352 96.0161ZM51.9255 87.8556C52.9524 87.8018 53.5662 88.2337 53.6101 89.0704L53.6107 89.0831C53.6589 90.0022 53.0072 90.5449 51.7521 90.6107L50.18 90.6931L50.0365 87.9546L51.9255 87.8556ZM52.1011 91.692C53.4577 91.6209 54.1815 92.0915 54.233 93.074L54.2337 93.0867C54.2849 94.0629 53.6272 94.6123 52.353 94.679L50.3943 94.7817L50.2375 91.7897L52.1011 91.692ZM56.8828 95.6048L58.252 95.5331L58.0437 91.5586C57.9916 90.5633 58.5065 89.9579 59.3876 89.9118C59.6538 89.8978 59.8964 89.9169 60.0065 89.9556L59.9397 88.6815C59.8309 88.6681 59.6581 88.6454 59.4616 88.6557C58.7009 88.6955 58.1687 89.2129 57.994 90.0039L57.9623 90.0055L57.9025 88.8645L56.5333 88.9363L56.8828 95.6048ZM61.4809 87.6472C61.931 87.6237 62.261 87.2504 62.2384 86.8194C62.2155 86.382 61.8483 86.0453 61.3982 86.0688C60.9545 86.0921 60.6181 86.4657 60.641 86.9031C60.6636 87.3341 61.0372 87.6705 61.4809 87.6472ZM61.1996 95.3786L62.5688 95.3069L62.2194 88.6383L60.8501 88.71L61.1996 95.3786ZM63.9824 95.2328L65.3516 95.161L65.148 91.2752C65.0935 90.2356 65.6782 89.5058 66.6417 89.4553C67.5926 89.4055 68.0912 89.9451 68.1437 90.9466L68.3563 95.0035L69.7319 94.9315L69.5056 90.6146C69.4252 89.0806 68.5327 88.1803 67.0684 88.257C66.0605 88.3098 65.3998 88.8021 65.0867 89.4987L65.055 89.5003L65.0022 88.4924L63.6329 88.5642L63.9824 95.2328ZM74.1022 97.0606C75.9849 96.962 77.1108 95.8859 77.031 94.3646L76.6912 87.8798L75.3156 87.9519L75.3751 89.0866L75.3434 89.0883C74.9109 88.3545 74.149 87.8859 73.2108 87.9351C71.5183 88.0238 70.4714 89.3944 70.581 91.4863L70.5814 91.4926C70.6903 93.5718 71.8621 94.8262 73.5356 94.7385C74.4928 94.6883 75.2292 94.1857 75.5716 93.4431L75.6033 93.4415L75.6512 94.3543C75.7 95.2861 75.1284 95.9008 74.0381 95.958C73.1823 96.0028 72.5902 95.7415 72.3841 95.3264L72.3561 95.277L70.9995 95.3481L71.0089 95.4048C71.2652 96.4148 72.3907 97.1503 74.1022 97.0606ZM73.8638 93.6025C72.7798 93.6594 72.0564 92.8328 71.9833 91.4382L71.9829 91.4319C71.9109 90.0563 72.5433 89.146 73.6272 89.0892C74.6668 89.0347 75.4166 89.879 75.4884 91.2482L75.4887 91.2545C75.5608 92.6301 74.9097 93.5477 73.8638 93.6025ZM83.3686 94.3693C85.1625 94.2753 86.1656 93.1612 86.0713 91.361L85.7338 84.9206L84.3138 84.995L84.6507 91.4227C84.7055 92.4686 84.2276 93.053 83.2895 93.1022C82.4401 93.1467 81.9741 92.6245 81.8805 91.9302L81.8712 91.8735L80.4703 91.9469L80.4806 92.0226C80.6331 93.4766 81.6761 94.458 83.3686 94.3693ZM90.0298 94.0012C91.0441 93.948 91.6981 93.4497 92.0115 92.7595L92.0432 92.7579L92.0957 93.7594L93.4713 93.6873L93.1218 87.0187L91.7462 87.0908L91.9502 90.983C92.0047 92.0225 91.4197 92.746 90.4561 92.7965C89.5053 92.8464 89.007 92.3131 88.9542 91.3052L88.7416 87.2483L87.3723 87.3201L87.5989 91.6432C87.6793 93.1773 88.5655 94.0779 90.0298 94.0012ZM94.8278 93.6162L96.197 93.5445L95.9934 89.6587C95.9389 88.6191 96.5236 87.8893 97.4871 87.8388C98.4379 87.7889 98.9366 88.3285 98.9891 89.3301L99.2017 93.387L100.577 93.3149L100.351 88.9981C100.271 87.4641 99.378 86.5637 97.9137 86.6405C96.9058 86.6933 96.2451 87.1856 95.932 87.8821L95.9003 87.8838L95.8475 86.8759L94.4783 86.9477L94.8278 93.6162ZM103.867 93.2633C104.748 93.2171 105.498 92.7202 105.847 91.9836L105.872 91.9823L105.927 93.0345L107.303 92.9624L107.062 88.3667C106.992 87.0292 105.913 86.2212 104.284 86.3066C102.643 86.3927 101.694 87.3259 101.659 88.4783L101.656 88.5483L102.949 88.4806L102.959 88.4228C103.045 87.8844 103.513 87.4848 104.306 87.4433C105.155 87.3988 105.654 87.8176 105.692 88.5529L105.719 89.0537L103.911 89.2564C102.338 89.4342 101.475 90.1914 101.536 91.3514L101.537 91.3641C101.599 92.5622 102.536 93.333 103.867 93.2633ZM102.917 91.26L102.916 91.2473C102.887 90.6831 103.324 90.2979 104.145 90.204L105.769 90.0172L105.796 90.537C105.842 91.4054 105.147 92.0965 104.184 92.147C103.448 92.1856 102.947 91.8432 102.917 91.26ZM113.617 92.765C113.896 92.7504 114.154 92.7051 114.311 92.6714L114.256 91.6128C114.155 91.6308 114.035 91.6498 113.89 91.6574C113.313 91.6877 112.998 91.5008 112.962 90.8225L112.766 87.0825L114.015 87.0171L113.958 85.9268L112.709 85.9922L112.618 84.2553L111.217 84.3288L111.308 86.0656L110.351 86.1158L110.408 87.2061L111.365 87.1559L111.566 90.9783C111.635 92.3095 112.299 92.8341 113.617 92.765ZM118.149 92.5275C120.057 92.4275 121.243 91.0432 121.131 88.8943L121.13 88.8816C121.018 86.7454 119.682 85.4997 117.78 85.5993C115.885 85.6987 114.692 87.0833 114.804 89.2132L114.805 89.2258C114.917 91.3684 116.235 92.6278 118.149 92.5275ZM118.096 91.3798C117.024 91.4359 116.283 90.6294 116.206 89.1524L116.205 89.1397C116.128 87.6818 116.788 86.8018 117.84 86.7467C118.911 86.6905 119.653 87.4971 119.729 88.955L119.73 88.9677C119.807 90.4384 119.167 91.3237 118.096 91.3798ZM127.499 92.0375C128.457 91.9873 129.167 91.467 129.525 90.6664L129.551 90.6651L129.61 91.7934L130.985 91.7213L130.506 82.5742L129.13 82.6463L129.32 86.2595L129.294 86.2608C128.854 85.4957 128.068 85.0602 127.124 85.1097C125.45 85.1974 124.417 86.5863 124.528 88.7099L124.529 88.7162C124.64 90.8398 125.801 92.1265 127.499 92.0375ZM127.799 90.8395C126.715 90.8963 126.004 90.0627 125.929 88.6428L125.929 88.6365C125.855 87.2292 126.481 86.3192 127.559 86.2628C128.586 86.2089 129.368 87.0705 129.441 88.4524L129.441 88.4588C129.514 89.847 128.832 90.7853 127.799 90.8395ZM134.358 91.6653C135.239 91.6192 135.988 91.1222 136.337 90.3857L136.363 90.3843L136.418 91.4366L137.793 91.3645L137.552 86.7688C137.482 85.4312 136.404 84.6233 134.775 84.7087C133.133 84.7947 132.184 85.728 132.149 86.8803L132.146 86.9504L133.439 86.8826L133.449 86.8249C133.535 86.2864 134.004 85.8869 134.796 85.8453C135.646 85.8008 136.144 86.2196 136.183 86.955L136.209 87.4557L134.402 87.6585C132.828 87.8363 131.965 88.5935 132.026 89.7535L132.027 89.7662C132.09 90.9642 133.026 91.7351 134.358 91.6653ZM133.407 89.662L133.406 89.6494C133.377 89.0852 133.814 88.7 134.636 88.6061L136.26 88.4193L136.287 88.9391C136.332 89.8075 135.638 90.4986 134.674 90.5491C133.939 90.5876 133.438 90.2452 133.407 89.662ZM140.014 93.4792C141.32 93.4108 141.99 92.8417 142.412 91.4339L144.531 84.3245L143.085 84.4003L141.69 89.9144L141.646 89.9168L139.681 84.5787L138.198 84.6564L140.976 91.2041L140.878 91.527C140.684 92.1855 140.338 92.3753 139.691 92.4092C139.508 92.4188 139.348 92.4018 139.239 92.3821L139.295 93.4533C139.461 93.4764 139.748 93.4931 140.014 93.4792ZM148.298 90.9475C149.901 90.8634 150.963 89.7781 151.039 88.4329L151.043 88.3882L149.724 88.4573L149.721 88.5083C149.594 89.2396 149.08 89.756 148.237 89.8001C147.179 89.8556 146.43 89.0367 146.354 87.5788L146.354 87.5724C146.279 86.1462 146.923 85.2225 147.988 85.1667C148.882 85.1199 149.418 85.6448 149.598 86.29L149.613 86.3401L150.919 86.2716L150.911 86.2276C150.731 84.9785 149.633 83.93 147.915 84.02C146.014 84.1197 144.841 85.5223 144.952 87.6332L144.952 87.6395C145.064 89.7757 146.351 91.0495 148.298 90.9475ZM154.097 90.6308C154.978 90.5847 155.728 90.0877 156.077 89.3512L156.102 89.3498L156.157 90.4021L157.533 90.33L157.292 85.7343C157.222 84.3967 156.143 83.5888 154.514 83.6742C152.872 83.7602 151.923 84.6935 151.888 85.8458L151.886 85.9159L153.179 85.8481L153.189 85.7904C153.275 85.2519 153.743 84.8524 154.536 84.8108C155.385 84.7663 155.884 85.1851 155.922 85.9205L155.949 86.4212L154.141 86.624C152.568 86.8018 151.705 87.5589 151.766 88.719L151.766 88.7317C151.829 89.9297 152.766 90.7006 154.097 90.6308ZM153.147 88.6275L153.146 88.6149C153.116 88.0507 153.554 87.6655 154.375 87.5716L155.999 87.3848L156.026 87.9045C156.072 88.773 155.377 89.4641 154.414 89.5146C153.678 89.5531 153.177 89.2107 153.147 88.6275ZM158.864 90.2602L160.233 90.1885L160.025 86.214C159.973 85.2187 160.488 84.6133 161.369 84.5672C161.635 84.5532 161.878 84.5723 161.988 84.611L161.921 83.3369C161.812 83.3235 161.639 83.3008 161.443 83.3111C160.682 83.3509 160.15 83.8683 159.975 84.6593L159.943 84.6609L159.884 83.5199L158.514 83.5917L158.864 90.2602ZM165.685 90.0362C167.302 89.9515 168.278 88.9342 168.438 87.8643L168.447 87.7939L167.148 87.862L167.131 87.9137C166.986 88.4234 166.47 88.8701 165.658 88.9126C164.568 88.9697 163.838 88.2706 163.747 87.0105L168.469 86.763L168.445 86.3002C168.34 84.2971 167.122 83.0134 165.252 83.1114C163.382 83.2094 162.251 84.6671 162.36 86.7526L162.361 86.759C162.471 88.8635 163.727 90.1389 165.685 90.0362ZM165.318 84.2331C166.211 84.1862 166.888 84.7165 167.062 85.8642L163.715 86.0396C163.777 84.9177 164.43 84.2796 165.318 84.2331Z" fill="white"/>
<path d="M39.3125 79.502L43.307 79.2926L44.5631 103.26L40.5686 103.469L39.3125 79.502Z" fill="#FF4D74"/>
</g>
</g>
<g filter="url(#filter3_d_999_28946)">
<g clip-path="url(#clip2_999_28946)">
<rect x="40.6719" y="105.467" width="132" height="24" rx="2" transform="rotate(-3 40.6719 105.467)" fill="#4D4F54"/>
<path d="M52.2962 121.881L53.6591 121.81L55.2691 114.81L55.3008 114.808L57.6273 121.602L58.9902 121.53L60.983 112.254L59.506 112.331L58.1766 119.59L58.1449 119.592L55.8357 112.524L54.4919 112.594L52.9342 119.865L52.9089 119.866L50.828 112.786L49.351 112.863L52.2962 121.881ZM64.5564 121.372C66.1728 121.288 67.1493 120.27 67.3093 119.2L67.3183 119.13L66.0188 119.198L66.0025 119.25C65.8576 119.759 65.3407 120.206 64.5293 120.249C63.439 120.306 62.7095 119.607 62.6181 118.347L67.3406 118.099L67.3163 117.636C67.2113 115.633 65.9936 114.349 64.1236 114.447C62.2536 114.545 61.1223 116.003 61.2316 118.089L61.2319 118.095C61.3422 120.2 62.5977 121.475 64.5564 121.372ZM64.1887 115.569C65.0825 115.522 65.7586 116.053 65.9332 117.2L62.5862 117.376C62.6482 116.254 63.3013 115.616 64.1887 115.569ZM71.4152 121.013C73.0316 120.928 74.008 119.911 74.1681 118.841L74.1771 118.77L72.8776 118.839L72.8612 118.89C72.7163 119.4 72.1994 119.847 71.3881 119.889C70.2978 119.946 69.5683 119.247 69.4768 117.987L74.1993 117.74L74.1751 117.277C74.0701 115.274 72.8523 113.99 70.9823 114.088C69.1123 114.186 67.981 115.644 68.0903 117.729L68.0906 117.736C68.2009 119.84 69.4564 121.115 71.4152 121.013ZM71.0475 115.21C71.9413 115.163 72.6174 115.693 72.792 116.841L69.445 117.016C69.507 115.894 70.16 115.256 71.0475 115.21ZM75.4968 120.665L76.866 120.594L76.7401 118.191L77.2811 117.597L79.6995 120.445L81.2906 120.362L78.2458 116.72L80.8334 113.699L79.2233 113.783L76.6974 116.77L76.6657 116.771L76.3866 111.447L75.0174 111.518L75.4968 120.665ZM82.0259 120.323L83.3952 120.251L82.9158 111.104L81.5466 111.176L82.0259 120.323ZM85.705 122.362C87.0109 122.293 87.6802 121.724 88.1023 120.316L90.2214 113.207L88.7761 113.283L87.3806 118.797L87.3363 118.799L85.3721 113.461L83.8887 113.539L86.6664 120.086L86.5689 120.409C86.3746 121.068 86.0286 121.258 85.382 121.292C85.1982 121.301 85.0384 121.284 84.9293 121.264L84.9854 122.336C85.1519 122.359 85.4388 122.375 85.705 122.362ZM96.5111 119.698C98.0832 119.615 99.1803 118.719 99.1165 117.502L99.1162 117.495C99.066 116.538 98.518 116.026 97.1385 115.781L96.0416 115.591C95.3163 115.457 95.0291 115.192 95.0075 114.78L95.0072 114.774C94.9793 114.241 95.4238 113.869 96.1591 113.83C96.9324 113.79 97.4101 114.171 97.5231 114.75L97.5317 114.794L98.8186 114.727L98.8082 114.651C98.679 113.52 97.682 112.689 96.1036 112.771C94.5696 112.852 93.5729 113.724 93.6353 114.916L93.6356 114.922C93.6865 115.892 94.3459 116.468 95.629 116.693L96.7322 116.883C97.4575 117.016 97.7114 117.251 97.7339 117.682L97.7343 117.688C97.7625 118.227 97.286 118.595 96.462 118.639C95.6189 118.683 95.1435 118.345 94.9845 117.737L94.9685 117.674L93.612 117.746L93.6213 117.802C93.8246 119.012 94.8439 119.785 96.5111 119.698ZM101.172 121.551C102.478 121.482 103.147 120.913 103.569 119.506L105.688 112.396L104.243 112.472L102.848 117.986L102.803 117.988L100.839 112.65L99.3558 112.728L102.133 119.276L102.036 119.599C101.842 120.257 101.496 120.447 100.849 120.481C100.665 120.491 100.505 120.473 100.396 120.454L100.452 121.525C100.619 121.548 100.906 121.565 101.172 121.551ZM106.837 119.023L108.206 118.951L108.002 115.065C107.948 114.026 108.532 113.296 109.496 113.246C110.447 113.196 110.945 113.735 110.998 114.737L111.21 118.794L112.586 118.722L112.36 114.405C112.279 112.871 111.387 111.97 109.923 112.047C108.915 112.1 108.254 112.592 107.941 113.289L107.909 113.291L107.856 112.283L106.487 112.354L106.837 119.023ZM116.783 118.635C118.387 118.551 119.449 117.466 119.524 116.121L119.528 116.076L118.21 116.145L118.206 116.196C118.079 116.927 117.566 117.444 116.723 117.488C115.664 117.543 114.916 116.724 114.839 115.266L114.839 115.26C114.764 113.834 115.409 112.91 116.474 112.854C117.368 112.808 117.904 113.332 118.084 113.978L118.099 114.028L119.405 113.959L119.396 113.915C119.216 112.666 118.119 111.618 116.401 111.708C114.499 111.807 113.327 113.21 113.438 115.321L113.438 115.327C113.55 117.463 114.837 118.737 116.783 118.635Z" fill="white"/>
<path d="M40.6719 105.467L44.6664 105.257L45.9225 129.225L41.9279 129.434L40.6719 105.467Z" fill="#82BDFF"/>
</g>
</g>
<g filter="url(#filter4_d_999_28946)">
<g clip-path="url(#clip3_999_28946)">
<rect x="42.0352" y="131.432" width="132" height="48" rx="2" transform="rotate(-3 42.0352 131.432)" fill="#4D4F54"/>
<path d="M54.2974 146.939C56.1425 146.843 57.1721 145.245 57.0434 142.788L57.0428 142.778C56.9141 140.321 55.7234 138.845 53.8783 138.942C52.0278 139.039 51.0032 140.631 51.132 143.087L51.1325 143.098C51.2613 145.555 52.4469 147.036 54.2974 146.939ZM54.2448 145.936C53.1399 145.994 52.442 144.891 52.3447 143.035L52.3442 143.024C52.2469 141.168 52.8262 140.008 53.9311 139.95C55.0307 139.893 55.7333 140.985 55.8306 142.841L55.8312 142.852C55.9284 144.708 55.3444 145.879 54.2448 145.936ZM60.7116 138.584C59.0757 138.67 57.9378 139.843 58.0187 141.387L58.0193 141.398C58.096 142.862 59.2253 143.884 60.7057 143.807C61.757 143.752 62.5114 143.163 62.7806 142.45L62.8074 142.449C62.8111 142.518 62.8147 142.588 62.813 142.658C62.8451 144.195 62.3706 145.505 61.0404 145.575C60.3002 145.614 59.7769 145.275 59.5266 144.707L59.5023 144.655L58.3009 144.718L58.3203 144.781C58.6275 145.922 59.704 146.656 61.0825 146.584C63.0188 146.482 64.0922 144.899 63.957 142.319L63.9564 142.308C63.8105 139.524 62.294 138.501 60.7116 138.584ZM60.9281 142.816C59.9894 142.865 59.2626 142.236 59.2137 141.303L59.2132 141.292C59.1659 140.391 59.8634 139.639 60.7752 139.592C61.6978 139.543 62.4545 140.23 62.5025 141.147L62.5028 141.152C62.5509 142.07 61.8721 142.767 60.9281 142.816ZM65.5994 141.022C65.9909 141.002 66.2857 140.674 66.2649 140.277C66.2444 139.886 65.917 139.591 65.5255 139.612C65.1285 139.632 64.8337 139.96 64.8543 140.351C64.8751 140.748 65.2025 141.043 65.5994 141.022ZM65.8105 145.05C66.202 145.03 66.4968 144.703 66.4763 144.311C66.4555 143.914 66.1284 143.625 65.7368 143.645C65.3399 143.666 65.0449 143.988 65.0657 144.385C65.0862 144.776 65.4136 145.071 65.8105 145.05ZM70.4047 146.095C72.046 146.009 73.1604 145.004 73.091 143.679L73.0904 143.669C73.0336 142.585 72.236 141.938 71.0936 141.896L71.0922 141.869C72.0258 141.621 72.6786 140.942 72.6283 139.982L72.6277 139.971C72.5653 138.78 71.5142 138.018 69.9748 138.098C68.4622 138.178 67.4771 139.084 67.4268 140.383L67.4243 140.437L68.5507 140.378L68.5535 140.33C68.5909 139.607 69.1681 139.125 70.0263 139.08C70.9005 139.034 71.4275 139.442 71.4666 140.188L71.4671 140.198C71.5048 140.917 70.9313 141.469 70.0463 141.515L69.1399 141.563L69.1888 142.496L70.1274 142.447C71.1626 142.393 71.8211 142.848 71.8669 143.722L71.8675 143.733C71.9069 144.484 71.2961 145.043 70.3521 145.092C69.392 145.142 68.7177 144.694 68.6066 144.011L68.5982 143.952L67.4449 144.013L67.454 144.082C67.6273 145.337 68.7526 146.182 70.4047 146.095ZM77.1683 145.741C79.0135 145.644 80.0431 144.046 79.9143 141.59L79.9138 141.579C79.785 139.123 78.5943 137.647 76.7492 137.743C74.8987 137.84 73.8742 139.432 74.0029 141.889L74.0035 141.9C74.1322 144.356 75.3178 145.838 77.1683 145.741ZM77.1158 144.738C76.0108 144.796 75.313 143.692 75.2157 141.836L75.2151 141.825C75.1179 139.969 75.6971 138.81 76.8021 138.752C77.9016 138.694 78.6043 139.787 78.7016 141.643L78.7021 141.653C78.7994 143.509 78.2153 144.68 77.1158 144.738Z" fill="#A8AAB5"/>
<path d="M56.4874 162.87C58.966 162.74 60.3529 161.187 60.223 158.708L60.1738 157.77L56.3704 157.969L56.4312 159.129L58.8337 159.003L58.8417 159.155C58.8954 160.545 57.9177 161.537 56.4343 161.614C54.6911 161.706 53.5311 160.432 53.4165 158.245L53.4161 158.238C53.3038 156.096 54.2957 154.766 56.0452 154.675C57.2369 154.612 58.0996 155.183 58.5417 156.222L58.5644 156.291L60.0224 156.214L59.991 156.101C59.5243 154.473 58.1157 153.307 55.9731 153.42C53.3741 153.556 51.82 155.436 51.9712 158.321L51.9715 158.327C52.1257 161.268 53.8695 163.007 56.4874 162.87ZM64.5179 162.43C66.4259 162.33 67.6119 160.946 67.4993 158.797L67.4987 158.784C67.3867 156.648 66.0501 155.402 64.1485 155.502C62.2531 155.601 61.0608 156.986 61.1724 159.116L61.173 159.129C61.2853 161.271 62.6035 162.531 64.5179 162.43ZM64.4641 161.283C63.3928 161.339 62.6514 160.532 62.574 159.055L62.5733 159.042C62.4969 157.585 63.1563 156.705 64.2086 156.649C65.2799 156.593 66.0213 157.4 66.0978 158.858L66.0984 158.87C66.1755 160.341 65.5354 161.226 64.4641 161.283ZM71.3697 161.938L72.7389 161.866L72.5306 157.891C72.4784 156.896 72.9934 156.291 73.8745 156.245C74.1407 156.231 74.3833 156.25 74.4933 156.288L74.4266 155.014C74.3178 155.001 74.145 154.978 73.9485 154.988C73.1878 155.028 72.6556 155.546 72.4809 156.337L72.4492 156.338L72.3894 155.197L71.0202 155.269L71.3697 161.938ZM77.9058 161.729C78.92 161.675 79.574 161.177 79.8875 160.487L79.9192 160.485L79.9716 161.487L81.3472 161.415L80.9977 154.746L79.6222 154.818L79.8261 158.71C79.8806 159.75 79.2956 160.473 78.3321 160.524C77.3813 160.574 76.8829 160.041 76.8301 159.033L76.6175 154.976L75.2483 155.047L75.4748 159.371C75.5552 160.905 76.4415 161.805 77.9058 161.729ZM82.7037 161.344L84.073 161.272L83.8693 157.386C83.8148 156.347 84.3995 155.617 85.363 155.566C86.3139 155.516 86.8125 156.056 86.865 157.058L87.0776 161.114L88.4532 161.042L88.2269 156.726C88.1465 155.191 87.254 154.291 85.7897 154.368C84.7818 154.421 84.1211 154.913 83.808 155.61L83.7763 155.611L83.7235 154.603L82.3543 154.675L82.7037 161.344ZM89.778 160.973L91.1472 160.901L90.9436 157.015C90.8891 155.976 91.4738 155.246 92.4373 155.195C93.3881 155.146 93.8868 155.685 93.9393 156.687L94.1519 160.744L95.5274 160.672L95.3012 156.355C95.2208 154.821 94.3282 153.92 92.8639 153.997C91.856 154.05 91.1954 154.542 90.8823 155.239L90.8506 155.24L90.7977 154.233L89.4285 154.304L89.778 160.973ZM97.1906 152.868C97.6407 152.844 97.9708 152.471 97.9482 152.04C97.9252 151.603 97.558 151.266 97.1079 151.289C96.6642 151.313 96.3278 151.686 96.3507 152.124C96.3733 152.555 96.7469 152.891 97.1906 152.868ZM96.9093 160.599L98.2786 160.527L97.9291 153.859L96.5599 153.931L96.9093 160.599ZM99.6921 160.453L101.061 160.382L100.858 156.496C100.803 155.456 101.388 154.726 102.351 154.676C103.302 154.626 103.801 155.166 103.853 156.167L104.066 160.224L105.442 160.152L105.215 155.835C105.135 154.301 104.242 153.401 102.778 153.478C101.77 153.53 101.109 154.023 100.796 154.719L100.765 154.721L100.712 153.713L99.3427 153.785L99.6921 160.453ZM109.812 162.281C111.695 162.183 112.82 161.107 112.741 159.585L112.401 153.1L111.025 153.172L111.085 154.307L111.053 154.309C110.621 153.575 109.859 153.107 108.921 153.156C107.228 153.244 106.181 154.615 106.291 156.707L106.291 156.713C106.4 158.792 107.572 160.047 109.245 159.959C110.202 159.909 110.939 159.406 111.281 158.664L111.313 158.662L111.361 159.575C111.41 160.507 110.838 161.121 109.748 161.179C108.892 161.223 108.3 160.962 108.094 160.547L108.066 160.498L106.709 160.569L106.719 160.625C106.975 161.635 108.1 162.371 109.812 162.281ZM109.573 158.823C108.49 158.88 107.766 158.053 107.693 156.659L107.693 156.652C107.621 155.277 108.253 154.367 109.337 154.31C110.377 154.255 111.126 155.1 111.198 156.469L111.198 156.475C111.271 157.851 110.619 158.768 109.573 158.823Z" fill="white"/>
<path d="M42.0352 131.432L46.0297 131.222L48.5418 179.157L44.5473 179.366L42.0352 131.432Z" fill="#FFC642"/>
</g>
</g>
<g filter="url(#filter5_dd_999_28946)">
<rect x="125.793" y="60.4961" width="148" height="167.129" rx="10" transform="rotate(6 125.793 60.4961)" fill="#343539"/>
</g>
<g filter="url(#filter6_d_999_28946)">
<g clip-path="url(#clip4_999_28946)">
<rect x="122.254" y="170.73" width="132" height="48" rx="2" transform="rotate(6 122.254 170.73)" fill="#4D4F54"/>
<path d="M131.085 187.746L132.255 187.869L133.065 180.161L131.884 180.037L129.703 181.266L129.584 182.398L131.744 181.221L131.77 181.224L131.085 187.746ZM136.936 188.491C138.774 188.684 140.041 187.267 140.298 184.821L140.299 184.81C140.556 182.364 139.611 180.72 137.773 180.526C135.931 180.333 134.67 181.745 134.413 184.191L134.411 184.202C134.154 186.648 135.094 188.297 136.936 188.491ZM137.041 187.492C135.941 187.376 135.424 186.177 135.619 184.329L135.62 184.318C135.814 182.47 136.568 181.415 137.668 181.531C138.763 181.646 139.286 182.835 139.092 184.683L139.091 184.694C138.896 186.542 138.136 187.607 137.041 187.492ZM142.134 183.691C142.524 183.731 142.866 183.454 142.908 183.059C142.949 182.669 142.672 182.327 142.282 182.286C141.887 182.244 141.544 182.521 141.503 182.911C141.462 183.307 141.739 183.649 142.134 183.691ZM141.712 187.702C142.102 187.743 142.445 187.466 142.486 187.076C142.527 186.681 142.25 186.344 141.86 186.303C141.464 186.261 141.122 186.533 141.081 186.928C141.04 187.318 141.317 187.661 141.712 187.702ZM146.087 189.453C147.721 189.624 148.979 188.806 149.118 187.487L149.119 187.476C149.232 186.397 148.546 185.634 147.424 185.413L147.427 185.386C148.388 185.288 149.139 184.718 149.239 183.762L149.24 183.752C149.365 182.566 148.446 181.648 146.913 181.487C145.407 181.329 144.292 182.07 144.039 183.345L144.028 183.398L145.15 183.516L145.16 183.468C145.31 182.761 145.956 182.375 146.81 182.465C147.681 182.556 148.138 183.042 148.06 183.784L148.059 183.795C147.983 184.511 147.331 184.966 146.449 184.873L145.546 184.778L145.449 185.708L146.384 185.806C147.414 185.914 147.994 186.467 147.902 187.337L147.901 187.348C147.822 188.096 147.132 188.553 146.192 188.454C145.236 188.353 144.64 187.805 144.637 187.113L144.638 187.054L143.489 186.933L143.487 187.003C143.462 188.269 144.441 189.28 146.087 189.453ZM152.823 190.161C154.66 190.354 155.927 188.937 156.184 186.49L156.185 186.48C156.442 184.033 155.497 182.389 153.66 182.196C151.817 182.002 150.556 183.415 150.299 185.861L150.298 185.872C150.04 188.318 150.98 189.967 152.823 190.161ZM152.928 189.162C151.827 189.046 151.31 187.847 151.505 185.999L151.506 185.988C151.7 184.14 152.454 183.085 153.554 183.2C154.649 183.315 155.172 184.505 154.978 186.353L154.977 186.363C154.783 188.212 154.023 189.277 152.928 189.162Z" fill="#A8AAB5"/>
<path d="M127.703 203.48L129.117 203.629L129.445 200.516L131.421 200.724C133.207 200.912 134.572 199.823 134.76 198.043L134.761 198.031C134.949 196.244 133.837 194.915 132.051 194.727L128.661 194.37L127.703 203.48ZM131.572 195.883C132.803 196.012 133.44 196.749 133.321 197.886L133.32 197.898C133.199 199.041 132.423 199.629 131.192 199.5L129.569 199.329L129.95 195.712L131.572 195.883ZM135.19 204.267L136.554 204.41L136.97 200.452C137.074 199.461 137.678 198.943 138.555 199.036C138.82 199.064 139.057 199.12 139.159 199.176L139.293 197.907C139.187 197.877 139.02 197.827 138.825 197.807C138.067 197.727 137.46 198.155 137.164 198.909L137.133 198.905L137.252 197.769L135.888 197.626L135.19 204.267ZM141.982 205.115C143.882 205.314 145.27 204.133 145.495 201.993L145.496 201.98C145.72 199.853 144.595 198.413 142.701 198.214C140.813 198.016 139.419 199.197 139.196 201.318L139.195 201.33C138.97 203.464 140.075 204.914 141.982 205.115ZM142.108 203.973C141.041 203.861 140.435 202.948 140.59 201.477L140.591 201.464C140.744 200.012 141.533 199.247 142.581 199.357C143.648 199.469 144.254 200.381 144.101 201.833L144.1 201.846C143.946 203.311 143.175 204.085 142.108 203.973ZM147.732 197.836C148.18 197.884 148.564 197.567 148.609 197.137C148.655 196.702 148.345 196.312 147.897 196.265C147.455 196.218 147.064 196.534 147.018 196.97C146.973 197.399 147.29 197.79 147.732 197.836ZM145.203 207.566C146.674 207.72 147.442 207.15 147.584 205.799L148.306 198.931L146.942 198.788L146.222 205.643C146.151 206.312 145.876 206.501 145.201 206.43C145.131 206.422 145.069 206.409 145.006 206.403L144.888 207.52C144.976 207.536 145.095 207.555 145.203 207.566ZM151.836 206.15C153.446 206.32 154.57 205.468 154.895 204.436L154.915 204.368L153.621 204.232L153.597 204.28C153.374 204.761 152.793 205.121 151.985 205.036C150.899 204.922 150.288 204.118 150.395 202.859L155.098 203.353L155.147 202.892C155.356 200.897 154.354 199.439 152.492 199.243C150.63 199.047 149.284 200.31 149.066 202.387L149.065 202.393C148.845 204.489 149.886 205.945 151.836 206.15ZM152.381 200.361C153.271 200.455 153.856 201.084 153.849 202.245L150.516 201.895C150.752 200.796 151.497 200.268 152.381 200.361ZM158.686 206.87C160.283 207.038 161.501 206.132 161.787 204.816L161.798 204.772L160.485 204.634L160.473 204.684C160.233 205.386 159.645 205.816 158.806 205.728C157.752 205.617 157.14 204.691 157.293 203.239L157.294 203.233C157.443 201.812 158.224 201.001 159.285 201.112C160.175 201.206 160.622 201.808 160.699 202.474L160.706 202.525L162.007 202.662L162.005 202.617C162.023 201.355 161.103 200.148 159.392 199.968C157.498 199.769 156.121 200.971 155.9 203.073L155.899 203.08C155.676 205.207 156.748 206.667 158.686 206.87ZM164.841 207.517C165.119 207.546 165.381 207.542 165.541 207.533L165.652 206.479C165.55 206.481 165.428 206.481 165.283 206.466C164.709 206.406 164.427 206.172 164.498 205.496L164.889 201.772L166.133 201.902L166.247 200.817L165.004 200.686L165.185 198.956L163.79 198.809L163.608 200.539L162.655 200.439L162.541 201.525L163.494 201.625L163.094 205.432C162.955 206.757 163.528 207.379 164.841 207.517ZM169.469 207.87L170.871 208.017L171.58 201.269L171.618 201.273L175.599 208.514L176.9 208.651L177.857 199.541L176.456 199.394L175.748 206.13L175.71 206.126L171.734 198.898L170.427 198.76L169.469 207.87ZM180.667 209.181C181.677 209.287 182.401 208.897 182.819 208.264L182.85 208.268L182.745 209.265L184.115 209.409L184.813 202.768L183.443 202.624L183.036 206.5C182.927 207.535 182.236 208.158 181.277 208.058C180.33 207.958 179.921 207.353 180.026 206.35L180.451 202.309L179.088 202.166L178.635 206.471C178.474 207.999 179.209 209.027 180.667 209.181ZM188.306 209.984C189.903 210.151 191.121 209.245 191.407 207.929L191.418 207.885L190.105 207.747L190.093 207.797C189.853 208.499 189.265 208.929 188.426 208.841C187.372 208.73 186.76 207.804 186.913 206.352L186.914 206.346C187.063 204.926 187.844 204.114 188.905 204.226C189.795 204.319 190.242 204.921 190.319 205.587L190.326 205.639L191.627 205.775L191.625 205.731C191.643 204.469 190.723 203.261 189.012 203.082C187.118 202.882 185.741 204.084 185.52 206.187L185.519 206.193C185.296 208.32 186.368 209.78 188.306 209.984ZM192.196 210.258L193.559 210.402L194.517 201.292L193.153 201.149L192.196 210.258ZM197.781 210.979C199.391 211.149 200.515 210.297 200.84 209.265L200.86 209.197L199.566 209.061L199.542 209.109C199.319 209.59 198.738 209.95 197.93 209.865C196.845 209.751 196.233 208.947 196.34 207.688L201.043 208.182L201.092 207.721C201.301 205.726 200.299 204.268 198.437 204.072C196.575 203.876 195.229 205.139 195.011 207.216L195.011 207.222C194.79 209.318 195.831 210.774 197.781 210.979ZM198.326 205.19C199.216 205.284 199.801 205.913 199.794 207.074L196.461 206.724C196.697 205.625 197.442 205.097 198.326 205.19ZM204.037 211.637C205.048 211.743 205.771 211.353 206.189 210.721L206.221 210.724L206.116 211.721L207.486 211.865L208.184 205.224L206.814 205.08L206.406 208.956C206.298 209.992 205.607 210.615 204.647 210.514C203.7 210.414 203.291 209.81 203.397 208.806L203.821 204.766L202.458 204.622L202.005 208.928C201.845 210.456 202.579 211.484 204.037 211.637ZM211.31 212.401C212.876 212.566 214.099 211.852 214.227 210.64L214.227 210.634C214.328 209.68 213.866 209.089 212.542 208.631L211.489 208.271C210.793 208.026 210.551 207.72 210.594 207.309L210.595 207.303C210.651 206.773 211.148 206.474 211.88 206.551C212.65 206.632 213.062 207.084 213.083 207.673L213.085 207.718L214.367 207.853L214.368 207.776C214.418 206.639 213.563 205.662 211.991 205.497C210.463 205.336 209.342 206.042 209.218 207.229L209.217 207.235C209.115 208.201 209.677 208.872 210.909 209.296L211.969 209.656C212.664 209.901 212.878 210.173 212.833 210.602L212.832 210.608C212.776 211.145 212.248 211.434 211.427 211.348C210.587 211.26 210.171 210.852 210.109 210.226L210.103 210.162L208.752 210.02L208.752 210.077C208.764 211.304 209.65 212.227 211.31 212.401Z" fill="white"/>
<path d="M122.254 170.73L126.232 171.149L121.215 218.886L117.237 218.468L122.254 170.73Z" fill="#82BDFF"/>
</g>
</g>
<g filter="url(#filter7_d_999_28946)">
<g clip-path="url(#clip5_999_28946)">
<rect x="132.914" y="69.2891" width="132" height="24" rx="2" transform="rotate(6 132.914 69.2891)" fill="#4D4F54"/>
<path d="M139.934 87.1205L143.589 87.5047C145.527 87.7084 146.797 86.859 146.965 85.2618L146.966 85.2492C147.092 84.0497 146.346 83.0714 145.066 82.8028L145.069 82.7775C146.043 82.7395 146.862 81.9257 146.963 80.9661L146.965 80.9535C147.109 79.5773 146.144 78.5631 144.528 78.3932L140.891 78.0111L139.934 87.1205ZM144.065 79.5127C145.088 79.6202 145.627 80.1427 145.539 80.976L145.538 80.9886C145.441 81.904 144.713 82.338 143.463 82.2067L141.897 82.0421L142.184 79.3149L144.065 79.5127ZM143.639 83.3293C144.989 83.4713 145.631 84.0493 145.528 85.0278L145.527 85.0404C145.424 86.0126 144.689 86.4523 143.42 86.3189L141.469 86.1139L141.783 83.1342L143.639 83.3293ZM149.995 88.3121C151.005 88.4182 151.729 88.0284 152.147 87.3957L152.178 87.399L152.074 88.3965L153.443 88.5405L154.141 81.8993L152.772 81.7553L152.364 85.6314C152.255 86.6667 151.564 87.2898 150.605 87.189C149.658 87.0894 149.249 86.4848 149.355 85.4811L149.779 81.4408L148.416 81.2975L147.963 85.6029C147.803 87.1306 148.537 88.1588 149.995 88.3121ZM157.268 89.0764C158.833 89.241 160.057 88.5271 160.185 87.3151L160.185 87.3087C160.285 86.3555 159.824 85.7645 158.5 85.3062L157.447 84.9465C156.751 84.7011 156.509 84.3948 156.552 83.9845L156.553 83.9782C156.608 83.4479 157.106 83.1491 157.838 83.2261C158.608 83.307 159.02 83.7588 159.041 84.3482L159.043 84.3931L160.324 84.5278L160.326 84.4514C160.375 83.3141 159.521 82.337 157.949 82.1718C156.421 82.0112 155.3 82.7168 155.175 83.9036L155.175 83.9099C155.073 84.8758 155.634 85.5475 156.867 85.9706L157.926 86.3309C158.622 86.5764 158.836 86.8478 158.791 87.2771L158.79 87.2834C158.734 87.82 158.206 88.1091 157.385 88.0229C156.545 87.9346 156.129 87.527 156.067 86.9014L156.061 86.8369L154.71 86.6949L154.71 86.7524C154.722 87.9791 155.607 88.9019 157.268 89.0764ZM161.581 91.6361C162.882 91.7728 163.632 91.3155 164.269 89.991L167.474 83.3006L166.035 83.1494L163.794 88.3774L163.75 88.3727L162.645 82.7931L161.168 82.6378L162.887 89.5394L162.74 89.8431C162.445 90.4631 162.074 90.5964 161.43 90.5287C161.247 90.5095 161.092 90.4676 160.987 90.4311L160.875 91.498C161.036 91.5468 161.316 91.6082 161.581 91.6361Z" fill="white"/>
<path d="M132.914 69.2891L136.892 69.7072L134.383 93.5757L130.405 93.1576L132.914 69.2891Z" fill="#82BDFF"/>
</g>
</g>
<g filter="url(#filter8_d_999_28946)">
<g clip-path="url(#clip6_999_28946)">
<rect x="130.195" y="95.1465" width="132" height="24" rx="2" transform="rotate(6 130.195 95.1465)" fill="#4D4F54"/>
<path d="M139.109 113.177L140.466 113.32L143.151 106.658L143.183 106.661L144.418 113.735L145.775 113.878L149.195 105.027L147.724 104.872L145.275 111.834L145.244 111.83L144.069 104.488L142.73 104.348L140.055 111.285L140.029 111.282L139.082 103.964L137.611 103.809L139.109 113.177ZM151.298 114.592C152.908 114.761 154.031 113.909 154.357 112.878L154.377 112.809L153.082 112.673L153.058 112.722C152.835 113.203 152.255 113.563 151.447 113.478C150.361 113.364 149.75 112.559 149.857 111.3L154.56 111.795L154.608 111.334C154.818 109.339 153.816 107.881 151.954 107.685C150.091 107.489 148.746 108.752 148.528 110.829L148.527 110.835C148.307 112.931 149.347 114.387 151.298 114.592ZM151.842 108.803C152.733 108.896 153.317 109.526 153.31 110.687L149.977 110.337C150.214 109.238 150.959 108.71 151.842 108.803ZM158.128 115.31C159.738 115.479 160.862 114.627 161.187 113.596L161.207 113.527L159.913 113.391L159.889 113.44C159.666 113.921 159.085 114.281 158.277 114.196C157.192 114.082 156.58 113.277 156.687 112.018L161.39 112.513L161.439 112.052C161.648 110.057 160.646 108.599 158.784 108.403C156.922 108.207 155.576 109.47 155.358 111.547L155.357 111.553C155.137 113.649 156.178 115.105 158.128 115.31ZM158.673 109.521C159.563 109.614 160.148 110.244 160.141 111.405L156.808 111.054C157.044 109.956 157.789 109.428 158.673 109.521ZM162.214 115.605L163.578 115.749L163.829 113.356L164.456 112.854L166.4 116.045L167.984 116.212L165.546 112.139L168.575 109.559L166.971 109.391L164.009 111.945L163.978 111.942L164.535 106.639L163.172 106.496L162.214 115.605ZM168.716 116.289L170.08 116.432L171.037 107.323L169.674 107.179L168.716 116.289ZM172.031 118.878C173.332 119.014 174.082 118.557 174.719 117.233L177.924 110.542L176.485 110.391L174.244 115.619L174.2 115.614L173.095 110.035L171.618 109.879L173.337 116.781L173.19 117.085C172.895 117.705 172.524 117.838 171.88 117.77C171.697 117.751 171.541 117.709 171.437 117.673L171.325 118.739C171.485 118.788 171.766 118.85 172.031 118.878ZM183.121 117.937C184.687 118.101 185.911 117.388 186.038 116.176L186.039 116.169C186.139 115.216 185.678 114.625 184.353 114.167L183.3 113.807C182.604 113.562 182.362 113.255 182.405 112.845L182.406 112.839C182.462 112.308 182.959 112.01 183.691 112.087C184.461 112.167 184.874 112.619 184.895 113.209L184.896 113.254L186.178 113.388L186.179 113.312C186.229 112.175 185.374 111.198 183.802 111.032C182.274 110.872 181.153 111.577 181.029 112.764L181.028 112.77C180.927 113.736 181.488 114.408 182.72 114.831L183.78 115.191C184.475 115.437 184.689 115.708 184.644 116.138L184.644 116.144C184.587 116.68 184.059 116.97 183.238 116.883C182.399 116.795 181.982 116.387 181.92 115.762L181.914 115.697L180.563 115.555L180.563 115.613C180.575 116.84 181.461 117.762 183.121 117.937ZM187.435 120.497C188.735 120.633 189.485 120.176 190.122 118.852L193.328 112.161L191.888 112.01L189.647 117.238L189.603 117.233L188.498 111.654L187.021 111.498L188.74 118.4L188.593 118.704C188.298 119.324 187.927 119.457 187.283 119.389C187.1 119.37 186.945 119.328 186.84 119.292L186.728 120.358C186.889 120.407 187.17 120.469 187.435 120.497ZM193.425 118.886L194.789 119.029L195.195 115.159C195.304 114.124 195.996 113.495 196.955 113.596C197.902 113.695 198.31 114.306 198.206 115.303L197.781 119.344L199.151 119.488L199.603 115.189C199.763 113.661 199.022 112.632 197.564 112.479C196.56 112.373 195.831 112.756 195.413 113.395L195.381 113.392L195.487 112.388L194.123 112.245L193.425 118.886ZM203.31 120.059C204.907 120.227 206.125 119.321 206.411 118.004L206.422 117.96L205.108 117.822L205.097 117.872C204.857 118.575 204.269 119.004 203.43 118.916C202.376 118.805 201.764 117.879 201.917 116.428L201.918 116.421C202.067 115.001 202.848 114.189 203.909 114.301C204.799 114.394 205.246 114.997 205.323 115.662L205.33 115.714L206.631 115.851L206.629 115.806C206.647 114.544 205.727 113.337 204.016 113.157C202.122 112.958 200.745 114.16 200.524 116.262L200.523 116.268C200.3 118.396 201.372 119.855 203.31 120.059Z" fill="white"/>
<path d="M130.195 95.1465L134.173 95.5646L131.665 119.433L127.687 119.015L130.195 95.1465Z" fill="#82BDFF"/>
</g>
</g>
<g filter="url(#filter9_d_999_28946)">
<g clip-path="url(#clip7_999_28946)">
<rect x="127.48" y="121.004" width="132" height="48" rx="2" transform="rotate(6 127.48 121.004)" fill="#4D4F54"/>
<path d="M137.163 138.239C139.001 138.432 140.268 137.015 140.525 134.569L140.526 134.558C140.783 132.111 139.838 130.468 138 130.274C136.157 130.081 134.896 131.493 134.639 133.939L134.638 133.95C134.381 136.396 135.32 138.045 137.163 138.239ZM137.268 137.24C136.168 137.124 135.651 135.925 135.845 134.077L135.847 134.066C136.041 132.218 136.794 131.163 137.895 131.279C138.99 131.394 139.513 132.583 139.319 134.431L139.317 134.442C139.123 136.29 138.363 137.355 137.268 137.24ZM144.806 130.99C143.176 130.818 141.869 131.799 141.707 133.337L141.706 133.348C141.553 134.806 142.508 135.992 143.983 136.147C145.03 136.257 145.867 135.794 146.244 135.132L146.271 135.135C146.264 135.204 146.256 135.274 146.244 135.343C146.035 136.865 145.361 138.085 144.037 137.946C143.299 137.868 142.836 137.452 142.677 136.853L142.661 136.797L141.465 136.671L141.474 136.737C141.599 137.911 142.548 138.805 143.92 138.949C145.849 139.152 147.157 137.755 147.427 135.186L147.428 135.175C147.719 132.403 146.381 131.155 144.806 130.99ZM144.357 135.204C143.422 135.105 142.803 134.371 142.901 133.441L142.902 133.43C142.996 132.533 143.803 131.9 144.711 131.995C145.629 132.092 146.269 132.888 146.173 133.801L146.173 133.807C146.077 134.72 145.297 135.302 144.357 135.204ZM149.252 134.163C149.642 134.204 149.984 133.926 150.026 133.531C150.066 133.141 149.789 132.799 149.399 132.758C149.004 132.716 148.662 132.994 148.621 133.383C148.579 133.779 148.856 134.121 149.252 134.163ZM148.83 138.174C149.22 138.215 149.562 137.938 149.603 137.548C149.645 137.153 149.367 136.816 148.977 136.775C148.582 136.733 148.24 137.005 148.198 137.4C148.157 137.79 148.435 138.133 148.83 138.174ZM153.204 139.925C154.839 140.097 156.097 139.278 156.235 137.959L156.236 137.948C156.35 136.869 155.663 136.106 154.541 135.885L154.544 135.859C155.505 135.76 156.256 135.191 156.357 134.234L156.358 134.224C156.483 133.038 155.564 132.12 154.031 131.959C152.524 131.801 151.409 132.542 151.157 133.817L151.146 133.87L152.267 133.988L152.278 133.941C152.428 133.233 153.073 132.847 153.928 132.937C154.799 133.028 155.255 133.514 155.177 134.256L155.176 134.267C155.101 134.983 154.448 135.438 153.567 135.345L152.664 135.25L152.566 136.18L153.501 136.278C154.532 136.386 155.111 136.939 155.02 137.81L155.019 137.82C154.94 138.568 154.249 139.025 153.309 138.926C152.353 138.825 151.757 138.277 151.754 137.585L151.755 137.526L150.607 137.405L150.605 137.475C150.58 138.742 151.559 139.752 153.204 139.925ZM159.94 140.633C161.778 140.826 163.044 139.409 163.302 136.963L163.303 136.952C163.56 134.505 162.615 132.861 160.777 132.668C158.934 132.475 157.673 133.887 157.416 136.333L157.415 136.344C157.158 138.79 158.097 140.439 159.94 140.633ZM160.045 139.634C158.945 139.518 158.428 138.319 158.622 136.471L158.623 136.46C158.818 134.612 159.571 133.557 160.672 133.673C161.767 133.788 162.29 134.977 162.095 136.825L162.094 136.836C161.9 138.684 161.14 139.749 160.045 139.634Z" fill="#A8AAB5"/>
<path d="M132.93 153.753L136.585 154.138C138.523 154.341 139.793 153.492 139.961 151.895L139.962 151.882C140.089 150.683 139.342 149.704 138.062 149.436L138.065 149.41C139.039 149.372 139.859 148.559 139.959 147.599L139.961 147.586C140.105 146.21 139.14 145.196 137.524 145.026L133.887 144.644L132.93 153.753ZM137.061 146.145C138.084 146.253 138.623 146.776 138.535 147.609L138.534 147.621C138.438 148.537 137.709 148.971 136.459 148.839L134.893 148.675L135.18 145.948L137.061 146.145ZM136.635 149.962C137.986 150.104 138.627 150.682 138.524 151.661L138.523 151.673C138.421 152.645 137.685 153.085 136.416 152.952L134.465 152.747L134.779 149.767L136.635 149.962ZM142.991 154.945C144.001 155.051 144.725 154.661 145.143 154.029L145.174 154.032L145.07 155.029L146.44 155.173L147.138 148.532L145.768 148.388L145.36 152.264C145.251 153.3 144.56 153.923 143.601 153.822C142.654 153.722 142.245 153.118 142.351 152.114L142.775 148.074L141.412 147.93L140.959 152.236C140.799 153.763 141.533 154.792 142.991 154.945ZM150.264 155.709C151.829 155.874 153.053 155.16 153.181 153.948L153.181 153.942C153.282 152.988 152.82 152.397 151.496 151.939L150.443 151.579C149.747 151.334 149.505 151.028 149.548 150.617L149.549 150.611C149.604 150.081 150.102 149.782 150.834 149.859C151.604 149.94 152.016 150.392 152.037 150.981L152.039 151.026L153.32 151.161L153.322 151.084C153.371 149.947 152.517 148.97 150.945 148.805C149.417 148.644 148.296 149.35 148.171 150.536L148.171 150.543C148.069 151.509 148.631 152.18 149.863 152.603L150.923 152.964C151.618 153.209 151.832 153.481 151.787 153.91L151.786 153.916C151.73 154.453 151.202 154.742 150.381 154.656C149.541 154.567 149.125 154.16 149.063 153.534L149.057 153.47L147.706 153.328L147.706 153.385C147.718 154.612 148.604 155.535 150.264 155.709ZM154.578 158.269C155.878 158.406 156.628 157.948 157.265 156.624L160.47 149.933L159.031 149.782L156.79 155.01L156.746 155.006L155.641 149.426L154.164 149.271L155.883 156.172L155.736 156.476C155.441 157.096 155.07 157.229 154.426 157.162C154.243 157.142 154.088 157.1 153.983 157.064L153.871 158.131C154.032 158.18 154.312 158.241 154.578 158.269Z" fill="white"/>
<path d="M127.48 121.004L131.459 121.422L126.441 169.159L122.463 168.741L127.48 121.004Z" fill="#82BDFF"/>
</g>
</g>
<defs>
<filter id="filter0_dd_999_28946" x="0.414062" y="53.6953" width="217.527" height="235.627" filterUnits="userSpaceOnUse" color-interpolation-filters="sRGB">
<feFlood flood-opacity="0" result="BackgroundImageFix"/>
<feColorMatrix in="SourceAlpha" type="matrix" values="0 0 0 0 0 0 0 0 0 0 0 0 0 0 0 0 0 0 127 0" result="hardAlpha"/>
<feOffset dy="2"/>
<feGaussianBlur stdDeviation="4"/>
<feColorMatrix type="matrix" values="0 0 0 0 0 0 0 0 0 0 0 0 0 0 0 0 0 0 0.2 0"/>
<feBlend mode="normal" in2="BackgroundImageFix" result="effect1_dropShadow_999_28946"/>
<feColorMatrix in="SourceAlpha" type="matrix" values="0 0 0 0 0 0 0 0 0 0 0 0 0 0 0 0 0 0 127 0" result="hardAlpha"/>
<feMorphology radius="1" operator="dilate" in="SourceAlpha" result="effect2_dropShadow_999_28946"/>
<feOffset dy="20"/>
<feGaussianBlur stdDeviation="15"/>
<feColorMatrix type="matrix" values="0 0 0 0 0 0 0 0 0 0 0 0 0 0 0 0 0 0 0.1 0"/>
<feBlend mode="normal" in2="effect1_dropShadow_999_28946" result="effect2_dropShadow_999_28946"/>
<feBlend mode="normal" in="SourceGraphic" in2="effect2_dropShadow_999_28946" result="shape"/>
</filter>
<filter id="filter1_d_999_28946" x="43.1523" y="173.453" width="137.332" height="57.8418" filterUnits="userSpaceOnUse" color-interpolation-filters="sRGB">
<feFlood flood-opacity="0" result="BackgroundImageFix"/>
<feColorMatrix in="SourceAlpha" type="matrix" values="0 0 0 0 0 0 0 0 0 0 0 0 0 0 0 0 0 0 127 0" result="hardAlpha"/>
<feMorphology radius="0.5" operator="dilate" in="SourceAlpha" result="effect1_dropShadow_999_28946"/>
<feOffset dy="0.5"/>
<feGaussianBlur stdDeviation="0.5"/>
<feColorMatrix type="matrix" values="0 0 0 0 0 0 0 0 0 0 0 0 0 0 0 0 0 0 0.1 0"/>
<feBlend mode="normal" in2="BackgroundImageFix" result="effect1_dropShadow_999_28946"/>
<feBlend mode="normal" in="SourceGraphic" in2="effect1_dropShadow_999_28946" result="shape"/>
</filter>
<filter id="filter2_d_999_28946" x="37.8125" y="71.5938" width="136.074" height="33.875" filterUnits="userSpaceOnUse" color-interpolation-filters="sRGB">
<feFlood flood-opacity="0" result="BackgroundImageFix"/>
<feColorMatrix in="SourceAlpha" type="matrix" values="0 0 0 0 0 0 0 0 0 0 0 0 0 0 0 0 0 0 127 0" result="hardAlpha"/>
<feMorphology radius="0.5" operator="dilate" in="SourceAlpha" result="effect1_dropShadow_999_28946"/>
<feOffset dy="0.5"/>
<feGaussianBlur stdDeviation="0.5"/>
<feColorMatrix type="matrix" values="0 0 0 0 0 0 0 0 0 0 0 0 0 0 0 0 0 0 0.1 0"/>
<feBlend mode="normal" in2="BackgroundImageFix" result="effect1_dropShadow_999_28946"/>
<feBlend mode="normal" in="SourceGraphic" in2="effect1_dropShadow_999_28946" result="shape"/>
</filter>
<filter id="filter3_d_999_28946" x="39.1719" y="97.5586" width="136.074" height="33.875" filterUnits="userSpaceOnUse" color-interpolation-filters="sRGB">
<feFlood flood-opacity="0" result="BackgroundImageFix"/>
<feColorMatrix in="SourceAlpha" type="matrix" values="0 0 0 0 0 0 0 0 0 0 0 0 0 0 0 0 0 0 127 0" result="hardAlpha"/>
<feMorphology radius="0.5" operator="dilate" in="SourceAlpha" result="effect1_dropShadow_999_28946"/>
<feOffset dy="0.5"/>
<feGaussianBlur stdDeviation="0.5"/>
<feColorMatrix type="matrix" values="0 0 0 0 0 0 0 0 0 0 0 0 0 0 0 0 0 0 0.1 0"/>
<feBlend mode="normal" in2="BackgroundImageFix" result="effect1_dropShadow_999_28946"/>
<feBlend mode="normal" in="SourceGraphic" in2="effect1_dropShadow_999_28946" result="shape"/>
</filter>
<filter id="filter4_d_999_28946" x="40.5352" y="123.523" width="137.332" height="57.8418" filterUnits="userSpaceOnUse" color-interpolation-filters="sRGB">
<feFlood flood-opacity="0" result="BackgroundImageFix"/>
<feColorMatrix in="SourceAlpha" type="matrix" values="0 0 0 0 0 0 0 0 0 0 0 0 0 0 0 0 0 0 127 0" result="hardAlpha"/>
<feMorphology radius="0.5" operator="dilate" in="SourceAlpha" result="effect1_dropShadow_999_28946"/>
<feOffset dy="0.5"/>
<feGaussianBlur stdDeviation="0.5"/>
<feColorMatrix type="matrix" values="0 0 0 0 0 0 0 0 0 0 0 0 0 0 0 0 0 0 0.1 0"/>
<feBlend mode="normal" in2="BackgroundImageFix" result="effect1_dropShadow_999_28946"/>
<feBlend mode="normal" in="SourceGraphic" in2="effect1_dropShadow_999_28946" result="shape"/>
</filter>
<filter id="filter5_dd_999_28946" x="78.3125" y="50.4863" width="224.68" height="241.703" filterUnits="userSpaceOnUse" color-interpolation-filters="sRGB">
<feFlood flood-opacity="0" result="BackgroundImageFix"/>
<feColorMatrix in="SourceAlpha" type="matrix" values="0 0 0 0 0 0 0 0 0 0 0 0 0 0 0 0 0 0 127 0" result="hardAlpha"/>
<feOffset dy="2"/>
<feGaussianBlur stdDeviation="4"/>
<feColorMatrix type="matrix" values="0 0 0 0 0 0 0 0 0 0 0 0 0 0 0 0 0 0 0.2 0"/>
<feBlend mode="normal" in2="BackgroundImageFix" result="effect1_dropShadow_999_28946"/>
<feColorMatrix in="SourceAlpha" type="matrix" values="0 0 0 0 0 0 0 0 0 0 0 0 0 0 0 0 0 0 127 0" result="hardAlpha"/>
<feMorphology radius="1" operator="dilate" in="SourceAlpha" result="effect2_dropShadow_999_28946"/>
<feOffset dy="20"/>
<feGaussianBlur stdDeviation="15"/>
<feColorMatrix type="matrix" values="0 0 0 0 0 0 0 0 0 0 0 0 0 0 0 0 0 0 0.1 0"/>
<feBlend mode="normal" in2="effect1_dropShadow_999_28946" result="effect2_dropShadow_999_28946"/>
<feBlend mode="normal" in="SourceGraphic" in2="effect2_dropShadow_999_28946" result="shape"/>
</filter>
<filter id="filter6_d_999_28946" x="115.738" y="169.73" width="139.293" height="64.5352" filterUnits="userSpaceOnUse" color-interpolation-filters="sRGB">
<feFlood flood-opacity="0" result="BackgroundImageFix"/>
<feColorMatrix in="SourceAlpha" type="matrix" values="0 0 0 0 0 0 0 0 0 0 0 0 0 0 0 0 0 0 127 0" result="hardAlpha"/>
<feMorphology radius="0.5" operator="dilate" in="SourceAlpha" result="effect1_dropShadow_999_28946"/>
<feOffset dy="0.5"/>
<feGaussianBlur stdDeviation="0.5"/>
<feColorMatrix type="matrix" values="0 0 0 0 0 0 0 0 0 0 0 0 0 0 0 0 0 0 0.1 0"/>
<feBlend mode="normal" in2="BackgroundImageFix" result="effect1_dropShadow_999_28946"/>
<feBlend mode="normal" in="SourceGraphic" in2="effect1_dropShadow_999_28946" result="shape"/>
</filter>
<filter id="filter7_d_999_28946" x="128.906" y="68.2891" width="136.785" height="40.666" filterUnits="userSpaceOnUse" color-interpolation-filters="sRGB">
<feFlood flood-opacity="0" result="BackgroundImageFix"/>
<feColorMatrix in="SourceAlpha" type="matrix" values="0 0 0 0 0 0 0 0 0 0 0 0 0 0 0 0 0 0 127 0" result="hardAlpha"/>
<feMorphology radius="0.5" operator="dilate" in="SourceAlpha" result="effect1_dropShadow_999_28946"/>
<feOffset dy="0.5"/>
<feGaussianBlur stdDeviation="0.5"/>
<feColorMatrix type="matrix" values="0 0 0 0 0 0 0 0 0 0 0 0 0 0 0 0 0 0 0.1 0"/>
<feBlend mode="normal" in2="BackgroundImageFix" result="effect1_dropShadow_999_28946"/>
<feBlend mode="normal" in="SourceGraphic" in2="effect1_dropShadow_999_28946" result="shape"/>
</filter>
<filter id="filter8_d_999_28946" x="126.188" y="94.1465" width="136.785" height="40.666" filterUnits="userSpaceOnUse" color-interpolation-filters="sRGB">
<feFlood flood-opacity="0" result="BackgroundImageFix"/>
<feColorMatrix in="SourceAlpha" type="matrix" values="0 0 0 0 0 0 0 0 0 0 0 0 0 0 0 0 0 0 127 0" result="hardAlpha"/>
<feMorphology radius="0.5" operator="dilate" in="SourceAlpha" result="effect1_dropShadow_999_28946"/>
<feOffset dy="0.5"/>
<feGaussianBlur stdDeviation="0.5"/>
<feColorMatrix type="matrix" values="0 0 0 0 0 0 0 0 0 0 0 0 0 0 0 0 0 0 0.1 0"/>
<feBlend mode="normal" in2="BackgroundImageFix" result="effect1_dropShadow_999_28946"/>
<feBlend mode="normal" in="SourceGraphic" in2="effect1_dropShadow_999_28946" result="shape"/>
</filter>
<filter id="filter9_d_999_28946" x="120.965" y="120.004" width="139.293" height="64.5352" filterUnits="userSpaceOnUse" color-interpolation-filters="sRGB">
<feFlood flood-opacity="0" result="BackgroundImageFix"/>
<feColorMatrix in="SourceAlpha" type="matrix" values="0 0 0 0 0 0 0 0 0 0 0 0 0 0 0 0 0 0 127 0" result="hardAlpha"/>
<feMorphology radius="0.5" operator="dilate" in="SourceAlpha" result="effect1_dropShadow_999_28946"/>
<feOffset dy="0.5"/>
<feGaussianBlur stdDeviation="0.5"/>
<feColorMatrix type="matrix" values="0 0 0 0 0 0 0 0 0 0 0 0 0 0 0 0 0 0 0.1 0"/>
<feBlend mode="normal" in2="BackgroundImageFix" result="effect1_dropShadow_999_28946"/>
<feBlend mode="normal" in="SourceGraphic" in2="effect1_dropShadow_999_28946" result="shape"/>
</filter>
<clipPath id="clip0_999_28946">
<rect x="44.6523" y="181.361" width="132" height="48" rx="4" transform="rotate(-3 44.6523 181.361)" fill="white"/>
</clipPath>
<clipPath id="clip1_999_28946">
<rect x="39.3125" y="79.502" width="132" height="24" rx="4" transform="rotate(-3 39.3125 79.502)" fill="white"/>
</clipPath>
<clipPath id="clip2_999_28946">
<rect x="40.6719" y="105.467" width="132" height="24" rx="4" transform="rotate(-3 40.6719 105.467)" fill="white"/>
</clipPath>
<clipPath id="clip3_999_28946">
<rect x="42.0352" y="131.432" width="132" height="48" rx="4" transform="rotate(-3 42.0352 131.432)" fill="white"/>
</clipPath>
<clipPath id="clip4_999_28946">
<rect x="122.254" y="170.73" width="132" height="48" rx="4" transform="rotate(6 122.254 170.73)" fill="white"/>
</clipPath>
<clipPath id="clip5_999_28946">
<rect x="132.914" y="69.2891" width="132" height="24" rx="4" transform="rotate(6 132.914 69.2891)" fill="white"/>
</clipPath>
<clipPath id="clip6_999_28946">
<rect x="130.195" y="95.1465" width="132" height="24" rx="4" transform="rotate(6 130.195 95.1465)" fill="white"/>
</clipPath>
<clipPath id="clip7_999_28946">
<rect x="127.48" y="121.004" width="132" height="48" rx="4" transform="rotate(6 127.48 121.004)" fill="white"/>
</clipPath>
</defs>
</svg>
