<svg width="570" height="312" viewBox="0 0 570 312" fill="none" xmlns="http://www.w3.org/2000/svg">
<g filter="url(#filter0_dd_893_24030)">
<rect x="65" y="45" width="440" height="311" rx="8" fill="white"/>
<rect x="81" y="65" width="1" height="22" rx="0.5" fill="#017AFF"/>
<path d="M86.4385 82.5H88.0205V71.2412H92.0195V69.8174H82.4395V71.2412H86.4385V82.5ZM92.2217 85.5762C93.874 85.5762 94.6738 84.8203 95.3242 83.0713L98.8926 73.3594H97.2842L94.7529 80.9707H94.7178L92.1953 73.3594H90.5605L93.9531 82.5088L93.7686 83.0273C93.3994 84.0645 92.8633 84.3105 91.8965 84.3105C91.7119 84.3105 91.5361 84.2842 91.4043 84.2578V85.5059C91.5977 85.541 91.9229 85.5762 92.2217 85.5762ZM100.097 85.5762H101.626V80.9707H101.661C102.232 82.0254 103.296 82.6758 104.588 82.6758C106.882 82.6758 108.446 80.8213 108.446 77.9385V77.9297C108.446 75.0469 106.899 73.1836 104.562 73.1836C103.252 73.1836 102.232 73.8428 101.661 74.9062H101.626V73.3594H100.097V85.5762ZM104.263 81.3223C102.725 81.3223 101.617 79.9775 101.617 77.9385V77.9297C101.617 75.8818 102.716 74.5371 104.263 74.5371C105.88 74.5371 106.882 75.8291 106.882 77.9297V77.9385C106.882 80.0215 105.88 81.3223 104.263 81.3223ZM113.755 82.6758C115.75 82.6758 117.244 81.4805 117.543 79.9688L117.561 79.8809H116.058L116.031 79.96C115.768 80.7422 114.95 81.3223 113.79 81.3223C112.164 81.3223 111.127 80.2236 111.092 78.3428H117.675V77.7803C117.675 75.0381 116.154 73.1836 113.658 73.1836C111.162 73.1836 109.545 75.126 109.545 77.9561V77.9648C109.545 80.8389 111.127 82.6758 113.755 82.6758ZM113.649 74.5371C114.985 74.5371 115.97 75.3721 116.119 77.1475H111.118C111.285 75.4424 112.322 74.5371 113.649 74.5371ZM123.792 85.5762C125.444 85.5762 126.244 84.8203 126.895 83.0713L130.463 73.3594H128.854L126.323 80.9707H126.288L123.766 73.3594H122.131L125.523 82.5088L125.339 83.0273C124.97 84.0645 124.434 84.3105 123.467 84.3105C123.282 84.3105 123.106 84.2842 122.975 84.2578V85.5059C123.168 85.541 123.493 85.5762 123.792 85.5762ZM135.104 82.6758C137.626 82.6758 139.331 80.8477 139.331 77.9297V77.9121C139.331 74.9941 137.617 73.1836 135.095 73.1836C132.572 73.1836 130.867 75.0029 130.867 77.9121V77.9297C130.867 80.8389 132.563 82.6758 135.104 82.6758ZM135.112 81.3223C133.495 81.3223 132.432 80.083 132.432 77.9297V77.9121C132.432 75.7764 133.504 74.5371 135.095 74.5371C136.712 74.5371 137.767 75.7676 137.767 77.9121V77.9297C137.767 80.0742 136.721 81.3223 135.112 81.3223ZM143.998 82.6758C145.387 82.6758 146.318 82.0518 146.811 81.1992H146.846V82.5H148.375V73.3594H146.846V78.7383C146.846 80.2939 145.905 81.3223 144.464 81.3223C143.058 81.3223 142.363 80.5049 142.363 79.0195V73.3594H140.834V79.292C140.834 81.375 141.994 82.6758 143.998 82.6758ZM150.37 82.5H151.899V76.8574C151.899 75.4688 152.673 74.6426 153.859 74.6426C154.229 74.6426 154.554 74.6865 154.677 74.7305V73.2451C154.554 73.2275 154.325 73.1836 154.062 73.1836C153.033 73.1836 152.242 73.8516 151.935 74.9062H151.899V73.3594H150.37V82.5ZM163.404 82.6758C165.47 82.6758 166.973 81.3311 167.219 79.5908L167.228 79.5293H165.725L165.707 79.5996C165.452 80.6191 164.652 81.3223 163.404 81.3223C161.822 81.3223 160.732 80.0654 160.732 77.9385V77.9297C160.732 75.8555 161.796 74.5371 163.387 74.5371C164.731 74.5371 165.47 75.3457 165.698 76.2598L165.716 76.3301H167.21L167.201 76.2598C167.008 74.6953 165.663 73.1836 163.387 73.1836C160.847 73.1836 159.168 75.0293 159.168 77.9121V77.9209C159.168 80.8301 160.812 82.6758 163.404 82.6758ZM172.422 82.6758C174.944 82.6758 176.649 80.8477 176.649 77.9297V77.9121C176.649 74.9941 174.936 73.1836 172.413 73.1836C169.891 73.1836 168.186 75.0029 168.186 77.9121V77.9297C168.186 80.8389 169.882 82.6758 172.422 82.6758ZM172.431 81.3223C170.813 81.3223 169.75 80.083 169.75 77.9297V77.9121C169.75 75.7764 170.822 74.5371 172.413 74.5371C174.03 74.5371 175.085 75.7676 175.085 77.9121V77.9297C175.085 80.0742 174.039 81.3223 172.431 81.3223ZM178.196 82.5H179.726V76.7695C179.726 75.4951 180.604 74.5371 181.817 74.5371C182.951 74.5371 183.689 75.2666 183.689 76.374V82.5H185.219V76.6904C185.219 75.4424 186.071 74.5371 187.284 74.5371C188.488 74.5371 189.183 75.2842 189.183 76.541V82.5H190.712V76.1895C190.712 74.3701 189.543 73.1836 187.732 73.1836C186.449 73.1836 185.377 73.8428 184.867 74.9414H184.832C184.437 73.8252 183.514 73.1836 182.266 73.1836C181.088 73.1836 180.174 73.79 179.761 74.6953H179.726V73.3594H178.196V82.5ZM192.663 82.5H194.192V76.7695C194.192 75.4951 195.071 74.5371 196.284 74.5371C197.418 74.5371 198.156 75.2666 198.156 76.374V82.5H199.686V76.6904C199.686 75.4424 200.538 74.5371 201.751 74.5371C202.955 74.5371 203.649 75.2842 203.649 76.541V82.5H205.179V76.1895C205.179 74.3701 204.01 73.1836 202.199 73.1836C200.916 73.1836 199.844 73.8428 199.334 74.9414H199.299C198.903 73.8252 197.98 73.1836 196.732 73.1836C195.555 73.1836 194.641 73.79 194.228 74.6953H194.192V73.3594H192.663V82.5ZM209.802 82.6758C211.023 82.6758 212.122 82.0166 212.658 81.0146H212.693V82.5H214.223V76.1807C214.223 74.3525 212.869 73.1836 210.707 73.1836C208.554 73.1836 207.244 74.3965 207.112 75.8994L207.104 75.9961H208.58L208.598 75.917C208.773 75.0996 209.512 74.5371 210.689 74.5371C211.964 74.5371 212.693 75.2139 212.693 76.3301V77.0947L210.074 77.2441C207.974 77.3672 206.761 78.3428 206.761 79.8984V79.916C206.761 81.5771 207.982 82.6758 209.802 82.6758ZM208.325 79.916V79.8984C208.325 79.0459 209.028 78.501 210.25 78.4307L212.693 78.2812V79.0283C212.693 80.3555 211.586 81.3486 210.145 81.3486C209.046 81.3486 208.325 80.7949 208.325 79.916ZM216.165 82.5H217.694V77.1211C217.694 75.5654 218.635 74.5371 220.076 74.5371C221.482 74.5371 222.177 75.3545 222.177 76.8398V82.5H223.706V76.5674C223.706 74.4844 222.546 73.1836 220.542 73.1836C219.153 73.1836 218.222 73.8076 217.729 74.6602H217.694V73.3594H216.165V82.5ZM229.094 82.6758C230.403 82.6758 231.423 82.0166 231.994 80.9531H232.029V82.5H233.559V69.8174H232.029V74.8887H231.994C231.423 73.834 230.359 73.1836 229.067 73.1836C226.773 73.1836 225.209 75.0381 225.209 77.9209V77.9297C225.209 80.8125 226.756 82.6758 229.094 82.6758ZM229.393 81.3223C227.775 81.3223 226.773 80.0303 226.773 77.9297V77.9209C226.773 75.8379 227.775 74.5371 229.393 74.5371C230.931 74.5371 232.038 75.8818 232.038 77.9209V77.9297C232.038 79.9775 230.939 81.3223 229.393 81.3223Z" fill="#848793"/>
<rect x="65" y="107" width="440" height="1" fill="#F1F2F6"/>
<rect x="78.75" y="125.75" width="12.5" height="12.5" rx="3.25" stroke="#A8AAB5" stroke-width="1.5"/>
<path d="M85 129V135" stroke="#A8AAB5" stroke-width="1.5" stroke-linecap="round" stroke-linejoin="round"/>
<path d="M82 132H88" stroke="#A8AAB5" stroke-width="1.5" stroke-linecap="round" stroke-linejoin="round"/>
<path d="M104.967 137.152C107.138 137.152 108.458 136.092 108.458 134.423V134.417C108.458 133.001 107.646 132.233 105.754 131.833L104.751 131.624C103.609 131.376 103.088 130.957 103.088 130.271V130.265C103.088 129.465 103.812 128.926 104.948 128.919C106.034 128.919 106.77 129.434 106.897 130.284L106.903 130.373H108.287L108.281 130.265C108.186 128.729 106.878 127.688 104.967 127.688C103.031 127.688 101.654 128.761 101.647 130.322V130.329C101.647 131.687 102.517 132.512 104.313 132.893L105.31 133.103C106.522 133.369 107.024 133.769 107.024 134.505V134.512C107.024 135.369 106.25 135.921 105.024 135.921C103.799 135.921 102.955 135.394 102.828 134.55L102.815 134.467H101.432L101.438 134.562C101.552 136.175 102.911 137.152 104.967 137.152ZM112.445 137.133C114.051 137.133 115.168 136.105 115.314 134.766L115.32 134.721H114L113.994 134.772C113.829 135.496 113.289 135.984 112.445 135.984C111.385 135.984 110.68 135.127 110.68 133.667V133.661C110.68 132.233 111.372 131.344 112.438 131.344C113.333 131.344 113.841 131.896 113.987 132.55L114 132.601H115.308L115.301 132.557C115.187 131.3 114.146 130.195 112.426 130.195C110.521 130.195 109.277 131.535 109.277 133.648V133.655C109.277 135.794 110.496 137.133 112.445 137.133ZM116.342 137H117.713V133.134C117.713 132.093 118.342 131.37 119.288 131.37C120.252 131.37 120.811 132.03 120.811 133.134V137H122.182V132.874C122.182 131.262 121.243 130.195 119.814 130.195C118.818 130.195 118.101 130.646 117.745 131.42H117.713V127.84H116.342V137ZM126.365 137.133C127.984 137.133 129.012 136.168 129.228 135.108L129.241 135.039H127.939L127.92 135.089C127.749 135.591 127.209 136.01 126.397 136.01C125.305 136.01 124.613 135.273 124.588 134.01H129.317V133.547C129.317 131.541 128.168 130.195 126.295 130.195C124.423 130.195 123.217 131.592 123.217 133.68V133.687C123.217 135.794 124.404 137.133 126.365 137.133ZM126.302 131.319C127.197 131.319 127.844 131.884 127.958 133.039H124.607C124.728 131.922 125.413 131.319 126.302 131.319ZM132.878 137.133C133.836 137.133 134.573 136.651 134.973 135.87H134.998V137H136.375V127.84H134.998V131.458H134.973C134.573 130.671 133.811 130.195 132.865 130.195C131.189 130.195 130.085 131.528 130.085 133.655V133.661C130.085 135.788 131.177 137.133 132.878 137.133ZM133.24 135.953C132.154 135.953 131.488 135.083 131.488 133.661V133.655C131.488 132.246 132.161 131.37 133.24 131.37C134.268 131.37 135.004 132.271 135.004 133.655V133.661C135.004 135.051 134.274 135.953 133.24 135.953ZM140.057 137.133C141.073 137.133 141.752 136.67 142.101 135.997H142.133V137H143.51V130.322H142.133V134.22C142.133 135.261 141.511 135.953 140.546 135.953C139.594 135.953 139.124 135.394 139.124 134.385V130.322H137.753V134.651C137.753 136.188 138.591 137.133 140.057 137.133ZM144.919 137H146.291V127.84H144.919V137ZM150.55 137.133C152.168 137.133 153.197 136.168 153.413 135.108L153.425 135.039H152.124L152.105 135.089C151.934 135.591 151.394 136.01 150.582 136.01C149.49 136.01 148.798 135.273 148.772 134.01H153.501V133.547C153.501 131.541 152.353 130.195 150.48 130.195C148.607 130.195 147.401 131.592 147.401 133.68V133.687C147.401 135.794 148.588 137.133 150.55 137.133ZM150.486 131.319C151.381 131.319 152.029 131.884 152.143 133.039H148.792C148.912 131.922 149.598 131.319 150.486 131.319ZM155.349 137.095C155.812 137.095 156.18 136.727 156.18 136.264C156.18 135.794 155.812 135.432 155.349 135.432C154.879 135.432 154.511 135.794 154.511 136.264C154.511 136.727 154.879 137.095 155.349 137.095ZM158.269 137.095C158.732 137.095 159.1 136.727 159.1 136.264C159.1 135.794 158.732 135.432 158.269 135.432C157.799 135.432 157.431 135.794 157.431 136.264C157.431 136.727 157.799 137.095 158.269 137.095ZM161.188 137.095C161.652 137.095 162.02 136.727 162.02 136.264C162.02 135.794 161.652 135.432 161.188 135.432C160.719 135.432 160.351 135.794 160.351 136.264C160.351 136.727 160.719 137.095 161.188 137.095Z" fill="black"/>
<g clip-path="url(#clip0_893_24030)">
<g filter="url(#filter1_d_893_24030)">
<rect x="474" y="123" width="18" height="18" rx="3" fill="#A8AAB5"/>
</g>
<path d="M480.075 136H481.33V131.044H481.354L484.797 136H485.92V128.954H484.67V133.891H484.641L481.208 128.954H480.075V136Z" fill="white"/>
</g>
<rect x="69" y="152" width="432" height="40" rx="6" fill="#F1F2F6"/>
<rect x="78.75" y="166.75" width="12.5" height="11.5" rx="3.25" stroke="#A8AAB5" stroke-width="1.5"/>
<line x1="82.75" y1="165.75" x2="82.75" y2="167.75" stroke="#A8AAB5" stroke-width="1.5" stroke-linecap="round" stroke-linejoin="round"/>
<line x1="87.25" y1="165.75" x2="87.25" y2="167.75" stroke="#A8AAB5" stroke-width="1.5" stroke-linecap="round" stroke-linejoin="round"/>
<rect x="86.5" y="169.5" width="3" height="6.5" rx="1" fill="#A8AAB5"/>
<path d="M104.967 177.152C107.138 177.152 108.458 176.092 108.458 174.423V174.417C108.458 173.001 107.646 172.233 105.754 171.833L104.751 171.624C103.609 171.376 103.088 170.957 103.088 170.271V170.265C103.088 169.465 103.812 168.926 104.948 168.919C106.034 168.919 106.77 169.434 106.897 170.284L106.903 170.373H108.287L108.281 170.265C108.186 168.729 106.878 167.688 104.967 167.688C103.031 167.688 101.654 168.761 101.647 170.322V170.329C101.647 171.687 102.517 172.512 104.313 172.893L105.31 173.103C106.522 173.369 107.024 173.769 107.024 174.505V174.512C107.024 175.369 106.25 175.921 105.024 175.921C103.799 175.921 102.955 175.394 102.828 174.55L102.815 174.467H101.432L101.438 174.562C101.552 176.175 102.911 177.152 104.967 177.152ZM109.626 177H110.998V173.134C110.998 172.093 111.626 171.37 112.572 171.37C113.537 171.37 114.095 172.03 114.095 173.134V177H115.466V172.874C115.466 171.262 114.527 170.195 113.099 170.195C112.102 170.195 111.385 170.646 111.029 171.42H110.998V167.84H109.626V177ZM119.668 177.133C121.579 177.133 122.836 175.813 122.836 173.661V173.648C122.836 171.509 121.566 170.195 119.662 170.195C117.764 170.195 116.501 171.516 116.501 173.648V173.661C116.501 175.807 117.751 177.133 119.668 177.133ZM119.675 175.984C118.602 175.984 117.904 175.14 117.904 173.661V173.648C117.904 172.188 118.608 171.344 119.662 171.344C120.735 171.344 121.433 172.188 121.433 173.648V173.661C121.433 175.134 120.748 175.984 119.675 175.984ZM125.185 177H126.6L127.99 171.998H128.022L129.425 177H130.853L132.681 170.322H131.323L130.104 175.578H130.072L128.676 170.322H127.355L125.965 175.578H125.94L124.721 170.322H123.35L125.185 177ZM137.474 177H138.889L140.279 171.998H140.311L141.714 177H143.142L144.97 170.322H143.612L142.393 175.578H142.361L140.965 170.322H139.645L138.254 175.578H138.229L137.01 170.322H135.639L137.474 177ZM148.62 177.133C150.239 177.133 151.267 176.168 151.483 175.108L151.496 175.039H150.194L150.175 175.089C150.004 175.591 149.464 176.01 148.652 176.01C147.56 176.01 146.868 175.273 146.843 174.01H151.572V173.547C151.572 171.541 150.423 170.195 148.55 170.195C146.678 170.195 145.472 171.592 145.472 173.68V173.687C145.472 175.794 146.659 177.133 148.62 177.133ZM148.557 171.319C149.452 171.319 150.099 171.884 150.213 173.039H146.862C146.982 171.922 147.668 171.319 148.557 171.319ZM155.488 177.133C157.107 177.133 158.135 176.168 158.351 175.108L158.364 175.039H157.062L157.043 175.089C156.872 175.591 156.333 176.01 155.52 176.01C154.428 176.01 153.736 175.273 153.711 174.01H158.44V173.547C158.44 171.541 157.291 170.195 155.418 170.195C153.546 170.195 152.34 171.592 152.34 173.68V173.687C152.34 175.794 153.527 177.133 155.488 177.133ZM155.425 171.319C156.32 171.319 156.967 171.884 157.082 173.039H153.73C153.851 171.922 154.536 171.319 155.425 171.319ZM159.583 177H160.954V174.594L161.525 174.029L163.791 177H165.384L162.534 173.204L165.276 170.322H163.664L160.985 173.172H160.954V167.84H159.583V177ZM168.603 177.133C170.221 177.133 171.25 176.168 171.465 175.108L171.478 175.039H170.177L170.158 175.089C169.986 175.591 169.447 176.01 168.634 176.01C167.542 176.01 166.851 175.273 166.825 174.01H171.554V173.547C171.554 171.541 170.405 170.195 168.533 170.195C166.66 170.195 165.454 171.592 165.454 173.68V173.687C165.454 175.794 166.641 177.133 168.603 177.133ZM168.539 171.319C169.434 171.319 170.082 171.884 170.196 173.039H166.844C166.965 171.922 167.65 171.319 168.539 171.319ZM172.621 177H173.992V173.109C173.992 172.068 174.614 171.37 175.579 171.37C176.531 171.37 177 171.935 177 172.938V177H178.378V172.677C178.378 171.141 177.534 170.195 176.067 170.195C175.058 170.195 174.373 170.652 174.023 171.332H173.992V170.322H172.621V177ZM182.199 177.133C183.158 177.133 183.894 176.651 184.294 175.87H184.319V177H185.697V167.84H184.319V171.458H184.294C183.894 170.671 183.132 170.195 182.187 170.195C180.511 170.195 179.406 171.528 179.406 173.655V173.661C179.406 175.788 180.498 177.133 182.199 177.133ZM182.561 175.953C181.476 175.953 180.809 175.083 180.809 173.661V173.655C180.809 172.246 181.482 171.37 182.561 171.37C183.589 171.37 184.326 172.271 184.326 173.655V173.661C184.326 175.051 183.596 175.953 182.561 175.953Z" fill="black"/>
<g clip-path="url(#clip1_893_24030)">
<g filter="url(#filter2_d_893_24030)">
<rect x="452" y="163" width="18" height="18" rx="3" fill="#A8AAB5"/>
</g>
<path d="M459.438 171.762V173.192L458.808 173.197C457.987 173.197 457.323 173.842 457.323 174.667C457.323 175.487 457.987 176.151 458.808 176.151C459.623 176.151 460.292 175.482 460.292 174.667V174.042H461.708V174.667C461.708 175.482 462.377 176.151 463.192 176.151C464.013 176.151 464.677 175.487 464.677 174.667C464.677 173.842 464.013 173.197 463.192 173.197L462.558 173.192V171.762H463.192C464.013 171.757 464.677 171.117 464.677 170.292C464.677 169.472 464.013 168.808 463.192 168.808C462.377 168.808 461.708 169.477 461.708 170.292V170.917H460.292V170.292C460.292 169.477 459.623 168.808 458.808 168.808C457.987 168.808 457.323 169.472 457.323 170.292C457.323 171.117 457.987 171.757 458.808 171.762H459.438ZM458.827 170.927C458.466 170.927 458.183 170.644 458.183 170.292C458.183 169.945 458.466 169.667 458.808 169.667C459.149 169.667 459.438 169.95 459.438 170.312V170.927H458.827ZM463.173 170.927H462.562V170.312C462.562 169.95 462.851 169.667 463.192 169.667C463.534 169.667 463.817 169.945 463.817 170.292C463.817 170.644 463.529 170.927 463.173 170.927ZM460.292 173.202V171.757H461.708V173.202H460.292ZM458.827 174.032H459.438V174.643C459.438 175.004 459.149 175.292 458.808 175.292C458.466 175.292 458.183 175.009 458.183 174.662C458.183 174.315 458.466 174.032 458.827 174.032ZM463.173 174.032C463.529 174.032 463.817 174.315 463.817 174.662C463.817 175.009 463.534 175.292 463.192 175.292C462.851 175.292 462.562 175.004 462.562 174.643V174.032H463.173Z" fill="white"/>
</g>
<g clip-path="url(#clip2_893_24030)">
<g filter="url(#filter3_d_893_24030)">
<rect x="474" y="163" width="18" height="18" rx="3" fill="#A8AAB5"/>
</g>
<path d="M480.349 176H481.564L482.985 170.946H483.015L484.436 176H485.651L487.541 168.954H486.232L485.007 174.271H484.982L483.571 168.954H482.429L481.018 174.271H480.993L479.768 168.954H478.459L480.349 176Z" fill="white"/>
</g>
<line x1="87.75" y1="212" x2="82.25" y2="212" stroke="#A8AAB5" stroke-width="1.5" stroke-linecap="round"/>
<circle cx="85" cy="212" r="6.25" stroke="#A8AAB5" stroke-width="1.5"/>
<path d="M104.967 217.152C107.138 217.152 108.458 216.092 108.458 214.423V214.417C108.458 213.001 107.646 212.233 105.754 211.833L104.751 211.624C103.609 211.376 103.088 210.957 103.088 210.271V210.265C103.088 209.465 103.812 208.926 104.948 208.919C106.034 208.919 106.77 209.434 106.897 210.284L106.903 210.373H108.287L108.281 210.265C108.186 208.729 106.878 207.688 104.967 207.688C103.031 207.688 101.654 208.761 101.647 210.322V210.329C101.647 211.687 102.517 212.512 104.313 212.893L105.31 213.103C106.522 213.369 107.024 213.769 107.024 214.505V214.512C107.024 215.369 106.25 215.921 105.024 215.921C103.799 215.921 102.955 215.394 102.828 214.55L102.815 214.467H101.432L101.438 214.562C101.552 216.175 102.911 217.152 104.967 217.152ZM109.626 217H110.998V213.134C110.998 212.093 111.626 211.37 112.572 211.37C113.537 211.37 114.095 212.03 114.095 213.134V217H115.466V212.874C115.466 211.262 114.527 210.195 113.099 210.195C112.102 210.195 111.385 210.646 111.029 211.42H110.998V207.84H109.626V217ZM119.668 217.133C121.579 217.133 122.836 215.813 122.836 213.661V213.648C122.836 211.509 121.566 210.195 119.662 210.195C117.764 210.195 116.501 211.516 116.501 213.648V213.661C116.501 215.807 117.751 217.133 119.668 217.133ZM119.675 215.984C118.602 215.984 117.904 215.14 117.904 213.661V213.648C117.904 212.188 118.608 211.344 119.662 211.344C120.735 211.344 121.433 212.188 121.433 213.648V213.661C121.433 215.134 120.748 215.984 119.675 215.984ZM125.185 217H126.6L127.99 211.998H128.022L129.425 217H130.853L132.681 210.322H131.323L130.104 215.578H130.072L128.676 210.322H127.355L125.965 215.578H125.94L124.721 210.322H123.35L125.185 217ZM136.16 217H137.531V213.109C137.531 212.068 138.153 211.37 139.118 211.37C140.07 211.37 140.54 211.935 140.54 212.938V217H141.917V212.677C141.917 211.141 141.073 210.195 139.606 210.195C138.597 210.195 137.912 210.652 137.562 211.332H137.531V210.322H136.16V217ZM146.113 217.133C148.023 217.133 149.28 215.813 149.28 213.661V213.648C149.28 211.509 148.011 210.195 146.106 210.195C144.208 210.195 142.945 211.516 142.945 213.648V213.661C142.945 215.807 144.196 217.133 146.113 217.133ZM146.119 215.984C145.046 215.984 144.348 215.14 144.348 213.661V213.648C144.348 212.188 145.053 211.344 146.106 211.344C147.179 211.344 147.877 212.188 147.877 213.648V213.661C147.877 215.134 147.192 215.984 146.119 215.984ZM150.34 217H151.711V213.109C151.711 212.068 152.333 211.37 153.298 211.37C154.25 211.37 154.72 211.935 154.72 212.938V217H156.098V212.677C156.098 211.141 155.253 210.195 153.787 210.195C152.778 210.195 152.092 210.652 151.743 211.332H151.711V210.322H150.34V217ZM157.52 213.902H161.601V212.665H157.52V213.902ZM166.609 217.133C168.304 217.133 169.402 215.788 169.402 213.661V213.655C169.402 211.528 168.298 210.195 166.622 210.195C165.676 210.195 164.915 210.671 164.515 211.458H164.483V207.84H163.112V217H164.483V215.87H164.515C164.908 216.651 165.651 217.133 166.609 217.133ZM166.248 215.953C165.207 215.953 164.477 215.051 164.477 213.661V213.655C164.477 212.271 165.213 211.37 166.248 211.37C167.327 211.37 168 212.246 168 213.655V213.661C168 215.083 167.327 215.953 166.248 215.953ZM170.513 217H171.884V207.84H170.513V217ZM176.163 217.133C178.073 217.133 179.33 215.813 179.33 213.661V213.648C179.33 211.509 178.061 210.195 176.156 210.195C174.258 210.195 172.995 211.516 172.995 213.648V213.661C172.995 215.807 174.246 217.133 176.163 217.133ZM176.169 215.984C175.096 215.984 174.398 215.14 174.398 213.661V213.648C174.398 212.188 175.103 211.344 176.156 211.344C177.229 211.344 177.927 212.188 177.927 213.648V213.661C177.927 215.134 177.242 215.984 176.169 215.984ZM183.259 217.133C184.865 217.133 185.982 216.105 186.128 214.766L186.135 214.721H184.814L184.808 214.772C184.643 215.496 184.104 215.984 183.259 215.984C182.199 215.984 181.495 215.127 181.495 213.667V213.661C181.495 212.233 182.187 211.344 183.253 211.344C184.148 211.344 184.656 211.896 184.802 212.55L184.814 212.601H186.122L186.116 212.557C186.001 211.3 184.96 210.195 183.24 210.195C181.336 210.195 180.092 211.535 180.092 213.648V213.655C180.092 215.794 181.311 217.133 183.259 217.133ZM187.182 217H188.553V214.594L189.125 214.029L191.391 217H192.984L190.134 213.204L192.876 210.322H191.264L188.585 213.172H188.553V207.84H187.182V217ZM194.412 209.294C194.863 209.294 195.212 208.938 195.212 208.507C195.212 208.069 194.863 207.713 194.412 207.713C193.968 207.713 193.612 208.069 193.612 208.507C193.612 208.938 193.968 209.294 194.412 209.294ZM193.727 217H195.098V210.322H193.727V217ZM196.513 217H197.884V213.109C197.884 212.068 198.506 211.37 199.471 211.37C200.423 211.37 200.893 211.935 200.893 212.938V217H202.271V212.677C202.271 211.141 201.426 210.195 199.96 210.195C198.951 210.195 198.265 210.652 197.916 211.332H197.884V210.322H196.513V217ZM206.523 219.355C208.409 219.355 209.589 218.339 209.589 216.816V210.322H208.212V211.458H208.18C207.787 210.703 207.05 210.195 206.111 210.195C204.416 210.195 203.299 211.509 203.299 213.604V213.61C203.299 215.692 204.403 217.006 206.079 217.006C207.038 217.006 207.799 216.543 208.18 215.819H208.212V216.733C208.212 217.667 207.609 218.25 206.517 218.25C205.66 218.25 205.083 217.958 204.898 217.533L204.873 217.482H203.515L203.521 217.54C203.724 218.562 204.81 219.355 206.523 219.355ZM206.466 215.889C205.381 215.889 204.702 215.026 204.702 213.629V213.623C204.702 212.246 205.381 211.37 206.466 211.37C207.507 211.37 208.212 212.252 208.212 213.623V213.629C208.212 215.007 207.514 215.889 206.466 215.889ZM216.438 217.133C218.057 217.133 219.085 216.168 219.301 215.108L219.314 215.039H218.013L217.994 215.089C217.822 215.591 217.283 216.01 216.47 216.01C215.378 216.01 214.687 215.273 214.661 214.01H219.39V213.547C219.39 211.541 218.241 210.195 216.369 210.195C214.496 210.195 213.29 211.592 213.29 213.68V213.687C213.29 215.794 214.477 217.133 216.438 217.133ZM216.375 211.319C217.27 211.319 217.917 211.884 218.032 213.039H214.68C214.801 211.922 215.486 211.319 216.375 211.319ZM222.037 217H223.51L225.903 210.322H224.475L222.799 215.661H222.767L221.091 210.322H219.631L222.037 217ZM229.286 217.133C230.905 217.133 231.933 216.168 232.149 215.108L232.162 215.039H230.86L230.841 215.089C230.67 215.591 230.13 216.01 229.318 216.01C228.226 216.01 227.534 215.273 227.509 214.01H232.238V213.547C232.238 211.541 231.089 210.195 229.216 210.195C227.344 210.195 226.138 211.592 226.138 213.68V213.687C226.138 215.794 227.325 217.133 229.286 217.133ZM229.223 211.319C230.118 211.319 230.765 211.884 230.879 213.039H227.528C227.648 211.922 228.334 211.319 229.223 211.319ZM233.304 217H234.675V213.109C234.675 212.068 235.297 211.37 236.262 211.37C237.214 211.37 237.684 211.935 237.684 212.938V217H239.062V212.677C239.062 211.141 238.217 210.195 236.751 210.195C235.742 210.195 235.056 210.652 234.707 211.332H234.675V210.322H233.304V217ZM242.73 217.133C243.01 217.133 243.27 217.102 243.429 217.076V216.016C243.327 216.029 243.207 216.042 243.061 216.042C242.483 216.042 242.178 215.838 242.178 215.159V211.414H243.429V210.322H242.178V208.583H240.775V210.322H239.817V211.414H240.775V215.242C240.775 216.575 241.41 217.133 242.73 217.133ZM247.066 217.133C248.64 217.133 249.783 216.295 249.783 215.077V215.07C249.783 214.112 249.262 213.572 247.897 213.255L246.812 213.007C246.095 212.836 245.822 212.557 245.822 212.144V212.138C245.822 211.604 246.285 211.255 247.021 211.255C247.796 211.255 248.253 211.662 248.335 212.246L248.342 212.29H249.63L249.624 212.214C249.554 211.078 248.602 210.195 247.021 210.195C245.485 210.195 244.444 211.014 244.444 212.208V212.214C244.444 213.185 245.073 213.794 246.342 214.086L247.434 214.334C248.151 214.505 248.393 214.753 248.393 215.185V215.191C248.393 215.73 247.897 216.073 247.072 216.073C246.228 216.073 245.771 215.711 245.644 215.096L245.631 215.032H244.273L244.279 215.089C244.419 216.308 245.396 217.133 247.066 217.133Z" fill="black"/>
<g clip-path="url(#clip3_893_24030)">
<g filter="url(#filter4_d_893_24030)">
<rect x="452" y="203" width="18" height="18" rx="3" fill="#A8AAB5"/>
</g>
<path d="M459.438 211.762V213.192L458.808 213.197C457.987 213.197 457.323 213.842 457.323 214.667C457.323 215.487 457.987 216.151 458.808 216.151C459.623 216.151 460.292 215.482 460.292 214.667V214.042H461.708V214.667C461.708 215.482 462.377 216.151 463.192 216.151C464.013 216.151 464.677 215.487 464.677 214.667C464.677 213.842 464.013 213.197 463.192 213.197L462.558 213.192V211.762H463.192C464.013 211.757 464.677 211.117 464.677 210.292C464.677 209.472 464.013 208.808 463.192 208.808C462.377 208.808 461.708 209.477 461.708 210.292V210.917H460.292V210.292C460.292 209.477 459.623 208.808 458.808 208.808C457.987 208.808 457.323 209.472 457.323 210.292C457.323 211.117 457.987 211.757 458.808 211.762H459.438ZM458.827 210.927C458.466 210.927 458.183 210.644 458.183 210.292C458.183 209.945 458.466 209.667 458.808 209.667C459.149 209.667 459.438 209.95 459.438 210.312V210.927H458.827ZM463.173 210.927H462.562V210.312C462.562 209.95 462.851 209.667 463.192 209.667C463.534 209.667 463.817 209.945 463.817 210.292C463.817 210.644 463.529 210.927 463.173 210.927ZM460.292 213.202V211.757H461.708V213.202H460.292ZM458.827 214.032H459.438V214.643C459.438 215.004 459.149 215.292 458.808 215.292C458.466 215.292 458.183 215.009 458.183 214.662C458.183 214.315 458.466 214.032 458.827 214.032ZM463.173 214.032C463.529 214.032 463.817 214.315 463.817 214.662C463.817 215.009 463.534 215.292 463.192 215.292C462.851 215.292 462.562 215.004 462.562 214.643V214.032H463.173Z" fill="white"/>
</g>
<g clip-path="url(#clip4_893_24030)">
<g filter="url(#filter5_d_893_24030)">
<rect x="474" y="203" width="18" height="18" rx="3" fill="#A8AAB5"/>
</g>
<path d="M480.485 216H483.439C484.943 216 485.856 215.238 485.856 214.008V213.998C485.856 213.07 485.183 212.377 484.191 212.289V212.265C484.948 212.162 485.52 211.483 485.52 210.727V210.717C485.52 209.647 484.694 208.954 483.41 208.954H480.485V216ZM483.093 209.936C483.84 209.936 484.274 210.277 484.274 210.888V210.897C484.274 211.562 483.786 211.933 482.878 211.933H481.745V209.936H483.093ZM483.078 212.846C484.064 212.846 484.572 213.217 484.572 213.925V213.935C484.572 214.643 484.074 215.019 483.151 215.019H481.745V212.846H483.078Z" fill="white"/>
</g>
<g clip-path="url(#clip5_893_24030)">
<path d="M84.4294 245.756C84.609 245.203 85.391 245.203 85.5706 245.756L86.7737 249.459C86.854 249.706 87.0844 249.873 87.3443 249.873L91.2374 249.873C91.8186 249.873 92.0603 250.617 91.59 250.959L88.4405 253.247C88.2302 253.4 88.1422 253.671 88.2225 253.918L89.4255 257.62C89.6052 258.173 88.9725 258.633 88.5022 258.291L85.3527 256.003C85.1424 255.85 84.8576 255.85 84.6473 256.003L81.4978 258.291C81.0275 258.633 80.3948 258.173 80.5745 257.62L81.7775 253.918C81.8578 253.671 81.7698 253.4 81.5595 253.247L78.41 250.959C77.9397 250.617 78.1814 249.873 78.7626 249.873L82.6557 249.873C82.9156 249.873 83.146 249.706 83.2263 249.459L84.4294 245.756Z" stroke="#A8AAB5" stroke-width="1.5"/>
</g>
<path d="M104.009 257.152C105.805 257.152 106.865 256.092 106.865 254.29V247.84H105.443V254.277C105.443 255.324 104.936 255.883 103.996 255.883C103.146 255.883 102.708 255.337 102.65 254.639L102.644 254.582H101.241L101.248 254.658C101.324 256.118 102.314 257.152 104.009 257.152ZM110.68 257.133C111.696 257.133 112.375 256.67 112.724 255.997H112.756V257H114.133V250.322H112.756V254.22C112.756 255.261 112.134 255.953 111.169 255.953C110.217 255.953 109.747 255.394 109.747 254.385V250.322H108.376V254.651C108.376 256.188 109.214 257.133 110.68 257.133ZM115.492 257H116.863V252.874C116.863 252.011 117.44 251.37 118.253 251.37C119.027 251.37 119.516 251.865 119.516 252.639V257H120.862V252.823C120.862 251.979 121.427 251.37 122.239 251.37C123.052 251.37 123.515 251.871 123.515 252.741V257H124.893V252.411C124.893 251.071 124.029 250.195 122.709 250.195C121.757 250.195 120.97 250.697 120.627 251.509H120.595C120.329 250.671 119.656 250.195 118.735 250.195C117.859 250.195 117.18 250.659 116.895 251.357H116.863V250.322H115.492V257ZM126.219 259.222H127.59V255.876H127.622C128.016 256.651 128.784 257.133 129.729 257.133C131.405 257.133 132.503 255.794 132.503 253.667V253.661C132.503 251.528 131.412 250.195 129.71 250.195C128.758 250.195 128.022 250.678 127.622 251.471H127.59V250.322H126.219V259.222ZM129.355 255.953C128.32 255.953 127.584 255.051 127.584 253.667V253.661C127.584 252.271 128.314 251.37 129.355 251.37C130.428 251.37 131.107 252.239 131.107 253.661V253.667C131.107 255.077 130.434 255.953 129.355 255.953ZM138.553 257.133C138.832 257.133 139.092 257.102 139.251 257.076V256.016C139.149 256.029 139.029 256.042 138.883 256.042C138.305 256.042 138 255.838 138 255.159V251.414H139.251V250.322H138V248.583H136.598V250.322H135.639V251.414H136.598V255.242C136.598 256.575 137.232 257.133 138.553 257.133ZM143.091 257.133C145.002 257.133 146.259 255.813 146.259 253.661V253.648C146.259 251.509 144.989 250.195 143.085 250.195C141.187 250.195 139.924 251.516 139.924 253.648V253.661C139.924 255.807 141.174 257.133 143.091 257.133ZM143.098 255.984C142.025 255.984 141.327 255.14 141.327 253.661V253.648C141.327 252.188 142.031 251.344 143.085 251.344C144.158 251.344 144.856 252.188 144.856 253.648V253.661C144.856 255.134 144.17 255.984 143.098 255.984ZM152.302 257.133C152.581 257.133 152.841 257.102 153 257.076V256.016C152.898 256.029 152.778 256.042 152.632 256.042C152.054 256.042 151.75 255.838 151.75 255.159V251.414H153V250.322H151.75V248.583H150.347V250.322H149.388V251.414H150.347V255.242C150.347 256.575 150.981 257.133 152.302 257.133ZM156.84 257.133C158.751 257.133 160.008 255.813 160.008 253.661V253.648C160.008 251.509 158.738 250.195 156.834 250.195C154.936 250.195 153.673 251.516 153.673 253.648V253.661C153.673 255.807 154.923 257.133 156.84 257.133ZM156.847 255.984C155.774 255.984 155.076 255.14 155.076 253.661V253.648C155.076 252.188 155.78 251.344 156.834 251.344C157.907 251.344 158.605 252.188 158.605 253.648V253.661C158.605 255.134 157.919 255.984 156.847 255.984ZM163.562 257.133C164.521 257.133 165.257 256.651 165.657 255.87H165.683V257H167.06V247.84H165.683V251.458H165.657C165.257 250.671 164.496 250.195 163.55 250.195C161.874 250.195 160.77 251.528 160.77 253.655V253.661C160.77 255.788 161.861 257.133 163.562 257.133ZM163.924 255.953C162.839 255.953 162.172 255.083 162.172 253.661V253.655C162.172 252.246 162.845 251.37 163.924 251.37C164.953 251.37 165.689 252.271 165.689 253.655V253.661C165.689 255.051 164.959 255.953 163.924 255.953ZM170.431 257.121C171.313 257.121 172.087 256.664 172.475 255.946H172.5V257H173.877V252.398C173.877 251.059 172.843 250.195 171.211 250.195C169.567 250.195 168.571 251.078 168.476 252.227L168.469 252.296H169.764L169.777 252.239C169.891 251.706 170.38 251.332 171.173 251.332C172.024 251.332 172.5 251.776 172.5 252.512V253.014L170.685 253.122C169.104 253.217 168.203 253.928 168.203 255.089V255.102C168.203 256.302 169.098 257.121 170.431 257.121ZM169.586 255.07V255.058C169.586 254.493 170.043 254.131 170.869 254.08L172.5 253.979V254.499C172.5 255.369 171.77 256.022 170.805 256.022C170.069 256.022 169.586 255.654 169.586 255.07ZM175.985 259.228C177.292 259.228 177.991 258.695 178.486 257.311L180.974 250.322H179.527L177.845 255.756H177.8L176.118 250.322H174.633L177.064 257.006L176.95 257.324C176.721 257.971 176.366 258.143 175.718 258.143C175.534 258.143 175.375 258.117 175.268 258.092V259.165C175.433 259.196 175.718 259.228 175.985 259.228Z" fill="black"/>
<g clip-path="url(#clip6_893_24030)">
<g filter="url(#filter6_d_893_24030)">
<rect x="474" y="243" width="18" height="18" rx="3" fill="#A8AAB5"/>
</g>
<path d="M482.37 256H483.625V250.014H485.729V248.954H480.261V250.014H482.37V256Z" fill="white"/>
</g>
<path d="M85.9697 288.53C85.6768 288.237 85.6768 287.763 85.9697 287.47C86.2626 287.177 86.7374 287.177 87.0303 287.47L85.9697 288.53ZM87.0303 296.53C86.7374 296.823 86.2626 296.823 85.9697 296.53C85.6768 296.237 85.6768 295.763 85.9697 295.47L87.0303 296.53ZM90.5 292L91.0303 291.47C91.3232 291.763 91.3232 292.237 91.0303 292.53L90.5 292ZM87.0303 287.47L91.0303 291.47L89.9697 292.53L85.9697 288.53L87.0303 287.47ZM91.0303 292.53L87.0303 296.53L85.9697 295.47L89.9697 291.47L91.0303 292.53Z" fill="#A8AAB5"/>
<line x1="89.25" y1="292" x2="79.75" y2="292" stroke="#A8AAB5" stroke-width="1.5" stroke-linecap="round"/>
<path d="M104.009 297.152C105.805 297.152 106.865 296.092 106.865 294.29V287.84H105.443V294.277C105.443 295.324 104.936 295.883 103.996 295.883C103.146 295.883 102.708 295.337 102.65 294.639L102.644 294.582H101.241L101.248 294.658C101.324 296.118 102.314 297.152 104.009 297.152ZM110.68 297.133C111.696 297.133 112.375 296.67 112.724 295.997H112.756V297H114.133V290.322H112.756V294.22C112.756 295.261 112.134 295.953 111.169 295.953C110.217 295.953 109.747 295.394 109.747 294.385V290.322H108.376V294.651C108.376 296.188 109.214 297.133 110.68 297.133ZM115.492 297H116.863V292.874C116.863 292.011 117.44 291.37 118.253 291.37C119.027 291.37 119.516 291.865 119.516 292.639V297H120.862V292.823C120.862 291.979 121.427 291.37 122.239 291.37C123.052 291.37 123.515 291.871 123.515 292.741V297H124.893V292.411C124.893 291.071 124.029 290.195 122.709 290.195C121.757 290.195 120.97 290.697 120.627 291.509H120.595C120.329 290.671 119.656 290.195 118.735 290.195C117.859 290.195 117.18 290.659 116.895 291.357H116.863V290.322H115.492V297ZM126.219 299.222H127.59V295.876H127.622C128.016 296.651 128.784 297.133 129.729 297.133C131.405 297.133 132.503 295.794 132.503 293.667V293.661C132.503 291.528 131.412 290.195 129.71 290.195C128.758 290.195 128.022 290.678 127.622 291.471H127.59V290.322H126.219V299.222ZM129.355 295.953C128.32 295.953 127.584 295.051 127.584 293.667V293.661C127.584 292.271 128.314 291.37 129.355 291.37C130.428 291.37 131.107 292.239 131.107 293.661V293.667C131.107 295.077 130.434 295.953 129.355 295.953ZM138.553 297.133C138.832 297.133 139.092 297.102 139.251 297.076V296.016C139.149 296.029 139.029 296.042 138.883 296.042C138.305 296.042 138 295.838 138 295.159V291.414H139.251V290.322H138V288.583H136.598V290.322H135.639V291.414H136.598V295.242C136.598 296.575 137.232 297.133 138.553 297.133ZM143.091 297.133C145.002 297.133 146.259 295.813 146.259 293.661V293.648C146.259 291.509 144.989 290.195 143.085 290.195C141.187 290.195 139.924 291.516 139.924 293.648V293.661C139.924 295.807 141.174 297.133 143.091 297.133ZM143.098 295.984C142.025 295.984 141.327 295.14 141.327 293.661V293.648C141.327 292.188 142.031 291.344 143.085 291.344C144.158 291.344 144.856 292.188 144.856 293.648V293.661C144.856 295.134 144.17 295.984 143.098 295.984ZM149.959 297H151.331V293.109C151.331 292.068 151.953 291.37 152.917 291.37C153.87 291.37 154.339 291.935 154.339 292.938V297H155.717V292.677C155.717 291.141 154.873 290.195 153.406 290.195C152.397 290.195 151.711 290.652 151.362 291.332H151.331V290.322H149.959V297ZM159.894 297.133C161.512 297.133 162.541 296.168 162.756 295.108L162.769 295.039H161.468L161.449 295.089C161.277 295.591 160.738 296.01 159.925 296.01C158.833 296.01 158.142 295.273 158.116 294.01H162.845V293.547C162.845 291.541 161.696 290.195 159.824 290.195C157.951 290.195 156.745 291.592 156.745 293.68V293.687C156.745 295.794 157.932 297.133 159.894 297.133ZM159.83 291.319C160.725 291.319 161.373 291.884 161.487 293.039H158.135C158.256 291.922 158.941 291.319 159.83 291.319ZM163.296 297H164.781L166.26 294.543H166.292L167.771 297H169.282L167.111 293.623L169.307 290.322H167.79L166.355 292.741H166.324L164.87 290.322H163.328L165.505 293.667L163.296 297ZM172.513 297.133C172.792 297.133 173.052 297.102 173.211 297.076V296.016C173.109 296.029 172.989 296.042 172.843 296.042C172.265 296.042 171.96 295.838 171.96 295.159V291.414H173.211V290.322H171.96V288.583H170.558V290.322H169.599V291.414H170.558V295.242C170.558 296.575 171.192 297.133 172.513 297.133ZM178.302 297H179.717L181.107 291.998H181.139L182.542 297H183.97L185.798 290.322H184.44L183.221 295.578H183.189L181.793 290.322H180.473L179.083 295.578H179.057L177.838 290.322H176.467L178.302 297ZM189.448 297.133C191.067 297.133 192.095 296.168 192.311 295.108L192.324 295.039H191.022L191.003 295.089C190.832 295.591 190.292 296.01 189.48 296.01C188.388 296.01 187.696 295.273 187.671 294.01H192.4V293.547C192.4 291.541 191.251 290.195 189.378 290.195C187.506 290.195 186.3 291.592 186.3 293.68V293.687C186.3 295.794 187.487 297.133 189.448 297.133ZM189.385 291.319C190.28 291.319 190.927 291.884 191.042 293.039H187.69C187.811 291.922 188.496 291.319 189.385 291.319ZM196.316 297.133C197.935 297.133 198.963 296.168 199.179 295.108L199.192 295.039H197.891L197.872 295.089C197.7 295.591 197.161 296.01 196.348 296.01C195.256 296.01 194.564 295.273 194.539 294.01H199.268V293.547C199.268 291.541 198.119 290.195 196.247 290.195C194.374 290.195 193.168 291.592 193.168 293.68V293.687C193.168 295.794 194.355 297.133 196.316 297.133ZM196.253 291.319C197.148 291.319 197.795 291.884 197.91 293.039H194.558C194.679 291.922 195.364 291.319 196.253 291.319ZM200.411 297H201.782V294.594L202.353 294.029L204.619 297H206.212L203.362 293.204L206.104 290.322H204.492L201.813 293.172H201.782V287.84H200.411V297Z" fill="black"/>
<g clip-path="url(#clip7_893_24030)">
<g filter="url(#filter7_d_893_24030)">
<rect x="474" y="283" width="18" height="18" rx="3" fill="#A8AAB5"/>
</g>
<path d="M486.672 292.465C486.672 292.323 486.608 292.182 486.506 292.079L484.016 289.594C483.898 289.481 483.771 289.428 483.645 289.428C483.342 289.428 483.127 289.643 483.127 289.926C483.127 290.077 483.19 290.204 483.288 290.297L484.03 291.049L485.07 291.996L484.201 291.942H479.865C479.543 291.942 479.328 292.157 479.328 292.465C479.328 292.777 479.543 292.992 479.865 292.992H484.201L485.075 292.934L484.03 293.886L483.288 294.633C483.19 294.73 483.127 294.853 483.127 295.004C483.127 295.292 483.342 295.502 483.645 295.502C483.771 295.502 483.898 295.448 484.011 295.341L486.506 292.855C486.608 292.753 486.672 292.606 486.672 292.465Z" fill="white"/>
</g>
</g>
<defs>
<filter id="filter0_dd_893_24030" x="0" y="0" width="570" height="441" filterUnits="userSpaceOnUse" color-interpolation-filters="sRGB">
<feFlood flood-opacity="0" result="BackgroundImageFix"/>
<feColorMatrix in="SourceAlpha" type="matrix" values="0 0 0 0 0 0 0 0 0 0 0 0 0 0 0 0 0 0 127 0" result="hardAlpha"/>
<feOffset dy="2"/>
<feGaussianBlur stdDeviation="4"/>
<feColorMatrix type="matrix" values="0 0 0 0 0 0 0 0 0 0 0 0 0 0 0 0 0 0 0.2 0"/>
<feBlend mode="normal" in2="BackgroundImageFix" result="effect1_dropShadow_893_24030"/>
<feColorMatrix in="SourceAlpha" type="matrix" values="0 0 0 0 0 0 0 0 0 0 0 0 0 0 0 0 0 0 127 0" result="hardAlpha"/>
<feMorphology radius="1" operator="dilate" in="SourceAlpha" result="effect2_dropShadow_893_24030"/>
<feOffset dy="20"/>
<feGaussianBlur stdDeviation="32"/>
<feColorMatrix type="matrix" values="0 0 0 0 0 0 0 0 0 0 0 0 0 0 0 0 0 0 0.2 0"/>
<feBlend mode="normal" in2="effect1_dropShadow_893_24030" result="effect2_dropShadow_893_24030"/>
<feBlend mode="normal" in="SourceGraphic" in2="effect2_dropShadow_893_24030" result="shape"/>
</filter>
<filter id="filter1_d_893_24030" x="472.5" y="122" width="21" height="21" filterUnits="userSpaceOnUse" color-interpolation-filters="sRGB">
<feFlood flood-opacity="0" result="BackgroundImageFix"/>
<feColorMatrix in="SourceAlpha" type="matrix" values="0 0 0 0 0 0 0 0 0 0 0 0 0 0 0 0 0 0 127 0" result="hardAlpha"/>
<feMorphology radius="0.5" operator="dilate" in="SourceAlpha" result="effect1_dropShadow_893_24030"/>
<feOffset dy="0.5"/>
<feGaussianBlur stdDeviation="0.5"/>
<feColorMatrix type="matrix" values="0 0 0 0 0 0 0 0 0 0 0 0 0 0 0 0 0 0 0.1 0"/>
<feBlend mode="normal" in2="BackgroundImageFix" result="effect1_dropShadow_893_24030"/>
<feBlend mode="normal" in="SourceGraphic" in2="effect1_dropShadow_893_24030" result="shape"/>
</filter>
<filter id="filter2_d_893_24030" x="450.5" y="162" width="21" height="21" filterUnits="userSpaceOnUse" color-interpolation-filters="sRGB">
<feFlood flood-opacity="0" result="BackgroundImageFix"/>
<feColorMatrix in="SourceAlpha" type="matrix" values="0 0 0 0 0 0 0 0 0 0 0 0 0 0 0 0 0 0 127 0" result="hardAlpha"/>
<feMorphology radius="0.5" operator="dilate" in="SourceAlpha" result="effect1_dropShadow_893_24030"/>
<feOffset dy="0.5"/>
<feGaussianBlur stdDeviation="0.5"/>
<feColorMatrix type="matrix" values="0 0 0 0 0 0 0 0 0 0 0 0 0 0 0 0 0 0 0.1 0"/>
<feBlend mode="normal" in2="BackgroundImageFix" result="effect1_dropShadow_893_24030"/>
<feBlend mode="normal" in="SourceGraphic" in2="effect1_dropShadow_893_24030" result="shape"/>
</filter>
<filter id="filter3_d_893_24030" x="472.5" y="162" width="21" height="21" filterUnits="userSpaceOnUse" color-interpolation-filters="sRGB">
<feFlood flood-opacity="0" result="BackgroundImageFix"/>
<feColorMatrix in="SourceAlpha" type="matrix" values="0 0 0 0 0 0 0 0 0 0 0 0 0 0 0 0 0 0 127 0" result="hardAlpha"/>
<feMorphology radius="0.5" operator="dilate" in="SourceAlpha" result="effect1_dropShadow_893_24030"/>
<feOffset dy="0.5"/>
<feGaussianBlur stdDeviation="0.5"/>
<feColorMatrix type="matrix" values="0 0 0 0 0 0 0 0 0 0 0 0 0 0 0 0 0 0 0.1 0"/>
<feBlend mode="normal" in2="BackgroundImageFix" result="effect1_dropShadow_893_24030"/>
<feBlend mode="normal" in="SourceGraphic" in2="effect1_dropShadow_893_24030" result="shape"/>
</filter>
<filter id="filter4_d_893_24030" x="450.5" y="202" width="21" height="21" filterUnits="userSpaceOnUse" color-interpolation-filters="sRGB">
<feFlood flood-opacity="0" result="BackgroundImageFix"/>
<feColorMatrix in="SourceAlpha" type="matrix" values="0 0 0 0 0 0 0 0 0 0 0 0 0 0 0 0 0 0 127 0" result="hardAlpha"/>
<feMorphology radius="0.5" operator="dilate" in="SourceAlpha" result="effect1_dropShadow_893_24030"/>
<feOffset dy="0.5"/>
<feGaussianBlur stdDeviation="0.5"/>
<feColorMatrix type="matrix" values="0 0 0 0 0 0 0 0 0 0 0 0 0 0 0 0 0 0 0.1 0"/>
<feBlend mode="normal" in2="BackgroundImageFix" result="effect1_dropShadow_893_24030"/>
<feBlend mode="normal" in="SourceGraphic" in2="effect1_dropShadow_893_24030" result="shape"/>
</filter>
<filter id="filter5_d_893_24030" x="472.5" y="202" width="21" height="21" filterUnits="userSpaceOnUse" color-interpolation-filters="sRGB">
<feFlood flood-opacity="0" result="BackgroundImageFix"/>
<feColorMatrix in="SourceAlpha" type="matrix" values="0 0 0 0 0 0 0 0 0 0 0 0 0 0 0 0 0 0 127 0" result="hardAlpha"/>
<feMorphology radius="0.5" operator="dilate" in="SourceAlpha" result="effect1_dropShadow_893_24030"/>
<feOffset dy="0.5"/>
<feGaussianBlur stdDeviation="0.5"/>
<feColorMatrix type="matrix" values="0 0 0 0 0 0 0 0 0 0 0 0 0 0 0 0 0 0 0.1 0"/>
<feBlend mode="normal" in2="BackgroundImageFix" result="effect1_dropShadow_893_24030"/>
<feBlend mode="normal" in="SourceGraphic" in2="effect1_dropShadow_893_24030" result="shape"/>
</filter>
<filter id="filter6_d_893_24030" x="472.5" y="242" width="21" height="21" filterUnits="userSpaceOnUse" color-interpolation-filters="sRGB">
<feFlood flood-opacity="0" result="BackgroundImageFix"/>
<feColorMatrix in="SourceAlpha" type="matrix" values="0 0 0 0 0 0 0 0 0 0 0 0 0 0 0 0 0 0 127 0" result="hardAlpha"/>
<feMorphology radius="0.5" operator="dilate" in="SourceAlpha" result="effect1_dropShadow_893_24030"/>
<feOffset dy="0.5"/>
<feGaussianBlur stdDeviation="0.5"/>
<feColorMatrix type="matrix" values="0 0 0 0 0 0 0 0 0 0 0 0 0 0 0 0 0 0 0.1 0"/>
<feBlend mode="normal" in2="BackgroundImageFix" result="effect1_dropShadow_893_24030"/>
<feBlend mode="normal" in="SourceGraphic" in2="effect1_dropShadow_893_24030" result="shape"/>
</filter>
<filter id="filter7_d_893_24030" x="472.5" y="282" width="21" height="21" filterUnits="userSpaceOnUse" color-interpolation-filters="sRGB">
<feFlood flood-opacity="0" result="BackgroundImageFix"/>
<feColorMatrix in="SourceAlpha" type="matrix" values="0 0 0 0 0 0 0 0 0 0 0 0 0 0 0 0 0 0 127 0" result="hardAlpha"/>
<feMorphology radius="0.5" operator="dilate" in="SourceAlpha" result="effect1_dropShadow_893_24030"/>
<feOffset dy="0.5"/>
<feGaussianBlur stdDeviation="0.5"/>
<feColorMatrix type="matrix" values="0 0 0 0 0 0 0 0 0 0 0 0 0 0 0 0 0 0 0.1 0"/>
<feBlend mode="normal" in2="BackgroundImageFix" result="effect1_dropShadow_893_24030"/>
<feBlend mode="normal" in="SourceGraphic" in2="effect1_dropShadow_893_24030" result="shape"/>
</filter>
<clipPath id="clip0_893_24030">
<rect width="20" height="20" fill="white" transform="translate(473 122)"/>
</clipPath>
<clipPath id="clip1_893_24030">
<rect width="20" height="20" fill="white" transform="translate(451 162)"/>
</clipPath>
<clipPath id="clip2_893_24030">
<rect width="20" height="20" fill="white" transform="translate(473 162)"/>
</clipPath>
<clipPath id="clip3_893_24030">
<rect width="20" height="20" fill="white" transform="translate(451 202)"/>
</clipPath>
<clipPath id="clip4_893_24030">
<rect width="20" height="20" fill="white" transform="translate(473 202)"/>
</clipPath>
<clipPath id="clip5_893_24030">
<rect width="16" height="16" fill="white" transform="translate(77 244)"/>
</clipPath>
<clipPath id="clip6_893_24030">
<rect width="20" height="20" fill="white" transform="translate(473 242)"/>
</clipPath>
<clipPath id="clip7_893_24030">
<rect width="20" height="20" fill="white" transform="translate(473 282)"/>
</clipPath>
</defs>
</svg>
