<svg width="570" height="306" viewBox="0 0 570 306" fill="none" xmlns="http://www.w3.org/2000/svg">
<g filter="url(#filter0_dd_893_23949)">
<rect x="65" y="45" width="440" height="271" rx="8" fill="white"/>
<rect x="69" y="49" width="432" height="54" rx="6" fill="#F1F2F6"/>
<path d="M86.2305 82.5H87.707V72.7002H87.7598L91.8115 82.5H93.1475L97.1992 72.7002H97.252V82.5H98.7285V69.8174H96.9004L92.5059 80.5049H92.4531L88.0586 69.8174H86.2305V82.5ZM104.714 82.6758C106.709 82.6758 108.203 81.4805 108.502 79.9688L108.52 79.8809H107.017L106.99 79.96C106.727 80.7422 105.909 81.3223 104.749 81.3223C103.123 81.3223 102.086 80.2236 102.051 78.3428H108.634V77.7803C108.634 75.0381 107.113 73.1836 104.617 73.1836C102.121 73.1836 100.504 75.126 100.504 77.9561V77.9648C100.504 80.8389 102.086 82.6758 104.714 82.6758ZM104.608 74.5371C105.944 74.5371 106.929 75.3721 107.078 77.1475H102.077C102.244 75.4424 103.281 74.5371 104.608 74.5371ZM113.942 82.6758C115.938 82.6758 117.432 81.4805 117.73 79.9688L117.748 79.8809H116.245L116.219 79.96C115.955 80.7422 115.138 81.3223 113.978 81.3223C112.352 81.3223 111.314 80.2236 111.279 78.3428H117.862V77.7803C117.862 75.0381 116.342 73.1836 113.846 73.1836C111.35 73.1836 109.732 75.126 109.732 77.9561V77.9648C109.732 80.8389 111.314 82.6758 113.942 82.6758ZM113.837 74.5371C115.173 74.5371 116.157 75.3721 116.307 77.1475H111.306C111.473 75.4424 112.51 74.5371 113.837 74.5371ZM122.38 82.6758C122.679 82.6758 123.004 82.6406 123.197 82.6143V81.375C123.065 81.3838 122.89 81.4102 122.705 81.4102C121.888 81.4102 121.457 81.1377 121.457 80.1621V74.625H123.197V73.3594H121.457V70.8896H119.875V73.3594H118.539V74.625H119.875V80.1709C119.875 81.9199 120.701 82.6758 122.38 82.6758Z" fill="black"/>
<rect x="126" y="63.5" width="79" height="25" rx="4" fill="#017AFF"/>
<path d="M133.964 82.6758C134.263 82.6758 134.588 82.6406 134.781 82.6143V81.375C134.649 81.3838 134.474 81.4102 134.289 81.4102C133.472 81.4102 133.041 81.1377 133.041 80.1621V74.625H134.781V73.3594H133.041V70.8896H131.459V73.3594H130.123V74.625H131.459V80.1709C131.459 81.9199 132.285 82.6758 133.964 82.6758ZM136.504 82.5H138.033V77.165C138.033 75.6094 138.974 74.5371 140.389 74.5371C141.812 74.5371 142.656 75.5127 142.656 77.165V82.5H144.186V76.9014C144.186 74.6865 142.858 73.1836 140.916 73.1836C139.554 73.1836 138.561 73.79 138.068 74.8184H138.033V69.8174H136.504V82.5ZM146.989 71.8125C147.525 71.8125 147.947 71.3818 147.947 70.8545C147.947 70.3184 147.525 69.8965 146.989 69.8965C146.462 69.8965 146.031 70.3184 146.031 70.8545C146.031 71.3818 146.462 71.8125 146.989 71.8125ZM146.225 82.5H147.754V73.3594H146.225V82.5ZM153.08 82.6758C155.119 82.6758 156.631 81.5508 156.631 79.9512V79.9424C156.631 78.6416 155.963 77.9121 154.117 77.4639L152.667 77.1123C151.656 76.8662 151.243 76.4355 151.243 75.8115V75.8027C151.243 74.9941 151.929 74.458 153.036 74.458C154.17 74.458 154.847 75.0469 154.97 75.9346L154.979 75.9961H156.438L156.429 75.8818C156.314 74.3525 155.04 73.1836 153.036 73.1836C151.059 73.1836 149.679 74.2998 149.679 75.873V75.8818C149.679 77.2002 150.514 78 152.236 78.4131L153.687 78.7646C154.724 79.0195 155.066 79.3887 155.066 80.0479V80.0566C155.066 80.8828 154.328 81.4014 153.089 81.4014C151.841 81.4014 151.164 80.8652 150.979 79.9512L150.962 79.8633H149.433L149.441 79.9424C149.626 81.5771 150.927 82.6758 153.08 82.6758ZM163.724 82.5H165.279L167.336 75.4248H167.371L169.437 82.5H170.992L173.541 73.3594H172.029L170.201 80.7949H170.166L168.092 73.3594H166.615L164.55 80.7949H164.515L162.687 73.3594H161.166L163.724 82.5ZM178.56 82.6758C180.555 82.6758 182.049 81.4805 182.348 79.9688L182.365 79.8809H180.862L180.836 79.96C180.572 80.7422 179.755 81.3223 178.595 81.3223C176.969 81.3223 175.932 80.2236 175.896 78.3428H182.479V77.7803C182.479 75.0381 180.959 73.1836 178.463 73.1836C175.967 73.1836 174.35 75.126 174.35 77.9561V77.9648C174.35 80.8389 175.932 82.6758 178.56 82.6758ZM178.454 74.5371C179.79 74.5371 180.774 75.3721 180.924 77.1475H175.923C176.09 75.4424 177.127 74.5371 178.454 74.5371ZM187.788 82.6758C189.783 82.6758 191.277 81.4805 191.576 79.9688L191.594 79.8809H190.091L190.064 79.96C189.801 80.7422 188.983 81.3223 187.823 81.3223C186.197 81.3223 185.16 80.2236 185.125 78.3428H191.708V77.7803C191.708 75.0381 190.188 73.1836 187.691 73.1836C185.195 73.1836 183.578 75.126 183.578 77.9561V77.9648C183.578 80.8389 185.16 82.6758 187.788 82.6758ZM187.683 74.5371C189.019 74.5371 190.003 75.3721 190.152 77.1475H185.151C185.318 75.4424 186.355 74.5371 187.683 74.5371ZM193.378 82.5H194.907V79.0547L195.76 78.2373L199.152 82.5H200.928L196.841 77.3057L200.805 73.3594H198.95L194.942 77.3936H194.907V69.8174H193.378V82.5Z" fill="white"/>
<path d="M209.804 82.5H211.359L213.416 75.4248H213.451L215.517 82.5H217.072L219.621 73.3594H218.109L216.281 80.7949H216.246L214.172 73.3594H212.695L210.63 80.7949H210.595L208.767 73.3594H207.246L209.804 82.5ZM221.739 71.8125C222.275 71.8125 222.697 71.3818 222.697 70.8545C222.697 70.3184 222.275 69.8965 221.739 69.8965C221.212 69.8965 220.781 70.3184 220.781 70.8545C220.781 71.3818 221.212 71.8125 221.739 71.8125ZM220.975 82.5H222.504V73.3594H220.975V82.5ZM227.558 82.6758C227.856 82.6758 228.182 82.6406 228.375 82.6143V81.375C228.243 81.3838 228.067 81.4102 227.883 81.4102C227.065 81.4102 226.635 81.1377 226.635 80.1621V74.625H228.375V73.3594H226.635V70.8896H225.053V73.3594H223.717V74.625H225.053V80.1709C225.053 81.9199 225.879 82.6758 227.558 82.6758ZM230.098 82.5H231.627V77.165C231.627 75.6094 232.567 74.5371 233.982 74.5371C235.406 74.5371 236.25 75.5127 236.25 77.165V82.5H237.779V76.9014C237.779 74.6865 236.452 73.1836 234.51 73.1836C233.147 73.1836 232.154 73.79 231.662 74.8184H231.627V69.8174H230.098V82.5Z" fill="black"/>
<rect x="241" y="63.5" width="41" height="25" rx="4" fill="#017AFF"/>
<path d="M246.23 82.5H247.812V77.4814H250.845L253.561 82.5H255.415L252.479 77.2354C254.062 76.7344 255.028 75.3721 255.028 73.6143V73.5967C255.028 71.3115 253.429 69.8174 250.985 69.8174H246.23V82.5ZM247.812 76.084V71.2236H250.774C252.4 71.2236 253.394 72.1201 253.394 73.6318V73.6494C253.394 75.2051 252.471 76.084 250.845 76.084H247.812ZM257.647 71.8125C258.184 71.8125 258.605 71.3818 258.605 70.8545C258.605 70.3184 258.184 69.8965 257.647 69.8965C257.12 69.8965 256.689 70.3184 256.689 70.8545C256.689 71.3818 257.12 71.8125 257.647 71.8125ZM256.883 82.5H258.412V73.3594H256.883V82.5ZM264.283 82.6758C266.349 82.6758 267.852 81.3311 268.098 79.5908L268.106 79.5293H266.604L266.586 79.5996C266.331 80.6191 265.531 81.3223 264.283 81.3223C262.701 81.3223 261.611 80.0654 261.611 77.9385V77.9297C261.611 75.8555 262.675 74.5371 264.266 74.5371C265.61 74.5371 266.349 75.3457 266.577 76.2598L266.595 76.3301H268.089L268.08 76.2598C267.887 74.6953 266.542 73.1836 264.266 73.1836C261.726 73.1836 260.047 75.0293 260.047 77.9121V77.9209C260.047 80.8301 261.69 82.6758 264.283 82.6758ZM269.636 82.5H271.165V79.0547L272.018 78.2373L275.41 82.5H277.186L273.099 77.3057L277.062 73.3594H275.208L271.2 77.3936H271.165V69.8174H269.636V82.5Z" fill="white"/>
<rect x="286" y="63.5" width="60" height="25" rx="4" fill="#017AFF"/>
<path d="M293.85 82.5H295.344L298.297 72.3398H298.332L301.285 82.5H302.779L306.233 69.8174H304.581L302.023 80.2324H301.988L299.114 69.8174H297.515L294.641 80.2324H294.605L292.048 69.8174H290.396L293.85 82.5ZM308.483 71.8125C309.02 71.8125 309.441 71.3818 309.441 70.8545C309.441 70.3184 309.02 69.8965 308.483 69.8965C307.956 69.8965 307.525 70.3184 307.525 70.8545C307.525 71.3818 307.956 71.8125 308.483 71.8125ZM307.719 82.5H309.248V73.3594H307.719V82.5ZM311.41 82.5H312.939V69.8174H311.41V82.5ZM315.084 82.5H316.613V69.8174H315.084V82.5ZM322.44 82.6758C324.436 82.6758 325.93 81.4805 326.229 79.9688L326.246 79.8809H324.743L324.717 79.96C324.453 80.7422 323.636 81.3223 322.476 81.3223C320.85 81.3223 319.812 80.2236 319.777 78.3428H326.36V77.7803C326.36 75.0381 324.84 73.1836 322.344 73.1836C319.848 73.1836 318.23 75.126 318.23 77.9561V77.9648C318.23 80.8389 319.812 82.6758 322.44 82.6758ZM322.335 74.5371C323.671 74.5371 324.655 75.3721 324.805 77.1475H319.804C319.971 75.4424 321.008 74.5371 322.335 74.5371ZM327.907 82.5H329.437V76.7695C329.437 75.4951 330.315 74.5371 331.528 74.5371C332.662 74.5371 333.4 75.2666 333.4 76.374V82.5H334.93V76.6904C334.93 75.4424 335.782 74.5371 336.995 74.5371C338.199 74.5371 338.894 75.2842 338.894 76.541V82.5H340.423V76.1895C340.423 74.3701 339.254 73.1836 337.443 73.1836C336.16 73.1836 335.088 73.8428 334.578 74.9414H334.543C334.147 73.8252 333.225 73.1836 331.977 73.1836C330.799 73.1836 329.885 73.79 329.472 74.6953H329.437V73.3594H327.907V82.5Z" fill="white"/>
<rect x="348" y="65" width="1" height="22" rx="0.5" fill="#017AFF"/>
<rect x="351" y="63.5" width="50" height="25" rx="4" fill="#A9D2FF"/>
<path d="M356.23 82.5H364.088V81.0762H357.812V76.7168H363.763V75.3105H357.812V71.2412H364.088V69.8174H356.23V82.5ZM365.942 82.5H367.472V76.7695C367.472 75.4951 368.351 74.5371 369.563 74.5371C370.697 74.5371 371.436 75.2666 371.436 76.374V82.5H372.965V76.6904C372.965 75.4424 373.817 74.5371 375.03 74.5371C376.234 74.5371 376.929 75.2842 376.929 76.541V82.5H378.458V76.1895C378.458 74.3701 377.289 73.1836 375.479 73.1836C374.195 73.1836 373.123 73.8428 372.613 74.9414H372.578C372.183 73.8252 371.26 73.1836 370.012 73.1836C368.834 73.1836 367.92 73.79 367.507 74.6953H367.472V73.3594H365.942V82.5ZM381.271 71.8125C381.807 71.8125 382.229 71.3818 382.229 70.8545C382.229 70.3184 381.807 69.8965 381.271 69.8965C380.743 69.8965 380.312 70.3184 380.312 70.8545C380.312 71.3818 380.743 71.8125 381.271 71.8125ZM380.506 82.5H382.035V73.3594H380.506V82.5ZM387.88 82.6758C389.875 82.6758 391.369 81.4805 391.668 79.9688L391.686 79.8809H390.183L390.156 79.96C389.893 80.7422 389.075 81.3223 387.915 81.3223C386.289 81.3223 385.252 80.2236 385.217 78.3428H391.8V77.7803C391.8 75.0381 390.279 73.1836 387.783 73.1836C385.287 73.1836 383.67 75.126 383.67 77.9561V77.9648C383.67 80.8389 385.252 82.6758 387.88 82.6758ZM387.774 74.5371C389.11 74.5371 390.095 75.3721 390.244 77.1475H385.243C385.41 75.4424 386.447 74.5371 387.774 74.5371ZM393.426 82.5H394.955V69.8174H393.426V82.5Z" fill="white"/>
<rect x="65" y="107" width="440" height="1" fill="#F1F2F6"/>
<path d="M77.1396 126H78.4019L79.1162 123.905H82.1025L82.8115 126H84.0737L81.2593 118.25H79.9595L77.1396 126ZM80.5986 119.533H80.6201L81.7749 122.938H79.4385L80.5986 119.533ZM86.7539 126.113C87.5649 126.113 88.188 125.705 88.5264 125.044H88.5479V126H89.7134V118.25H88.5479V121.311H88.5264C88.188 120.645 87.5435 120.242 86.7432 120.242C85.3252 120.242 84.3906 121.37 84.3906 123.169V123.175C84.3906 124.974 85.3145 126.113 86.7539 126.113ZM87.0601 125.114C86.1416 125.114 85.5776 124.378 85.5776 123.175V123.169C85.5776 121.977 86.147 121.236 87.0601 121.236C87.9302 121.236 88.5532 121.999 88.5532 123.169V123.175C88.5532 124.351 87.9355 125.114 87.0601 125.114ZM93.0166 126.113C93.8276 126.113 94.4507 125.705 94.7891 125.044H94.8105V126H95.9761V118.25H94.8105V121.311H94.7891C94.4507 120.645 93.8062 120.242 93.0059 120.242C91.5879 120.242 90.6533 121.37 90.6533 123.169V123.175C90.6533 124.974 91.5771 126.113 93.0166 126.113ZM93.3228 125.114C92.4043 125.114 91.8403 124.378 91.8403 123.175V123.169C91.8403 121.977 92.4097 121.236 93.3228 121.236C94.1929 121.236 94.8159 121.999 94.8159 123.169V123.175C94.8159 124.351 94.1982 125.114 93.3228 125.114ZM101.514 126.113C102.325 126.113 102.948 125.705 103.286 125.044H103.308V126H104.473V118.25H103.308V121.311H103.286C102.948 120.645 102.303 120.242 101.503 120.242C100.085 120.242 99.1504 121.37 99.1504 123.169V123.175C99.1504 124.974 100.074 126.113 101.514 126.113ZM101.82 125.114C100.901 125.114 100.337 124.378 100.337 123.175V123.169C100.337 121.977 100.907 121.236 101.82 121.236C102.69 121.236 103.313 121.999 103.313 123.169V123.175C103.313 124.351 102.695 125.114 101.82 125.114ZM107.588 126.113C108.448 126.113 109.022 125.721 109.318 125.151H109.345V126H110.51V120.35H109.345V123.647C109.345 124.528 108.818 125.114 108.002 125.114C107.196 125.114 106.799 124.641 106.799 123.787V120.35H105.639V124.013C105.639 125.312 106.348 126.113 107.588 126.113ZM111.66 126H112.82V122.632C112.82 121.789 113.282 121.3 114.028 121.3C114.254 121.3 114.458 121.327 114.549 121.365V120.285C114.458 120.269 114.313 120.242 114.146 120.242C113.502 120.242 113.029 120.656 112.847 121.316H112.82V120.35H111.66V126ZM116.811 126.102C117.557 126.102 118.212 125.715 118.54 125.108H118.562V126H119.727V122.106C119.727 120.973 118.852 120.242 117.471 120.242C116.08 120.242 115.237 120.989 115.156 121.961L115.151 122.02H116.247L116.257 121.972C116.354 121.521 116.768 121.204 117.439 121.204C118.159 121.204 118.562 121.58 118.562 122.203V122.627L117.025 122.718C115.688 122.799 114.925 123.4 114.925 124.383V124.394C114.925 125.409 115.683 126.102 116.811 126.102ZM116.096 124.367V124.356C116.096 123.878 116.483 123.572 117.181 123.529L118.562 123.443V123.884C118.562 124.62 117.944 125.173 117.127 125.173C116.504 125.173 116.096 124.861 116.096 124.367ZM122.837 126.113C123.073 126.113 123.293 126.086 123.428 126.064V125.167C123.342 125.178 123.24 125.189 123.116 125.189C122.627 125.189 122.37 125.017 122.37 124.442V121.273H123.428V120.35H122.37V118.878H121.183V120.35H120.372V121.273H121.183V124.512C121.183 125.64 121.72 126.113 122.837 126.113ZM125.018 119.479C125.399 119.479 125.694 119.179 125.694 118.813C125.694 118.443 125.399 118.142 125.018 118.142C124.642 118.142 124.341 118.443 124.341 118.813C124.341 119.179 124.642 119.479 125.018 119.479ZM124.438 126H125.598V120.35H124.438V126ZM129.223 126.113C130.84 126.113 131.903 124.996 131.903 123.175V123.164C131.903 121.354 130.829 120.242 129.218 120.242C127.612 120.242 126.543 121.359 126.543 123.164V123.175C126.543 124.99 127.601 126.113 129.223 126.113ZM129.229 125.141C128.321 125.141 127.73 124.426 127.73 123.175V123.164C127.73 121.929 128.326 121.214 129.218 121.214C130.125 121.214 130.716 121.929 130.716 123.164V123.175C130.716 124.421 130.136 125.141 129.229 125.141ZM132.8 126H133.96V122.708C133.96 121.827 134.487 121.236 135.303 121.236C136.109 121.236 136.506 121.714 136.506 122.562V126H137.672V122.342C137.672 121.042 136.958 120.242 135.717 120.242C134.863 120.242 134.283 120.629 133.987 121.204H133.96V120.35H132.8V126Z" fill="#A8AAB5"/>
<circle cx="85" cy="152" r="6.25" stroke="#A8AAB5" stroke-width="1.5"/>
<path d="M85 148.5V152L86.5 153.5" stroke="#A8AAB5" stroke-width="1.5" stroke-linecap="round" stroke-linejoin="round"/>
<path d="M106.065 157H107.43V155.178H108.693V153.985H107.43V147.84H105.374L101.482 153.94V155.178H106.065V157ZM102.803 154.004V153.966L106.04 148.964H106.078V154.004H102.803ZM113.048 157.152C115.022 157.152 116.412 155.864 116.412 154.004V153.991C116.412 152.239 115.149 150.976 113.397 150.976C112.496 150.976 111.734 151.325 111.321 151.941H111.29L111.569 149.04H115.879V147.84H110.42L109.969 153.122H111.213C111.334 152.918 111.48 152.741 111.651 152.595C112.02 152.265 112.508 152.1 113.073 152.1C114.209 152.1 115.016 152.893 115.022 154.017V154.029C115.022 155.166 114.216 155.965 113.061 155.965C112.039 155.965 111.29 155.331 111.169 154.505L111.163 154.455H109.804L109.811 154.531C109.938 156.042 111.213 157.152 113.048 157.152ZM120.176 157H121.547V152.874C121.547 152.011 122.125 151.37 122.938 151.37C123.712 151.37 124.201 151.865 124.201 152.639V157H125.546V152.823C125.546 151.979 126.111 151.37 126.924 151.37C127.736 151.37 128.2 151.871 128.2 152.741V157H129.577V152.411C129.577 151.071 128.714 150.195 127.394 150.195C126.441 150.195 125.654 150.697 125.312 151.509H125.28C125.013 150.671 124.34 150.195 123.42 150.195C122.544 150.195 121.865 150.659 121.579 151.357H121.547V150.322H120.176V157ZM131.646 149.294C132.097 149.294 132.446 148.938 132.446 148.507C132.446 148.069 132.097 147.713 131.646 147.713C131.202 147.713 130.847 148.069 130.847 148.507C130.847 148.938 131.202 149.294 131.646 149.294ZM130.961 157H132.332V150.322H130.961V157ZM133.748 157H135.119V153.109C135.119 152.068 135.741 151.37 136.706 151.37C137.658 151.37 138.127 151.935 138.127 152.938V157H139.505V152.677C139.505 151.141 138.661 150.195 137.194 150.195C136.185 150.195 135.5 150.652 135.15 151.332H135.119V150.322H133.748V157Z" fill="black"/>
<circle cx="85" cy="192" r="6.25" stroke="#A8AAB5" stroke-width="1.5"/>
<path d="M85 188.5V192L86.5 193.5" stroke="#A8AAB5" stroke-width="1.5" stroke-linecap="round" stroke-linejoin="round"/>
<path d="M104.028 197H105.418V187.84H104.015L101.603 189.554V190.9L103.996 189.25H104.028V197ZM110.312 197H111.683V193.134C111.683 192.093 112.312 191.37 113.257 191.37C114.222 191.37 114.781 192.03 114.781 193.134V197H116.152V192.874C116.152 191.262 115.212 190.195 113.784 190.195C112.788 190.195 112.07 190.646 111.715 191.42H111.683V187.84H110.312V197ZM117.485 197H118.856V193.02C118.856 192.023 119.402 191.446 120.284 191.446C120.551 191.446 120.792 191.478 120.9 191.522V190.246C120.792 190.227 120.621 190.195 120.424 190.195C119.662 190.195 119.104 190.684 118.888 191.465H118.856V190.322H117.485V197Z" fill="black"/>
<path d="M77.1396 226H78.4019L79.1162 223.905H82.1025L82.8115 226H84.0737L81.2593 218.25H79.9595L77.1396 226ZM80.5986 219.533H80.6201L81.7749 222.938H79.4385L80.5986 219.533ZM86.7539 226.113C87.5649 226.113 88.188 225.705 88.5264 225.044H88.5479V226H89.7134V218.25H88.5479V221.311H88.5264C88.188 220.645 87.5435 220.242 86.7432 220.242C85.3252 220.242 84.3906 221.37 84.3906 223.169V223.175C84.3906 224.974 85.3145 226.113 86.7539 226.113ZM87.0601 225.114C86.1416 225.114 85.5776 224.378 85.5776 223.175V223.169C85.5776 221.977 86.147 221.236 87.0601 221.236C87.9302 221.236 88.5532 221.999 88.5532 223.169V223.175C88.5532 224.351 87.9355 225.114 87.0601 225.114ZM93.0166 226.113C93.8276 226.113 94.4507 225.705 94.7891 225.044H94.8105V226H95.9761V218.25H94.8105V221.311H94.7891C94.4507 220.645 93.8062 220.242 93.0059 220.242C91.5879 220.242 90.6533 221.37 90.6533 223.169V223.175C90.6533 224.974 91.5771 226.113 93.0166 226.113ZM93.3228 225.114C92.4043 225.114 91.8403 224.378 91.8403 223.175V223.169C91.8403 221.977 92.4097 221.236 93.3228 221.236C94.1929 221.236 94.8159 221.999 94.8159 223.169V223.175C94.8159 224.351 94.1982 225.114 93.3228 225.114ZM101.062 226.102C101.809 226.102 102.464 225.715 102.792 225.108H102.813V226H103.979V222.106C103.979 220.973 103.104 220.242 101.723 220.242C100.332 220.242 99.4888 220.989 99.4082 221.961L99.4028 222.02H100.499L100.509 221.972C100.606 221.521 101.02 221.204 101.691 221.204C102.411 221.204 102.813 221.58 102.813 222.203V222.627L101.277 222.718C99.9399 222.799 99.1772 223.4 99.1772 224.383V224.394C99.1772 225.409 99.9346 226.102 101.062 226.102ZM100.348 224.367V224.356C100.348 223.878 100.735 223.572 101.433 223.529L102.813 223.443V223.884C102.813 224.62 102.196 225.173 101.379 225.173C100.756 225.173 100.348 224.861 100.348 224.367ZM107.089 226.113C107.325 226.113 107.545 226.086 107.68 226.064V225.167C107.594 225.178 107.492 225.189 107.368 225.189C106.879 225.189 106.622 225.017 106.622 224.442V221.273H107.68V220.35H106.622V218.878H105.435V220.35H104.624V221.273H105.435V224.512C105.435 225.64 105.972 226.113 107.089 226.113ZM110.623 226.113C110.859 226.113 111.08 226.086 111.214 226.064V225.167C111.128 225.178 111.026 225.189 110.902 225.189C110.414 225.189 110.156 225.017 110.156 224.442V221.273H111.214V220.35H110.156V218.878H108.969V220.35H108.158V221.273H108.969V224.512C108.969 225.64 109.506 226.113 110.623 226.113ZM114.447 226.113C115.817 226.113 116.687 225.296 116.87 224.399L116.88 224.34H115.779L115.763 224.383C115.618 224.808 115.162 225.162 114.474 225.162C113.55 225.162 112.965 224.539 112.943 223.47H116.945V223.078C116.945 221.381 115.973 220.242 114.388 220.242C112.804 220.242 111.783 221.424 111.783 223.191V223.196C111.783 224.979 112.788 226.113 114.447 226.113ZM114.394 221.193C115.151 221.193 115.699 221.671 115.795 222.648H112.959C113.062 221.703 113.642 221.193 114.394 221.193ZM117.847 226H119.007V222.708C119.007 221.827 119.534 221.236 120.35 221.236C121.156 221.236 121.553 221.714 121.553 222.562V226H122.719V222.342C122.719 221.042 122.004 220.242 120.764 220.242C119.91 220.242 119.33 220.629 119.034 221.204H119.007V220.35H117.847V226ZM125.952 226.113C126.763 226.113 127.386 225.705 127.725 225.044H127.746V226H128.912V218.25H127.746V221.311H127.725C127.386 220.645 126.742 220.242 125.941 220.242C124.523 220.242 123.589 221.37 123.589 223.169V223.175C123.589 224.974 124.513 226.113 125.952 226.113ZM126.258 225.114C125.34 225.114 124.776 224.378 124.776 223.175V223.169C124.776 221.977 125.345 221.236 126.258 221.236C127.128 221.236 127.751 221.999 127.751 223.169V223.175C127.751 224.351 127.134 225.114 126.258 225.114ZM132.516 226.113C133.885 226.113 134.755 225.296 134.938 224.399L134.949 224.34H133.848L133.832 224.383C133.687 224.808 133.23 225.162 132.542 225.162C131.619 225.162 131.033 224.539 131.012 223.47H135.013V223.078C135.013 221.381 134.041 220.242 132.457 220.242C130.872 220.242 129.852 221.424 129.852 223.191V223.196C129.852 224.979 130.856 226.113 132.516 226.113ZM132.462 221.193C133.219 221.193 133.767 221.671 133.864 222.648H131.028C131.13 221.703 131.71 221.193 132.462 221.193ZM138.327 226.113C139.697 226.113 140.567 225.296 140.75 224.399L140.76 224.34H139.659L139.643 224.383C139.498 224.808 139.042 225.162 138.354 225.162C137.43 225.162 136.845 224.539 136.823 223.47H140.825V223.078C140.825 221.381 139.853 220.242 138.268 220.242C136.684 220.242 135.663 221.424 135.663 223.191V223.196C135.663 224.979 136.667 226.113 138.327 226.113ZM138.273 221.193C139.031 221.193 139.579 221.671 139.675 222.648H136.839C136.941 221.703 137.521 221.193 138.273 221.193ZM143.843 226.113C145.175 226.113 146.142 225.404 146.142 224.373V224.367C146.142 223.556 145.702 223.1 144.547 222.831L143.628 222.622C143.021 222.477 142.791 222.24 142.791 221.891V221.886C142.791 221.435 143.183 221.139 143.806 221.139C144.461 221.139 144.848 221.483 144.917 221.977L144.923 222.015H146.013L146.008 221.95C145.949 220.989 145.143 220.242 143.806 220.242C142.506 220.242 141.625 220.935 141.625 221.945V221.95C141.625 222.772 142.157 223.288 143.231 223.535L144.155 223.744C144.762 223.889 144.966 224.099 144.966 224.464V224.469C144.966 224.926 144.547 225.216 143.849 225.216C143.134 225.216 142.748 224.91 142.64 224.389L142.629 224.335H141.48L141.485 224.383C141.604 225.415 142.431 226.113 143.843 226.113Z" fill="#A8AAB5"/>
<g clip-path="url(#clip0_893_23949)">
<circle cx="85" cy="248.5" r="2.75" stroke="#A8AAB5" stroke-width="1.5"/>
<path d="M87 258.75C87.4142 258.75 87.75 258.414 87.75 258C87.75 257.586 87.4142 257.25 87 257.25L87 258.75ZM85 254.75C85.4142 254.75 85.75 254.414 85.75 254C85.75 253.586 85.4142 253.25 85 253.25V254.75ZM81 258L81 258.75L81 258ZM81 258.75L87 258.75L87 257.25L81 257.25L81 258.75ZM80.549 256.443C81.8198 255.441 83.34 254.75 85 254.75V253.25C82.9116 253.25 81.0737 254.12 79.6205 255.265L80.549 256.443ZM81 257.25C80.6732 257.25 80.4735 257.075 80.4003 256.91C80.3637 256.827 80.3586 256.75 80.3741 256.685C80.3884 256.625 80.4291 256.538 80.549 256.443L79.6205 255.265C78.8562 255.867 78.6996 256.775 79.0293 257.518C79.3474 258.235 80.0908 258.75 81 258.75L81 257.25Z" fill="#A8AAB5"/>
<line x1="89.5" y1="252.75" x2="89.5" y2="256.25" stroke="#A8AAB5" stroke-width="1.5" stroke-linecap="round"/>
<line x1="87.75" y1="254.5" x2="91.25" y2="254.5" stroke="#A8AAB5" stroke-width="1.5" stroke-linecap="round"/>
</g>
<path d="M101.165 257H102.657L103.501 254.524H107.03L107.868 257H109.36L106.034 247.84H104.498L101.165 257ZM105.253 249.357H105.278L106.643 253.382H103.882L105.253 249.357ZM112.527 257.133C113.486 257.133 114.222 256.651 114.622 255.87H114.647V257H116.025V247.84H114.647V251.458H114.622C114.222 250.671 113.46 250.195 112.515 250.195C110.839 250.195 109.734 251.528 109.734 253.655V253.661C109.734 255.788 110.826 257.133 112.527 257.133ZM112.889 255.953C111.804 255.953 111.137 255.083 111.137 253.661V253.655C111.137 252.246 111.81 251.37 112.889 251.37C113.917 251.37 114.654 252.271 114.654 253.655V253.661C114.654 255.051 113.924 255.953 112.889 255.953ZM119.929 257.133C120.887 257.133 121.624 256.651 122.023 255.87H122.049V257H123.426V247.84H122.049V251.458H122.023C121.624 250.671 120.862 250.195 119.916 250.195C118.24 250.195 117.136 251.528 117.136 253.655V253.661C117.136 255.788 118.228 257.133 119.929 257.133ZM120.291 255.953C119.205 255.953 118.539 255.083 118.539 253.661V253.655C118.539 252.246 119.211 251.37 120.291 251.37C121.319 251.37 122.055 252.271 122.055 253.655V253.661C122.055 255.051 121.325 255.953 120.291 255.953ZM129.438 257.121C130.32 257.121 131.094 256.664 131.481 255.946H131.507V257H132.884V252.398C132.884 251.059 131.85 250.195 130.218 250.195C128.574 250.195 127.578 251.078 127.482 252.227L127.476 252.296H128.771L128.784 252.239C128.898 251.706 129.387 251.332 130.18 251.332C131.031 251.332 131.507 251.776 131.507 252.512V253.014L129.691 253.122C128.111 253.217 127.209 253.928 127.209 255.089V255.102C127.209 256.302 128.104 257.121 129.438 257.121ZM128.593 255.07V255.058C128.593 254.493 129.05 254.131 129.875 254.08L131.507 253.979V254.499C131.507 255.369 130.777 256.022 129.812 256.022C129.076 256.022 128.593 255.654 128.593 255.07ZM136.56 257.133C136.839 257.133 137.099 257.102 137.258 257.076V256.016C137.156 256.029 137.036 256.042 136.89 256.042C136.312 256.042 136.007 255.838 136.007 255.159V251.414H137.258V250.322H136.007V248.583H134.604V250.322H133.646V251.414H134.604V255.242C134.604 256.575 135.239 257.133 136.56 257.133ZM140.736 257.133C141.016 257.133 141.276 257.102 141.435 257.076V256.016C141.333 256.029 141.212 256.042 141.066 256.042C140.489 256.042 140.184 255.838 140.184 255.159V251.414H141.435V250.322H140.184V248.583H138.781V250.322H137.823V251.414H138.781V255.242C138.781 256.575 139.416 257.133 140.736 257.133ZM145.256 257.133C146.875 257.133 147.903 256.168 148.119 255.108L148.131 255.039H146.83L146.811 255.089C146.64 255.591 146.1 256.01 145.288 256.01C144.196 256.01 143.504 255.273 143.479 254.01H148.208V253.547C148.208 251.541 147.059 250.195 145.186 250.195C143.313 250.195 142.107 251.592 142.107 253.68V253.687C142.107 255.794 143.294 257.133 145.256 257.133ZM145.192 251.319C146.087 251.319 146.735 251.884 146.849 253.039H143.498C143.618 251.922 144.304 251.319 145.192 251.319ZM149.274 257H150.645V253.109C150.645 252.068 151.267 251.37 152.232 251.37C153.184 251.37 153.654 251.935 153.654 252.938V257H155.031V252.677C155.031 251.141 154.187 250.195 152.721 250.195C151.711 250.195 151.026 250.652 150.677 251.332H150.645V250.322H149.274V257ZM158.853 257.133C159.811 257.133 160.547 256.651 160.947 255.87H160.973V257H162.35V247.84H160.973V251.458H160.947C160.547 250.671 159.786 250.195 158.84 250.195C157.164 250.195 156.06 251.528 156.06 253.655V253.661C156.06 255.788 157.151 257.133 158.853 257.133ZM159.214 255.953C158.129 255.953 157.462 255.083 157.462 253.661V253.655C157.462 252.246 158.135 251.37 159.214 251.37C160.243 251.37 160.979 252.271 160.979 253.655V253.661C160.979 255.051 160.249 255.953 159.214 255.953ZM166.609 257.133C168.228 257.133 169.256 256.168 169.472 255.108L169.485 255.039H168.184L168.165 255.089C167.993 255.591 167.454 256.01 166.641 256.01C165.549 256.01 164.857 255.273 164.832 254.01H169.561V253.547C169.561 251.541 168.412 250.195 166.54 250.195C164.667 250.195 163.461 251.592 163.461 253.68V253.687C163.461 255.794 164.648 257.133 166.609 257.133ZM166.546 251.319C167.441 251.319 168.088 251.884 168.203 253.039H164.851C164.972 251.922 165.657 251.319 166.546 251.319ZM173.478 257.133C175.096 257.133 176.125 256.168 176.34 255.108L176.353 255.039H175.052L175.033 255.089C174.861 255.591 174.322 256.01 173.509 256.01C172.417 256.01 171.726 255.273 171.7 254.01H176.429V253.547C176.429 251.541 175.28 250.195 173.408 250.195C171.535 250.195 170.329 251.592 170.329 253.68V253.687C170.329 255.794 171.516 257.133 173.478 257.133ZM173.414 251.319C174.309 251.319 174.957 251.884 175.071 253.039H171.719C171.84 251.922 172.525 251.319 173.414 251.319Z" fill="black"/>
<g clip-path="url(#clip1_893_23949)">
<g filter="url(#filter1_d_893_23949)">
<rect x="474" y="243" width="18" height="18" rx="3" fill="#A8AAB5"/>
</g>
<path d="M483.244 257.172C483.874 257.172 484.46 257.084 484.938 256.923V256.166C484.553 256.317 483.918 256.41 483.293 256.41C481.281 256.41 479.865 255.214 479.865 253.065V253.061C479.865 251.073 481.193 249.706 483.073 249.706C484.963 249.706 486.208 250.868 486.208 252.729V252.733C486.208 253.803 485.9 254.379 485.441 254.379C485.09 254.379 484.86 254.066 484.86 253.446V251.132H483.962V251.737H483.923C483.732 251.303 483.273 251.029 482.736 251.029C481.755 251.029 481.052 251.864 481.052 253.061V253.065C481.052 254.325 481.735 255.16 482.736 255.16C483.356 255.16 483.85 254.867 484.094 254.281H484.133L484.167 254.354C484.357 254.828 484.787 255.175 485.393 255.175C486.359 255.175 487.062 254.286 487.062 252.704V252.699C487.062 250.409 485.441 248.954 483.117 248.954C480.7 248.954 479.011 250.619 479.011 253.056V253.061C479.011 255.663 480.769 257.172 483.244 257.172ZM482.946 254.34C482.385 254.34 482.038 253.866 482.038 253.08V253.075C482.038 252.299 482.385 251.84 482.956 251.84C483.527 251.84 483.903 252.313 483.903 253.075V253.085C483.903 253.856 483.527 254.34 482.946 254.34Z" fill="white"/>
</g>
<g clip-path="url(#clip2_893_23949)">
<circle cx="85" cy="288.5" r="2.75" stroke="#A8AAB5" stroke-width="1.5"/>
<path d="M87 298.75C87.4142 298.75 87.75 298.414 87.75 298C87.75 297.586 87.4142 297.25 87 297.25L87 298.75ZM85 294.75C85.4142 294.75 85.75 294.414 85.75 294C85.75 293.586 85.4142 293.25 85 293.25V294.75ZM81 298L81 298.75L81 298ZM81 298.75L87 298.75L87 297.25L81 297.25L81 298.75ZM80.549 296.443C81.8198 295.441 83.34 294.75 85 294.75V293.25C82.9116 293.25 81.0737 294.12 79.6205 295.265L80.549 296.443ZM81 297.25C80.6732 297.25 80.4735 297.075 80.4003 296.91C80.3637 296.827 80.3586 296.75 80.3741 296.685C80.3884 296.625 80.4291 296.538 80.549 296.443L79.6205 295.265C78.8562 295.867 78.6996 296.775 79.0293 297.518C79.3474 298.235 80.0908 298.75 81 298.75L81 297.25Z" fill="#A8AAB5"/>
<line x1="89.5" y1="292.75" x2="89.5" y2="296.25" stroke="#A8AAB5" stroke-width="1.5" stroke-linecap="round"/>
<line x1="87.75" y1="294.5" x2="91.25" y2="294.5" stroke="#A8AAB5" stroke-width="1.5" stroke-linecap="round"/>
</g>
<path d="M101.844 297H103.266V293.483H105.221L107.087 297H108.725L106.675 293.268C107.773 292.893 108.452 291.903 108.452 290.659V290.646C108.452 288.926 107.271 287.84 105.399 287.84H101.844V297ZM103.266 292.315V289.034H105.221C106.313 289.034 106.986 289.643 106.986 290.659V290.671C106.986 291.712 106.357 292.315 105.259 292.315H103.266ZM110.407 289.294C110.858 289.294 111.207 288.938 111.207 288.507C111.207 288.069 110.858 287.713 110.407 287.713C109.963 287.713 109.607 288.069 109.607 288.507C109.607 288.938 109.963 289.294 110.407 289.294ZM109.722 297H111.093V290.322H109.722V297ZM115.377 297.133C116.983 297.133 118.101 296.105 118.247 294.766L118.253 294.721H116.933L116.926 294.772C116.761 295.496 116.222 295.984 115.377 295.984C114.317 295.984 113.613 295.127 113.613 293.667V293.661C113.613 292.233 114.305 291.344 115.371 291.344C116.266 291.344 116.774 291.896 116.92 292.55L116.933 292.601H118.24L118.234 292.557C118.12 291.3 117.079 290.195 115.358 290.195C113.454 290.195 112.21 291.535 112.21 293.648V293.655C112.21 295.794 113.429 297.133 115.377 297.133ZM119.3 297H120.671V294.594L121.243 294.029L123.509 297H125.102L122.252 293.204L124.994 290.322H123.382L120.703 293.172H120.671V287.84H119.3V297ZM128.593 297H130.015V293.871H132.002C133.798 293.871 135.042 292.646 135.042 290.855V290.843C135.042 289.046 133.798 287.84 132.002 287.84H128.593V297ZM131.646 289.04C132.884 289.04 133.595 289.707 133.595 290.849V290.862C133.595 292.011 132.884 292.677 131.646 292.677H130.015V289.04H131.646ZM137.55 297.121C138.432 297.121 139.207 296.664 139.594 295.946H139.619V297H140.997V292.398C140.997 291.059 139.962 290.195 138.331 290.195C136.687 290.195 135.69 291.078 135.595 292.227L135.588 292.296H136.883L136.896 292.239C137.01 291.706 137.499 291.332 138.292 291.332C139.143 291.332 139.619 291.776 139.619 292.512V293.014L137.804 293.122C136.223 293.217 135.322 293.928 135.322 295.089V295.102C135.322 296.302 136.217 297.121 137.55 297.121ZM136.706 295.07V295.058C136.706 294.493 137.163 294.131 137.988 294.08L139.619 293.979V294.499C139.619 295.369 138.889 296.022 137.924 296.022C137.188 296.022 136.706 295.654 136.706 295.07ZM144.831 297.133C146.405 297.133 147.547 296.295 147.547 295.077V295.07C147.547 294.112 147.027 293.572 145.662 293.255L144.577 293.007C143.859 292.836 143.586 292.557 143.586 292.144V292.138C143.586 291.604 144.05 291.255 144.786 291.255C145.561 291.255 146.018 291.662 146.1 292.246L146.106 292.29H147.395L147.389 292.214C147.319 291.078 146.367 290.195 144.786 290.195C143.25 290.195 142.209 291.014 142.209 292.208V292.214C142.209 293.185 142.837 293.794 144.107 294.086L145.199 294.334C145.916 294.505 146.157 294.753 146.157 295.185V295.191C146.157 295.73 145.662 296.073 144.837 296.073C143.993 296.073 143.536 295.711 143.409 295.096L143.396 295.032H142.038L142.044 295.089C142.184 296.308 143.161 297.133 144.831 297.133ZM150.956 297.133C151.235 297.133 151.496 297.102 151.654 297.076V296.016C151.553 296.029 151.432 296.042 151.286 296.042C150.708 296.042 150.404 295.838 150.404 295.159V291.414H151.654V290.322H150.404V288.583H149.001V290.322H148.042V291.414H149.001V295.242C149.001 296.575 149.636 297.133 150.956 297.133ZM155.495 297.133C157.405 297.133 158.662 295.813 158.662 293.661V293.648C158.662 291.509 157.393 290.195 155.488 290.195C153.59 290.195 152.327 291.516 152.327 293.648V293.661C152.327 295.807 153.578 297.133 155.495 297.133ZM155.501 295.984C154.428 295.984 153.73 295.14 153.73 293.661V293.648C153.73 292.188 154.435 291.344 155.488 291.344C156.561 291.344 157.259 292.188 157.259 293.648V293.661C157.259 295.134 156.574 295.984 155.501 295.984ZM162.591 297.133C164.502 297.133 165.759 295.813 165.759 293.661V293.648C165.759 291.509 164.489 290.195 162.585 290.195C160.687 290.195 159.424 291.516 159.424 293.648V293.661C159.424 295.807 160.674 297.133 162.591 297.133ZM162.598 295.984C161.525 295.984 160.827 295.14 160.827 293.661V293.648C160.827 292.188 161.531 291.344 162.585 291.344C163.658 291.344 164.356 292.188 164.356 293.648V293.661C164.356 295.134 163.67 295.984 162.598 295.984ZM166.819 297H168.19V293.02C168.19 292.023 168.736 291.446 169.618 291.446C169.885 291.446 170.126 291.478 170.234 291.522V290.246C170.126 290.227 169.955 290.195 169.758 290.195C168.996 290.195 168.438 290.684 168.222 291.465H168.19V290.322H166.819V297ZM175.687 297.121C176.569 297.121 177.343 296.664 177.73 295.946H177.756V297H179.133V292.398C179.133 291.059 178.099 290.195 176.467 290.195C174.823 290.195 173.827 291.078 173.731 292.227L173.725 292.296H175.02L175.033 292.239C175.147 291.706 175.636 291.332 176.429 291.332C177.28 291.332 177.756 291.776 177.756 292.512V293.014L175.94 293.122C174.36 293.217 173.458 293.928 173.458 295.089V295.102C173.458 296.302 174.354 297.121 175.687 297.121ZM174.842 295.07V295.058C174.842 294.493 175.299 294.131 176.125 294.08L177.756 293.979V294.499C177.756 295.369 177.026 296.022 176.061 296.022C175.325 296.022 174.842 295.654 174.842 295.07ZM180.466 297H181.837V293.109C181.837 292.068 182.459 291.37 183.424 291.37C184.376 291.37 184.846 291.935 184.846 292.938V297H186.224V292.677C186.224 291.141 185.379 290.195 183.913 290.195C182.904 290.195 182.218 290.652 181.869 291.332H181.837V290.322H180.466V297ZM190.045 297.133C191.003 297.133 191.74 296.651 192.14 295.87H192.165V297H193.542V287.84H192.165V291.458H192.14C191.74 290.671 190.978 290.195 190.032 290.195C188.356 290.195 187.252 291.528 187.252 293.655V293.661C187.252 295.788 188.344 297.133 190.045 297.133ZM190.407 295.953C189.321 295.953 188.655 295.083 188.655 293.661V293.655C188.655 292.246 189.328 291.37 190.407 291.37C191.435 291.37 192.171 292.271 192.171 293.655V293.661C192.171 295.051 191.441 295.953 190.407 295.953ZM199.662 297H201.026L203 290.094H203.032L205 297H206.365L208.84 287.84H207.361L205.654 295.02H205.622L203.686 287.84H202.34L200.404 295.02H200.379L198.671 287.84H197.192L199.662 297ZM210.548 289.294C210.999 289.294 211.348 288.938 211.348 288.507C211.348 288.069 210.999 287.713 210.548 287.713C210.104 287.713 209.748 288.069 209.748 288.507C209.748 288.938 210.104 289.294 210.548 289.294ZM209.862 297H211.233V290.322H209.862V297ZM212.7 297H214.071V287.84H212.7V297ZM215.531 297H216.902V287.84H215.531V297ZM221.161 297.133C222.78 297.133 223.808 296.168 224.024 295.108L224.037 295.039H222.735L222.716 295.089C222.545 295.591 222.005 296.01 221.193 296.01C220.101 296.01 219.409 295.273 219.384 294.01H224.113V293.547C224.113 291.541 222.964 290.195 221.091 290.195C219.219 290.195 218.013 291.592 218.013 293.68V293.687C218.013 295.794 219.2 297.133 221.161 297.133ZM221.098 291.319C221.993 291.319 222.64 291.884 222.754 293.039H219.403C219.523 291.922 220.209 291.319 221.098 291.319ZM225.179 297H226.55V292.874C226.55 292.011 227.128 291.37 227.94 291.37C228.715 291.37 229.204 291.865 229.204 292.639V297H230.549V292.823C230.549 291.979 231.114 291.37 231.927 291.37C232.739 291.37 233.203 291.871 233.203 292.741V297H234.58V292.411C234.58 291.071 233.717 290.195 232.396 290.195C231.444 290.195 230.657 290.697 230.314 291.509H230.283C230.016 290.671 229.343 290.195 228.423 290.195C227.547 290.195 226.868 290.659 226.582 291.357H226.55V290.322H225.179V297ZM241.835 297.152C244.006 297.152 245.327 296.092 245.327 294.423V294.417C245.327 293.001 244.514 292.233 242.623 291.833L241.62 291.624C240.477 291.376 239.957 290.957 239.957 290.271V290.265C239.957 289.465 240.68 288.926 241.816 288.919C242.902 288.919 243.638 289.434 243.765 290.284L243.771 290.373H245.155L245.149 290.265C245.054 288.729 243.746 287.688 241.835 287.688C239.899 287.688 238.522 288.761 238.516 290.322V290.329C238.516 291.687 239.385 292.512 241.182 292.893L242.178 293.103C243.391 293.369 243.892 293.769 243.892 294.505V294.512C243.892 295.369 243.118 295.921 241.893 295.921C240.667 295.921 239.823 295.394 239.696 294.55L239.684 294.467H238.3L238.306 294.562C238.42 296.175 239.779 297.152 241.835 297.152ZM246.444 299.222H247.815V295.876H247.847C248.24 296.651 249.008 297.133 249.954 297.133C251.63 297.133 252.728 295.794 252.728 293.667V293.661C252.728 291.528 251.636 290.195 249.935 290.195C248.983 290.195 248.247 290.678 247.847 291.471H247.815V290.322H246.444V299.222ZM249.58 295.953C248.545 295.953 247.809 295.051 247.809 293.667V293.661C247.809 292.271 248.539 291.37 249.58 291.37C250.652 291.37 251.332 292.239 251.332 293.661V293.667C251.332 295.077 250.659 295.953 249.58 295.953ZM253.794 297H255.166V293.02C255.166 292.023 255.711 291.446 256.594 291.446C256.86 291.446 257.102 291.478 257.209 291.522V290.246C257.102 290.227 256.93 290.195 256.733 290.195C255.972 290.195 255.413 290.684 255.197 291.465H255.166V290.322H253.794V297ZM260.333 297.133C261.348 297.133 262.027 296.67 262.376 295.997H262.408V297H263.786V290.322H262.408V294.22C262.408 295.261 261.786 295.953 260.821 295.953C259.869 295.953 259.399 295.394 259.399 294.385V290.322H258.028V294.651C258.028 296.188 258.866 297.133 260.333 297.133ZM265.887 289.294C266.337 289.294 266.687 288.938 266.687 288.507C266.687 288.069 266.337 287.713 265.887 287.713C265.442 287.713 265.087 288.069 265.087 288.507C265.087 288.938 265.442 289.294 265.887 289.294ZM265.201 297H266.572V290.322H265.201V297ZM268.718 289.294C269.168 289.294 269.518 288.938 269.518 288.507C269.518 288.069 269.168 287.713 268.718 287.713C268.273 287.713 267.918 288.069 267.918 288.507C267.918 288.938 268.273 289.294 268.718 289.294ZM267.22 299.234C268.699 299.234 269.403 298.587 269.403 297.229V290.322H268.032V297.216C268.032 297.889 267.778 298.104 267.099 298.104C267.029 298.104 266.966 298.098 266.902 298.098V299.222C266.991 299.228 267.112 299.234 267.22 299.234ZM273.161 297.133C273.44 297.133 273.701 297.102 273.859 297.076V296.016C273.758 296.029 273.637 296.042 273.491 296.042C272.914 296.042 272.609 295.838 272.609 295.159V291.414H273.859V290.322H272.609V288.583H271.206V290.322H270.248V291.414H271.206V295.242C271.206 296.575 271.841 297.133 273.161 297.133Z" fill="black"/>
</g>
<defs>
<filter id="filter0_dd_893_23949" x="0" y="0" width="570" height="401" filterUnits="userSpaceOnUse" color-interpolation-filters="sRGB">
<feFlood flood-opacity="0" result="BackgroundImageFix"/>
<feColorMatrix in="SourceAlpha" type="matrix" values="0 0 0 0 0 0 0 0 0 0 0 0 0 0 0 0 0 0 127 0" result="hardAlpha"/>
<feOffset dy="2"/>
<feGaussianBlur stdDeviation="4"/>
<feColorMatrix type="matrix" values="0 0 0 0 0 0 0 0 0 0 0 0 0 0 0 0 0 0 0.2 0"/>
<feBlend mode="normal" in2="BackgroundImageFix" result="effect1_dropShadow_893_23949"/>
<feColorMatrix in="SourceAlpha" type="matrix" values="0 0 0 0 0 0 0 0 0 0 0 0 0 0 0 0 0 0 127 0" result="hardAlpha"/>
<feMorphology radius="1" operator="dilate" in="SourceAlpha" result="effect2_dropShadow_893_23949"/>
<feOffset dy="20"/>
<feGaussianBlur stdDeviation="32"/>
<feColorMatrix type="matrix" values="0 0 0 0 0 0 0 0 0 0 0 0 0 0 0 0 0 0 0.2 0"/>
<feBlend mode="normal" in2="effect1_dropShadow_893_23949" result="effect2_dropShadow_893_23949"/>
<feBlend mode="normal" in="SourceGraphic" in2="effect2_dropShadow_893_23949" result="shape"/>
</filter>
<filter id="filter1_d_893_23949" x="472.5" y="242" width="21" height="21" filterUnits="userSpaceOnUse" color-interpolation-filters="sRGB">
<feFlood flood-opacity="0" result="BackgroundImageFix"/>
<feColorMatrix in="SourceAlpha" type="matrix" values="0 0 0 0 0 0 0 0 0 0 0 0 0 0 0 0 0 0 127 0" result="hardAlpha"/>
<feMorphology radius="0.5" operator="dilate" in="SourceAlpha" result="effect1_dropShadow_893_23949"/>
<feOffset dy="0.5"/>
<feGaussianBlur stdDeviation="0.5"/>
<feColorMatrix type="matrix" values="0 0 0 0 0 0 0 0 0 0 0 0 0 0 0 0 0 0 0.1 0"/>
<feBlend mode="normal" in2="BackgroundImageFix" result="effect1_dropShadow_893_23949"/>
<feBlend mode="normal" in="SourceGraphic" in2="effect1_dropShadow_893_23949" result="shape"/>
</filter>
<clipPath id="clip0_893_23949">
<rect width="16" height="16" fill="white" transform="translate(77 244)"/>
</clipPath>
<clipPath id="clip1_893_23949">
<rect width="20" height="20" fill="white" transform="translate(473 242)"/>
</clipPath>
<clipPath id="clip2_893_23949">
<rect width="16" height="16" fill="white" transform="translate(77 284)"/>
</clipPath>
</defs>
</svg>
