<svg width="258" height="256" viewBox="0 0 258 256" fill="none" xmlns="http://www.w3.org/2000/svg">
<path d="M72 24.5L72 35L90 35L90 211L68.5 211L68.5 230" stroke="#23253D" stroke-width="2"/>
<circle cx="10.5" cy="182.5" r="2.5" stroke="#23253D" stroke-width="2"/>
<circle cx="21.5" cy="152" r="2.5" stroke="#23253D" stroke-width="2"/>
<circle cx="223.5" cy="152" r="2.5" stroke="#23253D" stroke-width="2"/>
<circle cx="252.5" cy="188.5" r="2.5" stroke="#23253D" stroke-width="2"/>
<circle cx="210" cy="238.5" r="2.5" stroke="#23253D" stroke-width="2"/>
<circle cx="154" cy="248.5" r="2.5" stroke="#23253D" stroke-width="2"/>
<circle cx="106" cy="252.5" r="2.5" stroke="#23253D" stroke-width="2"/>
<circle cx="68.5" cy="232.5" r="2.5" stroke="#23253D" stroke-width="2"/>
<circle cx="122" cy="224.5" r="2.5" stroke="#23253D" stroke-width="2"/>
<circle cx="138" cy="232.5" r="2.5" stroke="#23253D" stroke-width="2"/>
<circle cx="154" cy="3.5" r="2.5" stroke="#23253D" stroke-width="2"/>
<circle cx="138" cy="22.5" r="2.5" stroke="#23253D" stroke-width="2"/>
<circle cx="122" cy="35.5" r="2.5" stroke="#23253D" stroke-width="2"/>
<circle cx="106" cy="14.5" r="2.5" stroke="#23253D" stroke-width="2"/>
<circle cx="72" cy="22.5" r="2.5" stroke="#23253D" stroke-width="2"/>
<circle cx="190" cy="15.5" r="2.5" stroke="#23253D" stroke-width="2"/>
<circle cx="10.5" cy="135" r="2.5" stroke="#23253D" stroke-width="2"/>
<circle cx="254.5" cy="135" r="2.5" stroke="#23253D" stroke-width="2"/>
<circle cx="3.5" cy="118" r="2.5" stroke="#23253D" stroke-width="2"/>
<circle cx="241.5" cy="118" r="2.5" stroke="#23253D" stroke-width="2"/>
<circle cx="230.5" cy="101" r="2.5" stroke="#23253D" stroke-width="2"/>
<circle cx="39.5" cy="101" r="2.5" stroke="#23253D" stroke-width="2"/>
<circle cx="253.5" cy="69.5" r="2.5" stroke="#23253D" stroke-width="2"/>
<circle cx="28.5" cy="68.5" r="2.5" stroke="#23253D" stroke-width="2"/>
<path d="M190 18L190 34.5001L170 34.5001L170 212L210 212L210 236" stroke="#23253D" stroke-width="2"/>
<path d="M154 5L154 247" stroke="#23253D" stroke-width="2"/>
<path d="M138 25L138 230" stroke="#23253D" stroke-width="2"/>
<path d="M122 38.5L122 222.5" stroke="#23253D" stroke-width="2"/>
<path d="M106 17.5L106 251" stroke="#23253D" stroke-width="2"/>
<path d="M12.5 182.5H43V169H212V188.5H250.5" stroke="#23253D" stroke-width="2"/>
<path d="M31.5 68.5H47.5V85H213.5V69.5H251" stroke="#23253D" stroke-width="2"/>
<path d="M41.5 101H228.5" stroke="#23253D" stroke-width="2"/>
<path d="M6 118H238.5" stroke="#23253D" stroke-width="2"/>
<path d="M24 152H221" stroke="#23253D" stroke-width="2"/>
<path d="M13.5 135L252 135" stroke="#23253D" stroke-width="2"/>
<g filter="url(#filter0_dd_893_23586)">
<rect x="59" y="58" width="140" height="140" rx="24" fill="white"/>
</g>
<g filter="url(#filter1_dd_893_23586)">
<path d="M85 97.2513C85 93.7254 87.3083 90.6153 90.6831 89.5941L124.312 79.4184C127.367 78.494 130.629 78.5045 133.678 79.4486L166.366 89.5694C169.716 90.6066 172 93.7046 172 97.2114V142.892C172 147.845 169.706 152.519 165.788 155.549L133.8 180.287C130.962 182.482 127.01 182.519 124.131 180.378L91.4495 156.063C87.3915 153.044 85 148.284 85 143.226V97.2513Z" fill="#343539"/>
</g>
<path fill-rule="evenodd" clip-rule="evenodd" d="M129 88.7327V171.358L128.883 171.449L97.4186 148.04C95.8968 146.907 95 145.122 95 143.226V98.7354L127.208 88.9896C127.792 88.8129 128.397 88.7272 129 88.7327Z" fill="#4D4F54"/>
<g filter="url(#filter2_ii_893_23586)">
<path fill-rule="evenodd" clip-rule="evenodd" d="M166 97.2112V142.892C166 145.988 164.566 148.909 162.118 150.803L130.13 175.541C129.42 176.09 128.432 176.099 127.713 175.563L95.0309 151.249C92.4947 149.362 91 146.387 91 143.226V97.251C91 96.3695 91.5771 95.592 92.4208 95.3367L126.05 85.161C127.959 84.5832 129.998 84.5898 131.904 85.1798L164.592 95.3006C165.429 95.5599 166 96.3344 166 97.2112ZM170 97.2112V142.892C170 147.226 167.993 151.315 164.565 153.967L132.577 178.705C130.448 180.351 127.484 180.379 125.325 178.773L92.6433 154.458C89.0926 151.816 87 147.651 87 143.226V97.251C87 94.6066 88.7312 92.274 91.2623 91.5081L124.892 81.3324C127.565 80.5235 130.419 80.5327 133.087 81.3588L165.775 91.4796C168.287 92.2575 170 94.581 170 97.2112Z" fill="url(#paint0_radial_893_23586)"/>
</g>
<defs>
<filter id="filter0_dd_893_23586" x="28" y="47" width="202" height="202" filterUnits="userSpaceOnUse" color-interpolation-filters="sRGB">
<feFlood flood-opacity="0" result="BackgroundImageFix"/>
<feColorMatrix in="SourceAlpha" type="matrix" values="0 0 0 0 0 0 0 0 0 0 0 0 0 0 0 0 0 0 127 0" result="hardAlpha"/>
<feOffset dy="2"/>
<feGaussianBlur stdDeviation="4"/>
<feColorMatrix type="matrix" values="0 0 0 0 0 0 0 0 0 0 0 0 0 0 0 0 0 0 0.2 0"/>
<feBlend mode="normal" in2="BackgroundImageFix" result="effect1_dropShadow_893_23586"/>
<feColorMatrix in="SourceAlpha" type="matrix" values="0 0 0 0 0 0 0 0 0 0 0 0 0 0 0 0 0 0 127 0" result="hardAlpha"/>
<feMorphology radius="1" operator="dilate" in="SourceAlpha" result="effect2_dropShadow_893_23586"/>
<feOffset dy="20"/>
<feGaussianBlur stdDeviation="15"/>
<feColorMatrix type="matrix" values="0 0 0 0 0 0 0 0 0 0 0 0 0 0 0 0 0 0 0.1 0"/>
<feBlend mode="normal" in2="effect1_dropShadow_893_23586" result="effect2_dropShadow_893_23586"/>
<feBlend mode="normal" in="SourceGraphic" in2="effect2_dropShadow_893_23586" result="shape"/>
</filter>
<filter id="filter1_dd_893_23586" x="54" y="67.7324" width="149" height="165.227" filterUnits="userSpaceOnUse" color-interpolation-filters="sRGB">
<feFlood flood-opacity="0" result="BackgroundImageFix"/>
<feColorMatrix in="SourceAlpha" type="matrix" values="0 0 0 0 0 0 0 0 0 0 0 0 0 0 0 0 0 0 127 0" result="hardAlpha"/>
<feOffset dy="2"/>
<feGaussianBlur stdDeviation="4"/>
<feColorMatrix type="matrix" values="0 0 0 0 0 0 0 0 0 0 0 0 0 0 0 0 0 0 0.2 0"/>
<feBlend mode="normal" in2="BackgroundImageFix" result="effect1_dropShadow_893_23586"/>
<feColorMatrix in="SourceAlpha" type="matrix" values="0 0 0 0 0 0 0 0 0 0 0 0 0 0 0 0 0 0 127 0" result="hardAlpha"/>
<feMorphology radius="1" operator="dilate" in="SourceAlpha" result="effect2_dropShadow_893_23586"/>
<feOffset dy="20"/>
<feGaussianBlur stdDeviation="15"/>
<feColorMatrix type="matrix" values="0 0 0 0 0 0 0 0 0 0 0 0 0 0 0 0 0 0 0.1 0"/>
<feBlend mode="normal" in2="effect1_dropShadow_893_23586" result="effect2_dropShadow_893_23586"/>
<feBlend mode="normal" in="SourceGraphic" in2="effect2_dropShadow_893_23586" result="shape"/>
</filter>
<filter id="filter2_ii_893_23586" x="87" y="79.7324" width="83" height="101.227" filterUnits="userSpaceOnUse" color-interpolation-filters="sRGB">
<feFlood flood-opacity="0" result="BackgroundImageFix"/>
<feBlend mode="normal" in="SourceGraphic" in2="BackgroundImageFix" result="shape"/>
<feColorMatrix in="SourceAlpha" type="matrix" values="0 0 0 0 0 0 0 0 0 0 0 0 0 0 0 0 0 0 127 0" result="hardAlpha"/>
<feOffset dy="1"/>
<feGaussianBlur stdDeviation="0.5"/>
<feComposite in2="hardAlpha" operator="arithmetic" k2="-1" k3="1"/>
<feColorMatrix type="matrix" values="0 0 0 0 1 0 0 0 0 1 0 0 0 0 1 0 0 0 0.08 0"/>
<feBlend mode="normal" in2="shape" result="effect1_innerShadow_893_23586"/>
<feColorMatrix in="SourceAlpha" type="matrix" values="0 0 0 0 0 0 0 0 0 0 0 0 0 0 0 0 0 0 127 0" result="hardAlpha"/>
<feOffset dy="-1"/>
<feGaussianBlur stdDeviation="0.5"/>
<feComposite in2="hardAlpha" operator="arithmetic" k2="-1" k3="1"/>
<feColorMatrix type="matrix" values="0 0 0 0 0 0 0 0 0 0 0 0 0 0 0 0 0 0 0.1 0"/>
<feBlend mode="normal" in2="effect1_innerShadow_893_23586" result="effect2_innerShadow_893_23586"/>
</filter>
<radialGradient id="paint0_radial_893_23586" cx="0" cy="0" r="1" gradientUnits="userSpaceOnUse" gradientTransform="translate(105.5 190) rotate(-57.5034) scale(173.104 134.905)">
<stop stop-color="#FFDFC2"/>
<stop offset="0.300591" stop-color="#FFD6F7"/>
<stop offset="0.65625" stop-color="#B391FF"/>
<stop offset="1" stop-color="#4175B6"/>
</radialGradient>
</defs>
</svg>
