<svg width="303" height="290" viewBox="0 0 303 290" fill="none" xmlns="http://www.w3.org/2000/svg">
<g filter="url(#filter0_dd_1022_35836)">
<rect x="30.9062" y="68.9316" width="148" height="167.129" rx="10" transform="rotate(-3 30.9062 68.9316)" fill="#211F35"/>
</g>
<g filter="url(#filter1_d_1022_35836)">
<g clip-path="url(#clip0_1022_35836)">
<rect x="44.6523" y="178.361" width="132" height="48" rx="2" transform="rotate(-3 44.6523 178.361)" fill="#353149"/>
<path d="M56.0389 193.786L57.2135 193.724L56.8079 185.984L55.6225 186.046L53.6602 187.602L53.7198 188.739L55.6688 187.238L55.6957 187.237L56.0389 193.786ZM61.935 193.606C63.7801 193.509 64.8098 191.912 64.681 189.455L64.6805 189.444C64.5517 186.988 63.361 185.512 61.5159 185.609C59.6654 185.706 58.6409 187.297 58.7696 189.754L58.7702 189.765C58.8989 192.221 60.0845 193.703 61.935 193.606ZM61.8825 192.603C60.7775 192.661 60.0796 191.557 59.9824 189.701L59.9818 189.691C59.8846 187.835 60.4638 186.675 61.5687 186.617C62.6683 186.559 63.371 187.652 63.4682 189.508L63.4688 189.519C63.5661 191.374 62.982 192.545 61.8825 192.603ZM66.3178 188.052C66.7094 188.031 67.0042 187.704 66.9834 187.307C66.9628 186.915 66.6354 186.62 66.2439 186.641C65.847 186.662 65.5522 186.989 65.5727 187.381C65.5935 187.778 65.9209 188.072 66.3178 188.052ZM66.5289 192.08C66.9205 192.059 67.2153 191.732 67.1947 191.34C67.1739 190.943 66.8468 190.654 66.4553 190.674C66.0584 190.695 65.7633 191.017 65.7841 191.414C65.8046 191.806 66.132 192.1 66.5289 192.08ZM71.1231 193.124C72.7644 193.038 73.8789 192.033 73.8094 190.708L73.8089 190.698C73.7521 189.614 72.9544 188.968 71.812 188.925L71.8106 188.899C72.7442 188.651 73.397 187.971 73.3467 187.011L73.3461 187C73.2837 185.809 72.2326 185.047 70.6932 185.128C69.1807 185.207 68.1955 186.114 68.1453 187.413L68.1427 187.466L69.2691 187.407L69.2719 187.359C69.3094 186.636 69.8865 186.154 70.7447 186.109C71.619 186.063 72.1459 186.471 72.185 187.217L72.1856 187.228C72.2232 187.946 71.6498 188.498 70.7647 188.545L69.8583 188.592L69.9072 189.525L70.8458 189.476C71.881 189.422 72.5395 189.877 72.5854 190.751L72.5859 190.762C72.6253 191.513 72.0145 192.072 71.0705 192.121C70.1104 192.172 69.4361 191.723 69.325 191.04L69.3166 190.982L68.1634 191.042L68.1724 191.111C68.3457 192.366 69.4711 193.211 71.1231 193.124ZM77.8868 192.77C79.7319 192.673 80.7615 191.076 80.6328 188.619L80.6322 188.608C80.5034 186.152 79.3128 184.676 77.4676 184.773C75.6171 184.87 74.5926 186.461 74.7214 188.918L74.7219 188.929C74.8507 191.385 76.0363 192.867 77.8868 192.77ZM77.8342 191.767C76.7293 191.825 76.0314 190.721 75.9341 188.865L75.9336 188.855C75.8363 186.999 76.4156 185.839 77.5205 185.781C78.62 185.723 79.3227 186.816 79.42 188.672L79.4206 188.683C79.5178 190.538 78.9338 191.709 77.8342 191.767Z" fill="#A8AAB5"/>
<path d="M55.1602 209.854L56.5801 209.78L56.4163 206.654L58.4004 206.551C60.1943 206.456 61.3727 205.168 61.279 203.38L61.2783 203.368C61.1843 201.574 59.8787 200.434 58.0848 200.529L54.6808 200.707L55.1602 209.854ZM57.7926 201.745C59.0287 201.68 59.7736 202.309 59.8334 203.45L59.834 203.462C59.8941 204.61 59.2191 205.313 57.983 205.377L56.3539 205.463L56.1635 201.831L57.7926 201.745ZM62.6782 209.46L64.0474 209.388L63.8391 205.414C63.7869 204.419 64.3019 203.813 65.183 203.767C65.4492 203.753 65.6917 203.772 65.8018 203.811L65.7351 202.537C65.6263 202.523 65.4535 202.501 65.257 202.511C64.4963 202.551 63.9641 203.068 63.7894 203.859L63.7577 203.861L63.6979 202.72L62.3287 202.791L62.6782 209.46ZM69.5185 209.235C71.4266 209.135 72.6126 207.751 72.5 205.602L72.4993 205.589C72.3873 203.453 71.0508 202.207 69.1491 202.307C67.2537 202.406 66.0614 203.791 66.173 205.921L66.1737 205.933C66.286 208.076 67.6042 209.335 69.5185 209.235ZM69.4648 208.087C68.3935 208.143 67.652 207.337 67.5746 205.86L67.5739 205.847C67.4975 204.389 68.157 203.509 69.2092 203.454C70.2805 203.398 71.022 204.205 71.0984 205.663L71.0991 205.675C71.1761 207.146 70.536 208.031 69.4648 208.087ZM74.059 201.147C74.5091 201.123 74.8391 200.75 74.8165 200.319C74.7936 199.882 74.4263 199.545 73.9763 199.569C73.5325 199.592 73.1962 199.965 73.2191 200.403C73.2417 200.834 73.6153 201.17 74.059 201.147ZM73.0832 211.152C74.5602 211.075 75.23 210.391 75.1589 209.035L74.7974 202.138L73.4282 202.21L73.789 209.094C73.8242 209.766 73.5819 209.995 72.9037 210.03C72.8339 210.034 72.7702 210.031 72.7068 210.034L72.7656 211.156C72.8547 211.158 72.9755 211.158 73.0832 211.152ZM79.4137 208.716C81.0301 208.632 82.0065 207.614 82.1665 206.544L82.1756 206.474L80.8761 206.542L80.8597 206.594C80.7148 207.104 80.1979 207.55 79.3865 207.593C78.2962 207.65 77.5668 206.951 77.4753 205.691L82.1978 205.443L82.1736 204.98C82.0686 202.977 80.8508 201.694 78.9808 201.792C77.1108 201.89 75.9795 203.347 76.0888 205.433L76.0891 205.439C76.1994 207.544 77.4549 208.819 79.4137 208.716ZM79.046 202.913C79.9398 202.866 80.6159 203.397 80.7905 204.544L77.4435 204.72C77.5055 203.598 78.1585 202.96 79.046 202.913ZM86.2914 208.356C87.8952 208.272 88.957 207.187 89.0327 205.841L89.0367 205.797L87.7182 205.866L87.7145 205.917C87.5876 206.648 87.0744 207.164 86.2313 207.209C85.1727 207.264 84.4242 206.445 84.3478 204.987L84.3475 204.981C84.2727 203.555 84.9172 202.631 85.9821 202.575C86.8759 202.528 87.4119 203.053 87.5919 203.699L87.6073 203.749L88.9131 203.68L88.9044 203.636C88.7246 202.387 87.6272 201.338 85.9093 201.428C84.0076 201.528 82.8353 202.931 82.9459 205.042L82.9462 205.048C83.0582 207.184 84.3454 208.458 86.2914 208.356ZM92.4719 208.032C92.7508 208.017 93.0091 207.972 93.1662 207.938L93.1107 206.88C93.01 206.898 92.8902 206.917 92.7444 206.924C92.1675 206.955 91.8526 206.768 91.8171 206.09L91.6211 202.35L92.8699 202.284L92.8127 201.194L91.564 201.259L91.4729 199.522L90.072 199.596L90.163 201.333L89.2059 201.383L89.263 202.473L90.2202 202.423L90.4205 206.245C90.4903 207.577 91.1534 208.101 92.4719 208.032ZM97.0987 207.656L98.506 207.582L98.1508 200.806L98.1889 200.804L103.254 207.334L104.56 207.265L104.08 198.118L102.673 198.192L103.028 204.955L102.989 204.957L97.9315 198.44L96.6193 198.509L97.0987 207.656ZM108.364 207.199C109.378 207.146 110.032 206.648 110.345 205.958L110.377 205.956L110.43 206.957L111.805 206.885L111.456 200.217L110.08 200.289L110.284 204.181C110.339 205.221 109.754 205.944 108.79 205.995C107.839 206.044 107.341 205.511 107.288 204.503L107.075 200.446L105.706 200.518L105.933 204.841C106.013 206.375 106.899 207.276 108.364 207.199ZM116.034 206.797C117.638 206.713 118.699 205.628 118.775 204.283L118.779 204.238L117.461 204.307L117.457 204.358C117.33 205.089 116.817 205.606 115.974 205.65C114.915 205.705 114.167 204.886 114.09 203.429L114.09 203.422C114.015 201.996 114.66 201.072 115.724 201.016C116.618 200.97 117.154 201.495 117.334 202.14L117.35 202.19L118.655 202.121L118.647 202.077C118.467 200.828 117.37 199.78 115.652 199.87C113.75 199.969 112.578 201.372 112.688 203.483L112.689 203.489C112.801 205.626 114.088 206.899 116.034 206.797ZM119.919 206.46L121.288 206.388L120.809 197.241L119.44 197.313L119.919 206.46ZM125.549 206.299C127.165 206.214 128.141 205.197 128.301 204.127L128.311 204.056L127.011 204.124L126.995 204.176C126.85 204.686 126.333 205.132 125.521 205.175C124.431 205.232 123.702 204.533 123.61 203.273L128.333 203.025L128.309 202.563C128.204 200.559 126.986 199.276 125.116 199.374C123.246 199.472 122.114 200.929 122.224 203.015L122.224 203.021C122.334 205.126 123.59 206.401 125.549 206.299ZM125.181 200.495C126.075 200.449 126.751 200.979 126.925 202.127L123.578 202.302C123.64 201.18 124.293 200.542 125.181 200.495ZM131.83 205.969C132.845 205.916 133.499 205.418 133.812 204.728L133.844 204.726L133.896 205.728L135.272 205.656L134.922 198.987L133.547 199.059L133.751 202.951C133.805 203.991 133.22 204.714 132.257 204.765C131.306 204.815 130.808 204.281 130.755 203.273L130.542 199.217L129.173 199.288L129.4 203.611C129.48 205.145 130.366 206.046 131.83 205.969ZM139.133 205.587C140.705 205.504 141.802 204.608 141.738 203.391L141.738 203.384C141.688 202.427 141.14 201.916 139.76 201.67L138.663 201.48C137.938 201.346 137.651 201.081 137.629 200.669L137.629 200.663C137.601 200.131 138.046 199.758 138.781 199.719C139.554 199.679 140.032 200.06 140.145 200.639L140.154 200.683L141.44 200.616L141.43 200.54C141.301 199.409 140.304 198.578 138.725 198.661C137.191 198.741 136.195 199.613 136.257 200.805L136.258 200.811C136.308 201.781 136.968 202.357 138.251 202.582L139.354 202.772C140.079 202.906 140.333 203.14 140.356 203.571L140.356 203.578C140.384 204.116 139.908 204.485 139.084 204.528C138.241 204.572 137.765 204.235 137.606 203.626L137.59 203.564L136.234 203.635L136.243 203.691C136.446 204.901 137.466 205.674 139.133 205.587Z" fill="white"/>
<path d="M44.6523 178.361L48.6469 178.152L51.159 226.086L47.1645 226.296L44.6523 178.361Z" fill="#82BDFF"/>
</g>
</g>
<g filter="url(#filter2_d_1022_35836)">
<g clip-path="url(#clip1_1022_35836)">
<rect x="39.3125" y="76.502" width="132" height="24" rx="2" transform="rotate(-3 39.3125 76.502)" fill="#353149"/>
<path d="M49.0352 93.0161L52.7054 92.8238C54.6515 92.7218 55.773 91.6841 55.689 90.0804L55.6883 90.0677C55.6252 88.8633 54.7353 88.0137 53.4288 87.9487L53.4275 87.9233C54.3837 87.7334 55.0658 86.8014 55.0153 85.8378L55.0147 85.8252C54.9423 84.4433 53.8298 83.5926 52.207 83.6777L48.5558 83.869L49.0352 93.0161ZM51.9255 84.8556C52.9524 84.8018 53.5662 85.2337 53.6101 86.0704L53.6107 86.0831C53.6589 87.0022 53.0072 87.5449 51.7521 87.6107L50.18 87.6931L50.0365 84.9546L51.9255 84.8556ZM52.1011 88.692C53.4577 88.6209 54.1815 89.0915 54.233 90.074L54.2337 90.0867C54.2849 91.0629 53.6272 91.6123 52.353 91.679L50.3943 91.7817L50.2375 88.7897L52.1011 88.692ZM56.8828 92.6048L58.252 92.5331L58.0437 88.5586C57.9916 87.5633 58.5065 86.9579 59.3876 86.9118C59.6538 86.8978 59.8964 86.9169 60.0065 86.9556L59.9397 85.6815C59.8309 85.6681 59.6581 85.6454 59.4616 85.6557C58.7009 85.6955 58.1687 86.2129 57.994 87.0039L57.9623 87.0055L57.9025 85.8645L56.5333 85.9363L56.8828 92.6048ZM61.4809 84.6472C61.931 84.6237 62.261 84.2504 62.2384 83.8194C62.2155 83.382 61.8483 83.0453 61.3982 83.0688C60.9545 83.0921 60.6181 83.4657 60.641 83.9031C60.6636 84.3341 61.0372 84.6705 61.4809 84.6472ZM61.1996 92.3786L62.5688 92.3069L62.2194 85.6383L60.8501 85.71L61.1996 92.3786ZM63.9824 92.2328L65.3516 92.161L65.148 88.2752C65.0935 87.2356 65.6782 86.5058 66.6417 86.4553C67.5926 86.4055 68.0912 86.9451 68.1437 87.9466L68.3563 92.0035L69.7319 91.9315L69.5056 87.6146C69.4252 86.0806 68.5327 85.1803 67.0684 85.257C66.0605 85.3098 65.3998 85.8021 65.0867 86.4987L65.055 86.5003L65.0022 85.4924L63.6329 85.5642L63.9824 92.2328ZM74.1022 94.0606C75.9849 93.962 77.1108 92.8859 77.031 91.3646L76.6912 84.8798L75.3156 84.9519L75.3751 86.0866L75.3434 86.0883C74.9109 85.3545 74.149 84.8859 73.2108 84.9351C71.5183 85.0238 70.4714 86.3944 70.581 88.4863L70.5814 88.4926C70.6903 90.5718 71.8621 91.8262 73.5356 91.7385C74.4928 91.6883 75.2292 91.1857 75.5716 90.4431L75.6033 90.4415L75.6512 91.3543C75.7 92.2861 75.1284 92.9008 74.0381 92.958C73.1823 93.0028 72.5902 92.7415 72.3841 92.3264L72.3561 92.277L70.9995 92.3481L71.0089 92.4048C71.2652 93.4148 72.3907 94.1503 74.1022 94.0606ZM73.8638 90.6025C72.7798 90.6594 72.0564 89.8328 71.9833 88.4382L71.9829 88.4319C71.9109 87.0563 72.5433 86.146 73.6272 86.0892C74.6668 86.0347 75.4166 86.879 75.4884 88.2482L75.4887 88.2545C75.5608 89.6301 74.9097 90.5477 73.8638 90.6025ZM83.3686 91.3693C85.1625 91.2753 86.1656 90.1612 86.0713 88.361L85.7338 81.9206L84.3138 81.995L84.6507 88.4227C84.7055 89.4686 84.2276 90.053 83.2895 90.1022C82.4401 90.1467 81.9741 89.6245 81.8805 88.9302L81.8712 88.8735L80.4703 88.9469L80.4806 89.0226C80.6331 90.4766 81.6761 91.458 83.3686 91.3693ZM90.0298 91.0012C91.0441 90.948 91.6981 90.4497 92.0115 89.7595L92.0432 89.7579L92.0957 90.7594L93.4713 90.6873L93.1218 84.0187L91.7462 84.0908L91.9502 87.983C92.0047 89.0225 91.4197 89.746 90.4561 89.7965C89.5053 89.8464 89.007 89.3131 88.9542 88.3052L88.7416 84.2483L87.3723 84.3201L87.5989 88.6432C87.6793 90.1773 88.5655 91.0779 90.0298 91.0012ZM94.8278 90.6162L96.197 90.5445L95.9934 86.6587C95.9389 85.6191 96.5236 84.8893 97.4871 84.8388C98.4379 84.7889 98.9366 85.3285 98.9891 86.3301L99.2017 90.387L100.577 90.3149L100.351 85.9981C100.271 84.4641 99.378 83.5637 97.9137 83.6405C96.9058 83.6933 96.2451 84.1856 95.932 84.8821L95.9003 84.8838L95.8475 83.8759L94.4783 83.9477L94.8278 90.6162ZM103.867 90.2633C104.748 90.2171 105.498 89.7202 105.847 88.9836L105.872 88.9823L105.927 90.0345L107.303 89.9624L107.062 85.3667C106.992 84.0292 105.913 83.2212 104.284 83.3066C102.643 83.3927 101.694 84.3259 101.659 85.4783L101.656 85.5483L102.949 85.4806L102.959 85.4228C103.045 84.8844 103.513 84.4848 104.306 84.4433C105.155 84.3988 105.654 84.8176 105.692 85.5529L105.719 86.0537L103.911 86.2564C102.338 86.4342 101.475 87.1914 101.536 88.3514L101.537 88.3641C101.599 89.5622 102.536 90.333 103.867 90.2633ZM102.917 88.26L102.916 88.2473C102.887 87.6831 103.324 87.2979 104.145 87.204L105.769 87.0172L105.796 87.537C105.842 88.4054 105.147 89.0965 104.184 89.147C103.448 89.1856 102.947 88.8432 102.917 88.26ZM113.617 89.765C113.896 89.7504 114.154 89.7051 114.311 89.6714L114.256 88.6128C114.155 88.6308 114.035 88.6498 113.89 88.6574C113.313 88.6877 112.998 88.5008 112.962 87.8225L112.766 84.0825L114.015 84.0171L113.958 82.9268L112.709 82.9922L112.618 81.2553L111.217 81.3288L111.308 83.0656L110.351 83.1158L110.408 84.2061L111.365 84.1559L111.566 87.9783C111.635 89.3095 112.299 89.8341 113.617 89.765ZM118.149 89.5275C120.057 89.4275 121.243 88.0432 121.131 85.8943L121.13 85.8816C121.018 83.7454 119.682 82.4997 117.78 82.5993C115.885 82.6987 114.692 84.0833 114.804 86.2132L114.805 86.2258C114.917 88.3684 116.235 89.6278 118.149 89.5275ZM118.096 88.3798C117.024 88.4359 116.283 87.6294 116.206 86.1524L116.205 86.1397C116.128 84.6818 116.788 83.8018 117.84 83.7467C118.911 83.6905 119.653 84.4971 119.729 85.955L119.73 85.9677C119.807 87.4384 119.167 88.3237 118.096 88.3798ZM127.499 89.0375C128.457 88.9873 129.167 88.467 129.525 87.6664L129.551 87.6651L129.61 88.7934L130.985 88.7213L130.506 79.5742L129.13 79.6463L129.32 83.2595L129.294 83.2608C128.854 82.4957 128.068 82.0602 127.124 82.1097C125.45 82.1974 124.417 83.5863 124.528 85.7099L124.529 85.7162C124.64 87.8398 125.801 89.1265 127.499 89.0375ZM127.799 87.8395C126.715 87.8963 126.004 87.0627 125.929 85.6428L125.929 85.6365C125.855 84.2292 126.481 83.3192 127.559 83.2628C128.586 83.2089 129.368 84.0705 129.441 85.4524L129.441 85.4588C129.514 86.847 128.832 87.7853 127.799 87.8395ZM134.358 88.6653C135.239 88.6192 135.988 88.1222 136.337 87.3857L136.363 87.3843L136.418 88.4366L137.793 88.3645L137.552 83.7688C137.482 82.4312 136.404 81.6233 134.775 81.7087C133.133 81.7947 132.184 82.728 132.149 83.8803L132.146 83.9504L133.439 83.8826L133.449 83.8249C133.535 83.2864 134.004 82.8869 134.796 82.8453C135.646 82.8008 136.144 83.2196 136.183 83.955L136.209 84.4557L134.402 84.6585C132.828 84.8363 131.965 85.5935 132.026 86.7535L132.027 86.7662C132.09 87.9642 133.026 88.7351 134.358 88.6653ZM133.407 86.662L133.406 86.6494C133.377 86.0852 133.814 85.7 134.636 85.6061L136.26 85.4193L136.287 85.9391C136.332 86.8075 135.638 87.4986 134.674 87.5491C133.939 87.5876 133.438 87.2452 133.407 86.662ZM140.014 90.4792C141.32 90.4108 141.99 89.8417 142.412 88.4339L144.531 81.3245L143.085 81.4003L141.69 86.9144L141.646 86.9168L139.681 81.5787L138.198 81.6564L140.976 88.2041L140.878 88.527C140.684 89.1855 140.338 89.3753 139.691 89.4092C139.508 89.4188 139.348 89.4018 139.239 89.3821L139.295 90.4533C139.461 90.4764 139.748 90.4931 140.014 90.4792ZM148.298 87.9475C149.901 87.8634 150.963 86.7781 151.039 85.4329L151.043 85.3882L149.724 85.4573L149.721 85.5083C149.594 86.2396 149.08 86.756 148.237 86.8001C147.179 86.8556 146.43 86.0367 146.354 84.5788L146.354 84.5724C146.279 83.1462 146.923 82.2225 147.988 82.1667C148.882 82.1199 149.418 82.6448 149.598 83.29L149.613 83.3401L150.919 83.2716L150.911 83.2276C150.731 81.9785 149.633 80.93 147.915 81.02C146.014 81.1197 144.841 82.5223 144.952 84.6332L144.952 84.6395C145.064 86.7757 146.351 88.0495 148.298 87.9475ZM154.097 87.6308C154.978 87.5847 155.728 87.0877 156.077 86.3512L156.102 86.3498L156.157 87.4021L157.533 87.33L157.292 82.7343C157.222 81.3967 156.143 80.5888 154.514 80.6742C152.872 80.7602 151.923 81.6935 151.888 82.8458L151.886 82.9159L153.179 82.8481L153.189 82.7904C153.275 82.2519 153.743 81.8524 154.536 81.8108C155.385 81.7663 155.884 82.1851 155.922 82.9205L155.949 83.4212L154.141 83.624C152.568 83.8018 151.705 84.5589 151.766 85.719L151.766 85.7317C151.829 86.9297 152.766 87.7006 154.097 87.6308ZM153.147 85.6275L153.146 85.6149C153.116 85.0507 153.554 84.6655 154.375 84.5716L155.999 84.3848L156.026 84.9045C156.072 85.773 155.377 86.4641 154.414 86.5146C153.678 86.5531 153.177 86.2107 153.147 85.6275ZM158.864 87.2602L160.233 87.1885L160.025 83.214C159.973 82.2187 160.488 81.6133 161.369 81.5672C161.635 81.5532 161.878 81.5723 161.988 81.611L161.921 80.3369C161.812 80.3235 161.639 80.3008 161.443 80.3111C160.682 80.3509 160.15 80.8683 159.975 81.6593L159.943 81.6609L159.884 80.5199L158.514 80.5917L158.864 87.2602ZM165.685 87.0362C167.302 86.9515 168.278 85.9342 168.438 84.8643L168.447 84.7939L167.148 84.862L167.131 84.9137C166.986 85.4234 166.47 85.8701 165.658 85.9126C164.568 85.9697 163.838 85.2706 163.747 84.0105L168.469 83.763L168.445 83.3002C168.34 81.2971 167.122 80.0134 165.252 80.1114C163.382 80.2094 162.251 81.6671 162.36 83.7526L162.361 83.759C162.471 85.8635 163.727 87.1389 165.685 87.0362ZM165.318 81.2331C166.211 81.1862 166.888 81.7165 167.062 82.8642L163.715 83.0396C163.777 81.9177 164.43 81.2796 165.318 81.2331Z" fill="white"/>
<path d="M39.3125 76.502L43.307 76.2926L44.5631 100.26L40.5686 100.469L39.3125 76.502Z" fill="#FF4D74"/>
</g>
</g>
<g filter="url(#filter3_d_1022_35836)">
<g clip-path="url(#clip2_1022_35836)">
<rect x="40.6719" y="102.467" width="132" height="24" rx="2" transform="rotate(-3 40.6719 102.467)" fill="#353149"/>
<path d="M52.2962 118.881L53.6591 118.81L55.2691 111.81L55.3008 111.808L57.6273 118.602L58.9902 118.53L60.983 109.254L59.506 109.331L58.1766 116.59L58.1449 116.592L55.8357 109.524L54.4919 109.594L52.9342 116.865L52.9089 116.866L50.828 109.786L49.351 109.863L52.2962 118.881ZM64.5564 118.372C66.1728 118.288 67.1493 117.27 67.3093 116.2L67.3183 116.13L66.0188 116.198L66.0025 116.25C65.8576 116.759 65.3407 117.206 64.5293 117.249C63.439 117.306 62.7095 116.607 62.6181 115.347L67.3406 115.099L67.3163 114.636C67.2113 112.633 65.9936 111.349 64.1236 111.447C62.2536 111.545 61.1223 113.003 61.2316 115.089L61.2319 115.095C61.3422 117.2 62.5977 118.475 64.5564 118.372ZM64.1887 112.569C65.0825 112.522 65.7586 113.053 65.9332 114.2L62.5862 114.376C62.6482 113.254 63.3013 112.616 64.1887 112.569ZM71.4152 118.013C73.0316 117.928 74.008 116.911 74.1681 115.841L74.1771 115.77L72.8776 115.839L72.8612 115.89C72.7163 116.4 72.1994 116.847 71.3881 116.889C70.2978 116.946 69.5683 116.247 69.4768 114.987L74.1993 114.74L74.1751 114.277C74.0701 112.274 72.8523 110.99 70.9823 111.088C69.1123 111.186 67.981 112.644 68.0903 114.729L68.0906 114.736C68.2009 116.84 69.4564 118.115 71.4152 118.013ZM71.0475 112.21C71.9413 112.163 72.6174 112.693 72.792 113.841L69.445 114.016C69.507 112.894 70.16 112.256 71.0475 112.21ZM75.4968 117.665L76.866 117.594L76.7401 115.191L77.2811 114.597L79.6995 117.445L81.2906 117.362L78.2458 113.72L80.8334 110.699L79.2233 110.783L76.6974 113.77L76.6657 113.771L76.3866 108.447L75.0174 108.518L75.4968 117.665ZM82.0259 117.323L83.3952 117.251L82.9158 108.104L81.5466 108.176L82.0259 117.323ZM85.705 119.362C87.0109 119.293 87.6802 118.724 88.1023 117.316L90.2214 110.207L88.7761 110.283L87.3806 115.797L87.3363 115.799L85.3721 110.461L83.8887 110.539L86.6664 117.086L86.5689 117.409C86.3746 118.068 86.0286 118.258 85.382 118.292C85.1982 118.301 85.0384 118.284 84.9293 118.264L84.9854 119.336C85.1519 119.359 85.4388 119.375 85.705 119.362ZM96.5111 116.698C98.0832 116.615 99.1803 115.719 99.1165 114.502L99.1162 114.495C99.066 113.538 98.518 113.026 97.1385 112.781L96.0416 112.591C95.3163 112.457 95.0291 112.192 95.0075 111.78L95.0072 111.774C94.9793 111.241 95.4238 110.869 96.1591 110.83C96.9324 110.79 97.4101 111.171 97.5231 111.75L97.5317 111.794L98.8186 111.727L98.8082 111.651C98.679 110.52 97.682 109.689 96.1036 109.771C94.5696 109.852 93.5729 110.724 93.6353 111.916L93.6356 111.922C93.6865 112.892 94.3459 113.468 95.629 113.693L96.7322 113.883C97.4575 114.016 97.7114 114.251 97.7339 114.682L97.7343 114.688C97.7625 115.227 97.286 115.595 96.462 115.639C95.6189 115.683 95.1435 115.345 94.9845 114.737L94.9685 114.674L93.612 114.746L93.6213 114.802C93.8246 116.012 94.8439 116.785 96.5111 116.698ZM101.172 118.551C102.478 118.482 103.147 117.913 103.569 116.506L105.688 109.396L104.243 109.472L102.848 114.986L102.803 114.988L100.839 109.65L99.3558 109.728L102.133 116.276L102.036 116.599C101.842 117.257 101.496 117.447 100.849 117.481C100.665 117.491 100.505 117.473 100.396 117.454L100.452 118.525C100.619 118.548 100.906 118.565 101.172 118.551ZM106.837 116.023L108.206 115.951L108.002 112.065C107.948 111.026 108.532 110.296 109.496 110.246C110.447 110.196 110.945 110.735 110.998 111.737L111.21 115.794L112.586 115.722L112.36 111.405C112.279 109.871 111.387 108.97 109.923 109.047C108.915 109.1 108.254 109.592 107.941 110.289L107.909 110.291L107.856 109.283L106.487 109.354L106.837 116.023ZM116.783 115.635C118.387 115.551 119.449 114.466 119.524 113.121L119.528 113.076L118.21 113.145L118.206 113.196C118.079 113.927 117.566 114.444 116.723 114.488C115.664 114.543 114.916 113.724 114.839 112.266L114.839 112.26C114.764 110.834 115.409 109.91 116.474 109.854C117.368 109.808 117.904 110.332 118.084 110.978L118.099 111.028L119.405 110.959L119.396 110.915C119.216 109.666 118.119 108.618 116.401 108.708C114.499 108.807 113.327 110.21 113.438 112.321L113.438 112.327C113.55 114.463 114.837 115.737 116.783 115.635Z" fill="white"/>
<path d="M40.6719 102.467L44.6664 102.257L45.9225 126.225L41.9279 126.434L40.6719 102.467Z" fill="#82BDFF"/>
</g>
</g>
<g filter="url(#filter4_d_1022_35836)">
<g clip-path="url(#clip3_1022_35836)">
<rect x="42.0352" y="128.432" width="132" height="48" rx="2" transform="rotate(-3 42.0352 128.432)" fill="#353149"/>
<path d="M54.2974 143.939C56.1425 143.843 57.1721 142.245 57.0434 139.788L57.0428 139.778C56.9141 137.321 55.7234 135.845 53.8783 135.942C52.0278 136.039 51.0032 137.631 51.132 140.087L51.1325 140.098C51.2613 142.555 52.4469 144.036 54.2974 143.939ZM54.2448 142.936C53.1399 142.994 52.442 141.891 52.3447 140.035L52.3442 140.024C52.2469 138.168 52.8262 137.008 53.9311 136.95C55.0307 136.893 55.7333 137.985 55.8306 139.841L55.8312 139.852C55.9284 141.708 55.3444 142.879 54.2448 142.936ZM60.7116 135.584C59.0757 135.67 57.9378 136.843 58.0187 138.387L58.0193 138.398C58.096 139.862 59.2253 140.884 60.7057 140.807C61.757 140.752 62.5114 140.163 62.7806 139.45L62.8074 139.449C62.8111 139.518 62.8147 139.588 62.813 139.658C62.8451 141.195 62.3706 142.505 61.0404 142.575C60.3002 142.614 59.7769 142.275 59.5266 141.707L59.5023 141.655L58.3009 141.718L58.3203 141.781C58.6275 142.922 59.704 143.656 61.0825 143.584C63.0188 143.482 64.0922 141.899 63.957 139.319L63.9564 139.308C63.8105 136.524 62.294 135.501 60.7116 135.584ZM60.9281 139.816C59.9894 139.865 59.2626 139.236 59.2137 138.303L59.2132 138.292C59.1659 137.391 59.8634 136.639 60.7752 136.592C61.6978 136.543 62.4545 137.23 62.5025 138.147L62.5028 138.152C62.5509 139.07 61.8721 139.767 60.9281 139.816ZM65.5994 138.022C65.9909 138.002 66.2857 137.674 66.2649 137.277C66.2444 136.886 65.917 136.591 65.5255 136.612C65.1285 136.632 64.8337 136.96 64.8543 137.351C64.8751 137.748 65.2025 138.043 65.5994 138.022ZM65.8105 142.05C66.202 142.03 66.4968 141.703 66.4763 141.311C66.4555 140.914 66.1284 140.625 65.7368 140.645C65.3399 140.666 65.0449 140.988 65.0657 141.385C65.0862 141.776 65.4136 142.071 65.8105 142.05ZM70.4047 143.095C72.046 143.009 73.1604 142.004 73.091 140.679L73.0904 140.669C73.0336 139.585 72.236 138.938 71.0936 138.896L71.0922 138.869C72.0258 138.621 72.6786 137.942 72.6283 136.982L72.6277 136.971C72.5653 135.78 71.5142 135.018 69.9748 135.098C68.4622 135.178 67.4771 136.084 67.4268 137.383L67.4243 137.437L68.5507 137.378L68.5535 137.33C68.5909 136.607 69.1681 136.125 70.0263 136.08C70.9005 136.034 71.4275 136.442 71.4666 137.188L71.4671 137.198C71.5048 137.917 70.9313 138.469 70.0463 138.515L69.1399 138.563L69.1888 139.496L70.1274 139.447C71.1626 139.393 71.8211 139.848 71.8669 140.722L71.8675 140.733C71.9069 141.484 71.2961 142.043 70.3521 142.092C69.392 142.142 68.7177 141.694 68.6066 141.011L68.5982 140.952L67.4449 141.013L67.454 141.082C67.6273 142.337 68.7526 143.182 70.4047 143.095ZM77.1683 142.741C79.0135 142.644 80.0431 141.046 79.9143 138.59L79.9138 138.579C79.785 136.123 78.5943 134.647 76.7492 134.743C74.8987 134.84 73.8742 136.432 74.0029 138.889L74.0035 138.9C74.1322 141.356 75.3178 142.838 77.1683 142.741ZM77.1158 141.738C76.0108 141.796 75.313 140.692 75.2157 138.836L75.2151 138.825C75.1179 136.969 75.6971 135.81 76.8021 135.752C77.9016 135.694 78.6043 136.787 78.7016 138.643L78.7021 138.653C78.7994 140.509 78.2153 141.68 77.1158 141.738Z" fill="#A8AAB5"/>
<path d="M56.4874 159.87C58.966 159.74 60.3529 158.187 60.223 155.708L60.1738 154.77L56.3704 154.969L56.4312 156.129L58.8337 156.003L58.8417 156.155C58.8954 157.545 57.9177 158.537 56.4343 158.614C54.6911 158.706 53.5311 157.432 53.4165 155.245L53.4161 155.238C53.3038 153.096 54.2957 151.766 56.0452 151.675C57.2369 151.612 58.0996 152.183 58.5417 153.222L58.5644 153.291L60.0224 153.214L59.991 153.101C59.5243 151.473 58.1157 150.307 55.9731 150.42C53.3741 150.556 51.82 152.436 51.9712 155.321L51.9715 155.327C52.1257 158.268 53.8695 160.007 56.4874 159.87ZM64.5179 159.43C66.4259 159.33 67.6119 157.946 67.4993 155.797L67.4987 155.784C67.3867 153.648 66.0501 152.402 64.1485 152.502C62.2531 152.601 61.0608 153.986 61.1724 156.116L61.173 156.129C61.2853 158.271 62.6035 159.531 64.5179 159.43ZM64.4641 158.283C63.3928 158.339 62.6514 157.532 62.574 156.055L62.5733 156.042C62.4969 154.585 63.1563 153.705 64.2086 153.649C65.2799 153.593 66.0213 154.4 66.0978 155.858L66.0984 155.87C66.1755 157.341 65.5354 158.226 64.4641 158.283ZM71.3697 158.938L72.7389 158.866L72.5306 154.891C72.4784 153.896 72.9934 153.291 73.8745 153.245C74.1407 153.231 74.3833 153.25 74.4933 153.288L74.4266 152.014C74.3178 152.001 74.145 151.978 73.9485 151.988C73.1878 152.028 72.6556 152.546 72.4809 153.337L72.4492 153.338L72.3894 152.197L71.0202 152.269L71.3697 158.938ZM77.9058 158.729C78.92 158.675 79.574 158.177 79.8875 157.487L79.9192 157.485L79.9716 158.487L81.3472 158.415L80.9977 151.746L79.6222 151.818L79.8261 155.71C79.8806 156.75 79.2956 157.473 78.3321 157.524C77.3813 157.574 76.8829 157.041 76.8301 156.033L76.6175 151.976L75.2483 152.047L75.4748 156.371C75.5552 157.905 76.4415 158.805 77.9058 158.729ZM82.7037 158.344L84.073 158.272L83.8693 154.386C83.8148 153.347 84.3995 152.617 85.363 152.566C86.3139 152.516 86.8125 153.056 86.865 154.058L87.0776 158.114L88.4532 158.042L88.2269 153.726C88.1465 152.191 87.254 151.291 85.7897 151.368C84.7818 151.421 84.1211 151.913 83.808 152.61L83.7763 152.611L83.7235 151.603L82.3543 151.675L82.7037 158.344ZM89.778 157.973L91.1472 157.901L90.9436 154.015C90.8891 152.976 91.4738 152.246 92.4373 152.195C93.3881 152.146 93.8868 152.685 93.9393 153.687L94.1519 157.744L95.5274 157.672L95.3012 153.355C95.2208 151.821 94.3282 150.92 92.8639 150.997C91.856 151.05 91.1954 151.542 90.8823 152.239L90.8506 152.24L90.7977 151.233L89.4285 151.304L89.778 157.973ZM97.1906 149.868C97.6407 149.844 97.9708 149.471 97.9482 149.04C97.9252 148.603 97.558 148.266 97.1079 148.289C96.6642 148.313 96.3278 148.686 96.3507 149.124C96.3733 149.555 96.7469 149.891 97.1906 149.868ZM96.9093 157.599L98.2786 157.527L97.9291 150.859L96.5599 150.931L96.9093 157.599ZM99.6921 157.453L101.061 157.382L100.858 153.496C100.803 152.456 101.388 151.726 102.351 151.676C103.302 151.626 103.801 152.166 103.853 153.167L104.066 157.224L105.442 157.152L105.215 152.835C105.135 151.301 104.242 150.401 102.778 150.478C101.77 150.53 101.109 151.023 100.796 151.719L100.765 151.721L100.712 150.713L99.3427 150.785L99.6921 157.453ZM109.812 159.281C111.695 159.183 112.82 158.107 112.741 156.585L112.401 150.1L111.025 150.172L111.085 151.307L111.053 151.309C110.621 150.575 109.859 150.107 108.921 150.156C107.228 150.244 106.181 151.615 106.291 153.707L106.291 153.713C106.4 155.792 107.572 157.047 109.245 156.959C110.202 156.909 110.939 156.406 111.281 155.664L111.313 155.662L111.361 156.575C111.41 157.507 110.838 158.121 109.748 158.179C108.892 158.223 108.3 157.962 108.094 157.547L108.066 157.498L106.709 157.569L106.719 157.625C106.975 158.635 108.1 159.371 109.812 159.281ZM109.573 155.823C108.49 155.88 107.766 155.053 107.693 153.659L107.693 153.652C107.621 152.277 108.253 151.367 109.337 151.31C110.377 151.255 111.126 152.1 111.198 153.469L111.198 153.475C111.271 154.851 110.619 155.768 109.573 155.823Z" fill="white"/>
<path d="M42.0352 128.432L46.0297 128.222L48.5418 176.157L44.5473 176.366L42.0352 128.432Z" fill="#FFC642"/>
</g>
</g>
<g filter="url(#filter5_dd_1022_35836)">
<rect x="125.793" y="57.4961" width="148" height="167.129" rx="10" transform="rotate(6 125.793 57.4961)" fill="#211F35"/>
</g>
<g filter="url(#filter6_d_1022_35836)">
<g clip-path="url(#clip4_1022_35836)">
<rect x="122.254" y="167.73" width="132" height="48" rx="2" transform="rotate(6 122.254 167.73)" fill="#353149"/>
<path d="M131.085 184.746L132.255 184.869L133.065 177.161L131.884 177.037L129.703 178.266L129.584 179.398L131.744 178.221L131.77 178.224L131.085 184.746ZM136.936 185.491C138.774 185.684 140.041 184.267 140.298 181.821L140.299 181.81C140.556 179.364 139.611 177.72 137.773 177.526C135.931 177.333 134.67 178.745 134.413 181.191L134.411 181.202C134.154 183.648 135.094 185.297 136.936 185.491ZM137.041 184.492C135.941 184.376 135.424 183.177 135.619 181.329L135.62 181.318C135.814 179.47 136.568 178.415 137.668 178.531C138.763 178.646 139.286 179.835 139.092 181.683L139.091 181.694C138.896 183.542 138.136 184.607 137.041 184.492ZM142.134 180.691C142.524 180.731 142.866 180.454 142.908 180.059C142.949 179.669 142.672 179.327 142.282 179.286C141.887 179.244 141.544 179.521 141.503 179.911C141.462 180.307 141.739 180.649 142.134 180.691ZM141.712 184.702C142.102 184.743 142.445 184.466 142.486 184.076C142.527 183.681 142.25 183.344 141.86 183.303C141.464 183.261 141.122 183.533 141.081 183.928C141.04 184.318 141.317 184.661 141.712 184.702ZM146.087 186.453C147.721 186.624 148.979 185.806 149.118 184.487L149.119 184.476C149.232 183.397 148.546 182.634 147.424 182.413L147.427 182.386C148.388 182.288 149.139 181.718 149.239 180.762L149.24 180.752C149.365 179.566 148.446 178.648 146.913 178.487C145.407 178.329 144.292 179.07 144.039 180.345L144.028 180.398L145.15 180.516L145.16 180.468C145.31 179.761 145.956 179.375 146.81 179.465C147.681 179.556 148.138 180.042 148.06 180.784L148.059 180.795C147.983 181.511 147.331 181.966 146.449 181.873L145.546 181.778L145.449 182.708L146.384 182.806C147.414 182.914 147.994 183.467 147.902 184.337L147.901 184.348C147.822 185.096 147.132 185.553 146.192 185.454C145.236 185.353 144.64 184.805 144.637 184.113L144.638 184.054L143.489 183.933L143.487 184.003C143.462 185.269 144.441 186.28 146.087 186.453ZM152.823 187.161C154.66 187.354 155.927 185.937 156.184 183.49L156.185 183.48C156.442 181.033 155.497 179.389 153.66 179.196C151.817 179.002 150.556 180.415 150.299 182.861L150.298 182.872C150.04 185.318 150.98 186.967 152.823 187.161ZM152.928 186.162C151.827 186.046 151.31 184.847 151.505 182.999L151.506 182.988C151.7 181.14 152.454 180.085 153.554 180.2C154.649 180.315 155.172 181.505 154.978 183.353L154.977 183.363C154.783 185.212 154.023 186.277 152.928 186.162Z" fill="#A8AAB5"/>
<path d="M127.703 200.48L129.117 200.629L129.445 197.516L131.421 197.724C133.207 197.912 134.572 196.823 134.76 195.043L134.761 195.031C134.949 193.244 133.837 191.915 132.051 191.727L128.661 191.37L127.703 200.48ZM131.572 192.883C132.803 193.012 133.44 193.749 133.321 194.886L133.32 194.898C133.199 196.041 132.423 196.629 131.192 196.5L129.569 196.329L129.95 192.712L131.572 192.883ZM135.19 201.267L136.554 201.41L136.97 197.452C137.074 196.461 137.678 195.943 138.555 196.036C138.82 196.064 139.057 196.12 139.159 196.176L139.293 194.907C139.187 194.877 139.02 194.827 138.825 194.807C138.067 194.727 137.46 195.155 137.164 195.909L137.133 195.905L137.252 194.769L135.888 194.626L135.19 201.267ZM141.982 202.115C143.882 202.314 145.27 201.133 145.495 198.993L145.496 198.98C145.72 196.853 144.595 195.413 142.701 195.214C140.813 195.016 139.419 196.197 139.196 198.318L139.195 198.33C138.97 200.464 140.075 201.914 141.982 202.115ZM142.108 200.973C141.041 200.861 140.435 199.948 140.59 198.477L140.591 198.464C140.744 197.012 141.533 196.247 142.581 196.357C143.648 196.469 144.254 197.381 144.101 198.833L144.1 198.846C143.946 200.311 143.175 201.085 142.108 200.973ZM147.732 194.836C148.18 194.884 148.564 194.567 148.609 194.137C148.655 193.702 148.345 193.312 147.897 193.265C147.455 193.218 147.064 193.534 147.018 193.97C146.973 194.399 147.29 194.79 147.732 194.836ZM145.203 204.566C146.674 204.72 147.442 204.15 147.584 202.799L148.306 195.931L146.942 195.788L146.222 202.643C146.151 203.312 145.876 203.501 145.201 203.43C145.131 203.422 145.069 203.409 145.006 203.403L144.888 204.52C144.976 204.536 145.095 204.555 145.203 204.566ZM151.836 203.15C153.446 203.32 154.57 202.468 154.895 201.436L154.915 201.368L153.621 201.232L153.597 201.28C153.374 201.761 152.793 202.121 151.985 202.036C150.899 201.922 150.288 201.118 150.395 199.859L155.098 200.353L155.147 199.892C155.356 197.897 154.354 196.439 152.492 196.243C150.63 196.047 149.284 197.31 149.066 199.387L149.065 199.393C148.845 201.489 149.886 202.945 151.836 203.15ZM152.381 197.361C153.271 197.455 153.856 198.084 153.849 199.245L150.516 198.895C150.752 197.796 151.497 197.268 152.381 197.361ZM158.686 203.87C160.283 204.038 161.501 203.132 161.787 201.816L161.798 201.772L160.485 201.634L160.473 201.684C160.233 202.386 159.645 202.816 158.806 202.728C157.752 202.617 157.14 201.691 157.293 200.239L157.294 200.233C157.443 198.812 158.224 198.001 159.285 198.112C160.175 198.206 160.622 198.808 160.699 199.474L160.706 199.525L162.007 199.662L162.005 199.617C162.023 198.355 161.103 197.148 159.392 196.968C157.498 196.769 156.121 197.971 155.9 200.073L155.899 200.08C155.676 202.207 156.748 203.667 158.686 203.87ZM164.841 204.517C165.119 204.546 165.381 204.542 165.541 204.533L165.652 203.479C165.55 203.481 165.428 203.481 165.283 203.466C164.709 203.406 164.427 203.172 164.498 202.496L164.889 198.772L166.133 198.902L166.247 197.817L165.004 197.686L165.185 195.956L163.79 195.809L163.608 197.539L162.655 197.439L162.541 198.525L163.494 198.625L163.094 202.432C162.955 203.757 163.528 204.379 164.841 204.517ZM169.469 204.87L170.871 205.017L171.58 198.269L171.618 198.273L175.599 205.514L176.9 205.651L177.857 196.541L176.456 196.394L175.748 203.13L175.71 203.126L171.734 195.898L170.427 195.76L169.469 204.87ZM180.667 206.181C181.677 206.287 182.401 205.897 182.819 205.264L182.85 205.268L182.745 206.265L184.115 206.409L184.813 199.768L183.443 199.624L183.036 203.5C182.927 204.535 182.236 205.158 181.277 205.058C180.33 204.958 179.921 204.353 180.026 203.35L180.451 199.309L179.088 199.166L178.635 203.471C178.474 204.999 179.209 206.027 180.667 206.181ZM188.306 206.984C189.903 207.151 191.121 206.245 191.407 204.929L191.418 204.885L190.105 204.747L190.093 204.797C189.853 205.499 189.265 205.929 188.426 205.841C187.372 205.73 186.76 204.804 186.913 203.352L186.914 203.346C187.063 201.926 187.844 201.114 188.905 201.226C189.795 201.319 190.242 201.921 190.319 202.587L190.326 202.639L191.627 202.775L191.625 202.731C191.643 201.469 190.723 200.261 189.012 200.082C187.118 199.882 185.741 201.084 185.52 203.187L185.519 203.193C185.296 205.32 186.368 206.78 188.306 206.984ZM192.196 207.258L193.559 207.402L194.517 198.292L193.153 198.149L192.196 207.258ZM197.781 207.979C199.391 208.149 200.515 207.297 200.84 206.265L200.86 206.197L199.566 206.061L199.542 206.109C199.319 206.59 198.738 206.95 197.93 206.865C196.845 206.751 196.233 205.947 196.34 204.688L201.043 205.182L201.092 204.721C201.301 202.726 200.299 201.268 198.437 201.072C196.575 200.876 195.229 202.139 195.011 204.216L195.011 204.222C194.79 206.318 195.831 207.774 197.781 207.979ZM198.326 202.19C199.216 202.284 199.801 202.913 199.794 204.074L196.461 203.724C196.697 202.625 197.442 202.097 198.326 202.19ZM204.037 208.637C205.048 208.743 205.771 208.353 206.189 207.721L206.221 207.724L206.116 208.721L207.486 208.865L208.184 202.224L206.814 202.08L206.406 205.956C206.298 206.992 205.607 207.615 204.647 207.514C203.7 207.414 203.291 206.81 203.397 205.806L203.821 201.766L202.458 201.622L202.005 205.928C201.845 207.456 202.579 208.484 204.037 208.637ZM211.31 209.401C212.876 209.566 214.099 208.852 214.227 207.64L214.227 207.634C214.328 206.68 213.866 206.089 212.542 205.631L211.489 205.271C210.793 205.026 210.551 204.72 210.594 204.309L210.595 204.303C210.651 203.773 211.148 203.474 211.88 203.551C212.65 203.632 213.062 204.084 213.083 204.673L213.085 204.718L214.367 204.853L214.368 204.776C214.418 203.639 213.563 202.662 211.991 202.497C210.463 202.336 209.342 203.042 209.218 204.229L209.217 204.235C209.115 205.201 209.677 205.872 210.909 206.296L211.969 206.656C212.664 206.901 212.878 207.173 212.833 207.602L212.832 207.608C212.776 208.145 212.248 208.434 211.427 208.348C210.587 208.26 210.171 207.852 210.109 207.226L210.103 207.162L208.752 207.02L208.752 207.077C208.764 208.304 209.65 209.227 211.31 209.401Z" fill="white"/>
<path d="M122.254 167.73L126.232 168.149L121.215 215.886L117.237 215.468L122.254 167.73Z" fill="#82BDFF"/>
</g>
</g>
<g filter="url(#filter7_d_1022_35836)">
<g clip-path="url(#clip5_1022_35836)">
<rect x="132.914" y="66.2891" width="132" height="24" rx="2" transform="rotate(6 132.914 66.2891)" fill="#353149"/>
<path d="M139.934 84.1205L143.589 84.5047C145.527 84.7084 146.797 83.859 146.965 82.2618L146.966 82.2492C147.092 81.0497 146.346 80.0714 145.066 79.8028L145.069 79.7775C146.043 79.7395 146.862 78.9257 146.963 77.9661L146.965 77.9535C147.109 76.5773 146.144 75.5631 144.528 75.3932L140.891 75.0111L139.934 84.1205ZM144.065 76.5127C145.088 76.6202 145.627 77.1427 145.539 77.976L145.538 77.9886C145.441 78.904 144.713 79.338 143.463 79.2067L141.897 79.0421L142.184 76.3149L144.065 76.5127ZM143.639 80.3293C144.989 80.4713 145.631 81.0493 145.528 82.0278L145.527 82.0404C145.424 83.0126 144.689 83.4523 143.42 83.3189L141.469 83.1139L141.783 80.1342L143.639 80.3293ZM149.995 85.3121C151.005 85.4182 151.729 85.0284 152.147 84.3957L152.178 84.399L152.074 85.3965L153.443 85.5405L154.141 78.8993L152.772 78.7553L152.364 82.6314C152.255 83.6667 151.564 84.2898 150.605 84.189C149.658 84.0894 149.249 83.4848 149.355 82.4811L149.779 78.4408L148.416 78.2975L147.963 82.6029C147.803 84.1306 148.537 85.1588 149.995 85.3121ZM157.268 86.0764C158.833 86.241 160.057 85.5271 160.185 84.3151L160.185 84.3087C160.285 83.3555 159.824 82.7645 158.5 82.3062L157.447 81.9465C156.751 81.7011 156.509 81.3948 156.552 80.9845L156.553 80.9782C156.608 80.4479 157.106 80.1491 157.838 80.2261C158.608 80.307 159.02 80.7588 159.041 81.3482L159.043 81.3931L160.324 81.5278L160.326 81.4514C160.375 80.3141 159.521 79.337 157.949 79.1718C156.421 79.0112 155.3 79.7168 155.175 80.9036L155.175 80.9099C155.073 81.8758 155.634 82.5475 156.867 82.9706L157.926 83.3309C158.622 83.5764 158.836 83.8478 158.791 84.2771L158.79 84.2834C158.734 84.82 158.206 85.1091 157.385 85.0229C156.545 84.9346 156.129 84.527 156.067 83.9014L156.061 83.8369L154.71 83.6949L154.71 83.7524C154.722 84.9791 155.607 85.9019 157.268 86.0764ZM161.581 88.6361C162.882 88.7728 163.632 88.3155 164.269 86.991L167.474 80.3006L166.035 80.1494L163.794 85.3774L163.75 85.3727L162.645 79.7931L161.168 79.6378L162.887 86.5394L162.74 86.8431C162.445 87.4631 162.074 87.5964 161.43 87.5287C161.247 87.5095 161.092 87.4676 160.987 87.4311L160.875 88.498C161.036 88.5468 161.316 88.6082 161.581 88.6361Z" fill="white"/>
<path d="M132.914 66.2891L136.892 66.7072L134.383 90.5757L130.405 90.1576L132.914 66.2891Z" fill="#82BDFF"/>
</g>
</g>
<g filter="url(#filter8_d_1022_35836)">
<g clip-path="url(#clip6_1022_35836)">
<rect x="130.195" y="92.1465" width="132" height="24" rx="2" transform="rotate(6 130.195 92.1465)" fill="#353149"/>
<path d="M139.109 110.177L140.466 110.32L143.151 103.658L143.183 103.661L144.418 110.735L145.775 110.878L149.195 102.027L147.724 101.872L145.275 108.834L145.244 108.83L144.069 101.488L142.73 101.348L140.055 108.285L140.029 108.282L139.082 100.964L137.611 100.809L139.109 110.177ZM151.298 111.592C152.908 111.761 154.031 110.909 154.357 109.878L154.377 109.809L153.082 109.673L153.058 109.722C152.835 110.203 152.255 110.563 151.447 110.478C150.361 110.364 149.75 109.559 149.857 108.3L154.56 108.795L154.608 108.334C154.818 106.339 153.816 104.881 151.954 104.685C150.091 104.489 148.746 105.752 148.528 107.829L148.527 107.835C148.307 109.931 149.347 111.387 151.298 111.592ZM151.842 105.803C152.733 105.896 153.317 106.526 153.31 107.687L149.977 107.337C150.214 106.238 150.959 105.71 151.842 105.803ZM158.128 112.31C159.738 112.479 160.862 111.627 161.187 110.596L161.207 110.527L159.913 110.391L159.889 110.44C159.666 110.921 159.085 111.281 158.277 111.196C157.192 111.082 156.58 110.277 156.687 109.018L161.39 109.513L161.439 109.052C161.648 107.057 160.646 105.599 158.784 105.403C156.922 105.207 155.576 106.47 155.358 108.547L155.357 108.553C155.137 110.649 156.178 112.105 158.128 112.31ZM158.673 106.521C159.563 106.614 160.148 107.244 160.141 108.405L156.808 108.054C157.044 106.956 157.789 106.428 158.673 106.521ZM162.214 112.605L163.578 112.749L163.829 110.356L164.456 109.854L166.4 113.045L167.984 113.212L165.546 109.139L168.575 106.559L166.971 106.391L164.009 108.945L163.978 108.942L164.535 103.639L163.172 103.496L162.214 112.605ZM168.716 113.289L170.08 113.432L171.037 104.323L169.674 104.179L168.716 113.289ZM172.031 115.878C173.332 116.014 174.082 115.557 174.719 114.233L177.924 107.542L176.485 107.391L174.244 112.619L174.2 112.614L173.095 107.035L171.618 106.879L173.337 113.781L173.19 114.085C172.895 114.705 172.524 114.838 171.88 114.77C171.697 114.751 171.541 114.709 171.437 114.673L171.325 115.739C171.485 115.788 171.766 115.85 172.031 115.878ZM183.121 114.937C184.687 115.101 185.911 114.388 186.038 113.176L186.039 113.169C186.139 112.216 185.678 111.625 184.353 111.167L183.3 110.807C182.604 110.562 182.362 110.255 182.405 109.845L182.406 109.839C182.462 109.308 182.959 109.01 183.691 109.087C184.461 109.167 184.874 109.619 184.895 110.209L184.896 110.254L186.178 110.388L186.179 110.312C186.229 109.175 185.374 108.198 183.802 108.032C182.274 107.872 181.153 108.577 181.029 109.764L181.028 109.77C180.927 110.736 181.488 111.408 182.72 111.831L183.78 112.191C184.475 112.437 184.689 112.708 184.644 113.138L184.644 113.144C184.587 113.68 184.059 113.97 183.238 113.883C182.399 113.795 181.982 113.387 181.92 112.762L181.914 112.697L180.563 112.555L180.563 112.613C180.575 113.84 181.461 114.762 183.121 114.937ZM187.435 117.497C188.735 117.633 189.485 117.176 190.122 115.852L193.328 109.161L191.888 109.01L189.647 114.238L189.603 114.233L188.498 108.654L187.021 108.498L188.74 115.4L188.593 115.704C188.298 116.324 187.927 116.457 187.283 116.389C187.1 116.37 186.945 116.328 186.84 116.292L186.728 117.358C186.889 117.407 187.17 117.469 187.435 117.497ZM193.425 115.886L194.789 116.029L195.195 112.159C195.304 111.124 195.996 110.495 196.955 110.596C197.902 110.695 198.31 111.306 198.206 112.303L197.781 116.344L199.151 116.488L199.603 112.189C199.763 110.661 199.022 109.632 197.564 109.479C196.56 109.373 195.831 109.756 195.413 110.395L195.381 110.392L195.487 109.388L194.123 109.245L193.425 115.886ZM203.31 117.059C204.907 117.227 206.125 116.321 206.411 115.004L206.422 114.96L205.108 114.822L205.097 114.872C204.857 115.575 204.269 116.004 203.43 115.916C202.376 115.805 201.764 114.879 201.917 113.428L201.918 113.421C202.067 112.001 202.848 111.189 203.909 111.301C204.799 111.394 205.246 111.997 205.323 112.662L205.33 112.714L206.631 112.851L206.629 112.806C206.647 111.544 205.727 110.337 204.016 110.157C202.122 109.958 200.745 111.16 200.524 113.262L200.523 113.268C200.3 115.396 201.372 116.855 203.31 117.059Z" fill="white"/>
<path d="M130.195 92.1465L134.173 92.5646L131.665 116.433L127.687 116.015L130.195 92.1465Z" fill="#82BDFF"/>
</g>
</g>
<g filter="url(#filter9_d_1022_35836)">
<g clip-path="url(#clip7_1022_35836)">
<rect x="127.48" y="118.004" width="132" height="48" rx="2" transform="rotate(6 127.48 118.004)" fill="#353149"/>
<path d="M137.163 135.239C139.001 135.432 140.268 134.015 140.525 131.569L140.526 131.558C140.783 129.111 139.838 127.468 138 127.274C136.157 127.081 134.896 128.493 134.639 130.939L134.638 130.95C134.381 133.396 135.32 135.045 137.163 135.239ZM137.268 134.24C136.168 134.124 135.651 132.925 135.845 131.077L135.847 131.066C136.041 129.218 136.794 128.163 137.895 128.279C138.99 128.394 139.513 129.583 139.319 131.431L139.317 131.442C139.123 133.29 138.363 134.355 137.268 134.24ZM144.806 127.99C143.176 127.818 141.869 128.799 141.707 130.337L141.706 130.348C141.553 131.806 142.508 132.992 143.983 133.147C145.03 133.257 145.867 132.794 146.244 132.132L146.271 132.135C146.264 132.204 146.256 132.274 146.244 132.343C146.035 133.865 145.361 135.085 144.037 134.946C143.299 134.868 142.836 134.452 142.677 133.853L142.661 133.797L141.465 133.671L141.474 133.737C141.599 134.911 142.548 135.805 143.92 135.949C145.849 136.152 147.157 134.755 147.427 132.186L147.428 132.175C147.719 129.403 146.381 128.155 144.806 127.99ZM144.357 132.204C143.422 132.105 142.803 131.371 142.901 130.441L142.902 130.43C142.996 129.533 143.803 128.9 144.711 128.995C145.629 129.092 146.269 129.888 146.173 130.801L146.173 130.807C146.077 131.72 145.297 132.302 144.357 132.204ZM149.252 131.163C149.642 131.204 149.984 130.926 150.026 130.531C150.066 130.141 149.789 129.799 149.399 129.758C149.004 129.716 148.662 129.994 148.621 130.383C148.579 130.779 148.856 131.121 149.252 131.163ZM148.83 135.174C149.22 135.215 149.562 134.938 149.603 134.548C149.645 134.153 149.367 133.816 148.977 133.775C148.582 133.733 148.24 134.005 148.198 134.4C148.157 134.79 148.435 135.133 148.83 135.174ZM153.204 136.925C154.839 137.097 156.097 136.278 156.235 134.959L156.236 134.948C156.35 133.869 155.663 133.106 154.541 132.885L154.544 132.859C155.505 132.76 156.256 132.191 156.357 131.234L156.358 131.224C156.483 130.038 155.564 129.12 154.031 128.959C152.524 128.801 151.409 129.542 151.157 130.817L151.146 130.87L152.267 130.988L152.278 130.941C152.428 130.233 153.073 129.847 153.928 129.937C154.799 130.028 155.255 130.514 155.177 131.256L155.176 131.267C155.101 131.983 154.448 132.438 153.567 132.345L152.664 132.25L152.566 133.18L153.501 133.278C154.532 133.386 155.111 133.939 155.02 134.81L155.019 134.82C154.94 135.568 154.249 136.025 153.309 135.926C152.353 135.825 151.757 135.277 151.754 134.585L151.755 134.526L150.607 134.405L150.605 134.475C150.58 135.742 151.559 136.752 153.204 136.925ZM159.94 137.633C161.778 137.826 163.044 136.409 163.302 133.963L163.303 133.952C163.56 131.505 162.615 129.861 160.777 129.668C158.934 129.475 157.673 130.887 157.416 133.333L157.415 133.344C157.158 135.79 158.097 137.439 159.94 137.633ZM160.045 136.634C158.945 136.518 158.428 135.319 158.622 133.471L158.623 133.46C158.818 131.612 159.571 130.557 160.672 130.673C161.767 130.788 162.29 131.977 162.095 133.825L162.094 133.836C161.9 135.684 161.14 136.749 160.045 136.634Z" fill="#A8AAB5"/>
<path d="M132.93 150.753L136.585 151.138C138.523 151.341 139.793 150.492 139.961 148.895L139.962 148.882C140.089 147.683 139.342 146.704 138.062 146.436L138.065 146.41C139.039 146.372 139.859 145.559 139.959 144.599L139.961 144.586C140.105 143.21 139.14 142.196 137.524 142.026L133.887 141.644L132.93 150.753ZM137.061 143.145C138.084 143.253 138.623 143.776 138.535 144.609L138.534 144.621C138.438 145.537 137.709 145.971 136.459 145.839L134.893 145.675L135.18 142.948L137.061 143.145ZM136.635 146.962C137.986 147.104 138.627 147.682 138.524 148.661L138.523 148.673C138.421 149.645 137.685 150.085 136.416 149.952L134.465 149.747L134.779 146.767L136.635 146.962ZM142.991 151.945C144.001 152.051 144.725 151.661 145.143 151.029L145.174 151.032L145.07 152.029L146.44 152.173L147.138 145.532L145.768 145.388L145.36 149.264C145.251 150.3 144.56 150.923 143.601 150.822C142.654 150.722 142.245 150.118 142.351 149.114L142.775 145.074L141.412 144.93L140.959 149.236C140.799 150.763 141.533 151.792 142.991 151.945ZM150.264 152.709C151.829 152.874 153.053 152.16 153.181 150.948L153.181 150.942C153.282 149.988 152.82 149.397 151.496 148.939L150.443 148.579C149.747 148.334 149.505 148.028 149.548 147.617L149.549 147.611C149.604 147.081 150.102 146.782 150.834 146.859C151.604 146.94 152.016 147.392 152.037 147.981L152.039 148.026L153.32 148.161L153.322 148.084C153.371 146.947 152.517 145.97 150.945 145.805C149.417 145.644 148.296 146.35 148.171 147.536L148.171 147.543C148.069 148.509 148.631 149.18 149.863 149.603L150.923 149.964C151.618 150.209 151.832 150.481 151.787 150.91L151.786 150.916C151.73 151.453 151.202 151.742 150.381 151.656C149.541 151.567 149.125 151.16 149.063 150.534L149.057 150.47L147.706 150.328L147.706 150.385C147.718 151.612 148.604 152.535 150.264 152.709ZM154.578 155.269C155.878 155.406 156.628 154.948 157.265 153.624L160.47 146.933L159.031 146.782L156.79 152.01L156.746 152.006L155.641 146.426L154.164 146.271L155.883 153.172L155.736 153.476C155.441 154.096 155.07 154.229 154.426 154.162C154.243 154.142 154.088 154.1 153.983 154.064L153.871 155.131C154.032 155.18 154.312 155.241 154.578 155.269Z" fill="white"/>
<path d="M127.48 118.004L131.459 118.422L126.441 166.159L122.463 165.741L127.48 118.004Z" fill="#82BDFF"/>
</g>
</g>
<defs>
<filter id="filter0_dd_1022_35836" x="0.414062" y="50.6953" width="217.527" height="235.627" filterUnits="userSpaceOnUse" color-interpolation-filters="sRGB">
<feFlood flood-opacity="0" result="BackgroundImageFix"/>
<feColorMatrix in="SourceAlpha" type="matrix" values="0 0 0 0 0 0 0 0 0 0 0 0 0 0 0 0 0 0 127 0" result="hardAlpha"/>
<feOffset dy="2"/>
<feGaussianBlur stdDeviation="4"/>
<feColorMatrix type="matrix" values="0 0 0 0 0 0 0 0 0 0 0 0 0 0 0 0 0 0 0.2 0"/>
<feBlend mode="normal" in2="BackgroundImageFix" result="effect1_dropShadow_1022_35836"/>
<feColorMatrix in="SourceAlpha" type="matrix" values="0 0 0 0 0 0 0 0 0 0 0 0 0 0 0 0 0 0 127 0" result="hardAlpha"/>
<feMorphology radius="1" operator="dilate" in="SourceAlpha" result="effect2_dropShadow_1022_35836"/>
<feOffset dy="20"/>
<feGaussianBlur stdDeviation="15"/>
<feColorMatrix type="matrix" values="0 0 0 0 0 0 0 0 0 0 0 0 0 0 0 0 0 0 0.1 0"/>
<feBlend mode="normal" in2="effect1_dropShadow_1022_35836" result="effect2_dropShadow_1022_35836"/>
<feBlend mode="normal" in="SourceGraphic" in2="effect2_dropShadow_1022_35836" result="shape"/>
</filter>
<filter id="filter1_d_1022_35836" x="43.1523" y="170.453" width="137.332" height="57.8418" filterUnits="userSpaceOnUse" color-interpolation-filters="sRGB">
<feFlood flood-opacity="0" result="BackgroundImageFix"/>
<feColorMatrix in="SourceAlpha" type="matrix" values="0 0 0 0 0 0 0 0 0 0 0 0 0 0 0 0 0 0 127 0" result="hardAlpha"/>
<feMorphology radius="0.5" operator="dilate" in="SourceAlpha" result="effect1_dropShadow_1022_35836"/>
<feOffset dy="0.5"/>
<feGaussianBlur stdDeviation="0.5"/>
<feColorMatrix type="matrix" values="0 0 0 0 0 0 0 0 0 0 0 0 0 0 0 0 0 0 0.1 0"/>
<feBlend mode="normal" in2="BackgroundImageFix" result="effect1_dropShadow_1022_35836"/>
<feBlend mode="normal" in="SourceGraphic" in2="effect1_dropShadow_1022_35836" result="shape"/>
</filter>
<filter id="filter2_d_1022_35836" x="37.8125" y="68.5938" width="136.074" height="33.875" filterUnits="userSpaceOnUse" color-interpolation-filters="sRGB">
<feFlood flood-opacity="0" result="BackgroundImageFix"/>
<feColorMatrix in="SourceAlpha" type="matrix" values="0 0 0 0 0 0 0 0 0 0 0 0 0 0 0 0 0 0 127 0" result="hardAlpha"/>
<feMorphology radius="0.5" operator="dilate" in="SourceAlpha" result="effect1_dropShadow_1022_35836"/>
<feOffset dy="0.5"/>
<feGaussianBlur stdDeviation="0.5"/>
<feColorMatrix type="matrix" values="0 0 0 0 0 0 0 0 0 0 0 0 0 0 0 0 0 0 0.1 0"/>
<feBlend mode="normal" in2="BackgroundImageFix" result="effect1_dropShadow_1022_35836"/>
<feBlend mode="normal" in="SourceGraphic" in2="effect1_dropShadow_1022_35836" result="shape"/>
</filter>
<filter id="filter3_d_1022_35836" x="39.1719" y="94.5586" width="136.074" height="33.875" filterUnits="userSpaceOnUse" color-interpolation-filters="sRGB">
<feFlood flood-opacity="0" result="BackgroundImageFix"/>
<feColorMatrix in="SourceAlpha" type="matrix" values="0 0 0 0 0 0 0 0 0 0 0 0 0 0 0 0 0 0 127 0" result="hardAlpha"/>
<feMorphology radius="0.5" operator="dilate" in="SourceAlpha" result="effect1_dropShadow_1022_35836"/>
<feOffset dy="0.5"/>
<feGaussianBlur stdDeviation="0.5"/>
<feColorMatrix type="matrix" values="0 0 0 0 0 0 0 0 0 0 0 0 0 0 0 0 0 0 0.1 0"/>
<feBlend mode="normal" in2="BackgroundImageFix" result="effect1_dropShadow_1022_35836"/>
<feBlend mode="normal" in="SourceGraphic" in2="effect1_dropShadow_1022_35836" result="shape"/>
</filter>
<filter id="filter4_d_1022_35836" x="40.5352" y="120.523" width="137.332" height="57.8418" filterUnits="userSpaceOnUse" color-interpolation-filters="sRGB">
<feFlood flood-opacity="0" result="BackgroundImageFix"/>
<feColorMatrix in="SourceAlpha" type="matrix" values="0 0 0 0 0 0 0 0 0 0 0 0 0 0 0 0 0 0 127 0" result="hardAlpha"/>
<feMorphology radius="0.5" operator="dilate" in="SourceAlpha" result="effect1_dropShadow_1022_35836"/>
<feOffset dy="0.5"/>
<feGaussianBlur stdDeviation="0.5"/>
<feColorMatrix type="matrix" values="0 0 0 0 0 0 0 0 0 0 0 0 0 0 0 0 0 0 0.1 0"/>
<feBlend mode="normal" in2="BackgroundImageFix" result="effect1_dropShadow_1022_35836"/>
<feBlend mode="normal" in="SourceGraphic" in2="effect1_dropShadow_1022_35836" result="shape"/>
</filter>
<filter id="filter5_dd_1022_35836" x="78.3125" y="47.4863" width="224.68" height="241.703" filterUnits="userSpaceOnUse" color-interpolation-filters="sRGB">
<feFlood flood-opacity="0" result="BackgroundImageFix"/>
<feColorMatrix in="SourceAlpha" type="matrix" values="0 0 0 0 0 0 0 0 0 0 0 0 0 0 0 0 0 0 127 0" result="hardAlpha"/>
<feOffset dy="2"/>
<feGaussianBlur stdDeviation="4"/>
<feColorMatrix type="matrix" values="0 0 0 0 0 0 0 0 0 0 0 0 0 0 0 0 0 0 0.2 0"/>
<feBlend mode="normal" in2="BackgroundImageFix" result="effect1_dropShadow_1022_35836"/>
<feColorMatrix in="SourceAlpha" type="matrix" values="0 0 0 0 0 0 0 0 0 0 0 0 0 0 0 0 0 0 127 0" result="hardAlpha"/>
<feMorphology radius="1" operator="dilate" in="SourceAlpha" result="effect2_dropShadow_1022_35836"/>
<feOffset dy="20"/>
<feGaussianBlur stdDeviation="15"/>
<feColorMatrix type="matrix" values="0 0 0 0 0 0 0 0 0 0 0 0 0 0 0 0 0 0 0.1 0"/>
<feBlend mode="normal" in2="effect1_dropShadow_1022_35836" result="effect2_dropShadow_1022_35836"/>
<feBlend mode="normal" in="SourceGraphic" in2="effect2_dropShadow_1022_35836" result="shape"/>
</filter>
<filter id="filter6_d_1022_35836" x="115.738" y="166.73" width="139.293" height="64.5352" filterUnits="userSpaceOnUse" color-interpolation-filters="sRGB">
<feFlood flood-opacity="0" result="BackgroundImageFix"/>
<feColorMatrix in="SourceAlpha" type="matrix" values="0 0 0 0 0 0 0 0 0 0 0 0 0 0 0 0 0 0 127 0" result="hardAlpha"/>
<feMorphology radius="0.5" operator="dilate" in="SourceAlpha" result="effect1_dropShadow_1022_35836"/>
<feOffset dy="0.5"/>
<feGaussianBlur stdDeviation="0.5"/>
<feColorMatrix type="matrix" values="0 0 0 0 0 0 0 0 0 0 0 0 0 0 0 0 0 0 0.1 0"/>
<feBlend mode="normal" in2="BackgroundImageFix" result="effect1_dropShadow_1022_35836"/>
<feBlend mode="normal" in="SourceGraphic" in2="effect1_dropShadow_1022_35836" result="shape"/>
</filter>
<filter id="filter7_d_1022_35836" x="128.906" y="65.2891" width="136.785" height="40.666" filterUnits="userSpaceOnUse" color-interpolation-filters="sRGB">
<feFlood flood-opacity="0" result="BackgroundImageFix"/>
<feColorMatrix in="SourceAlpha" type="matrix" values="0 0 0 0 0 0 0 0 0 0 0 0 0 0 0 0 0 0 127 0" result="hardAlpha"/>
<feMorphology radius="0.5" operator="dilate" in="SourceAlpha" result="effect1_dropShadow_1022_35836"/>
<feOffset dy="0.5"/>
<feGaussianBlur stdDeviation="0.5"/>
<feColorMatrix type="matrix" values="0 0 0 0 0 0 0 0 0 0 0 0 0 0 0 0 0 0 0.1 0"/>
<feBlend mode="normal" in2="BackgroundImageFix" result="effect1_dropShadow_1022_35836"/>
<feBlend mode="normal" in="SourceGraphic" in2="effect1_dropShadow_1022_35836" result="shape"/>
</filter>
<filter id="filter8_d_1022_35836" x="126.188" y="91.1465" width="136.785" height="40.666" filterUnits="userSpaceOnUse" color-interpolation-filters="sRGB">
<feFlood flood-opacity="0" result="BackgroundImageFix"/>
<feColorMatrix in="SourceAlpha" type="matrix" values="0 0 0 0 0 0 0 0 0 0 0 0 0 0 0 0 0 0 127 0" result="hardAlpha"/>
<feMorphology radius="0.5" operator="dilate" in="SourceAlpha" result="effect1_dropShadow_1022_35836"/>
<feOffset dy="0.5"/>
<feGaussianBlur stdDeviation="0.5"/>
<feColorMatrix type="matrix" values="0 0 0 0 0 0 0 0 0 0 0 0 0 0 0 0 0 0 0.1 0"/>
<feBlend mode="normal" in2="BackgroundImageFix" result="effect1_dropShadow_1022_35836"/>
<feBlend mode="normal" in="SourceGraphic" in2="effect1_dropShadow_1022_35836" result="shape"/>
</filter>
<filter id="filter9_d_1022_35836" x="120.965" y="117.004" width="139.293" height="64.5352" filterUnits="userSpaceOnUse" color-interpolation-filters="sRGB">
<feFlood flood-opacity="0" result="BackgroundImageFix"/>
<feColorMatrix in="SourceAlpha" type="matrix" values="0 0 0 0 0 0 0 0 0 0 0 0 0 0 0 0 0 0 127 0" result="hardAlpha"/>
<feMorphology radius="0.5" operator="dilate" in="SourceAlpha" result="effect1_dropShadow_1022_35836"/>
<feOffset dy="0.5"/>
<feGaussianBlur stdDeviation="0.5"/>
<feColorMatrix type="matrix" values="0 0 0 0 0 0 0 0 0 0 0 0 0 0 0 0 0 0 0.1 0"/>
<feBlend mode="normal" in2="BackgroundImageFix" result="effect1_dropShadow_1022_35836"/>
<feBlend mode="normal" in="SourceGraphic" in2="effect1_dropShadow_1022_35836" result="shape"/>
</filter>
<clipPath id="clip0_1022_35836">
<rect x="44.6523" y="178.361" width="132" height="48" rx="4" transform="rotate(-3 44.6523 178.361)" fill="white"/>
</clipPath>
<clipPath id="clip1_1022_35836">
<rect x="39.3125" y="76.502" width="132" height="24" rx="4" transform="rotate(-3 39.3125 76.502)" fill="white"/>
</clipPath>
<clipPath id="clip2_1022_35836">
<rect x="40.6719" y="102.467" width="132" height="24" rx="4" transform="rotate(-3 40.6719 102.467)" fill="white"/>
</clipPath>
<clipPath id="clip3_1022_35836">
<rect x="42.0352" y="128.432" width="132" height="48" rx="4" transform="rotate(-3 42.0352 128.432)" fill="white"/>
</clipPath>
<clipPath id="clip4_1022_35836">
<rect x="122.254" y="167.73" width="132" height="48" rx="4" transform="rotate(6 122.254 167.73)" fill="white"/>
</clipPath>
<clipPath id="clip5_1022_35836">
<rect x="132.914" y="66.2891" width="132" height="24" rx="4" transform="rotate(6 132.914 66.2891)" fill="white"/>
</clipPath>
<clipPath id="clip6_1022_35836">
<rect x="130.195" y="92.1465" width="132" height="24" rx="4" transform="rotate(6 130.195 92.1465)" fill="white"/>
</clipPath>
<clipPath id="clip7_1022_35836">
<rect x="127.48" y="118.004" width="132" height="48" rx="4" transform="rotate(6 127.48 118.004)" fill="white"/>
</clipPath>
</defs>
</svg>
