<svg width="49" height="48" viewBox="0 0 49 48" fill="none" xmlns="http://www.w3.org/2000/svg">
<rect x="0.332031" width="48" height="48" rx="6" fill="url(#paint0_radial_893_24017)"/>
<path d="M25.4385 11.1123C25.4385 10.5156 24.9307 10.0078 24.3213 10.0078C23.7246 10.0078 23.2168 10.5156 23.2168 11.1123V14.8193C23.2168 15.416 23.7246 15.9238 24.3213 15.9238C24.9307 15.9238 25.4385 15.416 25.4385 14.8193V11.1123ZM17.0977 18.1328C17.5293 18.5645 18.2402 18.5645 18.6592 18.1328C19.0908 17.7139 19.0908 17.0029 18.6592 16.5713L16.0566 13.9561C15.6377 13.5371 14.9268 13.5244 14.4951 13.9434C14.0762 14.3623 14.0762 15.0732 14.4951 15.5049L17.0977 18.1328ZM29.8438 16.6982C29.4248 17.1299 29.4248 17.8408 29.8438 18.2598C30.2754 18.6914 30.999 18.6914 31.418 18.2598L34.0332 15.6445C34.4648 15.2129 34.4648 14.502 34.0332 14.0703C33.6143 13.6514 32.9033 13.6514 32.4844 14.0703L29.8438 16.6982ZM23.3184 32.6055C23.3057 33.1006 23.8896 33.2529 24.207 32.9355L26.1367 30.9932L28.3076 36.3633C28.4092 36.5918 28.6758 36.7188 28.9043 36.6172L30.1611 36.1221C30.3896 36.0078 30.4785 35.7412 30.3643 35.5127L28.0791 30.2314L30.8213 30.1172C31.3037 30.0918 31.5322 29.6348 31.1895 29.2666L24.2578 22.1445C23.9277 21.8145 23.4453 21.9922 23.4326 22.4619L23.3184 32.6055ZM11.6514 22.6777C11.0547 22.6777 10.5469 23.1855 10.5469 23.7822C10.5469 24.3789 11.0547 24.8867 11.6514 24.8867H15.3711C15.9805 24.8867 16.4883 24.3789 16.4883 23.7822C16.4883 23.1855 15.9805 22.6777 15.3711 22.6777H11.6514ZM36.9912 24.8867C37.6006 24.8867 38.1084 24.3789 38.1084 23.7822C38.1084 23.1855 37.6006 22.6777 36.9912 22.6777H33.2842C32.6875 22.6777 32.1797 23.1855 32.1797 23.7822C32.1797 24.3789 32.6875 24.8867 33.2842 24.8867H36.9912ZM14.6094 31.9199C14.1904 32.3389 14.1904 33.0625 14.5967 33.4814C15.0156 33.9004 15.7393 33.9131 16.1709 33.4941L18.7861 30.8789C19.2178 30.46 19.2178 29.749 18.7861 29.3174C18.3799 28.8984 17.6562 28.8984 17.2246 29.3174L14.6094 31.9199Z" fill="white"/>
<defs>
<radialGradient id="paint0_radial_893_24017" cx="0" cy="0" r="1" gradientUnits="userSpaceOnUse" gradientTransform="translate(-38.3359 122.5) rotate(-53.5439) scale(152.304 122.765)">
<stop stop-color="#FFDFC2"/>
<stop offset="0.300591" stop-color="#FFD6F7"/>
<stop offset="0.65625" stop-color="#B391FF"/>
<stop offset="1" stop-color="#4175B6"/>
</radialGradient>
</defs>
</svg>
