<svg width="49" height="48" viewBox="0 0 49 48" fill="none" xmlns="http://www.w3.org/2000/svg">
<rect x="0.667969" width="48" height="48" rx="6" fill="url(#paint0_radial_893_24002)"/>
<path d="M20.7578 21.6631V26.0176H18.8916C16.8857 26.0176 15.2607 27.5918 15.2607 29.6104C15.2607 31.6289 16.8857 33.2539 18.8916 33.2539C20.8975 33.2539 22.5225 31.6289 22.5225 29.6104V27.7568H26.8135V29.6104C26.8135 31.6289 28.4385 33.2539 30.4443 33.2539C32.4502 33.2539 34.0752 31.6289 34.0752 29.6104C34.0752 27.5918 32.4502 26.0176 30.4443 26.0176H28.5908V21.6631H30.4443C32.4502 21.6631 34.0752 20.0889 34.0752 18.0703C34.0752 16.0518 32.4502 14.4268 30.4443 14.4268C28.4385 14.4268 26.8135 16.0518 26.8135 18.0703V19.9238H22.5225V18.0703C22.5225 16.0518 20.8975 14.4268 18.8916 14.4268C16.8857 14.4268 15.2607 16.0518 15.2607 18.0703C15.2607 20.0889 16.8857 21.6631 18.8916 21.6631H20.7578ZM18.8916 19.9492C17.876 19.9492 17.0254 19.0986 17.0254 18.0703C17.0254 17.042 17.876 16.2041 18.8916 16.2041C19.9072 16.2041 20.7578 17.042 20.7578 18.0703V19.9492H18.8916ZM30.4443 19.9492H28.5908V18.0703C28.5908 17.042 29.4287 16.2041 30.4443 16.2041C31.46 16.2041 32.3105 17.042 32.3105 18.0703C32.3105 19.0986 31.46 19.9492 30.4443 19.9492ZM22.5225 26.043V21.6377H26.8135V26.043H22.5225ZM18.8916 27.7188H20.7578V29.5977C20.7578 30.626 19.9072 31.4639 18.8916 31.4639C17.876 31.4639 17.0254 30.626 17.0254 29.5977C17.0254 28.5693 17.876 27.7188 18.8916 27.7188ZM30.4443 27.7188C31.46 27.7188 32.3105 28.5693 32.3105 29.5977C32.3105 30.626 31.46 31.4639 30.4443 31.4639C29.4287 31.4639 28.5908 30.626 28.5908 29.5977V27.7188H30.4443Z" fill="white"/>
<defs>
<radialGradient id="paint0_radial_893_24002" cx="0" cy="0" r="1" gradientUnits="userSpaceOnUse" gradientTransform="translate(-26.6641 85.5) rotate(-47.7029) scale(164.939 132.95)">
<stop stop-color="#FFDFC2"/>
<stop offset="0.300591" stop-color="#FFD6F7"/>
<stop offset="0.65625" stop-color="#B391FF"/>
<stop offset="1" stop-color="#4175B6"/>
</radialGradient>
</defs>
</svg>
