<svg width="358" height="238" viewBox="0 0 358 238" fill="none" xmlns="http://www.w3.org/2000/svg">
<rect x="35" y="182" width="24" height="24" rx="5.14286" fill="#231F3C"/>
<path d="M45.2857 199.143L44.449 200.119C44.7189 200.351 45.0726 200.46 45.426 200.421C45.7794 200.382 46.101 200.199 46.3143 199.915L45.2857 199.143ZM50.4286 192.286L51.4571 193.057L51.4571 193.057L50.4286 192.286ZM54.0286 189.629C54.4546 189.061 54.3395 188.255 53.7714 187.829C53.2034 187.403 52.3975 187.518 51.9714 188.086L54.0286 189.629ZM41.6224 194.31C41.0833 193.848 40.2716 193.91 39.8095 194.449C39.3474 194.988 39.4098 195.8 39.949 196.262L41.6224 194.31ZM46.3143 199.915L51.4571 193.057L49.4 191.515L44.2571 198.372L46.3143 199.915ZM51.4571 193.057L54.0286 189.629L51.9714 188.086L49.4 191.515L51.4571 193.057ZM41.449 197.548L44.449 200.119L46.1224 198.167L43.1224 195.596L41.449 197.548ZM39.949 196.262L41.449 197.548L43.1224 195.596L41.6224 194.31L39.949 196.262Z" fill="#141228"/>
<rect x="328" y="107" width="14" height="14" rx="3" fill="#231F3C"/>
<path d="M334 117L333.512 117.569C333.669 117.704 333.876 117.768 334.082 117.746C334.288 117.723 334.476 117.616 334.6 117.45L334 117ZM339.1 111.45C339.349 111.119 339.281 110.649 338.95 110.4C338.619 110.151 338.149 110.219 337.9 110.55L339.1 111.45ZM331.863 114.181C331.549 113.911 331.075 113.947 330.806 114.262C330.536 114.576 330.572 115.05 330.887 115.319L331.863 114.181ZM334.6 117.45L337.6 113.45L336.4 112.55L333.4 116.55L334.6 117.45ZM337.6 113.45L339.1 111.45L337.9 110.55L336.4 112.55L337.6 113.45ZM331.762 116.069L333.512 117.569L334.488 116.431L332.738 114.931L331.762 116.069ZM330.887 115.319L331.762 116.069L332.738 114.931L331.863 114.181L330.887 115.319Z" fill="#141228"/>
<rect x="208" y="145" width="14" height="14" rx="3" fill="#231F3C"/>
<path d="M214 155L213.512 155.569C213.669 155.704 213.876 155.768 214.082 155.746C214.288 155.723 214.476 155.616 214.6 155.45L214 155ZM219.1 149.45C219.349 149.119 219.281 148.649 218.95 148.4C218.619 148.151 218.149 148.219 217.9 148.55L219.1 149.45ZM211.863 152.181C211.549 151.911 211.075 151.947 210.806 152.262C210.536 152.576 210.572 153.05 210.887 153.319L211.863 152.181ZM214.6 155.45L217.6 151.45L216.4 150.55L213.4 154.55L214.6 155.45ZM217.6 151.45L219.1 149.45L217.9 148.55L216.4 150.55L217.6 151.45ZM211.762 154.069L213.512 155.569L214.488 154.431L212.738 152.931L211.762 154.069ZM210.887 153.319L211.762 154.069L212.738 152.931L211.863 152.181L210.887 153.319Z" fill="#141228"/>
<rect x="274" y="180" width="8" height="8" rx="1.71429" fill="#231F3C"/>
<path d="M277.429 185.714L277.15 186.039C277.24 186.116 277.358 186.153 277.475 186.14C277.593 186.127 277.7 186.066 277.771 185.971L277.429 185.714ZM279.143 183.428L278.8 183.171L278.8 183.171L279.143 183.428ZM280.343 182.542C280.485 182.353 280.446 182.084 280.257 181.942C280.068 181.8 279.799 181.839 279.657 182.028L280.343 182.542ZM276.429 184.857L276.707 184.531L276.707 184.531L276.429 184.857ZM276.207 184.103C276.028 183.949 275.757 183.969 275.603 184.149C275.449 184.329 275.47 184.599 275.65 184.753L276.207 184.103ZM277.771 185.971L279.486 183.685L278.8 183.171L277.086 185.457L277.771 185.971ZM279.486 183.685L280.343 182.542L279.657 182.028L278.8 183.171L279.486 183.685ZM276.15 185.182L277.15 186.039L277.707 185.388L276.707 184.531L276.15 185.182ZM275.65 184.753L276.15 185.182L276.707 184.531L276.207 184.103L275.65 184.753Z" fill="#141228"/>
<rect x="314" y="52" width="8" height="8" rx="1.71429" fill="#231F3C"/>
<path d="M317.429 57.7137L317.15 58.0391C317.24 58.1162 317.358 58.1527 317.475 58.1397C317.593 58.1268 317.7 58.0657 317.771 57.9709L317.429 57.7137ZM319.143 55.428L318.8 55.1709L318.8 55.1709L319.143 55.428ZM320.343 54.5423C320.485 54.3529 320.446 54.0843 320.257 53.9423C320.068 53.8003 319.799 53.8387 319.657 54.028L320.343 54.5423ZM316.429 56.8566L316.707 56.5312L316.707 56.5312L316.429 56.8566ZM316.207 56.1026C316.028 55.9486 315.757 55.9694 315.603 56.1491C315.449 56.3288 315.47 56.5994 315.65 56.7534L316.207 56.1026ZM317.771 57.9709L319.486 55.6852L318.8 55.1709L317.086 57.4566L317.771 57.9709ZM319.486 55.6852L320.343 54.5423L319.657 54.028L318.8 55.1709L319.486 55.6852ZM316.15 57.182L317.15 58.0391L317.707 57.3883L316.707 56.5312L316.15 57.182ZM315.65 56.7534L316.15 57.182L316.707 56.5312L316.207 56.1026L315.65 56.7534Z" fill="#141228"/>
<rect x="81" y="194" width="8" height="8" rx="1.71429" fill="#231F3C"/>
<path d="M84.4286 199.714L84.1497 200.039C84.2396 200.116 84.3575 200.153 84.4753 200.14C84.5931 200.127 84.7003 200.066 84.7714 199.971L84.4286 199.714ZM86.1429 197.428L85.8 197.171L85.8 197.171L86.1429 197.428ZM87.3429 196.542C87.4849 196.353 87.4465 196.084 87.2571 195.942C87.0678 195.8 86.7992 195.839 86.6571 196.028L87.3429 196.542ZM83.4286 198.857L83.7075 198.531L83.7075 198.531L83.4286 198.857ZM83.2075 198.103C83.0278 197.949 82.7572 197.969 82.6032 198.149C82.4491 198.329 82.47 198.599 82.6497 198.753L83.2075 198.103ZM84.7714 199.971L86.4857 197.685L85.8 197.171L84.0857 199.457L84.7714 199.971ZM86.4857 197.685L87.3429 196.542L86.6571 196.028L85.8 197.171L86.4857 197.685ZM83.1497 199.182L84.1497 200.039L84.7075 199.388L83.7075 198.531L83.1497 199.182ZM82.6497 198.753L83.1497 199.182L83.7075 198.531L83.2075 198.103L82.6497 198.753Z" fill="#141228"/>
<rect x="342" y="90" width="8" height="8" rx="1.71429" fill="#231F3C"/>
<path d="M345.429 95.7137L345.15 96.0391C345.24 96.1162 345.358 96.1527 345.475 96.1397C345.593 96.1268 345.7 96.0657 345.771 95.9709L345.429 95.7137ZM347.143 93.428L346.8 93.1709L346.8 93.1709L347.143 93.428ZM348.343 92.5423C348.485 92.3529 348.446 92.0843 348.257 91.9423C348.068 91.8003 347.799 91.8387 347.657 92.028L348.343 92.5423ZM344.429 94.8566L344.707 94.5312L344.707 94.5312L344.429 94.8566ZM344.207 94.1026C344.028 93.9486 343.757 93.9694 343.603 94.1491C343.449 94.3288 343.47 94.5994 343.65 94.7534L344.207 94.1026ZM345.771 95.9709L347.486 93.6852L346.8 93.1709L345.086 95.4566L345.771 95.9709ZM347.486 93.6852L348.343 92.5423L347.657 92.028L346.8 93.1709L347.486 93.6852ZM344.15 95.182L345.15 96.0391L345.707 95.3883L344.707 94.5312L344.15 95.182ZM343.65 94.7534L344.15 95.182L344.707 94.5312L344.207 94.1026L343.65 94.7534Z" fill="#141228"/>
<rect x="266" y="47" width="8" height="8" rx="1.71429" fill="#231F3C"/>
<path d="M269.429 52.7137L269.15 53.0391C269.24 53.1162 269.358 53.1527 269.475 53.1397C269.593 53.1268 269.7 53.0657 269.771 52.9709L269.429 52.7137ZM271.143 50.428L270.8 50.1709L270.8 50.1709L271.143 50.428ZM272.343 49.5423C272.485 49.3529 272.446 49.0843 272.257 48.9423C272.068 48.8003 271.799 48.8387 271.657 49.028L272.343 49.5423ZM268.429 51.8566L268.707 51.5312L268.707 51.5312L268.429 51.8566ZM268.207 51.1026C268.028 50.9486 267.757 50.9694 267.603 51.1491C267.449 51.3288 267.47 51.5994 267.65 51.7534L268.207 51.1026ZM269.771 52.9709L271.486 50.6852L270.8 50.1709L269.086 52.4566L269.771 52.9709ZM271.486 50.6852L272.343 49.5423L271.657 49.028L270.8 50.1709L271.486 50.6852ZM268.15 52.182L269.15 53.0391L269.707 52.3883L268.707 51.5312L268.15 52.182ZM267.65 51.7534L268.15 52.182L268.707 51.5312L268.207 51.1026L267.65 51.7534Z" fill="#141228"/>
<rect x="25" y="136" width="8" height="8" rx="1.71429" fill="#231F3C"/>
<path d="M28.4286 141.714L28.1497 142.039C28.2396 142.116 28.3575 142.153 28.4753 142.14C28.5931 142.127 28.7003 142.066 28.7714 141.971L28.4286 141.714ZM30.1429 139.428L29.8 139.171L29.8 139.171L30.1429 139.428ZM31.3429 138.542C31.4849 138.353 31.4465 138.084 31.2571 137.942C31.0678 137.8 30.7992 137.839 30.6571 138.028L31.3429 138.542ZM27.4286 140.857L27.7075 140.531L27.7075 140.531L27.4286 140.857ZM27.2075 140.103C27.0278 139.949 26.7572 139.969 26.6032 140.149C26.4491 140.329 26.47 140.599 26.6497 140.753L27.2075 140.103ZM28.7714 141.971L30.4857 139.685L29.8 139.171L28.0857 141.457L28.7714 141.971ZM30.4857 139.685L31.3429 138.542L30.6571 138.028L29.8 139.171L30.4857 139.685ZM27.1497 141.182L28.1497 142.039L28.7075 141.388L27.7075 140.531L27.1497 141.182ZM26.6497 140.753L27.1497 141.182L27.7075 140.531L27.2075 140.103L26.6497 140.753Z" fill="#141228"/>
<rect x="129" y="24" width="8" height="8" rx="1.71429" fill="#231F3C"/>
<path d="M132.429 29.7137L132.15 30.0391C132.24 30.1162 132.358 30.1527 132.475 30.1397C132.593 30.1268 132.7 30.0657 132.771 29.9709L132.429 29.7137ZM134.143 27.428L133.8 27.1709L133.8 27.1709L134.143 27.428ZM135.343 26.5423C135.485 26.3529 135.446 26.0843 135.257 25.9423C135.068 25.8003 134.799 25.8387 134.657 26.028L135.343 26.5423ZM131.429 28.8566L131.707 28.5312L131.707 28.5312L131.429 28.8566ZM131.207 28.1026C131.028 27.9486 130.757 27.9694 130.603 28.1491C130.449 28.3288 130.47 28.5994 130.65 28.7534L131.207 28.1026ZM132.771 29.9709L134.486 27.6852L133.8 27.1709L132.086 29.4566L132.771 29.9709ZM134.486 27.6852L135.343 26.5423L134.657 26.028L133.8 27.1709L134.486 27.6852ZM131.15 29.182L132.15 30.0391L132.707 29.3883L131.707 28.5312L131.15 29.182ZM130.65 28.7534L131.15 29.182L131.707 28.5312L131.207 28.1026L130.65 28.7534Z" fill="#141228"/>
<rect x="265" width="8" height="8" rx="1.71429" fill="#231F3C"/>
<path d="M268.429 5.71373L268.15 6.03912C268.24 6.11625 268.358 6.15267 268.475 6.13974C268.593 6.12681 268.7 6.06568 268.771 5.97087L268.429 5.71373ZM270.143 3.42801L269.8 3.17087L269.8 3.17087L270.143 3.42801ZM271.343 2.5423C271.485 2.35294 271.446 2.08432 271.257 1.9423C271.068 1.80028 270.799 1.83866 270.657 2.02801L271.343 2.5423ZM267.429 4.85658L267.707 4.53119L267.707 4.53119L267.429 4.85658ZM267.207 4.10262C267.028 3.94858 266.757 3.96939 266.603 4.1491C266.449 4.32881 266.47 4.59937 266.65 4.75341L267.207 4.10262ZM268.771 5.97087L270.486 3.68516L269.8 3.17087L268.086 5.45658L268.771 5.97087ZM270.486 3.68516L271.343 2.5423L270.657 2.02801L269.8 3.17087L270.486 3.68516ZM267.15 5.18198L268.15 6.03912L268.707 5.38833L267.707 4.53119L267.15 5.18198ZM266.65 4.75341L267.15 5.18198L267.707 4.53119L267.207 4.10262L266.65 4.75341Z" fill="#141228"/>
<rect x="138" y="186" width="14" height="14" rx="3" fill="#231F3C"/>
<path d="M144 196L143.512 196.569C143.669 196.704 143.876 196.768 144.082 196.746C144.288 196.723 144.476 196.616 144.6 196.45L144 196ZM149.1 190.45C149.349 190.119 149.281 189.649 148.95 189.4C148.619 189.151 148.149 189.219 147.9 189.55L149.1 190.45ZM141.863 193.181C141.549 192.911 141.075 192.947 140.806 193.262C140.536 193.576 140.572 194.05 140.887 194.319L141.863 193.181ZM144.6 196.45L147.6 192.45L146.4 191.55L143.4 195.55L144.6 196.45ZM147.6 192.45L149.1 190.45L147.9 189.55L146.4 191.55L147.6 192.45ZM141.762 195.069L143.512 196.569L144.488 195.431L142.738 193.931L141.762 195.069ZM140.887 194.319L141.762 195.069L142.738 193.931L141.863 193.181L140.887 194.319Z" fill="#141228"/>
<rect x="2" y="162" width="14" height="14" rx="3" fill="#231F3C"/>
<path d="M8 172L7.51191 172.569C7.66937 172.704 7.87569 172.768 8.08184 172.746C8.28799 172.723 8.47557 172.616 8.6 172.45L8 172ZM13.1 166.45C13.3485 166.119 13.2814 165.649 12.95 165.4C12.6186 165.151 12.1485 165.219 11.9 165.55L13.1 166.45ZM5.86309 169.181C5.5486 168.911 5.07512 168.947 4.80556 169.262C4.53599 169.576 4.57241 170.05 4.88691 170.319L5.86309 169.181ZM8.6 172.45L11.6 168.45L10.4 167.55L7.4 171.55L8.6 172.45ZM11.6 168.45L13.1 166.45L11.9 165.55L10.4 167.55L11.6 168.45ZM5.76191 171.069L7.51191 172.569L8.48809 171.431L6.73809 169.931L5.76191 171.069ZM4.88691 170.319L5.76191 171.069L6.73809 169.931L5.86309 169.181L4.88691 170.319Z" fill="#141228"/>
<rect x="54" y="34" width="24" height="24" rx="5.14286" fill="#231F3C"/>
<path d="M64.2857 51.1431L63.449 52.1193C63.7189 52.3507 64.0726 52.46 64.426 52.4212C64.7794 52.3824 65.101 52.199 65.3143 51.9146L64.2857 51.1431ZM69.4286 44.286L70.4571 45.0574L70.4571 45.0574L69.4286 44.286ZM73.0286 41.6289C73.4546 41.0608 73.3395 40.2549 72.7714 39.8289C72.2034 39.4028 71.3975 39.5179 70.9714 40.086L73.0286 41.6289ZM60.6224 46.3098C60.0833 45.8477 59.2716 45.9101 58.8095 46.4493C58.3474 46.9884 58.4098 47.8001 58.949 48.2622L60.6224 46.3098ZM65.3143 51.9146L70.4571 45.0574L68.4 43.5146L63.2571 50.3717L65.3143 51.9146ZM70.4571 45.0574L73.0286 41.6289L70.9714 40.086L68.4 43.5146L70.4571 45.0574ZM60.449 49.5479L63.449 52.1193L65.1224 50.1669L62.1224 47.5955L60.449 49.5479ZM58.949 48.2622L60.449 49.5479L62.1224 47.5955L60.6224 46.3098L58.949 48.2622Z" fill="#141228"/>
<rect x="149" y="42" width="14" height="14" rx="3" fill="#231F3C"/>
<path d="M155 52L154.512 52.5694C154.669 52.7044 154.876 52.7682 155.082 52.7455C155.288 52.7229 155.476 52.6159 155.6 52.45L155 52ZM160.1 46.45C160.349 46.1186 160.281 45.6485 159.95 45.4C159.619 45.1515 159.149 45.2186 158.9 45.55L160.1 46.45ZM152.863 49.1806C152.549 48.911 152.075 48.9474 151.806 49.2619C151.536 49.5764 151.572 50.0499 151.887 50.3194L152.863 49.1806ZM155.6 52.45L158.6 48.45L157.4 47.55L154.4 51.55L155.6 52.45ZM158.6 48.45L160.1 46.45L158.9 45.55L157.4 47.55L158.6 48.45ZM152.762 51.0694L154.512 52.5694L155.488 51.4306L153.738 49.9306L152.762 51.0694ZM151.887 50.3194L152.762 51.0694L153.738 49.9306L152.863 49.1806L151.887 50.3194Z" fill="#141228"/>
<rect x="21" y="42" width="14" height="14" rx="3" fill="#231F3C"/>
<path d="M27 52L26.5119 52.5694C26.6694 52.7044 26.8757 52.7682 27.0818 52.7455C27.288 52.7229 27.4756 52.6159 27.6 52.45L27 52ZM32.1 46.45C32.3485 46.1186 32.2814 45.6485 31.95 45.4C31.6186 45.1515 31.1485 45.2186 30.9 45.55L32.1 46.45ZM24.8631 49.1806C24.5486 48.911 24.0751 48.9474 23.8056 49.2619C23.536 49.5764 23.5724 50.0499 23.8869 50.3194L24.8631 49.1806ZM27.6 52.45L30.6 48.45L29.4 47.55L26.4 51.55L27.6 52.45ZM30.6 48.45L32.1 46.45L30.9 45.55L29.4 47.55L30.6 48.45ZM24.7619 51.0694L26.5119 52.5694L27.4881 51.4306L25.7381 49.9306L24.7619 51.0694ZM23.8869 50.3194L24.7619 51.0694L25.7381 49.9306L24.8631 49.1806L23.8869 50.3194Z" fill="#141228"/>
<rect x="231" y="17" width="24" height="24" rx="5.14286" fill="#231F3C"/>
<path d="M241.286 34.1431L240.449 35.1193C240.719 35.3507 241.073 35.46 241.426 35.4212C241.779 35.3824 242.101 35.199 242.314 34.9146L241.286 34.1431ZM246.429 27.286L247.457 28.0574L247.457 28.0574L246.429 27.286ZM250.029 24.6289C250.455 24.0608 250.339 23.2549 249.771 22.8289C249.203 22.4028 248.397 22.5179 247.971 23.086L250.029 24.6289ZM237.622 29.3098C237.083 28.8477 236.272 28.9101 235.81 29.4493C235.347 29.9884 235.41 30.8001 235.949 31.2622L237.622 29.3098ZM242.314 34.9146L247.457 28.0574L245.4 26.5146L240.257 33.3717L242.314 34.9146ZM247.457 28.0574L250.029 24.6289L247.971 23.086L245.4 26.5146L247.457 28.0574ZM237.449 32.5479L240.449 35.1193L242.122 33.1669L239.122 30.5955L237.449 32.5479ZM235.949 31.2622L237.449 32.5479L239.122 30.5955L237.622 29.3098L235.949 31.2622Z" fill="#141228"/>
<rect x="306" y="165" width="24" height="24" rx="5.14286" fill="#231F3C"/>
<path d="M316.286 182.143L315.449 183.119C315.719 183.351 316.073 183.46 316.426 183.421C316.779 183.382 317.101 183.199 317.314 182.915L316.286 182.143ZM321.429 175.286L322.457 176.057L322.457 176.057L321.429 175.286ZM325.029 172.629C325.455 172.061 325.339 171.255 324.771 170.829C324.203 170.403 323.397 170.518 322.971 171.086L325.029 172.629ZM312.622 177.31C312.083 176.848 311.272 176.91 310.81 177.449C310.347 177.988 310.41 178.8 310.949 179.262L312.622 177.31ZM317.314 182.915L322.457 176.057L320.4 174.515L315.257 181.372L317.314 182.915ZM322.457 176.057L325.029 172.629L322.971 171.086L320.4 174.515L322.457 176.057ZM312.449 180.548L315.449 183.119L317.122 181.167L314.122 178.596L312.449 180.548ZM310.949 179.262L312.449 180.548L314.122 178.596L312.622 177.31L310.949 179.262Z" fill="#141228"/>
<g clip-path="url(#clip0_1028_27840)">
<rect x="59" y="139" width="240" height="32" rx="6" fill="#211E37"/>
<rect opacity="0.3" x="59" y="139" width="4" height="32" fill="#7161EC"/>
<rect x="71" y="148" width="14" height="14" rx="3" fill="#48407A"/>
<path d="M77 158L76.5119 158.569C76.6694 158.704 76.8757 158.768 77.0818 158.746C77.288 158.723 77.4756 158.616 77.6 158.45L77 158ZM82.1 152.45C82.3485 152.119 82.2814 151.649 81.95 151.4C81.6186 151.151 81.1485 151.219 80.9 151.55L82.1 152.45ZM74.8631 155.181C74.5486 154.911 74.0751 154.947 73.8056 155.262C73.536 155.576 73.5724 156.05 73.8869 156.319L74.8631 155.181ZM77.6 158.45L80.6 154.45L79.4 153.55L76.4 157.55L77.6 158.45ZM80.6 154.45L82.1 152.45L80.9 151.55L79.4 153.55L80.6 154.45ZM74.7619 157.069L76.5119 158.569L77.4881 157.431L75.7381 155.931L74.7619 157.069ZM73.8869 156.319L74.7619 157.069L75.7381 155.931L74.8631 155.181L73.8869 156.319Z" fill="white"/>
<path d="M96.1167 160H97.5386V152.065H100.338V150.84H93.311V152.065H96.1167V160ZM102.547 160.133C104.166 160.133 105.194 159.168 105.41 158.108L105.422 158.039H104.121L104.102 158.089C103.931 158.591 103.391 159.01 102.579 159.01C101.487 159.01 100.795 158.273 100.77 157.01H105.499V156.547C105.499 154.541 104.35 153.195 102.477 153.195C100.604 153.195 99.3984 154.592 99.3984 156.68V156.687C99.3984 158.794 100.585 160.133 102.547 160.133ZM102.483 154.319C103.378 154.319 104.026 154.884 104.14 156.039H100.789C100.909 154.922 101.595 154.319 102.483 154.319ZM106.616 160H107.987V150.84H106.616V160ZM109.447 160H110.818V150.84H109.447V160ZM115.268 160H116.645V154.414H117.978V153.322H116.62V152.637C116.62 152.046 116.912 151.748 117.527 151.748C117.699 151.748 117.87 151.761 118.003 151.78V150.764C117.819 150.732 117.515 150.707 117.235 150.707C115.877 150.707 115.268 151.316 115.268 152.611V153.322H114.347V154.414H115.268V160ZM119.057 160H120.428V156.02C120.428 155.023 120.974 154.446 121.856 154.446C122.123 154.446 122.364 154.478 122.472 154.522V153.246C122.364 153.227 122.193 153.195 121.996 153.195C121.234 153.195 120.676 153.684 120.46 154.465H120.428V153.322H119.057V160ZM124.065 152.294C124.516 152.294 124.865 151.938 124.865 151.507C124.865 151.069 124.516 150.713 124.065 150.713C123.621 150.713 123.266 151.069 123.266 151.507C123.266 151.938 123.621 152.294 124.065 152.294ZM123.38 160H124.751V153.322H123.38V160ZM129.017 160.133C130.635 160.133 131.664 159.168 131.879 158.108L131.892 158.039H130.591L130.572 158.089C130.4 158.591 129.861 159.01 129.048 159.01C127.957 159.01 127.265 158.273 127.239 157.01H131.968V156.547C131.968 154.541 130.819 153.195 128.947 153.195C127.074 153.195 125.868 154.592 125.868 156.68V156.687C125.868 158.794 127.055 160.133 129.017 160.133ZM128.953 154.319C129.848 154.319 130.496 154.884 130.61 156.039H127.258C127.379 154.922 128.064 154.319 128.953 154.319ZM133.035 160H134.406V156.109C134.406 155.068 135.028 154.37 135.993 154.37C136.945 154.37 137.415 154.935 137.415 155.937V160H138.792V155.677C138.792 154.141 137.948 153.195 136.481 153.195C135.472 153.195 134.787 153.652 134.438 154.332H134.406V153.322H133.035V160ZM142.613 160.133C143.572 160.133 144.308 159.651 144.708 158.87H144.733V160H146.111V150.84H144.733V154.458H144.708C144.308 153.671 143.546 153.195 142.601 153.195C140.925 153.195 139.82 154.528 139.82 156.655V156.661C139.82 158.788 140.912 160.133 142.613 160.133ZM142.975 158.953C141.89 158.953 141.223 158.083 141.223 156.661V156.655C141.223 155.246 141.896 154.37 142.975 154.37C144.003 154.37 144.74 155.271 144.74 156.655V156.661C144.74 158.051 144.01 158.953 142.975 158.953ZM150.021 160.133C151.595 160.133 152.738 159.295 152.738 158.077V158.07C152.738 157.112 152.217 156.572 150.853 156.255L149.767 156.007C149.05 155.836 148.777 155.557 148.777 155.144V155.138C148.777 154.604 149.24 154.255 149.977 154.255C150.751 154.255 151.208 154.662 151.291 155.246L151.297 155.29H152.585L152.579 155.214C152.509 154.078 151.557 153.195 149.977 153.195C148.44 153.195 147.399 154.014 147.399 155.208V155.214C147.399 156.185 148.028 156.794 149.297 157.086L150.389 157.334C151.106 157.505 151.348 157.753 151.348 158.185V158.191C151.348 158.73 150.853 159.073 150.027 159.073C149.183 159.073 148.726 158.711 148.599 158.096L148.586 158.032H147.228L147.234 158.089C147.374 159.308 148.352 160.133 150.021 160.133ZM158.406 160.121C159.289 160.121 160.063 159.664 160.45 158.946H160.476V160H161.853V155.398C161.853 154.059 160.818 153.195 159.187 153.195C157.543 153.195 156.546 154.078 156.451 155.227L156.445 155.296H157.74L157.752 155.239C157.867 154.706 158.355 154.332 159.149 154.332C160 154.332 160.476 154.776 160.476 155.512V156.014L158.66 156.122C157.08 156.217 156.178 156.928 156.178 158.089V158.102C156.178 159.302 157.073 160.121 158.406 160.121ZM157.562 158.07V158.058C157.562 157.493 158.019 157.131 158.844 157.08L160.476 156.979V157.499C160.476 158.369 159.746 159.022 158.781 159.022C158.044 159.022 157.562 158.654 157.562 158.07ZM166.734 160.133C168.429 160.133 169.527 158.788 169.527 156.661V156.655C169.527 154.528 168.423 153.195 166.747 153.195C165.801 153.195 165.04 153.671 164.64 154.458H164.608V150.84H163.237V160H164.608V158.87H164.64C165.033 159.651 165.776 160.133 166.734 160.133ZM166.373 158.953C165.332 158.953 164.602 158.051 164.602 156.661V156.655C164.602 155.271 165.338 154.37 166.373 154.37C167.452 154.37 168.125 155.246 168.125 156.655V156.661C168.125 158.083 167.452 158.953 166.373 158.953ZM173.457 160.133C175.367 160.133 176.624 158.813 176.624 156.661V156.648C176.624 154.509 175.355 153.195 173.45 153.195C171.552 153.195 170.289 154.516 170.289 156.648V156.661C170.289 158.807 171.54 160.133 173.457 160.133ZM173.463 158.984C172.39 158.984 171.692 158.14 171.692 156.661V156.648C171.692 155.188 172.396 154.344 173.45 154.344C174.523 154.344 175.221 155.188 175.221 156.648V156.661C175.221 158.134 174.536 158.984 173.463 158.984ZM179.957 160.133C180.972 160.133 181.651 159.67 182 158.997H182.032V160H183.41V153.322H182.032V157.22C182.032 158.261 181.41 158.953 180.445 158.953C179.493 158.953 179.023 158.394 179.023 157.385V153.322H177.652V157.651C177.652 159.187 178.49 160.133 179.957 160.133ZM187.11 160.133C187.39 160.133 187.65 160.102 187.809 160.076V159.016C187.707 159.029 187.586 159.042 187.44 159.042C186.863 159.042 186.558 158.838 186.558 158.159V154.414H187.809V153.322H186.558V151.583H185.155V153.322H184.197V154.414H185.155V158.242C185.155 159.575 185.79 160.133 187.11 160.133ZM191.75 160H193.172V156.483H195.127L196.994 160H198.631L196.581 156.268C197.679 155.893 198.358 154.903 198.358 153.659V153.646C198.358 151.926 197.178 150.84 195.305 150.84H191.75V160ZM193.172 155.315V152.034H195.127C196.219 152.034 196.892 152.643 196.892 153.659V153.671C196.892 154.712 196.264 155.315 195.166 155.315H193.172ZM200.313 152.294C200.764 152.294 201.113 151.938 201.113 151.507C201.113 151.069 200.764 150.713 200.313 150.713C199.869 150.713 199.514 151.069 199.514 151.507C199.514 151.938 199.869 152.294 200.313 152.294ZM199.628 160H200.999V153.322H199.628V160ZM204.916 160.133C206.49 160.133 207.632 159.295 207.632 158.077V158.07C207.632 157.112 207.112 156.572 205.747 156.255L204.662 156.007C203.944 155.836 203.671 155.557 203.671 155.144V155.138C203.671 154.604 204.135 154.255 204.871 154.255C205.646 154.255 206.103 154.662 206.185 155.246L206.191 155.29H207.48L207.474 155.214C207.404 154.078 206.452 153.195 204.871 153.195C203.335 153.195 202.294 154.014 202.294 155.208V155.214C202.294 156.185 202.922 156.794 204.192 157.086L205.284 157.334C206.001 157.505 206.242 157.753 206.242 158.185V158.191C206.242 158.73 205.747 159.073 204.922 159.073C204.078 159.073 203.621 158.711 203.494 158.096L203.481 158.032H202.123L202.129 158.089C202.269 159.308 203.246 160.133 204.916 160.133ZM211.549 160.133C213.167 160.133 214.196 159.168 214.412 158.108L214.424 158.039H213.123L213.104 158.089C212.933 158.591 212.393 159.01 211.581 159.01C210.489 159.01 209.797 158.273 209.771 157.01H214.5V156.547C214.5 154.541 213.352 153.195 211.479 153.195C209.606 153.195 208.4 154.592 208.4 156.68V156.687C208.4 158.794 209.587 160.133 211.549 160.133ZM211.485 154.319C212.38 154.319 213.028 154.884 213.142 156.039H209.791C209.911 154.922 210.597 154.319 211.485 154.319Z" fill="#433F5C"/>
<path d="M93 155.976H214.881V156.896H93V155.976Z" fill="#433F5C"/>
</g>
<g clip-path="url(#clip1_1028_27840)">
<rect x="59" y="67" width="240" height="32" rx="6" fill="#211E37"/>
<rect opacity="0.3" x="59" y="67" width="4" height="32" fill="#7161EC"/>
<rect x="71" y="76" width="14" height="14" rx="3" fill="#48407A"/>
<path d="M77 86L76.5119 86.5694C76.6694 86.7044 76.8757 86.7682 77.0818 86.7455C77.288 86.7229 77.4756 86.6159 77.6 86.45L77 86ZM82.1 80.45C82.3485 80.1186 82.2814 79.6485 81.95 79.4C81.6186 79.1515 81.1485 79.2186 80.9 79.55L82.1 80.45ZM74.8631 83.1806C74.5486 82.911 74.0751 82.9474 73.8056 83.2619C73.536 83.5764 73.5724 84.0499 73.8869 84.3194L74.8631 83.1806ZM77.6 86.45L80.6 82.45L79.4 81.55L76.4 85.55L77.6 86.45ZM80.6 82.45L82.1 80.45L80.9 79.55L79.4 81.55L80.6 82.45ZM74.7619 85.0694L76.5119 86.5694L77.4881 85.4306L75.7381 83.9306L74.7619 85.0694ZM73.8869 84.3194L74.7619 85.0694L75.7381 83.9306L74.8631 83.1806L73.8869 84.3194Z" fill="white"/>
<path d="M93.8442 88H97.5195C99.4683 88 100.643 87.0225 100.643 85.4165V85.4038C100.643 84.1978 99.7983 83.3027 98.4971 83.1694V83.144C99.4619 83.0044 100.192 82.1094 100.192 81.1445V81.1318C100.192 79.748 99.1255 78.8403 97.5005 78.8403H93.8442V88ZM97.1577 80.002C98.186 80.002 98.7764 80.4653 98.7764 81.3032V81.3159C98.7764 82.2363 98.0972 82.7441 96.8403 82.7441H95.2661V80.002H97.1577ZM97.1323 83.8423C98.4907 83.8423 99.189 84.3501 99.189 85.334V85.3467C99.189 86.3242 98.5034 86.8384 97.2275 86.8384H95.2661V83.8423H97.1323ZM104.572 88.1333C106.482 88.1333 107.739 86.813 107.739 84.6611V84.6484C107.739 82.5093 106.47 81.1953 104.565 81.1953C102.667 81.1953 101.404 82.5156 101.404 84.6484V84.6611C101.404 86.8066 102.655 88.1333 104.572 88.1333ZM104.578 86.9844C103.505 86.9844 102.807 86.1401 102.807 84.6611V84.6484C102.807 83.1885 103.512 82.3442 104.565 82.3442C105.638 82.3442 106.336 83.1885 106.336 84.6484V84.6611C106.336 86.1338 105.651 86.9844 104.578 86.9844ZM111.668 88.1333C113.579 88.1333 114.836 86.813 114.836 84.6611V84.6484C114.836 82.5093 113.566 81.1953 111.662 81.1953C109.764 81.1953 108.501 82.5156 108.501 84.6484V84.6611C108.501 86.8066 109.751 88.1333 111.668 88.1333ZM111.675 86.9844C110.602 86.9844 109.904 86.1401 109.904 84.6611V84.6484C109.904 83.1885 110.608 82.3442 111.662 82.3442C112.735 82.3442 113.433 83.1885 113.433 84.6484V84.6611C113.433 86.1338 112.748 86.9844 111.675 86.9844ZM115.972 88H117.343V85.5942L117.915 85.0293L120.181 88H121.774L118.924 84.2041L121.666 81.3223H120.054L117.375 84.1724H117.343V78.8403H115.972V88ZM125.5 88H126.877V82.4141H128.21V81.3223H126.852V80.6367C126.852 80.0464 127.144 79.748 127.76 79.748C127.931 79.748 128.103 79.7607 128.236 79.7798V78.7642C128.052 78.7324 127.747 78.707 127.468 78.707C126.109 78.707 125.5 79.3164 125.5 80.6113V81.3223H124.58V82.4141H125.5V88ZM129.34 88H130.711V78.8403H129.34V88ZM132.863 80.2939C133.314 80.2939 133.663 79.9385 133.663 79.5068C133.663 79.0688 133.314 78.7134 132.863 78.7134C132.419 78.7134 132.063 79.0688 132.063 79.5068C132.063 79.9385 132.419 80.2939 132.863 80.2939ZM132.178 88H133.549V81.3223H132.178V88ZM137.891 90.355C139.776 90.355 140.957 89.3394 140.957 87.8159V81.3223H139.579V82.4585H139.547C139.154 81.7031 138.417 81.1953 137.478 81.1953C135.783 81.1953 134.666 82.5093 134.666 84.604V84.6104C134.666 86.6924 135.771 88.0063 137.446 88.0063C138.405 88.0063 139.167 87.543 139.547 86.8193H139.579V87.7334C139.579 88.6665 138.976 89.2505 137.884 89.2505C137.027 89.2505 136.45 88.9585 136.266 88.5332L136.24 88.4824H134.882L134.888 88.5396C135.091 89.5615 136.177 90.355 137.891 90.355ZM137.834 86.8892C136.748 86.8892 136.069 86.0259 136.069 84.6294V84.623C136.069 83.2456 136.748 82.3696 137.834 82.3696C138.875 82.3696 139.579 83.252 139.579 84.623V84.6294C139.579 86.0068 138.881 86.8892 137.834 86.8892ZM142.366 88H143.737V84.1343C143.737 83.0933 144.365 82.3696 145.311 82.3696C146.276 82.3696 146.834 83.0298 146.834 84.1343V88H148.206V83.874C148.206 82.2617 147.266 81.1953 145.838 81.1953C144.841 81.1953 144.124 81.646 143.769 82.4204H143.737V78.8403H142.366V88ZM151.881 88.1333C152.16 88.1333 152.42 88.1016 152.579 88.0762V87.0161C152.478 87.0288 152.357 87.0415 152.211 87.0415C151.633 87.0415 151.329 86.8384 151.329 86.1592V82.4141H152.579V81.3223H151.329V79.583H149.926V81.3223H148.967V82.4141H149.926V86.2417C149.926 87.5747 150.561 88.1333 151.881 88.1333ZM156.216 88.1333C157.791 88.1333 158.933 87.2954 158.933 86.0767V86.0703C158.933 85.1118 158.413 84.5723 157.048 84.2549L155.962 84.0073C155.245 83.8359 154.972 83.5566 154.972 83.144V83.1377C154.972 82.6045 155.436 82.2554 156.172 82.2554C156.946 82.2554 157.403 82.6616 157.486 83.2456L157.492 83.29H158.781L158.774 83.2139C158.705 82.0776 157.752 81.1953 156.172 81.1953C154.636 81.1953 153.595 82.0142 153.595 83.2075V83.2139C153.595 84.1851 154.223 84.7944 155.493 85.0864L156.584 85.334C157.302 85.5054 157.543 85.7529 157.543 86.1846V86.1909C157.543 86.7305 157.048 87.0732 156.223 87.0732C155.378 87.0732 154.921 86.7114 154.794 86.0957L154.782 86.0322H153.423L153.43 86.0894C153.569 87.3081 154.547 88.1333 156.216 88.1333Z" fill="#433F5C"/>
<path d="M93 83.9756H159.314V84.896H93V83.9756Z" fill="#433F5C"/>
</g>
<g filter="url(#filter0_dd_1028_27840)">
<g clip-path="url(#clip2_1028_27840)">
<rect x="59" y="103" width="240" height="32" rx="6" fill="white"/>
<rect x="59" y="103" width="4" height="32" fill="#7161EC"/>
<rect x="71.5" y="112.5" width="13" height="13" rx="2.5" fill="white" stroke="#E5E5EB"/>
<path d="M96.9673 124.152C99.1382 124.152 100.458 123.092 100.458 121.423V121.417C100.458 120.001 99.646 119.233 97.7544 118.833L96.7515 118.624C95.6089 118.376 95.0884 117.957 95.0884 117.271V117.265C95.0884 116.465 95.812 115.926 96.9482 115.919C98.0337 115.919 98.77 116.434 98.897 117.284L98.9033 117.373H100.287L100.281 117.265C100.186 115.729 98.8779 114.688 96.9673 114.688C95.0312 114.688 93.6538 115.761 93.6475 117.322V117.329C93.6475 118.687 94.5171 119.512 96.3135 119.893L97.3101 120.103C98.5225 120.369 99.0239 120.769 99.0239 121.505V121.512C99.0239 122.369 98.2495 122.921 97.0244 122.921C95.7993 122.921 94.9551 122.394 94.8281 121.55L94.8154 121.467H93.4316L93.438 121.562C93.5522 123.175 94.9106 124.152 96.9673 124.152ZM102.318 116.294C102.769 116.294 103.118 115.938 103.118 115.507C103.118 115.069 102.769 114.713 102.318 114.713C101.874 114.713 101.519 115.069 101.519 115.507C101.519 115.938 101.874 116.294 102.318 116.294ZM101.633 124H103.004V117.322H101.633V124ZM107.346 126.355C109.231 126.355 110.412 125.339 110.412 123.816V117.322H109.034V118.458H109.002C108.609 117.703 107.873 117.195 106.933 117.195C105.238 117.195 104.121 118.509 104.121 120.604V120.61C104.121 122.692 105.226 124.006 106.901 124.006C107.86 124.006 108.622 123.543 109.002 122.819H109.034V123.733C109.034 124.667 108.431 125.25 107.339 125.25C106.482 125.25 105.905 124.958 105.721 124.533L105.695 124.482H104.337L104.343 124.54C104.546 125.562 105.632 126.355 107.346 126.355ZM107.289 122.889C106.203 122.889 105.524 122.026 105.524 120.629V120.623C105.524 119.246 106.203 118.37 107.289 118.37C108.33 118.37 109.034 119.252 109.034 120.623V120.629C109.034 122.007 108.336 122.889 107.289 122.889ZM111.77 124H113.141V120.109C113.141 119.068 113.763 118.37 114.728 118.37C115.68 118.37 116.15 118.935 116.15 119.938V124H117.527V119.677C117.527 118.141 116.683 117.195 115.217 117.195C114.208 117.195 113.522 117.652 113.173 118.332H113.141V117.322H111.77V124ZM118.949 120.902H123.031V119.665H118.949V120.902ZM126.763 124.133C127.779 124.133 128.458 123.67 128.807 122.997H128.839V124H130.216V117.322H128.839V121.22C128.839 122.261 128.217 122.953 127.252 122.953C126.3 122.953 125.83 122.394 125.83 121.385V117.322H124.459V121.651C124.459 123.188 125.297 124.133 126.763 124.133ZM131.575 126.222H132.946V122.876H132.978C133.371 123.651 134.139 124.133 135.085 124.133C136.761 124.133 137.859 122.794 137.859 120.667V120.661C137.859 118.528 136.767 117.195 135.066 117.195C134.114 117.195 133.377 117.678 132.978 118.471H132.946V117.322H131.575V126.222ZM134.71 122.953C133.676 122.953 132.939 122.051 132.939 120.667V120.661C132.939 119.271 133.669 118.37 134.71 118.37C135.783 118.37 136.462 119.239 136.462 120.661V120.667C136.462 122.077 135.79 122.953 134.71 122.953ZM141.966 124H143.343V118.414H144.676V117.322H143.318V116.637C143.318 116.046 143.61 115.748 144.226 115.748C144.397 115.748 144.568 115.761 144.702 115.78V114.764C144.518 114.732 144.213 114.707 143.934 114.707C142.575 114.707 141.966 115.316 141.966 116.611V117.322H141.045V118.414H141.966V124ZM148.041 124.133C149.951 124.133 151.208 122.813 151.208 120.661V120.648C151.208 118.509 149.938 117.195 148.034 117.195C146.136 117.195 144.873 118.516 144.873 120.648V120.661C144.873 122.807 146.124 124.133 148.041 124.133ZM148.047 122.984C146.974 122.984 146.276 122.14 146.276 120.661V120.648C146.276 119.188 146.98 118.344 148.034 118.344C149.107 118.344 149.805 119.188 149.805 120.648V120.661C149.805 122.134 149.12 122.984 148.047 122.984ZM152.268 124H153.639V120.02C153.639 119.023 154.185 118.446 155.067 118.446C155.334 118.446 155.575 118.478 155.683 118.522V117.246C155.575 117.227 155.404 117.195 155.207 117.195C154.445 117.195 153.887 117.684 153.671 118.465H153.639V117.322H152.268V124ZM159.339 124H160.761V120.483H162.716L164.583 124H166.22L164.17 120.268C165.268 119.893 165.947 118.903 165.947 117.659V117.646C165.947 115.926 164.767 114.84 162.894 114.84H159.339V124ZM160.761 119.315V116.034H162.716C163.808 116.034 164.481 116.643 164.481 117.659V117.671C164.481 118.712 163.853 119.315 162.754 119.315H160.761ZM167.902 116.294C168.353 116.294 168.702 115.938 168.702 115.507C168.702 115.069 168.353 114.713 167.902 114.713C167.458 114.713 167.103 115.069 167.103 115.507C167.103 115.938 167.458 116.294 167.902 116.294ZM167.217 124H168.588V117.322H167.217V124ZM172.504 124.133C174.079 124.133 175.221 123.295 175.221 122.077V122.07C175.221 121.112 174.701 120.572 173.336 120.255L172.25 120.007C171.533 119.836 171.26 119.557 171.26 119.144V119.138C171.26 118.604 171.724 118.255 172.46 118.255C173.234 118.255 173.691 118.662 173.774 119.246L173.78 119.29H175.069L175.062 119.214C174.993 118.078 174.041 117.195 172.46 117.195C170.924 117.195 169.883 118.014 169.883 119.208V119.214C169.883 120.185 170.511 120.794 171.781 121.086L172.873 121.334C173.59 121.505 173.831 121.753 173.831 122.185V122.191C173.831 122.73 173.336 123.073 172.511 123.073C171.667 123.073 171.209 122.711 171.083 122.096L171.07 122.032H169.711L169.718 122.089C169.857 123.308 170.835 124.133 172.504 124.133ZM179.138 124.133C180.756 124.133 181.785 123.168 182 122.108L182.013 122.039H180.712L180.693 122.089C180.521 122.591 179.982 123.01 179.169 123.01C178.078 123.01 177.386 122.273 177.36 121.01H182.089V120.547C182.089 118.541 180.94 117.195 179.068 117.195C177.195 117.195 175.989 118.592 175.989 120.68V120.687C175.989 122.794 177.176 124.133 179.138 124.133ZM179.074 118.319C179.969 118.319 180.617 118.884 180.731 120.039H177.379C177.5 118.922 178.186 118.319 179.074 118.319Z" fill="black"/>
</g>
</g>
<defs>
<filter id="filter0_dd_1028_27840" x="34.2" y="94.2" width="289.6" height="81.6" filterUnits="userSpaceOnUse" color-interpolation-filters="sRGB">
<feFlood flood-opacity="0" result="BackgroundImageFix"/>
<feColorMatrix in="SourceAlpha" type="matrix" values="0 0 0 0 0 0 0 0 0 0 0 0 0 0 0 0 0 0 127 0" result="hardAlpha"/>
<feOffset dy="1.6"/>
<feGaussianBlur stdDeviation="3.2"/>
<feColorMatrix type="matrix" values="0 0 0 0 0 0 0 0 0 0 0 0 0 0 0 0 0 0 0.2 0"/>
<feBlend mode="normal" in2="BackgroundImageFix" result="effect1_dropShadow_1028_27840"/>
<feColorMatrix in="SourceAlpha" type="matrix" values="0 0 0 0 0 0 0 0 0 0 0 0 0 0 0 0 0 0 127 0" result="hardAlpha"/>
<feMorphology radius="0.8" operator="dilate" in="SourceAlpha" result="effect2_dropShadow_1028_27840"/>
<feOffset dy="16"/>
<feGaussianBlur stdDeviation="12"/>
<feColorMatrix type="matrix" values="0 0 0 0 0 0 0 0 0 0 0 0 0 0 0 0 0 0 0.1 0"/>
<feBlend mode="normal" in2="effect1_dropShadow_1028_27840" result="effect2_dropShadow_1028_27840"/>
<feBlend mode="normal" in="SourceGraphic" in2="effect2_dropShadow_1028_27840" result="shape"/>
</filter>
<clipPath id="clip0_1028_27840">
<rect x="59" y="139" width="240" height="32" rx="6" fill="white"/>
</clipPath>
<clipPath id="clip1_1028_27840">
<rect x="59" y="67" width="240" height="32" rx="6" fill="white"/>
</clipPath>
<clipPath id="clip2_1028_27840">
<rect x="59" y="103" width="240" height="32" rx="6" fill="white"/>
</clipPath>
</defs>
</svg>
