<svg width="232" height="232" viewBox="0 0 232 232" fill="none" xmlns="http://www.w3.org/2000/svg">
<rect width="232" height="232"/>
<g filter="url(#filter0_dd_0_1)">
<rect x="46" y="46" width="140" height="140" rx="24" fill="#211F35"/>
</g>
<g filter="url(#filter1_d_0_1)">
<path d="M46 70C46 56.7452 56.7452 46 70 46H162C175.255 46 186 56.7452 186 70V78H46V70Z" fill="#322F4A"/>
</g>
<mask id="mask0_0_1" style="mask-type:alpha" maskUnits="userSpaceOnUse" x="48" y="46" width="136" height="138">
<rect x="48" y="46" width="136" height="138" rx="24" fill="#141228"/>
</mask>
<g mask="url(#mask0_0_1)">
<g filter="url(#filter2_d_0_1)">
<rect x="84" y="98" width="64" height="10" rx="2" fill="#322F4A"/>
</g>
<g filter="url(#filter3_d_0_1)">
<rect x="84" y="122" width="64" height="6" rx="2" fill="#322F4A"/>
</g>
<g filter="url(#filter4_d_0_1)">
<rect x="84" y="168" width="64" height="10" rx="2" fill="#322F4A"/>
</g>
<rect x="32" y="86" width="48" height="10" rx="2" fill="#322F4A"/>
<rect x="152" y="86" width="48" height="10" rx="2" fill="#322F4A"/>
<rect x="152" y="98" width="48" height="6" rx="2" fill="#322F4A"/>
<rect x="32" y="168" width="48" height="10" rx="2" fill="#322F4A"/>
<rect x="152" y="106" width="48" height="10" rx="2" fill="#322F4A"/>
<g filter="url(#filter5_d_0_1)">
<rect x="84" y="90" width="64" height="6" rx="2" fill="#322F4A"/>
</g>
<path fill-rule="evenodd" clip-rule="evenodd" d="M32 100C32 98.8954 32.8954 98 34 98H78C79.1046 98 80 98.8954 80 100V106C80 107.105 79.1046 108 78 108H34C32.8954 108 32 107.105 32 106V100ZM86 110C84.8954 110 84 110.895 84 112V118C84 119.105 84.8954 120 86 120H146C147.105 120 148 119.105 148 118V112C148 110.895 147.105 110 146 110H86ZM86 156C84.8954 156 84 156.895 84 158V164C84 165.105 84.8954 166 86 166H146C147.105 166 148 165.105 148 164V158C148 156.895 147.105 156 146 156H86ZM154 144C152.895 144 152 144.895 152 146V148C152 149.105 152.895 150 154 150H198C199.105 150 200 149.105 200 148V146C200 144.895 199.105 144 198 144H154Z" fill="url(#paint0_radial_0_1)"/>
</g>
<g filter="url(#filter6_ddi_0_1)">
<path d="M152.957 130.393C153.318 130.393 153.602 130.129 153.67 129.738C154.471 123.586 155.34 122.707 161.346 122.043C161.736 122.004 162.02 121.711 162.02 121.33C162.02 120.949 161.736 120.656 161.346 120.607C155.34 119.943 154.48 119.074 153.67 112.912C153.602 112.531 153.318 112.268 152.957 112.268C152.596 112.268 152.303 112.531 152.234 112.912C151.434 119.074 150.574 119.953 144.568 120.607C144.168 120.656 143.885 120.949 143.885 121.33C143.885 121.711 144.168 121.994 144.568 122.043C150.574 122.844 151.385 123.596 152.234 129.738C152.303 130.129 152.596 130.393 152.957 130.393Z" fill="#FDFFE6"/>
</g>
<g filter="url(#filter7_ddi_0_1)">
<path d="M130.752 103.204C131.253 103.204 131.636 102.848 131.728 102.32C132.796 94.0278 133.969 92.8545 142.051 91.958C142.591 91.9053 142.974 91.4966 142.974 90.9956C142.974 90.4814 142.591 90.0859 142.051 90.02C133.969 89.1235 132.809 87.9634 131.728 79.6709C131.636 79.1436 131.253 78.7876 130.752 78.7876C130.278 78.7876 129.882 79.1436 129.79 79.6709C128.709 87.9634 127.549 89.1367 119.467 90.02C118.927 90.0859 118.544 90.4814 118.544 90.9956C118.544 91.4966 118.927 91.8921 119.467 91.958C127.549 93.0391 128.643 94.041 129.79 102.32C129.882 102.848 130.278 103.204 130.752 103.204Z" fill="#FDFFE6"/>
</g>
<g filter="url(#filter8_dd_0_1)">
<path d="M142.094 195.9L188.609 68.1017C188.609 68.1017 190.721 66.6858 194.949 68.2249C199.178 69.764 199.885 72.206 199.885 72.206L153.371 200.004C153.371 200.004 151.277 201.371 147.048 199.831C142.82 198.292 142.094 195.9 142.094 195.9Z" fill="url(#paint1_linear_0_1)"/>
<path d="M142.094 195.9L188.609 68.1017C188.609 68.1017 190.721 66.6858 194.949 68.2249C199.178 69.764 199.885 72.206 199.885 72.206L153.371 200.004C153.371 200.004 151.277 201.371 147.048 199.831C142.82 198.292 142.094 195.9 142.094 195.9Z" fill="url(#paint2_radial_0_1)"/>
<path d="M142.094 195.9L188.609 68.1017C188.609 68.1017 190.721 66.6858 194.949 68.2249C199.178 69.764 199.885 72.206 199.885 72.206L153.371 200.004C153.371 200.004 151.277 201.371 147.048 199.831C142.82 198.292 142.094 195.9 142.094 195.9Z" fill="url(#paint3_radial_0_1)" fill-opacity="0.2"/>
</g>
<g filter="url(#filter9_dd_0_1)">
<path d="M180.402 90.6543L188.611 68.1017C188.611 68.1017 190.722 66.6858 194.951 68.2249C199.18 69.7639 199.887 72.2059 199.887 72.2059L191.679 94.7585C191.679 94.7585 190.953 92.3661 186.725 90.827C182.496 89.2879 180.402 90.6543 180.402 90.6543Z" fill="url(#paint4_linear_0_1)"/>
</g>
<defs>
<filter id="filter0_dd_0_1" x="15" y="35" width="202" height="202" filterUnits="userSpaceOnUse" color-interpolation-filters="sRGB">
<feFlood flood-opacity="0" result="BackgroundImageFix"/>
<feColorMatrix in="SourceAlpha" type="matrix" values="0 0 0 0 0 0 0 0 0 0 0 0 0 0 0 0 0 0 127 0" result="hardAlpha"/>
<feOffset dy="2"/>
<feGaussianBlur stdDeviation="4"/>
<feColorMatrix type="matrix" values="0 0 0 0 0 0 0 0 0 0 0 0 0 0 0 0 0 0 0.2 0"/>
<feBlend mode="normal" in2="BackgroundImageFix" result="effect1_dropShadow_0_1"/>
<feColorMatrix in="SourceAlpha" type="matrix" values="0 0 0 0 0 0 0 0 0 0 0 0 0 0 0 0 0 0 127 0" result="hardAlpha"/>
<feMorphology radius="1" operator="dilate" in="SourceAlpha" result="effect2_dropShadow_0_1"/>
<feOffset dy="20"/>
<feGaussianBlur stdDeviation="15"/>
<feColorMatrix type="matrix" values="0 0 0 0 0 0 0 0 0 0 0 0 0 0 0 0 0 0 0.1 0"/>
<feBlend mode="normal" in2="effect1_dropShadow_0_1" result="effect2_dropShadow_0_1"/>
<feBlend mode="normal" in="SourceGraphic" in2="effect2_dropShadow_0_1" result="shape"/>
</filter>
<filter id="filter1_d_0_1" x="44.5" y="45" width="143" height="35" filterUnits="userSpaceOnUse" color-interpolation-filters="sRGB">
<feFlood flood-opacity="0" result="BackgroundImageFix"/>
<feColorMatrix in="SourceAlpha" type="matrix" values="0 0 0 0 0 0 0 0 0 0 0 0 0 0 0 0 0 0 127 0" result="hardAlpha"/>
<feMorphology radius="0.5" operator="dilate" in="SourceAlpha" result="effect1_dropShadow_0_1"/>
<feOffset dy="0.5"/>
<feGaussianBlur stdDeviation="0.5"/>
<feColorMatrix type="matrix" values="0 0 0 0 0 0 0 0 0 0 0 0 0 0 0 0 0 0 0.1 0"/>
<feBlend mode="normal" in2="BackgroundImageFix" result="effect1_dropShadow_0_1"/>
<feBlend mode="normal" in="SourceGraphic" in2="effect1_dropShadow_0_1" result="shape"/>
</filter>
<filter id="filter2_d_0_1" x="82.5" y="97" width="67" height="13" filterUnits="userSpaceOnUse" color-interpolation-filters="sRGB">
<feFlood flood-opacity="0" result="BackgroundImageFix"/>
<feColorMatrix in="SourceAlpha" type="matrix" values="0 0 0 0 0 0 0 0 0 0 0 0 0 0 0 0 0 0 127 0" result="hardAlpha"/>
<feMorphology radius="0.5" operator="dilate" in="SourceAlpha" result="effect1_dropShadow_0_1"/>
<feOffset dy="0.5"/>
<feGaussianBlur stdDeviation="0.5"/>
<feColorMatrix type="matrix" values="0 0 0 0 0 0 0 0 0 0 0 0 0 0 0 0 0 0 0.1 0"/>
<feBlend mode="normal" in2="BackgroundImageFix" result="effect1_dropShadow_0_1"/>
<feBlend mode="normal" in="SourceGraphic" in2="effect1_dropShadow_0_1" result="shape"/>
</filter>
<filter id="filter3_d_0_1" x="82.5" y="121" width="67" height="9" filterUnits="userSpaceOnUse" color-interpolation-filters="sRGB">
<feFlood flood-opacity="0" result="BackgroundImageFix"/>
<feColorMatrix in="SourceAlpha" type="matrix" values="0 0 0 0 0 0 0 0 0 0 0 0 0 0 0 0 0 0 127 0" result="hardAlpha"/>
<feMorphology radius="0.5" operator="dilate" in="SourceAlpha" result="effect1_dropShadow_0_1"/>
<feOffset dy="0.5"/>
<feGaussianBlur stdDeviation="0.5"/>
<feColorMatrix type="matrix" values="0 0 0 0 0 0 0 0 0 0 0 0 0 0 0 0 0 0 0.1 0"/>
<feBlend mode="normal" in2="BackgroundImageFix" result="effect1_dropShadow_0_1"/>
<feBlend mode="normal" in="SourceGraphic" in2="effect1_dropShadow_0_1" result="shape"/>
</filter>
<filter id="filter4_d_0_1" x="82.5" y="167" width="67" height="13" filterUnits="userSpaceOnUse" color-interpolation-filters="sRGB">
<feFlood flood-opacity="0" result="BackgroundImageFix"/>
<feColorMatrix in="SourceAlpha" type="matrix" values="0 0 0 0 0 0 0 0 0 0 0 0 0 0 0 0 0 0 127 0" result="hardAlpha"/>
<feMorphology radius="0.5" operator="dilate" in="SourceAlpha" result="effect1_dropShadow_0_1"/>
<feOffset dy="0.5"/>
<feGaussianBlur stdDeviation="0.5"/>
<feColorMatrix type="matrix" values="0 0 0 0 0 0 0 0 0 0 0 0 0 0 0 0 0 0 0.1 0"/>
<feBlend mode="normal" in2="BackgroundImageFix" result="effect1_dropShadow_0_1"/>
<feBlend mode="normal" in="SourceGraphic" in2="effect1_dropShadow_0_1" result="shape"/>
</filter>
<filter id="filter5_d_0_1" x="82.5" y="89" width="67" height="9" filterUnits="userSpaceOnUse" color-interpolation-filters="sRGB">
<feFlood flood-opacity="0" result="BackgroundImageFix"/>
<feColorMatrix in="SourceAlpha" type="matrix" values="0 0 0 0 0 0 0 0 0 0 0 0 0 0 0 0 0 0 127 0" result="hardAlpha"/>
<feMorphology radius="0.5" operator="dilate" in="SourceAlpha" result="effect1_dropShadow_0_1"/>
<feOffset dy="0.5"/>
<feGaussianBlur stdDeviation="0.5"/>
<feColorMatrix type="matrix" values="0 0 0 0 0 0 0 0 0 0 0 0 0 0 0 0 0 0 0.1 0"/>
<feBlend mode="normal" in2="BackgroundImageFix" result="effect1_dropShadow_0_1"/>
<feBlend mode="normal" in="SourceGraphic" in2="effect1_dropShadow_0_1" result="shape"/>
</filter>
<filter id="filter6_ddi_0_1" x="133.883" y="102.268" width="38.1367" height="38.125" filterUnits="userSpaceOnUse" color-interpolation-filters="sRGB">
<feFlood flood-opacity="0" result="BackgroundImageFix"/>
<feColorMatrix in="SourceAlpha" type="matrix" values="0 0 0 0 0 0 0 0 0 0 0 0 0 0 0 0 0 0 127 0" result="hardAlpha"/>
<feOffset/>
<feGaussianBlur stdDeviation="5"/>
<feColorMatrix type="matrix" values="0 0 0 0 1 0 0 0 0 0.924583 0 0 0 0 0.245833 0 0 0 0.3 0"/>
<feBlend mode="normal" in2="BackgroundImageFix" result="effect1_dropShadow_0_1"/>
<feColorMatrix in="SourceAlpha" type="matrix" values="0 0 0 0 0 0 0 0 0 0 0 0 0 0 0 0 0 0 127 0" result="hardAlpha"/>
<feOffset/>
<feGaussianBlur stdDeviation="3"/>
<feColorMatrix type="matrix" values="0 0 0 0 0.996833 0 0 0 0 1 0 0 0 0 0.841667 0 0 0 0.65 0"/>
<feBlend mode="normal" in2="effect1_dropShadow_0_1" result="effect2_dropShadow_0_1"/>
<feBlend mode="normal" in="SourceGraphic" in2="effect2_dropShadow_0_1" result="shape"/>
<feColorMatrix in="SourceAlpha" type="matrix" values="0 0 0 0 0 0 0 0 0 0 0 0 0 0 0 0 0 0 127 0" result="hardAlpha"/>
<feOffset/>
<feGaussianBlur stdDeviation="2.5"/>
<feComposite in2="hardAlpha" operator="arithmetic" k2="-1" k3="1"/>
<feColorMatrix type="matrix" values="0 0 0 0 0.95 0 0 0 0 0.862917 0 0 0 0 0.0791667 0 0 0 0.55 0"/>
<feBlend mode="normal" in2="shape" result="effect3_innerShadow_0_1"/>
</filter>
<filter id="filter7_ddi_0_1" x="108.543" y="68.7871" width="44.4297" height="44.416" filterUnits="userSpaceOnUse" color-interpolation-filters="sRGB">
<feFlood flood-opacity="0" result="BackgroundImageFix"/>
<feColorMatrix in="SourceAlpha" type="matrix" values="0 0 0 0 0 0 0 0 0 0 0 0 0 0 0 0 0 0 127 0" result="hardAlpha"/>
<feOffset/>
<feGaussianBlur stdDeviation="5"/>
<feColorMatrix type="matrix" values="0 0 0 0 1 0 0 0 0 0.924583 0 0 0 0 0.245833 0 0 0 0.3 0"/>
<feBlend mode="normal" in2="BackgroundImageFix" result="effect1_dropShadow_0_1"/>
<feColorMatrix in="SourceAlpha" type="matrix" values="0 0 0 0 0 0 0 0 0 0 0 0 0 0 0 0 0 0 127 0" result="hardAlpha"/>
<feOffset/>
<feGaussianBlur stdDeviation="3"/>
<feColorMatrix type="matrix" values="0 0 0 0 0.996833 0 0 0 0 1 0 0 0 0 0.841667 0 0 0 0.65 0"/>
<feBlend mode="normal" in2="effect1_dropShadow_0_1" result="effect2_dropShadow_0_1"/>
<feBlend mode="normal" in="SourceGraphic" in2="effect2_dropShadow_0_1" result="shape"/>
<feColorMatrix in="SourceAlpha" type="matrix" values="0 0 0 0 0 0 0 0 0 0 0 0 0 0 0 0 0 0 127 0" result="hardAlpha"/>
<feOffset/>
<feGaussianBlur stdDeviation="2.5"/>
<feComposite in2="hardAlpha" operator="arithmetic" k2="-1" k3="1"/>
<feColorMatrix type="matrix" values="0 0 0 0 0.95 0 0 0 0 0.862917 0 0 0 0 0.0791667 0 0 0 0.55 0"/>
<feBlend mode="normal" in2="shape" result="effect3_innerShadow_0_1"/>
</filter>
<filter id="filter8_dd_0_1" x="111.094" y="56.5078" width="119.793" height="195.055" filterUnits="userSpaceOnUse" color-interpolation-filters="sRGB">
<feFlood flood-opacity="0" result="BackgroundImageFix"/>
<feColorMatrix in="SourceAlpha" type="matrix" values="0 0 0 0 0 0 0 0 0 0 0 0 0 0 0 0 0 0 127 0" result="hardAlpha"/>
<feOffset dy="2"/>
<feGaussianBlur stdDeviation="4"/>
<feColorMatrix type="matrix" values="0 0 0 0 0 0 0 0 0 0 0 0 0 0 0 0 0 0 0.2 0"/>
<feBlend mode="normal" in2="BackgroundImageFix" result="effect1_dropShadow_0_1"/>
<feColorMatrix in="SourceAlpha" type="matrix" values="0 0 0 0 0 0 0 0 0 0 0 0 0 0 0 0 0 0 127 0" result="hardAlpha"/>
<feMorphology radius="1" operator="dilate" in="SourceAlpha" result="effect2_dropShadow_0_1"/>
<feOffset dy="20"/>
<feGaussianBlur stdDeviation="15"/>
<feColorMatrix type="matrix" values="0 0 0 0 0 0 0 0 0 0 0 0 0 0 0 0 0 0 0.1 0"/>
<feBlend mode="normal" in2="effect1_dropShadow_0_1" result="effect2_dropShadow_0_1"/>
<feBlend mode="normal" in="SourceGraphic" in2="effect2_dropShadow_0_1" result="shape"/>
</filter>
<filter id="filter9_dd_0_1" x="149.402" y="56.5078" width="81.4844" height="89.25" filterUnits="userSpaceOnUse" color-interpolation-filters="sRGB">
<feFlood flood-opacity="0" result="BackgroundImageFix"/>
<feColorMatrix in="SourceAlpha" type="matrix" values="0 0 0 0 0 0 0 0 0 0 0 0 0 0 0 0 0 0 127 0" result="hardAlpha"/>
<feOffset dy="2"/>
<feGaussianBlur stdDeviation="4"/>
<feColorMatrix type="matrix" values="0 0 0 0 0 0 0 0 0 0 0 0 0 0 0 0 0 0 0.2 0"/>
<feBlend mode="normal" in2="BackgroundImageFix" result="effect1_dropShadow_0_1"/>
<feColorMatrix in="SourceAlpha" type="matrix" values="0 0 0 0 0 0 0 0 0 0 0 0 0 0 0 0 0 0 127 0" result="hardAlpha"/>
<feMorphology radius="1" operator="dilate" in="SourceAlpha" result="effect2_dropShadow_0_1"/>
<feOffset dy="20"/>
<feGaussianBlur stdDeviation="15"/>
<feColorMatrix type="matrix" values="0 0 0 0 0 0 0 0 0 0 0 0 0 0 0 0 0 0 0.1 0"/>
<feBlend mode="normal" in2="effect1_dropShadow_0_1" result="effect2_dropShadow_0_1"/>
<feBlend mode="normal" in="SourceGraphic" in2="effect2_dropShadow_0_1" result="shape"/>
</filter>
<radialGradient id="paint0_radial_0_1" cx="0" cy="0" r="1" gradientUnits="userSpaceOnUse" gradientTransform="translate(53 169.825) rotate(-33.1864) scale(199.547 126.487)">
<stop stop-color="#FFDFC2"/>
<stop offset="0.300591" stop-color="#FFD6F7"/>
<stop offset="0.65625" stop-color="#B391FF"/>
<stop offset="1" stop-color="#4175B6"/>
</radialGradient>
<linearGradient id="paint1_linear_0_1" x1="165.361" y1="131.976" x2="176.637" y2="136.08" gradientUnits="userSpaceOnUse">
<stop stop-color="#CEC8FF"/>
<stop offset="0.145833" stop-color="#9B93DB"/>
<stop offset="0.28125" stop-color="#CFC9FF"/>
<stop offset="0.59375" stop-color="#7C5AE0"/>
<stop offset="0.713542" stop-color="#784CD5"/>
<stop offset="0.802083" stop-color="#6947D0"/>
<stop offset="1" stop-color="#8F81E4"/>
</linearGradient>
<radialGradient id="paint2_radial_0_1" cx="0" cy="0" r="1" gradientUnits="userSpaceOnUse" gradientTransform="translate(178.5 93.5019) rotate(97.0228) scale(69.5216 811.391)">
<stop stop-color="white" stop-opacity="0.15"/>
<stop offset="1" stop-color="white" stop-opacity="0"/>
</radialGradient>
<radialGradient id="paint3_radial_0_1" cx="0" cy="0" r="1" gradientUnits="userSpaceOnUse" gradientTransform="translate(166.5 131.002) rotate(55.751) scale(28.4297)">
<stop stop-color="#FEF527"/>
<stop offset="1" stop-color="#FFF500" stop-opacity="0"/>
</radialGradient>
<linearGradient id="paint4_linear_0_1" x1="165.362" y1="131.976" x2="176.639" y2="136.08" gradientUnits="userSpaceOnUse">
<stop stop-color="#FCFCFF"/>
<stop offset="0.0885417" stop-color="#EDEBFF"/>
<stop offset="0.203125" stop-color="#F9F9FF"/>
<stop offset="0.510417" stop-color="#EBE4FF"/>
<stop offset="0.713542" stop-color="#E6DBFC"/>
<stop offset="0.802083" stop-color="#D7CEF5"/>
<stop offset="1" stop-color="#D7E7FF"/>
</linearGradient>
</defs>
</svg>
