<svg width="665" height="289" viewBox="0 0 665 289" fill="none" xmlns="http://www.w3.org/2000/svg">
<g filter="url(#filter0_dd_1022_35052)">
<g clip-path="url(#clip0_1022_35052)">
<rect x="31" y="11" width="735" height="395" rx="6" fill="#F7F7FA"/>
<rect x="51.75" y="29.75" width="18.5" height="14.5" rx="2.25" stroke="#A8AAB5" stroke-width="1.5"/>
<path d="M59 30H60.5V44H59V30Z" fill="#A8AAB5"/>
<rect x="54" y="32" width="3.5" height="1.5" rx="0.75" fill="#A8AAB5"/>
<rect x="54" y="35" width="3.5" height="1.5" rx="0.75" fill="#A8AAB5"/>
<rect x="54" y="38" width="3.5" height="1.5" rx="0.75" fill="#A8AAB5"/>
<path d="M116.019 41.9585C116.318 42.2451 116.328 42.7199 116.041 43.0189C115.755 43.318 115.28 43.3281 114.981 43.0415L116.019 41.9585ZM115.006 30.9356C115.318 30.6628 115.792 30.6944 116.064 31.0061C116.337 31.3178 116.306 31.7917 115.994 32.0644L115.006 30.9356ZM109.5 36.75L108.981 37.2915C108.829 37.1459 108.745 36.9433 108.75 36.733C108.755 36.5227 108.848 36.3241 109.006 36.1856L109.5 36.75ZM114.981 43.0415L108.981 37.2915L110.019 36.2085L116.019 41.9585L114.981 43.0415ZM109.006 36.1856L115.006 30.9356L115.994 32.0644L109.994 37.3144L109.006 36.1856Z" fill="#A8AAB5"/>
<path d="M148.504 42H149.869L151.843 35.0938H151.875L153.842 42H155.207L157.683 32.8403H156.204L154.496 40.0195H154.464L152.528 32.8403H151.183L149.247 40.0195H149.221L147.514 32.8403H146.035L148.504 42ZM160.774 42.1333C162.393 42.1333 163.421 41.1685 163.637 40.1084L163.649 40.0386H162.348L162.329 40.0894C162.158 40.5908 161.618 41.0098 160.806 41.0098C159.714 41.0098 159.022 40.2734 158.997 39.0103H163.726V38.5469C163.726 36.541 162.577 35.1953 160.704 35.1953C158.832 35.1953 157.625 36.5918 157.625 38.6802V38.6865C157.625 40.7939 158.812 42.1333 160.774 42.1333ZM160.71 36.3188C161.605 36.3188 162.253 36.8838 162.367 38.0391H159.016C159.136 36.9219 159.822 36.3188 160.71 36.3188ZM167.642 42.1333C169.261 42.1333 170.289 41.1685 170.505 40.1084L170.518 40.0386H169.216L169.197 40.0894C169.026 40.5908 168.486 41.0098 167.674 41.0098C166.582 41.0098 165.89 40.2734 165.865 39.0103H170.594V38.5469C170.594 36.541 169.445 35.1953 167.572 35.1953C165.7 35.1953 164.494 36.5918 164.494 38.6802V38.6865C164.494 40.7939 165.681 42.1333 167.642 42.1333ZM167.579 36.3188C168.474 36.3188 169.121 36.8838 169.235 38.0391H165.884C166.004 36.9219 166.69 36.3188 167.579 36.3188ZM171.736 42H173.107V39.5942L173.679 39.0293L175.945 42H177.538L174.688 38.2041L177.43 35.3223H175.818L173.139 38.1724H173.107V32.8403H171.736V42ZM184.095 42.1523C186.038 42.1523 187.415 41.0352 187.415 39.4673V39.4546C187.415 38.1724 186.514 37.3599 185.168 37.2393V37.2075C186.285 36.9727 187.098 36.2109 187.098 35.0747V35.062C187.098 33.6528 185.904 32.688 184.083 32.688C182.292 32.688 181.074 33.6973 180.934 35.2271L180.928 35.2905H182.261L182.267 35.2334C182.356 34.3828 183.067 33.8496 184.083 33.8496C185.117 33.8496 185.714 34.3638 185.714 35.2461V35.2588C185.714 36.1094 185.003 36.7251 183.956 36.7251H182.883V37.8296H183.994C185.219 37.8296 185.968 38.4072 185.968 39.4419V39.4546C185.968 40.3433 185.212 40.9653 184.095 40.9653C182.959 40.9653 182.191 40.394 182.102 39.5815L182.096 39.5117H180.731L180.737 39.5942C180.864 41.0859 182.14 42.1523 184.095 42.1523ZM192.087 32.688C190.151 32.688 188.735 34.002 188.735 35.8301V35.8428C188.735 37.5757 190.005 38.8516 191.757 38.8516C193.001 38.8516 193.928 38.2041 194.29 37.3789H194.321C194.321 37.4614 194.321 37.5439 194.315 37.6265C194.258 39.4419 193.617 40.959 192.042 40.959C191.167 40.959 190.57 40.5273 190.31 39.8418L190.284 39.7783H188.862L188.881 39.8545C189.173 41.2192 190.398 42.1523 192.03 42.1523C194.321 42.1523 195.686 40.3496 195.686 37.2964V37.2837C195.686 33.9893 193.959 32.688 192.087 32.688ZM192.081 37.6963C190.97 37.6963 190.151 36.9092 190.151 35.8047V35.792C190.151 34.7256 191.021 33.8813 192.1 33.8813C193.191 33.8813 194.042 34.7383 194.042 35.8237V35.8301C194.042 36.9155 193.198 37.6963 192.081 37.6963Z" fill="black"/>
<path d="M225.981 32.0415C225.682 31.7549 225.672 31.2801 225.959 30.9811C226.245 30.682 226.72 30.6719 227.019 30.9585L225.981 32.0415ZM226.994 43.0644C226.682 43.3372 226.208 43.3056 225.936 42.9939C225.663 42.6822 225.694 42.2083 226.006 41.9356L226.994 43.0644ZM232.5 37.25L233.019 36.7085C233.171 36.8541 233.255 37.0567 233.25 37.267C233.245 37.4773 233.152 37.6759 232.994 37.8144L232.5 37.25ZM227.019 30.9585L233.019 36.7085L231.981 37.7915L225.981 32.0415L227.019 30.9585ZM232.994 37.8144L226.994 43.0644L226.006 41.9356L232.006 36.6856L232.994 37.8144Z" fill="#A8AAB5"/>
<path d="M272.207 42H273.628V34.0654H276.428V32.8403H269.401V34.0654H272.207V42ZM278.656 42.1333C280.566 42.1333 281.823 40.813 281.823 38.6611V38.6484C281.823 36.5093 280.554 35.1953 278.649 35.1953C276.751 35.1953 275.488 36.5156 275.488 38.6484V38.6611C275.488 40.8066 276.739 42.1333 278.656 42.1333ZM278.662 40.9844C277.589 40.9844 276.891 40.1401 276.891 38.6611V38.6484C276.891 37.1885 277.596 36.3442 278.649 36.3442C279.722 36.3442 280.42 37.1885 280.42 38.6484V38.6611C280.42 40.1338 279.735 40.9844 278.662 40.9844ZM285.378 42.1333C286.336 42.1333 287.073 41.6509 287.473 40.8701H287.498V42H288.875V32.8403H287.498V36.4585H287.473C287.073 35.6714 286.311 35.1953 285.365 35.1953C283.689 35.1953 282.585 36.5283 282.585 38.6548V38.6611C282.585 40.7876 283.677 42.1333 285.378 42.1333ZM285.74 40.9526C284.654 40.9526 283.988 40.083 283.988 38.6611V38.6548C283.988 37.2456 284.661 36.3696 285.74 36.3696C286.768 36.3696 287.504 37.271 287.504 38.6548V38.6611C287.504 40.0513 286.774 40.9526 285.74 40.9526ZM292.246 42.1206C293.128 42.1206 293.903 41.6636 294.29 40.9463H294.315V42H295.693V37.3979C295.693 36.0586 294.658 35.1953 293.027 35.1953C291.383 35.1953 290.386 36.0776 290.291 37.2266L290.285 37.2964H291.58L291.592 37.2393C291.707 36.7061 292.195 36.3315 292.989 36.3315C293.839 36.3315 294.315 36.7759 294.315 37.5122V38.0137L292.5 38.1216C290.919 38.2168 290.018 38.9277 290.018 40.0894V40.1021C290.018 41.3018 290.913 42.1206 292.246 42.1206ZM291.402 40.0703V40.0576C291.402 39.4927 291.859 39.1309 292.684 39.0801L294.315 38.9785V39.499C294.315 40.3687 293.585 41.0225 292.621 41.0225C291.884 41.0225 291.402 40.6543 291.402 40.0703ZM297.8 44.228C299.108 44.228 299.806 43.6948 300.301 42.311L302.79 35.3223H301.342L299.66 40.7559H299.616L297.934 35.3223H296.448L298.879 42.0063L298.765 42.3237C298.537 42.9712 298.181 43.1426 297.534 43.1426C297.35 43.1426 297.191 43.1172 297.083 43.0918V44.1646C297.248 44.1963 297.534 44.228 297.8 44.228Z" fill="black"/>
<rect x="177" y="63" width="1" height="597" fill="#E5E5EB"/>
<rect x="31" y="112" width="146" height="1" fill="#E5E5EB"/>
<rect x="31" y="161" width="146" height="1" fill="#E5E5EB"/>
<rect x="31" y="210" width="146" height="1" fill="#E5E5EB"/>
<rect x="31" y="259" width="146" height="1" fill="#E5E5EB"/>
<rect x="31" y="63" width="146" height="1" fill="#E5E5EB"/>
<rect opacity="0.6" x="35" y="113" width="138" height="171" rx="6" fill="#82BDFF"/>
<path d="M79.9536 202H81.1567V198.756H84.4868V197.741H81.1567V195.286H84.793V194.25H79.9536V202ZM87.9351 202.113C89.5518 202.113 90.6152 200.996 90.6152 199.175V199.164C90.6152 197.354 89.541 196.242 87.9297 196.242C86.3237 196.242 85.2549 197.359 85.2549 199.164V199.175C85.2549 200.99 86.313 202.113 87.9351 202.113ZM87.9404 201.141C87.0327 201.141 86.4419 200.426 86.4419 199.175V199.164C86.4419 197.929 87.0381 197.214 87.9297 197.214C88.8374 197.214 89.4282 197.929 89.4282 199.164V199.175C89.4282 200.421 88.8481 201.141 87.9404 201.141ZM93.9399 202.113C95.2988 202.113 96.2441 201.243 96.3677 200.109L96.373 200.072H95.2559L95.2505 200.115C95.1108 200.727 94.6543 201.141 93.9399 201.141C93.043 201.141 92.4468 200.416 92.4468 199.18V199.175C92.4468 197.966 93.0322 197.214 93.9346 197.214C94.6919 197.214 95.1216 197.682 95.2451 198.235L95.2559 198.278H96.3623L96.3569 198.24C96.2603 197.177 95.3794 196.242 93.9238 196.242C92.3125 196.242 91.2598 197.375 91.2598 199.164V199.169C91.2598 200.979 92.291 202.113 93.9399 202.113ZM99.1177 202.113C99.9771 202.113 100.552 201.721 100.847 201.151H100.874V202H102.04V196.35H100.874V199.647C100.874 200.528 100.348 201.114 99.5312 201.114C98.7256 201.114 98.3281 200.641 98.3281 199.787V196.35H97.168V200.013C97.168 201.312 97.877 202.113 99.1177 202.113ZM105.305 202.113C106.637 202.113 107.604 201.404 107.604 200.373V200.367C107.604 199.556 107.164 199.1 106.009 198.831L105.09 198.622C104.483 198.477 104.252 198.24 104.252 197.891V197.886C104.252 197.435 104.645 197.139 105.268 197.139C105.923 197.139 106.31 197.483 106.379 197.977L106.385 198.015H107.475L107.47 197.95C107.411 196.989 106.605 196.242 105.268 196.242C103.968 196.242 103.087 196.935 103.087 197.945V197.95C103.087 198.772 103.619 199.288 104.693 199.535L105.617 199.744C106.224 199.889 106.428 200.099 106.428 200.464V200.469C106.428 200.926 106.009 201.216 105.311 201.216C104.596 201.216 104.209 200.91 104.102 200.389L104.091 200.335H102.942L102.947 200.383C103.065 201.415 103.893 202.113 105.305 202.113ZM110.488 202.113C110.725 202.113 110.945 202.086 111.079 202.064V201.167C110.993 201.178 110.891 201.189 110.768 201.189C110.279 201.189 110.021 201.017 110.021 200.442V197.273H111.079V196.35H110.021V194.878H108.834V196.35H108.023V197.273H108.834V200.512C108.834 201.64 109.371 202.113 110.488 202.113ZM112.669 195.479C113.05 195.479 113.346 195.179 113.346 194.813C113.346 194.443 113.05 194.142 112.669 194.142C112.293 194.142 111.992 194.443 111.992 194.813C111.992 195.179 112.293 195.479 112.669 195.479ZM112.089 202H113.249V196.35H112.089V202ZM114.447 202H115.607V198.509C115.607 197.778 116.096 197.236 116.783 197.236C117.438 197.236 117.852 197.655 117.852 198.31V202H118.991V198.466C118.991 197.751 119.469 197.236 120.156 197.236C120.844 197.236 121.236 197.66 121.236 198.396V202H122.401V198.117C122.401 196.983 121.671 196.242 120.554 196.242C119.748 196.242 119.082 196.667 118.792 197.354H118.765C118.54 196.645 117.97 196.242 117.191 196.242C116.45 196.242 115.875 196.634 115.634 197.225H115.607V196.35H114.447V202ZM125.936 202.113C127.305 202.113 128.175 201.296 128.358 200.399L128.369 200.34H127.268L127.251 200.383C127.106 200.808 126.65 201.162 125.962 201.162C125.039 201.162 124.453 200.539 124.432 199.47H128.433V199.078C128.433 197.381 127.461 196.242 125.876 196.242C124.292 196.242 123.271 197.424 123.271 199.191V199.196C123.271 200.979 124.276 202.113 125.936 202.113ZM125.882 197.193C126.639 197.193 127.187 197.671 127.284 198.648H124.448C124.55 197.703 125.13 197.193 125.882 197.193Z" fill="#5A7EA6"/>
<rect opacity="0.6" x="35" y="63" width="138" height="48" rx="6" fill="#E6BEF9"/>
<path d="M74.7812 91H75.877V85.2798H75.9146L78.251 91H79.1426L81.479 85.2798H81.5166V91H82.6123V83.2495H81.2266L78.7129 89.437H78.6807L76.1724 83.2495H74.7812V91ZM86.313 91.1128C87.6826 91.1128 88.5527 90.2964 88.7354 89.3994L88.7461 89.3403H87.645L87.6289 89.3833C87.4839 89.8076 87.0273 90.1621 86.3398 90.1621C85.416 90.1621 84.8306 89.5391 84.8091 88.4702H88.8105V88.0781C88.8105 86.3809 87.8384 85.2422 86.2539 85.2422C84.6694 85.2422 83.6489 86.4238 83.6489 88.1909V88.1963C83.6489 89.9795 84.6533 91.1128 86.313 91.1128ZM86.2593 86.1929C87.0166 86.1929 87.5645 86.6709 87.6611 87.6484H84.8252C84.9272 86.7031 85.5073 86.1929 86.2593 86.1929ZM92.1245 91.1128C93.4941 91.1128 94.3643 90.2964 94.5469 89.3994L94.5576 89.3403H93.4565L93.4404 89.3833C93.2954 89.8076 92.8389 90.1621 92.1514 90.1621C91.2275 90.1621 90.6421 89.5391 90.6206 88.4702H94.6221V88.0781C94.6221 86.3809 93.6499 85.2422 92.0654 85.2422C90.481 85.2422 89.4604 86.4238 89.4604 88.1909V88.1963C89.4604 89.9795 90.4648 91.1128 92.1245 91.1128ZM92.0708 86.1929C92.8281 86.1929 93.376 86.6709 93.4727 87.6484H90.6367C90.7388 86.7031 91.3188 86.1929 92.0708 86.1929ZM97.5063 91.1128C97.7427 91.1128 97.9629 91.0859 98.0972 91.0645V90.1675C98.0112 90.1782 97.9092 90.189 97.7856 90.189C97.2969 90.189 97.0391 90.0171 97.0391 89.4424V86.2734H98.0972V85.3496H97.0391V83.8779H95.8521V85.3496H95.041V86.2734H95.8521V89.5122C95.8521 90.6401 96.3892 91.1128 97.5063 91.1128ZM99.687 84.4795C100.068 84.4795 100.364 84.1787 100.364 83.8135C100.364 83.4429 100.068 83.1421 99.687 83.1421C99.311 83.1421 99.0103 83.4429 99.0103 83.8135C99.0103 84.1787 99.311 84.4795 99.687 84.4795ZM99.1069 91H100.267V85.3496H99.1069V91ZM101.465 91H102.625V87.7075C102.625 86.8267 103.151 86.2358 103.968 86.2358C104.773 86.2358 105.171 86.7139 105.171 87.5625V91H106.336V87.3423C106.336 86.0425 105.622 85.2422 104.381 85.2422C103.527 85.2422 102.947 85.6289 102.652 86.2036H102.625V85.3496H101.465V91ZM109.935 92.9927C111.53 92.9927 112.529 92.1333 112.529 90.8442V85.3496H111.364V86.311H111.337C111.004 85.6719 110.381 85.2422 109.586 85.2422C108.152 85.2422 107.207 86.354 107.207 88.1265V88.1318C107.207 89.8936 108.141 91.0054 109.559 91.0054C110.37 91.0054 111.015 90.6133 111.337 90.001H111.364V90.7744C111.364 91.564 110.854 92.0581 109.93 92.0581C109.205 92.0581 108.716 91.811 108.56 91.4512L108.539 91.4082H107.389L107.395 91.4565C107.566 92.3213 108.485 92.9927 109.935 92.9927ZM109.887 90.0601C108.968 90.0601 108.394 89.3296 108.394 88.1479V88.1426C108.394 86.9771 108.968 86.2358 109.887 86.2358C110.768 86.2358 111.364 86.9824 111.364 88.1426V88.1479C111.364 89.3135 110.773 90.0601 109.887 90.0601ZM115.661 91.1128C115.897 91.1128 116.117 91.0859 116.251 91.0645V90.1675C116.166 90.1782 116.063 90.189 115.94 90.189C115.451 90.189 115.193 90.0171 115.193 89.4424V86.2734H116.251V85.3496H115.193V83.8779H114.006V85.3496H113.195V86.2734H114.006V89.5122C114.006 90.6401 114.543 91.1128 115.661 91.1128ZM117.841 84.4795C118.223 84.4795 118.518 84.1787 118.518 83.8135C118.518 83.4429 118.223 83.1421 117.841 83.1421C117.465 83.1421 117.165 83.4429 117.165 83.8135C117.165 84.1787 117.465 84.4795 117.841 84.4795ZM117.261 91H118.421V85.3496H117.261V91ZM119.619 91H120.779V87.5088C120.779 86.7783 121.268 86.2358 121.956 86.2358C122.611 86.2358 123.024 86.6548 123.024 87.3101V91H124.163V87.4658C124.163 86.7515 124.641 86.2358 125.329 86.2358C126.016 86.2358 126.408 86.6602 126.408 87.396V91H127.574V87.1167C127.574 85.9834 126.843 85.2422 125.726 85.2422C124.92 85.2422 124.254 85.6665 123.964 86.354H123.938C123.712 85.645 123.143 85.2422 122.364 85.2422C121.623 85.2422 121.048 85.6343 120.806 86.2251H120.779V85.3496H119.619V91ZM131.108 91.1128C132.478 91.1128 133.348 90.2964 133.53 89.3994L133.541 89.3403H132.44L132.424 89.3833C132.279 89.8076 131.822 90.1621 131.135 90.1621C130.211 90.1621 129.625 89.5391 129.604 88.4702H133.605V88.0781C133.605 86.3809 132.633 85.2422 131.049 85.2422C129.464 85.2422 128.444 86.4238 128.444 88.1909V88.1963C128.444 89.9795 129.448 91.1128 131.108 91.1128ZM131.054 86.1929C131.812 86.1929 132.359 86.6709 132.456 87.6484H129.62C129.722 86.7031 130.302 86.1929 131.054 86.1929Z" fill="#9385A2"/>
<rect x="324" y="63" width="1" height="597" fill="#E5E5EB"/>
<rect x="178" y="112" width="146" height="1" fill="#E5E5EB"/>
<rect x="178" y="161" width="146" height="1" fill="#E5E5EB"/>
<rect x="178" y="210" width="146" height="1" fill="#E5E5EB"/>
<rect x="178" y="259" width="146" height="1" fill="#E5E5EB"/>
<rect x="178" y="63" width="146" height="1" fill="#E5E5EB"/>
<rect opacity="0.6" x="182" y="96" width="138" height="188" rx="6" fill="#82BDFF"/>
<path d="M226.954 194H228.157V190.756H231.487V189.741H228.157V187.286H231.793V186.25H226.954V194ZM234.935 194.113C236.552 194.113 237.615 192.996 237.615 191.175V191.164C237.615 189.354 236.541 188.242 234.93 188.242C233.324 188.242 232.255 189.359 232.255 191.164V191.175C232.255 192.99 233.313 194.113 234.935 194.113ZM234.94 193.141C234.033 193.141 233.442 192.426 233.442 191.175V191.164C233.442 189.929 234.038 189.214 234.93 189.214C235.837 189.214 236.428 189.929 236.428 191.164V191.175C236.428 192.421 235.848 193.141 234.94 193.141ZM240.94 194.113C242.299 194.113 243.244 193.243 243.368 192.109L243.373 192.072H242.256L242.25 192.115C242.111 192.727 241.654 193.141 240.94 193.141C240.043 193.141 239.447 192.416 239.447 191.18V191.175C239.447 189.966 240.032 189.214 240.935 189.214C241.692 189.214 242.122 189.682 242.245 190.235L242.256 190.278H243.362L243.357 190.24C243.26 189.177 242.379 188.242 240.924 188.242C239.312 188.242 238.26 189.375 238.26 191.164V191.169C238.26 192.979 239.291 194.113 240.94 194.113ZM246.118 194.113C246.977 194.113 247.552 193.721 247.847 193.151H247.874V194H249.04V188.35H247.874V191.647C247.874 192.528 247.348 193.114 246.531 193.114C245.726 193.114 245.328 192.641 245.328 191.787V188.35H244.168V192.013C244.168 193.312 244.877 194.113 246.118 194.113ZM252.305 194.113C253.637 194.113 254.604 193.404 254.604 192.373V192.367C254.604 191.556 254.164 191.1 253.009 190.831L252.09 190.622C251.483 190.477 251.252 190.24 251.252 189.891V189.886C251.252 189.435 251.645 189.139 252.268 189.139C252.923 189.139 253.31 189.483 253.379 189.977L253.385 190.015H254.475L254.47 189.95C254.411 188.989 253.605 188.242 252.268 188.242C250.968 188.242 250.087 188.935 250.087 189.945V189.95C250.087 190.772 250.619 191.288 251.693 191.535L252.617 191.744C253.224 191.889 253.428 192.099 253.428 192.464V192.469C253.428 192.926 253.009 193.216 252.311 193.216C251.596 193.216 251.209 192.91 251.102 192.389L251.091 192.335H249.942L249.947 192.383C250.065 193.415 250.893 194.113 252.305 194.113ZM257.488 194.113C257.725 194.113 257.945 194.086 258.079 194.064V193.167C257.993 193.178 257.891 193.189 257.768 193.189C257.279 193.189 257.021 193.017 257.021 192.442V189.273H258.079V188.35H257.021V186.878H255.834V188.35H255.023V189.273H255.834V192.512C255.834 193.64 256.371 194.113 257.488 194.113ZM259.669 187.479C260.05 187.479 260.346 187.179 260.346 186.813C260.346 186.443 260.05 186.142 259.669 186.142C259.293 186.142 258.992 186.443 258.992 186.813C258.992 187.179 259.293 187.479 259.669 187.479ZM259.089 194H260.249V188.35H259.089V194ZM261.447 194H262.607V190.509C262.607 189.778 263.096 189.236 263.783 189.236C264.438 189.236 264.852 189.655 264.852 190.31V194H265.991V190.466C265.991 189.751 266.469 189.236 267.156 189.236C267.844 189.236 268.236 189.66 268.236 190.396V194H269.401V190.117C269.401 188.983 268.671 188.242 267.554 188.242C266.748 188.242 266.082 188.667 265.792 189.354H265.765C265.54 188.645 264.97 188.242 264.191 188.242C263.45 188.242 262.875 188.634 262.634 189.225H262.607V188.35H261.447V194ZM272.936 194.113C274.305 194.113 275.175 193.296 275.358 192.399L275.369 192.34H274.268L274.251 192.383C274.106 192.808 273.65 193.162 272.962 193.162C272.039 193.162 271.453 192.539 271.432 191.47H275.433V191.078C275.433 189.381 274.461 188.242 272.876 188.242C271.292 188.242 270.271 189.424 270.271 191.191V191.196C270.271 192.979 271.276 194.113 272.936 194.113ZM272.882 189.193C273.639 189.193 274.187 189.671 274.284 190.648H271.448C271.55 189.703 272.13 189.193 272.882 189.193Z" fill="#5A7EA6"/>
<rect opacity="0.6" x="182" y="63" width="138" height="31" rx="6" fill="#E6BEF9"/>
<path d="M221.781 82H222.877V76.2798H222.915L225.251 82H226.143L228.479 76.2798H228.517V82H229.612V74.2495H228.227L225.713 80.437H225.681L223.172 74.2495H221.781V82ZM233.313 82.1128C234.683 82.1128 235.553 81.2964 235.735 80.3994L235.746 80.3403H234.645L234.629 80.3833C234.484 80.8076 234.027 81.1621 233.34 81.1621C232.416 81.1621 231.831 80.5391 231.809 79.4702H235.811V79.0781C235.811 77.3809 234.838 76.2422 233.254 76.2422C231.669 76.2422 230.649 77.4238 230.649 79.1909V79.1963C230.649 80.9795 231.653 82.1128 233.313 82.1128ZM233.259 77.1929C234.017 77.1929 234.564 77.6709 234.661 78.6484H231.825C231.927 77.7031 232.507 77.1929 233.259 77.1929ZM239.125 82.1128C240.494 82.1128 241.364 81.2964 241.547 80.3994L241.558 80.3403H240.457L240.44 80.3833C240.295 80.8076 239.839 81.1621 239.151 81.1621C238.228 81.1621 237.642 80.5391 237.621 79.4702H241.622V79.0781C241.622 77.3809 240.65 76.2422 239.065 76.2422C237.481 76.2422 236.46 77.4238 236.46 79.1909V79.1963C236.46 80.9795 237.465 82.1128 239.125 82.1128ZM239.071 77.1929C239.828 77.1929 240.376 77.6709 240.473 78.6484H237.637C237.739 77.7031 238.319 77.1929 239.071 77.1929ZM244.506 82.1128C244.743 82.1128 244.963 82.0859 245.097 82.0645V81.1675C245.011 81.1782 244.909 81.189 244.786 81.189C244.297 81.189 244.039 81.0171 244.039 80.4424V77.2734H245.097V76.3496H244.039V74.8779H242.852V76.3496H242.041V77.2734H242.852V80.5122C242.852 81.6401 243.389 82.1128 244.506 82.1128ZM246.687 75.4795C247.068 75.4795 247.364 75.1787 247.364 74.8135C247.364 74.4429 247.068 74.1421 246.687 74.1421C246.311 74.1421 246.01 74.4429 246.01 74.8135C246.01 75.1787 246.311 75.4795 246.687 75.4795ZM246.107 82H247.267V76.3496H246.107V82ZM248.465 82H249.625V78.7075C249.625 77.8267 250.151 77.2358 250.968 77.2358C251.773 77.2358 252.171 77.7139 252.171 78.5625V82H253.336V78.3423C253.336 77.0425 252.622 76.2422 251.381 76.2422C250.527 76.2422 249.947 76.6289 249.652 77.2036H249.625V76.3496H248.465V82ZM256.935 83.9927C258.53 83.9927 259.529 83.1333 259.529 81.8442V76.3496H258.364V77.311H258.337C258.004 76.6719 257.381 76.2422 256.586 76.2422C255.152 76.2422 254.207 77.354 254.207 79.1265V79.1318C254.207 80.8936 255.141 82.0054 256.559 82.0054C257.37 82.0054 258.015 81.6133 258.337 81.001H258.364V81.7744C258.364 82.564 257.854 83.0581 256.93 83.0581C256.205 83.0581 255.716 82.811 255.56 82.4512L255.539 82.4082H254.389L254.395 82.4565C254.566 83.3213 255.485 83.9927 256.935 83.9927ZM256.887 81.0601C255.968 81.0601 255.394 80.3296 255.394 79.1479V79.1426C255.394 77.9771 255.968 77.2358 256.887 77.2358C257.768 77.2358 258.364 77.9824 258.364 79.1426V79.1479C258.364 80.3135 257.773 81.0601 256.887 81.0601ZM262.661 82.1128C262.897 82.1128 263.117 82.0859 263.251 82.0645V81.1675C263.166 81.1782 263.063 81.189 262.94 81.189C262.451 81.189 262.193 81.0171 262.193 80.4424V77.2734H263.251V76.3496H262.193V74.8779H261.006V76.3496H260.195V77.2734H261.006V80.5122C261.006 81.6401 261.543 82.1128 262.661 82.1128ZM264.841 75.4795C265.223 75.4795 265.518 75.1787 265.518 74.8135C265.518 74.4429 265.223 74.1421 264.841 74.1421C264.465 74.1421 264.165 74.4429 264.165 74.8135C264.165 75.1787 264.465 75.4795 264.841 75.4795ZM264.261 82H265.421V76.3496H264.261V82ZM266.619 82H267.779V78.5088C267.779 77.7783 268.268 77.2358 268.956 77.2358C269.611 77.2358 270.024 77.6548 270.024 78.3101V82H271.163V78.4658C271.163 77.7515 271.641 77.2358 272.329 77.2358C273.016 77.2358 273.408 77.6602 273.408 78.396V82H274.574V78.1167C274.574 76.9834 273.843 76.2422 272.726 76.2422C271.92 76.2422 271.254 76.6665 270.964 77.354H270.938C270.712 76.645 270.143 76.2422 269.364 76.2422C268.623 76.2422 268.048 76.6343 267.806 77.2251H267.779V76.3496H266.619V82ZM278.108 82.1128C279.478 82.1128 280.348 81.2964 280.53 80.3994L280.541 80.3403H279.44L279.424 80.3833C279.279 80.8076 278.822 81.1621 278.135 81.1621C277.211 81.1621 276.625 80.5391 276.604 79.4702H280.605V79.0781C280.605 77.3809 279.633 76.2422 278.049 76.2422C276.464 76.2422 275.444 77.4238 275.444 79.1909V79.1963C275.444 80.9795 276.448 82.1128 278.108 82.1128ZM278.054 77.1929C278.812 77.1929 279.359 77.6709 279.456 78.6484H276.62C276.722 77.7031 277.302 77.1929 278.054 77.1929Z" fill="#9385A2"/>
<g filter="url(#filter1_d_1022_35052)">
<rect x="235" y="92" width="32" height="4" rx="2" fill="white"/>
</g>
<g filter="url(#filter2_d_1022_35052)">
<rect x="235" y="61" width="32" height="4" rx="2" fill="white"/>
</g>
<g filter="url(#filter3_d_1022_35052)">
<path d="M259 86.41L262.59 90H260V96H262.59L259 99.59L255.41 96H258V90H255.41L259 86.41ZM259 85L253 91H257V95H253L259 101L265 95H261V91H265L259 85Z" fill="white"/>
<path d="M260 92.5002V89.9802H262.59L259 86.4102L255.41 89.9802H258V92.5002V96.0002H255.41L259 99.5902L262.59 96.0002H260V92.5002Z" fill="black"/>
</g>
<rect x="471" y="63" width="1" height="597" fill="#E5E5EB"/>
<rect x="325" y="112" width="146" height="1" fill="#E5E5EB"/>
<rect x="325" y="161" width="146" height="1" fill="#E5E5EB"/>
<rect x="325" y="210" width="146" height="1" fill="#E5E5EB"/>
<rect x="325" y="259" width="146" height="1" fill="#E5E5EB"/>
<rect x="325" y="63" width="146" height="1" fill="#E5E5EB"/>
<rect opacity="0.6" x="329" y="113" width="138" height="171" rx="6" fill="#82BDFF"/>
<path d="M373.954 202H375.157V198.756H378.487V197.741H375.157V195.286H378.793V194.25H373.954V202ZM381.935 202.113C383.552 202.113 384.615 200.996 384.615 199.175V199.164C384.615 197.354 383.541 196.242 381.93 196.242C380.324 196.242 379.255 197.359 379.255 199.164V199.175C379.255 200.99 380.313 202.113 381.935 202.113ZM381.94 201.141C381.033 201.141 380.442 200.426 380.442 199.175V199.164C380.442 197.929 381.038 197.214 381.93 197.214C382.837 197.214 383.428 197.929 383.428 199.164V199.175C383.428 200.421 382.848 201.141 381.94 201.141ZM387.94 202.113C389.299 202.113 390.244 201.243 390.368 200.109L390.373 200.072H389.256L389.25 200.115C389.111 200.727 388.654 201.141 387.94 201.141C387.043 201.141 386.447 200.416 386.447 199.18V199.175C386.447 197.966 387.032 197.214 387.935 197.214C388.692 197.214 389.122 197.682 389.245 198.235L389.256 198.278H390.362L390.357 198.24C390.26 197.177 389.379 196.242 387.924 196.242C386.312 196.242 385.26 197.375 385.26 199.164V199.169C385.26 200.979 386.291 202.113 387.94 202.113ZM393.118 202.113C393.977 202.113 394.552 201.721 394.847 201.151H394.874V202H396.04V196.35H394.874V199.647C394.874 200.528 394.348 201.114 393.531 201.114C392.726 201.114 392.328 200.641 392.328 199.787V196.35H391.168V200.013C391.168 201.312 391.877 202.113 393.118 202.113ZM399.305 202.113C400.637 202.113 401.604 201.404 401.604 200.373V200.367C401.604 199.556 401.164 199.1 400.009 198.831L399.09 198.622C398.483 198.477 398.252 198.24 398.252 197.891V197.886C398.252 197.435 398.645 197.139 399.268 197.139C399.923 197.139 400.31 197.483 400.379 197.977L400.385 198.015H401.475L401.47 197.95C401.411 196.989 400.605 196.242 399.268 196.242C397.968 196.242 397.087 196.935 397.087 197.945V197.95C397.087 198.772 397.619 199.288 398.693 199.535L399.617 199.744C400.224 199.889 400.428 200.099 400.428 200.464V200.469C400.428 200.926 400.009 201.216 399.311 201.216C398.596 201.216 398.209 200.91 398.102 200.389L398.091 200.335H396.942L396.947 200.383C397.065 201.415 397.893 202.113 399.305 202.113ZM404.488 202.113C404.725 202.113 404.945 202.086 405.079 202.064V201.167C404.993 201.178 404.891 201.189 404.768 201.189C404.279 201.189 404.021 201.017 404.021 200.442V197.273H405.079V196.35H404.021V194.878H402.834V196.35H402.023V197.273H402.834V200.512C402.834 201.64 403.371 202.113 404.488 202.113ZM406.669 195.479C407.05 195.479 407.346 195.179 407.346 194.813C407.346 194.443 407.05 194.142 406.669 194.142C406.293 194.142 405.992 194.443 405.992 194.813C405.992 195.179 406.293 195.479 406.669 195.479ZM406.089 202H407.249V196.35H406.089V202ZM408.447 202H409.607V198.509C409.607 197.778 410.096 197.236 410.783 197.236C411.438 197.236 411.852 197.655 411.852 198.31V202H412.991V198.466C412.991 197.751 413.469 197.236 414.156 197.236C414.844 197.236 415.236 197.66 415.236 198.396V202H416.401V198.117C416.401 196.983 415.671 196.242 414.554 196.242C413.748 196.242 413.082 196.667 412.792 197.354H412.765C412.54 196.645 411.97 196.242 411.191 196.242C410.45 196.242 409.875 196.634 409.634 197.225H409.607V196.35H408.447V202ZM419.936 202.113C421.305 202.113 422.175 201.296 422.358 200.399L422.369 200.34H421.268L421.251 200.383C421.106 200.808 420.65 201.162 419.962 201.162C419.039 201.162 418.453 200.539 418.432 199.47H422.433V199.078C422.433 197.381 421.461 196.242 419.876 196.242C418.292 196.242 417.271 197.424 417.271 199.191V199.196C417.271 200.979 418.276 202.113 419.936 202.113ZM419.882 197.193C420.639 197.193 421.187 197.671 421.284 198.648H418.448C418.55 197.703 419.13 197.193 419.882 197.193Z" fill="#5A7EA6"/>
<rect opacity="0.6" x="329" y="63" width="138" height="48" rx="6" fill="#E6BEF9"/>
<path d="M368.781 91H369.877V85.2798H369.915L372.251 91H373.143L375.479 85.2798H375.517V91H376.612V83.2495H375.227L372.713 89.437H372.681L370.172 83.2495H368.781V91ZM380.313 91.1128C381.683 91.1128 382.553 90.2964 382.735 89.3994L382.746 89.3403H381.645L381.629 89.3833C381.484 89.8076 381.027 90.1621 380.34 90.1621C379.416 90.1621 378.831 89.5391 378.809 88.4702H382.811V88.0781C382.811 86.3809 381.838 85.2422 380.254 85.2422C378.669 85.2422 377.649 86.4238 377.649 88.1909V88.1963C377.649 89.9795 378.653 91.1128 380.313 91.1128ZM380.259 86.1929C381.017 86.1929 381.564 86.6709 381.661 87.6484H378.825C378.927 86.7031 379.507 86.1929 380.259 86.1929ZM386.125 91.1128C387.494 91.1128 388.364 90.2964 388.547 89.3994L388.558 89.3403H387.457L387.44 89.3833C387.295 89.8076 386.839 90.1621 386.151 90.1621C385.228 90.1621 384.642 89.5391 384.621 88.4702H388.622V88.0781C388.622 86.3809 387.65 85.2422 386.065 85.2422C384.481 85.2422 383.46 86.4238 383.46 88.1909V88.1963C383.46 89.9795 384.465 91.1128 386.125 91.1128ZM386.071 86.1929C386.828 86.1929 387.376 86.6709 387.473 87.6484H384.637C384.739 86.7031 385.319 86.1929 386.071 86.1929ZM391.506 91.1128C391.743 91.1128 391.963 91.0859 392.097 91.0645V90.1675C392.011 90.1782 391.909 90.189 391.786 90.189C391.297 90.189 391.039 90.0171 391.039 89.4424V86.2734H392.097V85.3496H391.039V83.8779H389.852V85.3496H389.041V86.2734H389.852V89.5122C389.852 90.6401 390.389 91.1128 391.506 91.1128ZM393.687 84.4795C394.068 84.4795 394.364 84.1787 394.364 83.8135C394.364 83.4429 394.068 83.1421 393.687 83.1421C393.311 83.1421 393.01 83.4429 393.01 83.8135C393.01 84.1787 393.311 84.4795 393.687 84.4795ZM393.107 91H394.267V85.3496H393.107V91ZM395.465 91H396.625V87.7075C396.625 86.8267 397.151 86.2358 397.968 86.2358C398.773 86.2358 399.171 86.7139 399.171 87.5625V91H400.336V87.3423C400.336 86.0425 399.622 85.2422 398.381 85.2422C397.527 85.2422 396.947 85.6289 396.652 86.2036H396.625V85.3496H395.465V91ZM403.935 92.9927C405.53 92.9927 406.529 92.1333 406.529 90.8442V85.3496H405.364V86.311H405.337C405.004 85.6719 404.381 85.2422 403.586 85.2422C402.152 85.2422 401.207 86.354 401.207 88.1265V88.1318C401.207 89.8936 402.141 91.0054 403.559 91.0054C404.37 91.0054 405.015 90.6133 405.337 90.001H405.364V90.7744C405.364 91.564 404.854 92.0581 403.93 92.0581C403.205 92.0581 402.716 91.811 402.56 91.4512L402.539 91.4082H401.389L401.395 91.4565C401.566 92.3213 402.485 92.9927 403.935 92.9927ZM403.887 90.0601C402.968 90.0601 402.394 89.3296 402.394 88.1479V88.1426C402.394 86.9771 402.968 86.2358 403.887 86.2358C404.768 86.2358 405.364 86.9824 405.364 88.1426V88.1479C405.364 89.3135 404.773 90.0601 403.887 90.0601ZM409.661 91.1128C409.897 91.1128 410.117 91.0859 410.251 91.0645V90.1675C410.166 90.1782 410.063 90.189 409.94 90.189C409.451 90.189 409.193 90.0171 409.193 89.4424V86.2734H410.251V85.3496H409.193V83.8779H408.006V85.3496H407.195V86.2734H408.006V89.5122C408.006 90.6401 408.543 91.1128 409.661 91.1128ZM411.841 84.4795C412.223 84.4795 412.518 84.1787 412.518 83.8135C412.518 83.4429 412.223 83.1421 411.841 83.1421C411.465 83.1421 411.165 83.4429 411.165 83.8135C411.165 84.1787 411.465 84.4795 411.841 84.4795ZM411.261 91H412.421V85.3496H411.261V91ZM413.619 91H414.779V87.5088C414.779 86.7783 415.268 86.2358 415.956 86.2358C416.611 86.2358 417.024 86.6548 417.024 87.3101V91H418.163V87.4658C418.163 86.7515 418.641 86.2358 419.329 86.2358C420.016 86.2358 420.408 86.6602 420.408 87.396V91H421.574V87.1167C421.574 85.9834 420.843 85.2422 419.726 85.2422C418.92 85.2422 418.254 85.6665 417.964 86.354H417.938C417.712 85.645 417.143 85.2422 416.364 85.2422C415.623 85.2422 415.048 85.6343 414.806 86.2251H414.779V85.3496H413.619V91ZM425.108 91.1128C426.478 91.1128 427.348 90.2964 427.53 89.3994L427.541 89.3403H426.44L426.424 89.3833C426.279 89.8076 425.822 90.1621 425.135 90.1621C424.211 90.1621 423.625 89.5391 423.604 88.4702H427.605V88.0781C427.605 86.3809 426.633 85.2422 425.049 85.2422C423.464 85.2422 422.444 86.4238 422.444 88.1909V88.1963C422.444 89.9795 423.448 91.1128 425.108 91.1128ZM425.054 86.1929C425.812 86.1929 426.359 86.6709 426.456 87.6484H423.62C423.722 86.7031 424.302 86.1929 425.054 86.1929Z" fill="#9385A2"/>
<rect x="618" y="63" width="1" height="597" fill="#E5E5EB"/>
<rect x="472" y="112" width="146" height="1" fill="#E5E5EB"/>
<rect x="472" y="161" width="146" height="1" fill="#E5E5EB"/>
<rect x="472" y="210" width="146" height="1" fill="#E5E5EB"/>
<rect x="472" y="259" width="146" height="1" fill="#E5E5EB"/>
<rect x="472" y="63" width="146" height="1" fill="#E5E5EB"/>
<rect opacity="0.6" x="476" y="113" width="138" height="171" rx="6" fill="#82BDFF"/>
<path d="M520.954 202H522.157V198.756H525.487V197.741H522.157V195.286H525.793V194.25H520.954V202ZM528.935 202.113C530.552 202.113 531.615 200.996 531.615 199.175V199.164C531.615 197.354 530.541 196.242 528.93 196.242C527.324 196.242 526.255 197.359 526.255 199.164V199.175C526.255 200.99 527.313 202.113 528.935 202.113ZM528.94 201.141C528.033 201.141 527.442 200.426 527.442 199.175V199.164C527.442 197.929 528.038 197.214 528.93 197.214C529.837 197.214 530.428 197.929 530.428 199.164V199.175C530.428 200.421 529.848 201.141 528.94 201.141ZM534.94 202.113C536.299 202.113 537.244 201.243 537.368 200.109L537.373 200.072H536.256L536.25 200.115C536.111 200.727 535.654 201.141 534.94 201.141C534.043 201.141 533.447 200.416 533.447 199.18V199.175C533.447 197.966 534.032 197.214 534.935 197.214C535.692 197.214 536.122 197.682 536.245 198.235L536.256 198.278H537.362L537.357 198.24C537.26 197.177 536.379 196.242 534.924 196.242C533.312 196.242 532.26 197.375 532.26 199.164V199.169C532.26 200.979 533.291 202.113 534.94 202.113ZM540.118 202.113C540.977 202.113 541.552 201.721 541.847 201.151H541.874V202H543.04V196.35H541.874V199.647C541.874 200.528 541.348 201.114 540.531 201.114C539.726 201.114 539.328 200.641 539.328 199.787V196.35H538.168V200.013C538.168 201.312 538.877 202.113 540.118 202.113ZM546.305 202.113C547.637 202.113 548.604 201.404 548.604 200.373V200.367C548.604 199.556 548.164 199.1 547.009 198.831L546.09 198.622C545.483 198.477 545.252 198.24 545.252 197.891V197.886C545.252 197.435 545.645 197.139 546.268 197.139C546.923 197.139 547.31 197.483 547.379 197.977L547.385 198.015H548.475L548.47 197.95C548.411 196.989 547.605 196.242 546.268 196.242C544.968 196.242 544.087 196.935 544.087 197.945V197.95C544.087 198.772 544.619 199.288 545.693 199.535L546.617 199.744C547.224 199.889 547.428 200.099 547.428 200.464V200.469C547.428 200.926 547.009 201.216 546.311 201.216C545.596 201.216 545.209 200.91 545.102 200.389L545.091 200.335H543.942L543.947 200.383C544.065 201.415 544.893 202.113 546.305 202.113ZM551.488 202.113C551.725 202.113 551.945 202.086 552.079 202.064V201.167C551.993 201.178 551.891 201.189 551.768 201.189C551.279 201.189 551.021 201.017 551.021 200.442V197.273H552.079V196.35H551.021V194.878H549.834V196.35H549.023V197.273H549.834V200.512C549.834 201.64 550.371 202.113 551.488 202.113ZM553.669 195.479C554.05 195.479 554.346 195.179 554.346 194.813C554.346 194.443 554.05 194.142 553.669 194.142C553.293 194.142 552.992 194.443 552.992 194.813C552.992 195.179 553.293 195.479 553.669 195.479ZM553.089 202H554.249V196.35H553.089V202ZM555.447 202H556.607V198.509C556.607 197.778 557.096 197.236 557.783 197.236C558.438 197.236 558.852 197.655 558.852 198.31V202H559.991V198.466C559.991 197.751 560.469 197.236 561.156 197.236C561.844 197.236 562.236 197.66 562.236 198.396V202H563.401V198.117C563.401 196.983 562.671 196.242 561.554 196.242C560.748 196.242 560.082 196.667 559.792 197.354H559.765C559.54 196.645 558.97 196.242 558.191 196.242C557.45 196.242 556.875 196.634 556.634 197.225H556.607V196.35H555.447V202ZM566.936 202.113C568.305 202.113 569.175 201.296 569.358 200.399L569.369 200.34H568.268L568.251 200.383C568.106 200.808 567.65 201.162 566.962 201.162C566.039 201.162 565.453 200.539 565.432 199.47H569.433V199.078C569.433 197.381 568.461 196.242 566.876 196.242C565.292 196.242 564.271 197.424 564.271 199.191V199.196C564.271 200.979 565.276 202.113 566.936 202.113ZM566.882 197.193C567.639 197.193 568.187 197.671 568.284 198.648H565.448C565.55 197.703 566.13 197.193 566.882 197.193Z" fill="#5A7EA6"/>
<rect opacity="0.6" x="476" y="63" width="138" height="48" rx="6" fill="#E6BEF9"/>
<path d="M515.781 91H516.877V85.2798H516.915L519.251 91H520.143L522.479 85.2798H522.517V91H523.612V83.2495H522.227L519.713 89.437H519.681L517.172 83.2495H515.781V91ZM527.313 91.1128C528.683 91.1128 529.553 90.2964 529.735 89.3994L529.746 89.3403H528.645L528.629 89.3833C528.484 89.8076 528.027 90.1621 527.34 90.1621C526.416 90.1621 525.831 89.5391 525.809 88.4702H529.811V88.0781C529.811 86.3809 528.838 85.2422 527.254 85.2422C525.669 85.2422 524.649 86.4238 524.649 88.1909V88.1963C524.649 89.9795 525.653 91.1128 527.313 91.1128ZM527.259 86.1929C528.017 86.1929 528.564 86.6709 528.661 87.6484H525.825C525.927 86.7031 526.507 86.1929 527.259 86.1929ZM533.125 91.1128C534.494 91.1128 535.364 90.2964 535.547 89.3994L535.558 89.3403H534.457L534.44 89.3833C534.295 89.8076 533.839 90.1621 533.151 90.1621C532.228 90.1621 531.642 89.5391 531.621 88.4702H535.622V88.0781C535.622 86.3809 534.65 85.2422 533.065 85.2422C531.481 85.2422 530.46 86.4238 530.46 88.1909V88.1963C530.46 89.9795 531.465 91.1128 533.125 91.1128ZM533.071 86.1929C533.828 86.1929 534.376 86.6709 534.473 87.6484H531.637C531.739 86.7031 532.319 86.1929 533.071 86.1929ZM538.506 91.1128C538.743 91.1128 538.963 91.0859 539.097 91.0645V90.1675C539.011 90.1782 538.909 90.189 538.786 90.189C538.297 90.189 538.039 90.0171 538.039 89.4424V86.2734H539.097V85.3496H538.039V83.8779H536.852V85.3496H536.041V86.2734H536.852V89.5122C536.852 90.6401 537.389 91.1128 538.506 91.1128ZM540.687 84.4795C541.068 84.4795 541.364 84.1787 541.364 83.8135C541.364 83.4429 541.068 83.1421 540.687 83.1421C540.311 83.1421 540.01 83.4429 540.01 83.8135C540.01 84.1787 540.311 84.4795 540.687 84.4795ZM540.107 91H541.267V85.3496H540.107V91ZM542.465 91H543.625V87.7075C543.625 86.8267 544.151 86.2358 544.968 86.2358C545.773 86.2358 546.171 86.7139 546.171 87.5625V91H547.336V87.3423C547.336 86.0425 546.622 85.2422 545.381 85.2422C544.527 85.2422 543.947 85.6289 543.652 86.2036H543.625V85.3496H542.465V91ZM550.935 92.9927C552.53 92.9927 553.529 92.1333 553.529 90.8442V85.3496H552.364V86.311H552.337C552.004 85.6719 551.381 85.2422 550.586 85.2422C549.152 85.2422 548.207 86.354 548.207 88.1265V88.1318C548.207 89.8936 549.141 91.0054 550.559 91.0054C551.37 91.0054 552.015 90.6133 552.337 90.001H552.364V90.7744C552.364 91.564 551.854 92.0581 550.93 92.0581C550.205 92.0581 549.716 91.811 549.56 91.4512L549.539 91.4082H548.389L548.395 91.4565C548.566 92.3213 549.485 92.9927 550.935 92.9927ZM550.887 90.0601C549.968 90.0601 549.394 89.3296 549.394 88.1479V88.1426C549.394 86.9771 549.968 86.2358 550.887 86.2358C551.768 86.2358 552.364 86.9824 552.364 88.1426V88.1479C552.364 89.3135 551.773 90.0601 550.887 90.0601ZM556.661 91.1128C556.897 91.1128 557.117 91.0859 557.251 91.0645V90.1675C557.166 90.1782 557.063 90.189 556.94 90.189C556.451 90.189 556.193 90.0171 556.193 89.4424V86.2734H557.251V85.3496H556.193V83.8779H555.006V85.3496H554.195V86.2734H555.006V89.5122C555.006 90.6401 555.543 91.1128 556.661 91.1128ZM558.841 84.4795C559.223 84.4795 559.518 84.1787 559.518 83.8135C559.518 83.4429 559.223 83.1421 558.841 83.1421C558.465 83.1421 558.165 83.4429 558.165 83.8135C558.165 84.1787 558.465 84.4795 558.841 84.4795ZM558.261 91H559.421V85.3496H558.261V91ZM560.619 91H561.779V87.5088C561.779 86.7783 562.268 86.2358 562.956 86.2358C563.611 86.2358 564.024 86.6548 564.024 87.3101V91H565.163V87.4658C565.163 86.7515 565.641 86.2358 566.329 86.2358C567.016 86.2358 567.408 86.6602 567.408 87.396V91H568.574V87.1167C568.574 85.9834 567.843 85.2422 566.726 85.2422C565.92 85.2422 565.254 85.6665 564.964 86.354H564.938C564.712 85.645 564.143 85.2422 563.364 85.2422C562.623 85.2422 562.048 85.6343 561.806 86.2251H561.779V85.3496H560.619V91ZM572.108 91.1128C573.478 91.1128 574.348 90.2964 574.53 89.3994L574.541 89.3403H573.44L573.424 89.3833C573.279 89.8076 572.822 90.1621 572.135 90.1621C571.211 90.1621 570.625 89.5391 570.604 88.4702H574.605V88.0781C574.605 86.3809 573.633 85.2422 572.049 85.2422C570.464 85.2422 569.444 86.4238 569.444 88.1909V88.1963C569.444 89.9795 570.448 91.1128 572.108 91.1128ZM572.054 86.1929C572.812 86.1929 573.359 86.6709 573.456 87.6484H570.62C570.722 86.7031 571.302 86.1929 572.054 86.1929Z" fill="#9385A2"/>
<rect x="619" y="112" width="146" height="1" fill="#E5E5EB"/>
<rect x="619" y="161" width="146" height="1" fill="#E5E5EB"/>
<rect x="619" y="210" width="146" height="1" fill="#E5E5EB"/>
<rect x="619" y="259" width="146" height="1" fill="#E5E5EB"/>
<rect x="619" y="63" width="146" height="1" fill="#E5E5EB"/>
<rect opacity="0.6" x="623" y="113" width="138" height="171" rx="6" fill="#82BDFF"/>
<rect opacity="0.6" x="623" y="63" width="138" height="48" rx="6" fill="#E6BEF9"/>
<path d="M662.781 91H663.877V85.2798H663.915L666.251 91H667.143L669.479 85.2798H669.517V91H670.612V83.2495H669.227L666.713 89.437H666.681L664.172 83.2495H662.781V91ZM674.313 91.1128C675.683 91.1128 676.553 90.2964 676.735 89.3994L676.746 89.3403H675.645L675.629 89.3833C675.484 89.8076 675.027 90.1621 674.34 90.1621C673.416 90.1621 672.831 89.5391 672.809 88.4702H676.811V88.0781C676.811 86.3809 675.838 85.2422 674.254 85.2422C672.669 85.2422 671.649 86.4238 671.649 88.1909V88.1963C671.649 89.9795 672.653 91.1128 674.313 91.1128ZM674.259 86.1929C675.017 86.1929 675.564 86.6709 675.661 87.6484H672.825C672.927 86.7031 673.507 86.1929 674.259 86.1929ZM680.125 91.1128C681.494 91.1128 682.364 90.2964 682.547 89.3994L682.558 89.3403H681.457L681.44 89.3833C681.295 89.8076 680.839 90.1621 680.151 90.1621C679.228 90.1621 678.642 89.5391 678.621 88.4702H682.622V88.0781C682.622 86.3809 681.65 85.2422 680.065 85.2422C678.481 85.2422 677.46 86.4238 677.46 88.1909V88.1963C677.46 89.9795 678.465 91.1128 680.125 91.1128ZM680.071 86.1929C680.828 86.1929 681.376 86.6709 681.473 87.6484H678.637C678.739 86.7031 679.319 86.1929 680.071 86.1929ZM685.506 91.1128C685.743 91.1128 685.963 91.0859 686.097 91.0645V90.1675C686.011 90.1782 685.909 90.189 685.786 90.189C685.297 90.189 685.039 90.0171 685.039 89.4424V86.2734H686.097V85.3496H685.039V83.8779H683.852V85.3496H683.041V86.2734H683.852V89.5122C683.852 90.6401 684.389 91.1128 685.506 91.1128ZM687.687 84.4795C688.068 84.4795 688.364 84.1787 688.364 83.8135C688.364 83.4429 688.068 83.1421 687.687 83.1421C687.311 83.1421 687.01 83.4429 687.01 83.8135C687.01 84.1787 687.311 84.4795 687.687 84.4795ZM687.107 91H688.267V85.3496H687.107V91ZM689.465 91H690.625V87.7075C690.625 86.8267 691.151 86.2358 691.968 86.2358C692.773 86.2358 693.171 86.7139 693.171 87.5625V91H694.336V87.3423C694.336 86.0425 693.622 85.2422 692.381 85.2422C691.527 85.2422 690.947 85.6289 690.652 86.2036H690.625V85.3496H689.465V91ZM697.935 92.9927C699.53 92.9927 700.529 92.1333 700.529 90.8442V85.3496H699.364V86.311H699.337C699.004 85.6719 698.381 85.2422 697.586 85.2422C696.152 85.2422 695.207 86.354 695.207 88.1265V88.1318C695.207 89.8936 696.141 91.0054 697.559 91.0054C698.37 91.0054 699.015 90.6133 699.337 90.001H699.364V90.7744C699.364 91.564 698.854 92.0581 697.93 92.0581C697.205 92.0581 696.716 91.811 696.56 91.4512L696.539 91.4082H695.389L695.395 91.4565C695.566 92.3213 696.485 92.9927 697.935 92.9927ZM697.887 90.0601C696.968 90.0601 696.394 89.3296 696.394 88.1479V88.1426C696.394 86.9771 696.968 86.2358 697.887 86.2358C698.768 86.2358 699.364 86.9824 699.364 88.1426V88.1479C699.364 89.3135 698.773 90.0601 697.887 90.0601ZM703.661 91.1128C703.897 91.1128 704.117 91.0859 704.251 91.0645V90.1675C704.166 90.1782 704.063 90.189 703.94 90.189C703.451 90.189 703.193 90.0171 703.193 89.4424V86.2734H704.251V85.3496H703.193V83.8779H702.006V85.3496H701.195V86.2734H702.006V89.5122C702.006 90.6401 702.543 91.1128 703.661 91.1128ZM705.841 84.4795C706.223 84.4795 706.518 84.1787 706.518 83.8135C706.518 83.4429 706.223 83.1421 705.841 83.1421C705.465 83.1421 705.165 83.4429 705.165 83.8135C705.165 84.1787 705.465 84.4795 705.841 84.4795ZM705.261 91H706.421V85.3496H705.261V91ZM707.619 91H708.779V87.5088C708.779 86.7783 709.268 86.2358 709.956 86.2358C710.611 86.2358 711.024 86.6548 711.024 87.3101V91H712.163V87.4658C712.163 86.7515 712.641 86.2358 713.329 86.2358C714.016 86.2358 714.408 86.6602 714.408 87.396V91H715.574V87.1167C715.574 85.9834 714.843 85.2422 713.726 85.2422C712.92 85.2422 712.254 85.6665 711.964 86.354H711.938C711.712 85.645 711.143 85.2422 710.364 85.2422C709.623 85.2422 709.048 85.6343 708.806 86.2251H708.779V85.3496H707.619V91ZM719.108 91.1128C720.478 91.1128 721.348 90.2964 721.53 89.3994L721.541 89.3403H720.44L720.424 89.3833C720.279 89.8076 719.822 90.1621 719.135 90.1621C718.211 90.1621 717.625 89.5391 717.604 88.4702H721.605V88.0781C721.605 86.3809 720.633 85.2422 719.049 85.2422C717.464 85.2422 716.444 86.4238 716.444 88.1909V88.1963C716.444 89.9795 717.448 91.1128 719.108 91.1128ZM719.054 86.1929C719.812 86.1929 720.359 86.6709 720.456 87.6484H717.62C717.722 86.7031 718.302 86.1929 719.054 86.1929Z" fill="#9385A2"/>
</g>
</g>
<defs>
<filter id="filter0_dd_1022_35052" x="0" y="0" width="797" height="457" filterUnits="userSpaceOnUse" color-interpolation-filters="sRGB">
<feFlood flood-opacity="0" result="BackgroundImageFix"/>
<feColorMatrix in="SourceAlpha" type="matrix" values="0 0 0 0 0 0 0 0 0 0 0 0 0 0 0 0 0 0 127 0" result="hardAlpha"/>
<feOffset dy="2"/>
<feGaussianBlur stdDeviation="4"/>
<feColorMatrix type="matrix" values="0 0 0 0 0 0 0 0 0 0 0 0 0 0 0 0 0 0 0.2 0"/>
<feBlend mode="normal" in2="BackgroundImageFix" result="effect1_dropShadow_1022_35052"/>
<feColorMatrix in="SourceAlpha" type="matrix" values="0 0 0 0 0 0 0 0 0 0 0 0 0 0 0 0 0 0 127 0" result="hardAlpha"/>
<feMorphology radius="1" operator="dilate" in="SourceAlpha" result="effect2_dropShadow_1022_35052"/>
<feOffset dy="20"/>
<feGaussianBlur stdDeviation="15"/>
<feColorMatrix type="matrix" values="0 0 0 0 0 0 0 0 0 0 0 0 0 0 0 0 0 0 0.1 0"/>
<feBlend mode="normal" in2="effect1_dropShadow_1022_35052" result="effect2_dropShadow_1022_35052"/>
<feBlend mode="normal" in="SourceGraphic" in2="effect2_dropShadow_1022_35052" result="shape"/>
</filter>
<filter id="filter1_d_1022_35052" x="233.5" y="91" width="35" height="7" filterUnits="userSpaceOnUse" color-interpolation-filters="sRGB">
<feFlood flood-opacity="0" result="BackgroundImageFix"/>
<feColorMatrix in="SourceAlpha" type="matrix" values="0 0 0 0 0 0 0 0 0 0 0 0 0 0 0 0 0 0 127 0" result="hardAlpha"/>
<feMorphology radius="0.5" operator="dilate" in="SourceAlpha" result="effect1_dropShadow_1022_35052"/>
<feOffset dy="0.5"/>
<feGaussianBlur stdDeviation="0.5"/>
<feColorMatrix type="matrix" values="0 0 0 0 0 0 0 0 0 0 0 0 0 0 0 0 0 0 0.1 0"/>
<feBlend mode="normal" in2="BackgroundImageFix" result="effect1_dropShadow_1022_35052"/>
<feBlend mode="normal" in="SourceGraphic" in2="effect1_dropShadow_1022_35052" result="shape"/>
</filter>
<filter id="filter2_d_1022_35052" x="233.5" y="60" width="35" height="7" filterUnits="userSpaceOnUse" color-interpolation-filters="sRGB">
<feFlood flood-opacity="0" result="BackgroundImageFix"/>
<feColorMatrix in="SourceAlpha" type="matrix" values="0 0 0 0 0 0 0 0 0 0 0 0 0 0 0 0 0 0 127 0" result="hardAlpha"/>
<feMorphology radius="0.5" operator="dilate" in="SourceAlpha" result="effect1_dropShadow_1022_35052"/>
<feOffset dy="0.5"/>
<feGaussianBlur stdDeviation="0.5"/>
<feColorMatrix type="matrix" values="0 0 0 0 0 0 0 0 0 0 0 0 0 0 0 0 0 0 0.1 0"/>
<feBlend mode="normal" in2="BackgroundImageFix" result="effect1_dropShadow_1022_35052"/>
<feBlend mode="normal" in="SourceGraphic" in2="effect1_dropShadow_1022_35052" result="shape"/>
</filter>
<filter id="filter3_d_1022_35052" x="251.2" y="84.2" width="15.6" height="19.6" filterUnits="userSpaceOnUse" color-interpolation-filters="sRGB">
<feFlood flood-opacity="0" result="BackgroundImageFix"/>
<feColorMatrix in="SourceAlpha" type="matrix" values="0 0 0 0 0 0 0 0 0 0 0 0 0 0 0 0 0 0 127 0" result="hardAlpha"/>
<feOffset dy="1"/>
<feGaussianBlur stdDeviation="0.9"/>
<feColorMatrix type="matrix" values="0 0 0 0 0 0 0 0 0 0 0 0 0 0 0 0 0 0 0.65 0"/>
<feBlend mode="normal" in2="BackgroundImageFix" result="effect1_dropShadow_1022_35052"/>
<feBlend mode="normal" in="SourceGraphic" in2="effect1_dropShadow_1022_35052" result="shape"/>
</filter>
<clipPath id="clip0_1022_35052">
<rect x="31" y="11" width="735" height="395" rx="6" fill="white"/>
</clipPath>
</defs>
</svg>
