<svg width="48" height="48" viewBox="0 0 48 48" fill="none" xmlns="http://www.w3.org/2000/svg">
<rect width="48" height="48" rx="6" fill="url(#paint0_radial_893_24010)"/>
<path d="M23.668 36.7832C30.752 36.7832 36.6172 30.9053 36.6172 23.834C36.6172 16.75 30.7393 10.8848 23.6553 10.8848C16.584 10.8848 10.7188 16.75 10.7188 23.834C10.7188 30.9053 16.5967 36.7832 23.668 36.7832ZM23.668 34.625C17.6758 34.625 12.8896 29.8262 12.8896 23.834C12.8896 17.8418 17.6631 13.043 23.6553 13.043C29.6475 13.043 34.4463 17.8418 34.459 23.834C34.4717 29.8262 29.6602 34.625 23.668 34.625ZM23.6553 17.7402C24.3281 17.7402 24.8994 17.1689 24.8994 16.4961C24.8994 15.7979 24.3281 15.2393 23.6553 15.2393C22.9697 15.2393 22.4111 15.7979 22.4111 16.4961C22.4111 17.1689 22.9697 17.7402 23.6553 17.7402ZM21.6367 25.7891C22.665 26.792 24.0742 26.5635 24.9248 25.3701L29.8887 18.4385C30.3457 17.8037 29.6729 17.1436 29.0381 17.5879L22.043 22.4883C20.8369 23.3262 20.6211 24.748 21.6367 25.7891ZM18.501 19.9746C19.1865 19.9746 19.7451 19.4033 19.7451 18.7305C19.7451 18.0322 19.1865 17.4863 18.501 17.4863C17.8154 17.4863 17.2568 18.0322 17.2568 18.7305C17.2568 19.4033 17.8154 19.9746 18.501 19.9746ZM16.3428 25.0781C17.041 25.0781 17.5996 24.5195 17.5996 23.834C17.5996 23.1484 17.041 22.5898 16.3428 22.5898C15.6699 22.5898 15.0986 23.1484 15.0986 23.834C15.0986 24.5195 15.6699 25.0781 16.3428 25.0781ZM30.9678 25.0781C31.6406 25.0781 32.2119 24.5195 32.2119 23.834C32.2119 23.1484 31.6406 22.5898 30.9678 22.5898C30.2695 22.5898 29.7236 23.1484 29.7236 23.834C29.7236 24.5195 30.2695 25.0781 30.9678 25.0781ZM18.5264 30.1943C19.2119 30.1943 19.7705 29.623 19.7705 28.9375C19.7705 28.252 19.2119 27.6934 18.5264 27.6934C17.8408 27.6934 17.2822 28.252 17.2822 28.9375C17.2822 29.623 17.8408 30.1943 18.5264 30.1943ZM28.7842 30.1943C29.4697 30.1943 30.0283 29.623 30.0283 28.9375C30.0283 28.252 29.4697 27.6934 28.7842 27.6934C28.0986 27.6934 27.54 28.252 27.54 28.9375C27.54 29.623 28.0986 30.1943 28.7842 30.1943Z" fill="white"/>
<defs>
<radialGradient id="paint0_radial_893_24010" cx="0" cy="0" r="1" gradientUnits="userSpaceOnUse" gradientTransform="translate(39.5 95.5) rotate(-103.01) scale(135.478 109.203)">
<stop stop-color="#FFDFC2"/>
<stop offset="0.300591" stop-color="#FFD6F7"/>
<stop offset="0.65625" stop-color="#B391FF"/>
<stop offset="1" stop-color="#4175B6"/>
</radialGradient>
</defs>
</svg>
