<svg width="48" height="40" viewBox="0 0 48 40" fill="none" xmlns="http://www.w3.org/2000/svg">
<path fill-rule="evenodd" clip-rule="evenodd" d="M6 0C2.68629 0 0 2.68629 0 6L0 34C0 37.3137 2.68629 40 6 40H42C45.3137 40 48 37.3137 48 34V6C48 2.68629 45.3137 0 42 0L6 0ZM14.2 21.4999H31.1513L27.1403 25.5108C26.6717 25.9795 26.6717 26.7393 27.1403 27.2079L27.567 27.6346C28.0356 28.1032 28.7954 28.1032 29.264 27.6346L35.5863 21.3123C35.6007 21.2992 35.6149 21.2857 35.6289 21.2717L36.0519 20.8487C36.4856 20.4149 36.5179 19.7317 36.1487 19.2609C36.1188 19.2226 36.0862 19.1857 36.051 19.1505L35.6244 18.7239L35.6097 18.7094L29.262 12.3617C28.7934 11.8931 28.0336 11.8931 27.5649 12.3617L27.1419 12.7847C26.6733 13.2534 26.6733 14.0132 27.1419 14.4818L31.16 18.4999H14.2C13.5373 18.4999 13 19.0371 13 19.6999V20.2999C13 20.9626 13.5373 21.4999 14.2 21.4999Z" fill="white"/>
</svg>
