<svg width="87" height="78" viewBox="0 0 87 78" fill="none" xmlns="http://www.w3.org/2000/svg">
<path fill-rule="evenodd" clip-rule="evenodd" d="M9.9871 53.6735C6.9715 49.1301 5.0854 43.7721 4.72945 38H18.6953C18.8187 42.5088 19.357 46.7966 20.2351 50.7134C16.3745 51.4646 12.9048 52.4672 9.9871 53.6735ZM18.6953 34H4.72945C5.07615 28.3779 6.87449 23.1487 9.75426 18.6824C12.7582 19.8388 16.2893 20.7896 20.1902 21.4884C19.3387 25.3505 18.8166 29.5685 18.6953 34ZM24.1867 50.0524C23.3497 46.3887 22.822 42.3236 22.6968 38H36.8436C37.7018 36.5827 38.678 35.2449 39.7585 34H22.6968C22.8204 29.7342 23.3357 25.7199 24.1533 22.0945C27.932 22.5781 31.9772 22.8376 36.168 22.8376C40.7215 22.8376 45.1013 22.5312 49.1532 21.9646C49.4807 23.4005 49.7607 24.8979 49.9877 26.4483C51.2236 25.9038 52.5047 25.4431 53.8239 25.0733C53.6191 23.7859 53.3791 22.5299 53.1061 21.3098C56.9725 20.5643 60.4491 19.5673 63.3757 18.3669C64.6204 20.2485 65.6717 22.2693 66.501 24.4009C68.0942 24.6682 69.6434 25.0654 71.1373 25.5812C66.6692 10.7791 52.9274 0 36.668 0C16.7857 0 0.667969 16.1178 0.667969 36C0.667969 55.8823 16.7857 72 36.668 72C37.6732 72 38.6688 71.9588 39.6532 71.878C38.6137 70.6669 37.6724 69.369 36.8417 67.9968C36.7834 67.9989 36.7255 68 36.668 68C34.0287 68 30.5625 65.7565 27.5178 59.667C26.665 57.9615 25.8973 56.0425 25.2375 53.9452C27.5933 53.6272 30.0812 53.3986 32.6692 53.2733C32.6684 53.1823 32.668 53.0912 32.668 53C32.668 51.7321 32.7493 50.4832 32.9071 49.2582C29.8795 49.3913 26.9561 49.661 24.1867 50.0524ZM12.5036 56.9789C16.3547 61.411 21.4051 64.7733 27.1495 66.5605C24.7438 63.5571 22.7185 59.449 21.2508 54.5912C17.9584 55.2191 15.0064 56.0307 12.5036 56.9789ZM21.1924 17.6036C17.845 17.0184 14.8236 16.2464 12.2351 15.3341C16.1187 10.7473 21.2706 7.26856 27.1495 5.43948C24.7117 8.48301 22.6645 12.6608 21.1924 17.6036ZM36.168 18.8376C40.3861 18.8376 44.4057 18.5644 48.1035 18.0709C47.4426 15.9673 46.6731 14.0429 45.8182 12.333C42.7734 6.24351 39.3072 4 36.668 4C34.0287 4 30.5625 6.24351 27.5178 12.333C26.6462 14.076 25.8636 16.042 25.1941 18.1934C28.6223 18.6093 32.3115 18.8376 36.168 18.8376ZM52.0919 17.4312C55.3896 16.8083 58.3496 16.0012 60.8632 15.0567C57.0082 10.607 51.9462 7.23149 46.1864 5.43948C48.5958 8.44755 50.6237 12.5637 52.0919 17.4312Z" fill="#322F4A"/>
<path fill-rule="evenodd" clip-rule="evenodd" d="M59.668 38C59.668 36.8954 60.5634 36 61.668 36C62.7725 36 63.668 36.8954 63.668 38V50H74.668C75.7725 50 76.668 50.8954 76.668 52C76.668 53.1046 75.7725 54 74.668 54H61.668C61.5989 54 61.5307 53.9965 61.4635 53.9897C60.455 53.8873 59.668 53.0355 59.668 52V38Z" fill="url(#paint0_radial_1022_36927)"/>
<rect x="38.668" y="30" width="46" height="46" rx="23" stroke="url(#paint1_radial_1022_36927)" stroke-width="4"/>
<defs>
<radialGradient id="paint0_radial_1022_36927" cx="0" cy="0" r="1" gradientUnits="userSpaceOnUse" gradientTransform="translate(56 63.5) rotate(-55.3048) scale(63.2456 48.5446)">
<stop stop-color="#FFDFC2"/>
<stop offset="0.300591" stop-color="#FFD6F7"/>
<stop offset="0.65625" stop-color="#B391FF"/>
<stop offset="1" stop-color="#4175B6"/>
</radialGradient>
<radialGradient id="paint1_radial_1022_36927" cx="0" cy="0" r="1" gradientUnits="userSpaceOnUse" gradientTransform="translate(45 78) rotate(-45.2822) scale(143.544 115.705)">
<stop stop-color="#FFDFC2"/>
<stop offset="0.300591" stop-color="#FFBBF2"/>
<stop offset="0.65625" stop-color="#B391FF"/>
<stop offset="1" stop-color="#4175B6"/>
</radialGradient>
</defs>
</svg>
