<svg width="730" height="269" viewBox="0 0 730 269" fill="none" xmlns="http://www.w3.org/2000/svg">
<g>
<path fill-rule="evenodd" clip-rule="evenodd" d="M-117.571 179.945C-48.0253 190.997 -4.86624 183.943 27.6718 168.491C51.8084 157.029 70.0828 140.931 88.8616 124.39C95.3307 118.691 101.86 112.94 108.709 107.307C135.478 85.293 167.382 64.8312 220.256 55.6489C273.172 46.4592 347.154 48.5568 458.078 71.816C786.371 140.655 955.928 82.5227 1081.43 39.495C1125.72 24.3113 1164.52 11.0085 1202.87 5.8297C1305.67 -8.05086 1389.99 19.9631 1485.55 60.9473L1486.34 59.1092C1390.71 18.0924 1305.96 -10.1084 1202.6 3.84767C1163.88 9.07611 1124.87 22.4519 1080.42 37.69C954.942 80.7087 786.172 138.57 458.489 69.8586C347.438 46.5728 273.178 44.4283 219.914 53.6784C166.608 62.9357 134.394 83.5953 107.438 105.763C100.476 111.488 93.8814 117.297 87.3755 123.027L87.3744 123.028C68.6559 139.515 50.6752 155.353 26.8139 166.684C-5.25444 181.913 -47.9772 188.98 -117.258 177.97L-117.571 179.945ZM19.4648 191.044C-13.0733 206.496 -56.2324 213.55 -125.779 202.498L-125.465 200.523C-56.1843 211.532 -13.4615 204.466 18.6069 189.237C42.4681 177.905 60.4489 162.068 79.1674 145.581L79.1693 145.579C85.6749 139.849 92.2697 134.041 99.2314 128.315C126.187 106.148 158.401 85.4884 211.707 76.2311C264.971 66.981 339.231 69.1255 450.282 92.4113C777.965 161.122 946.735 103.261 1072.21 60.2427C1116.66 45.0046 1155.68 31.6288 1194.4 26.4004C1297.76 12.4442 1382.5 40.6451 1478.13 81.6619L1477.34 83.5C1381.79 42.5157 1297.46 14.5018 1194.67 28.3824C1156.31 33.5612 1117.51 46.864 1073.22 62.0477C947.721 105.075 778.164 163.207 449.871 94.3687C338.947 71.1095 264.965 69.0119 212.049 78.2016C159.174 87.3839 127.271 107.846 100.502 129.86C93.6526 135.493 87.1237 141.244 80.6546 146.942C61.8758 163.484 43.6013 179.581 19.4648 191.044ZM-133.986 225.051C-64.4394 236.103 -21.2803 229.049 11.2578 213.596C35.3943 202.134 53.6688 186.037 72.4475 169.495C78.9166 163.797 85.4456 158.045 92.2947 152.413C119.064 130.398 150.967 109.937 203.842 100.754C256.758 91.5647 330.74 93.6623 441.664 116.921C769.957 185.76 939.514 127.628 1065.02 84.6005C1109.3 69.4168 1148.1 56.114 1186.46 50.9352C1289.26 37.0546 1373.58 65.0685 1469.13 106.053L1469.92 104.215C1374.29 63.1979 1289.55 34.997 1186.19 48.9531C1147.47 54.1816 1108.45 67.5574 1064.01 82.7955C938.528 125.814 769.758 183.675 442.075 114.964C331.024 91.6782 256.764 89.5338 203.5 98.7838C150.194 108.041 117.979 128.701 91.0244 150.868C84.0626 156.593 77.4679 162.402 70.9623 168.132L70.9604 168.134C52.2418 184.621 34.2611 200.458 10.3998 211.79C-21.6685 227.019 -64.3913 234.085 -133.672 223.075L-133.986 225.051ZM3.04684 236.149C-29.4912 251.601 -72.6503 258.655 -142.196 247.603L-141.883 245.628C-72.6022 256.638 -29.8794 249.572 2.18889 234.343C26.0502 223.011 44.0309 207.174 62.7495 190.686L62.7505 190.685C69.2564 184.955 75.8514 179.146 82.8134 173.421C109.769 151.253 141.983 130.594 195.289 121.337C248.553 112.086 322.813 114.231 433.864 137.517C761.547 206.228 930.318 148.367 1055.8 105.348C1100.24 90.1101 1139.26 76.7343 1177.98 71.5059C1281.34 57.5497 1366.08 85.7506 1461.71 126.767L1460.92 128.605C1365.37 87.6212 1281.05 59.6073 1178.25 73.4879C1139.89 78.6667 1101.09 91.9695 1056.8 107.153C931.303 150.181 761.746 208.313 433.453 139.474C322.529 116.215 248.547 114.117 195.631 123.307C142.757 132.489 110.853 152.951 84.0838 174.966C77.2347 180.598 70.7057 186.349 64.2366 192.048C45.4578 208.589 27.1834 224.687 3.04684 236.149ZM-150.404 270.156C-80.8574 281.208 -37.6983 274.154 -5.16018 258.701C18.9763 247.239 37.2508 231.142 56.0296 214.6C62.4987 208.902 69.0277 203.15 75.8768 197.518C102.646 175.503 134.55 155.042 187.424 145.859C240.34 136.67 314.322 138.767 425.246 162.026C753.539 230.865 923.096 172.733 1048.6 129.705C1092.88 114.522 1131.69 101.219 1170.04 96.0401C1272.84 82.1595 1357.16 110.173 1452.72 151.158L1453.5 149.32C1357.87 108.303 1273.13 80.1019 1169.77 94.0581C1131.05 99.2863 1092.04 112.661 1047.59 127.898L1047.59 127.899L1047.59 127.9L1047.59 127.9C922.11 170.919 753.34 228.78 425.657 160.069C314.606 136.783 240.346 134.639 187.082 143.889C133.776 153.146 101.562 173.806 74.6064 195.973C67.6444 201.699 61.0494 207.507 54.5435 213.238L54.5424 213.239C35.8239 229.726 17.8431 245.563 -6.01814 256.895C-38.0865 272.124 -80.8093 279.19 -150.09 268.18L-150.404 270.156ZM-13.3711 281.255C-45.9092 296.707 -89.0683 303.761 -158.614 292.709L-158.301 290.734C-89.0202 301.743 -46.2974 294.677 -14.2291 279.448C9.6322 268.116 27.6129 252.279 46.3315 235.792L46.3326 235.791C52.8384 230.061 59.4334 224.252 66.3955 218.526C93.3506 196.359 125.565 175.699 178.871 166.442C232.135 157.192 306.395 159.336 417.446 182.622C745.129 251.333 913.9 193.472 1039.38 150.454C1083.82 135.216 1122.84 121.84 1161.56 116.611C1264.92 102.655 1349.66 130.856 1445.29 171.873L1444.5 173.711C1348.95 132.727 1264.63 104.713 1161.83 118.593C1123.48 123.772 1084.67 137.075 1040.39 152.258L1040.39 152.259C914.885 195.286 745.328 253.418 417.035 184.58C306.111 161.32 232.129 159.223 179.213 168.413C126.339 177.595 94.435 198.057 67.6658 220.071C60.8167 225.704 54.2878 231.455 47.8186 237.153C29.0399 253.695 10.7654 269.792 -13.3711 281.255ZM-166.821 315.262C-97.2753 326.314 -54.1162 319.26 -21.5782 303.807C2.55837 292.345 20.8328 276.248 39.6116 259.706C46.0807 254.008 52.6097 248.256 59.4588 242.624C86.2279 220.609 118.132 200.148 171.006 190.965C223.922 181.776 297.904 183.873 408.828 207.132C737.121 275.971 906.678 217.839 1032.18 174.811C1076.47 159.628 1115.27 146.325 1153.62 141.146C1256.42 127.266 1340.74 155.279 1436.3 196.264L1437.09 194.426C1341.46 153.409 1256.71 125.208 1153.35 139.164C1114.63 144.393 1075.62 157.768 1031.17 173.006C905.693 216.025 736.922 273.886 409.239 205.175C298.188 181.889 223.928 179.745 170.664 188.995C117.358 198.252 85.1436 218.912 58.1884 241.079C51.2264 246.804 44.6314 252.613 38.1255 258.344L38.1244 258.345C19.4059 274.832 1.42516 290.669 -22.4361 302.001C-54.5044 317.23 -97.2272 324.296 -166.508 313.286L-166.821 315.262ZM-29.7852 326.359C-62.3232 341.811 -105.482 348.865 -175.029 337.813L-174.715 335.838C-105.434 346.848 -62.7115 339.782 -30.6431 324.552C-6.78186 313.221 11.1989 297.384 29.9174 280.896L29.9185 280.895C36.4244 275.165 43.0194 269.356 49.9814 263.631C76.9366 241.463 109.151 220.804 162.457 211.546C215.721 202.296 289.981 204.441 401.032 227.727C728.715 296.438 897.485 238.577 1022.96 195.558L1022.96 195.558L1022.97 195.557L1022.97 195.557L1022.97 195.556L1022.97 195.555L1022.97 195.555L1022.97 195.555C1067.42 180.318 1106.43 166.944 1145.15 161.716C1248.51 147.76 1333.25 175.961 1428.88 216.977L1428.09 218.815C1332.54 177.831 1248.21 149.817 1145.42 163.698C1107.06 168.877 1068.26 182.179 1023.97 197.363C898.471 240.391 728.914 298.523 400.621 229.684C289.697 206.425 215.715 204.327 162.799 213.517C109.925 222.699 78.0209 243.161 51.2518 265.176C44.4027 270.808 37.8737 276.559 31.4046 282.258C12.6258 298.799 -5.64865 314.897 -29.7852 326.359ZM-183.239 360.366C-113.693 371.418 -70.5342 364.364 -37.9961 348.912C-13.8596 337.45 4.41484 321.352 23.1936 304.81C29.6627 299.112 36.1917 293.361 43.0408 287.728C69.81 265.714 101.714 245.252 154.588 236.07C207.504 226.88 281.486 228.978 392.41 252.237C720.703 321.076 890.26 262.944 1015.76 219.916L1015.76 219.915L1015.76 219.915L1015.77 219.914C1060.05 204.731 1098.85 191.429 1137.2 186.251C1240 172.37 1324.32 200.384 1419.88 241.368L1420.67 239.53C1325.04 198.513 1240.3 170.312 1136.94 184.269C1098.22 189.497 1059.2 202.873 1014.75 218.111C889.275 261.13 720.504 318.99 392.821 250.279C281.77 226.994 207.51 224.849 154.246 234.099C100.94 243.357 68.7256 264.016 41.7705 286.184C34.8087 291.909 28.214 297.717 21.7084 303.447L21.7065 303.449C2.98793 319.936 -14.9928 335.774 -38.8541 347.105C-70.9224 362.334 -113.645 369.401 -182.926 358.391L-183.239 360.366ZM-46.2032 371.465C-78.7412 386.917 -121.9 393.971 -191.446 382.919L-191.133 380.944C-121.852 391.953 -79.1294 384.887 -47.0611 369.658C-23.1998 358.326 -5.21909 342.489 13.4995 326.002L13.5014 326C20.007 320.27 26.6017 314.461 33.5634 308.736C60.5186 286.569 92.7327 265.909 146.039 256.652C199.303 247.402 273.563 249.546 384.614 272.832C712.297 341.543 881.068 283.682 1006.55 240.664C1050.99 225.426 1090.01 212.05 1128.73 206.821C1232.09 192.865 1316.83 221.066 1412.46 262.083L1411.67 263.921C1316.12 222.937 1231.8 194.923 1129 208.803C1090.64 213.982 1051.84 227.284 1007.56 242.467L1007.56 242.468L1007.56 242.468L1007.55 242.469C882.053 285.496 712.496 343.628 384.203 274.79C273.279 251.53 199.297 249.433 146.381 258.622C93.5065 267.805 61.6029 288.267 34.8338 310.281C27.9847 315.914 21.4557 321.665 14.9866 327.363C-3.79218 343.905 -22.0666 360.002 -46.2032 371.465ZM-199.654 405.471C-130.107 416.524 -86.9483 409.47 -54.4102 394.017C-30.2737 382.555 -11.9992 366.458 6.77956 349.916C13.2487 344.217 19.7777 338.466 26.6268 332.834C53.3959 310.819 85.2995 290.358 138.174 281.175C191.09 271.986 265.072 274.083 375.996 297.342C704.289 366.181 873.846 308.049 999.348 265.021L999.349 265.021L999.35 265.02L999.353 265.019C1043.64 249.837 1082.44 236.535 1120.79 231.356C1223.59 217.475 1307.91 245.489 1403.47 286.474L1404.25 284.636C1308.62 243.619 1223.88 215.418 1120.52 229.374C1081.8 234.602 1042.79 247.978 998.339 263.216C872.86 306.235 704.09 364.096 376.407 295.385C265.356 272.099 191.096 269.955 137.832 279.205C84.5257 288.462 52.3115 309.122 25.3564 331.289C18.3947 337.014 11.7999 342.823 5.29433 348.553L5.29242 348.555C-13.4261 365.042 -31.4069 380.879 -55.2682 392.211C-87.3365 407.44 -130.059 414.506 -199.34 403.496L-199.654 405.471ZM-62.6211 416.57C-95.1592 432.022 -138.318 439.076 -207.864 428.024L-207.551 426.049C-138.27 437.059 -95.5474 429.993 -63.4791 414.763C-39.6178 403.432 -21.6371 387.594 -2.91851 371.107L-2.9166 371.106C3.58898 365.376 10.1837 359.567 17.1455 353.842C44.1006 331.674 76.3148 311.015 129.621 301.757C182.885 292.507 257.145 294.652 368.196 317.938C695.879 386.649 864.65 328.788 990.128 285.769C1034.57 270.531 1073.59 257.155 1112.31 251.927C1215.67 237.971 1300.41 266.171 1396.04 307.188L1395.25 309.026C1299.7 268.042 1215.38 240.028 1112.58 253.909C1074.23 259.087 1035.43 272.389 991.142 287.572L991.139 287.573L991.138 287.574L991.137 287.574C865.635 330.602 696.078 388.734 367.785 319.895C256.861 296.636 182.879 294.538 129.963 303.728C77.0886 312.91 45.185 333.372 18.4158 355.386C11.5667 361.019 5.03776 366.77 -1.43137 372.469C-20.2101 389.01 -38.4846 405.108 -62.6211 416.57ZM-216.071 450.577C-146.525 461.629 -103.366 454.575 -70.8282 439.123C-46.6916 427.66 -28.4172 411.563 -9.63841 395.021C-3.16928 389.323 3.35968 383.572 10.2088 377.939C36.9779 355.925 68.8815 335.463 121.756 326.281C174.672 317.091 248.654 319.189 359.578 342.448C687.871 411.286 857.428 353.155 982.93 310.127L982.931 310.126L982.932 310.126L982.935 310.125C1027.22 294.942 1066.02 281.64 1104.37 276.462C1207.17 262.581 1291.49 290.595 1387.05 331.579L1387.84 329.741C1292.21 288.724 1207.46 260.523 1104.1 274.479C1065.38 279.708 1026.37 293.084 981.921 308.322C856.443 351.341 687.672 409.201 359.989 340.49C248.938 317.205 174.678 315.06 121.414 324.31C68.1077 333.567 35.8936 354.227 8.93843 376.394C1.9767 382.12 -4.61806 387.928 -11.1236 393.658L-11.1256 393.66C-29.8441 410.147 -47.8248 425.985 -71.6861 437.316C-103.754 452.545 -146.477 459.612 -215.758 448.602L-216.071 450.577ZM-79.0352 461.676C-111.573 477.128 -154.732 484.182 -224.279 473.13L-223.965 471.154C-154.684 482.164 -111.961 475.098 -79.8932 459.869C-56.0319 448.537 -38.0511 432.7 -19.3326 416.213L-19.3307 416.211C-12.8251 410.481 -6.23034 404.672 0.731393 398.947C27.6865 376.78 59.9007 356.12 113.207 346.863C166.471 337.613 240.731 339.757 351.782 363.043C679.465 431.754 848.235 373.893 973.714 330.875C1018.16 315.636 1057.18 302.261 1095.9 297.032C1199.26 283.076 1284 311.277 1379.63 352.294L1378.84 354.132C1283.29 313.148 1198.96 285.134 1096.17 299.014C1057.81 304.193 1019.01 317.495 974.728 332.678L974.725 332.679L974.724 332.679L974.723 332.68C849.221 375.707 679.664 433.839 351.371 365.001C240.447 341.741 166.465 339.644 113.549 348.833C60.6745 358.016 28.7709 378.478 2.00175 400.492C-4.84736 406.125 -11.3763 411.876 -17.8455 417.574C-36.6242 434.116 -54.8987 450.213 -79.0352 461.676ZM-232.489 495.682C-162.943 506.735 -119.784 499.681 -87.2461 484.228C-63.1096 472.766 -44.8352 456.669 -26.0564 440.127C-19.5873 434.428 -13.0583 428.677 -6.2092 423.045C20.5599 401.03 52.4635 380.569 105.338 371.386C158.254 362.197 232.236 364.294 343.16 387.553C671.453 456.392 841.01 398.26 966.512 355.232L966.513 355.232L966.514 355.231L966.517 355.23C1010.8 340.048 1049.6 326.746 1087.95 321.567C1190.75 307.686 1275.07 335.7 1370.63 376.685L1371.42 374.847C1275.79 333.83 1191.05 305.629 1087.69 319.585C1048.97 324.813 1009.95 338.189 965.503 353.427C840.025 396.446 671.254 454.307 343.571 385.596C232.52 362.31 158.26 360.166 104.996 369.416C51.6897 378.673 19.4756 399.333 -7.47956 421.5C-14.4416 427.225 -21.0366 433.034 -27.5424 438.765L-27.5435 438.766C-46.2621 455.253 -64.2428 471.09 -88.1041 482.422C-120.172 497.651 -162.895 504.717 -232.176 493.707L-232.489 495.682ZM-95.4532 506.78C-127.991 522.232 -171.15 529.286 -240.697 518.234L-240.383 516.259C-171.102 527.269 -128.379 520.203 -96.3111 504.973C-72.4498 493.642 -54.4691 477.804 -35.7505 461.317L-35.7495 461.316C-29.2436 455.586 -22.6486 449.777 -15.6866 444.052C11.2686 421.884 43.4827 401.225 96.7886 391.967C150.053 382.717 224.313 384.862 335.364 408.148C663.047 476.859 831.817 418.998 957.296 375.979L957.297 375.979L957.299 375.978C1001.74 360.74 1040.76 347.365 1079.48 342.137C1182.84 328.181 1267.58 356.381 1363.21 397.398L1362.42 399.236C1266.87 358.252 1182.55 330.238 1079.75 344.119C1041.39 349.297 1002.59 362.599 958.31 377.782L958.307 377.783L958.306 377.784L958.305 377.784C832.803 420.812 663.246 478.944 334.953 410.105C224.029 386.846 150.047 384.748 97.1308 393.938C44.2565 403.12 12.3529 423.582 -14.4162 445.596C-21.2653 451.229 -27.7943 456.98 -34.2634 462.679C-53.0422 479.22 -71.3166 495.318 -95.4532 506.78ZM-248.907 540.787C-179.361 551.839 -136.202 544.785 -103.664 529.333C-79.5276 517.87 -61.2531 501.773 -42.4744 485.231C-36.0052 479.533 -29.4763 473.782 -22.6272 468.149C4.14198 446.135 36.0456 425.673 88.9199 416.491C141.836 407.301 215.818 409.399 326.742 432.658C655.035 501.497 824.592 443.365 950.094 400.337L950.095 400.336L950.096 400.336L950.099 400.335C994.384 385.152 1033.18 371.85 1071.54 366.672C1174.34 352.791 1258.66 380.805 1354.21 421.789L1355 419.951C1259.37 378.934 1174.63 350.733 1071.27 364.69C1032.55 369.918 993.532 383.294 949.085 398.532C823.607 441.551 654.836 499.411 327.153 430.7C216.102 407.415 141.842 405.27 88.5777 414.52C35.2718 423.777 3.05762 444.437 -23.8975 466.604C-30.8596 472.33 -37.4546 478.139 -43.9604 483.869L-43.9615 483.87C-62.6801 500.357 -80.6608 516.195 -104.522 527.526C-136.59 542.755 -179.313 549.822 -248.594 538.812L-248.907 540.787ZM-111.871 551.885C-144.409 567.338 -187.568 574.392 -257.114 563.34L-256.801 561.364C-187.52 572.374 -144.797 565.308 -112.729 550.079C-88.8678 538.747 -70.8871 522.91 -52.1685 506.423L-52.1674 506.422C-45.6616 500.691 -39.0666 494.883 -32.1045 489.157C-5.14938 466.99 27.0648 446.33 80.3707 437.073C133.635 427.823 207.895 429.967 318.946 453.253C646.629 521.964 815.4 464.103 940.878 421.085C985.325 405.846 1024.34 392.471 1063.06 387.242C1166.42 373.286 1251.16 401.487 1346.79 442.504L1346 444.342C1250.45 403.357 1166.13 375.344 1063.33 389.224C1024.98 394.403 986.177 407.705 941.892 422.888L941.889 422.889L941.888 422.889L941.887 422.889C816.385 465.917 646.828 524.049 318.535 455.21C207.611 431.951 133.629 429.854 80.7129 439.043C27.8386 448.226 -4.06502 468.687 -30.8342 490.702C-37.6833 496.334 -44.2122 502.086 -50.6814 507.784C-69.4601 524.326 -87.7346 540.423 -111.871 551.885ZM-265.321 585.892C-195.775 596.944 -152.616 589.89 -120.078 574.438C-95.9416 562.976 -77.6672 546.878 -58.8884 530.337C-52.4193 524.638 -45.8903 518.887 -39.0412 513.255C-12.2721 491.24 19.6315 470.778 72.5058 461.596C125.422 452.406 199.404 454.504 310.328 477.763C638.621 546.602 808.178 488.47 933.68 445.442L933.681 445.442L933.684 445.441L933.686 445.44C977.97 430.257 1016.77 416.955 1055.12 411.777C1157.92 397.896 1242.24 425.91 1337.8 466.895L1338.59 465.056C1242.96 424.04 1158.21 395.839 1054.85 409.795C1016.13 415.023 977.118 428.399 932.671 443.637C807.193 486.656 638.422 544.517 310.739 475.806C199.688 452.52 125.428 450.376 72.1637 459.626C18.8577 468.883 -13.3564 489.542 -40.3116 511.71C-47.2736 517.435 -53.8686 523.244 -60.3745 528.974L-60.3755 528.975C-79.0941 545.463 -97.0748 561.3 -120.936 572.632C-153.004 587.861 -195.727 594.927 -265.008 583.917L-265.321 585.892ZM-128.289 596.991C-160.827 612.443 -203.986 619.497 -273.532 608.445L-273.219 606.47C-203.938 617.48 -161.215 610.413 -129.147 595.184C-105.286 583.853 -87.305 568.015 -68.5865 551.528L-68.5846 551.527C-62.079 545.797 -55.4842 539.988 -48.5225 534.263C-21.5674 512.095 10.6468 491.436 63.9527 482.178C117.217 472.928 191.477 475.073 302.528 498.359C630.211 567.07 798.982 509.209 924.46 466.19C968.907 450.952 1007.92 437.576 1046.64 432.348C1150 418.392 1234.74 446.592 1330.38 487.609L1329.59 489.447C1234.03 448.463 1149.71 420.449 1046.91 434.33C1008.56 439.508 969.758 452.811 925.472 467.994L925.47 467.995L925.469 467.995C799.967 511.023 630.41 569.155 302.117 500.316C191.193 477.057 117.211 474.959 64.2949 484.149C11.4206 493.331 -20.483 513.793 -47.2522 535.807C-54.1013 541.44 -60.6302 547.191 -67.0994 552.89C-85.8781 569.431 -104.153 585.529 -128.289 596.991ZM-136.496 619.544C-169.034 634.996 -212.193 642.05 -281.739 630.998L-281.426 629.023C-212.145 640.032 -169.422 632.966 -137.354 617.737C-113.493 606.405 -95.5121 590.568 -76.7935 574.081L-76.7924 574.08C-70.2866 568.35 -63.6916 562.541 -56.7295 556.815C-29.7744 534.648 2.43976 513.988 55.7457 504.731C109.01 495.481 183.27 497.626 294.321 520.911C622.004 589.622 790.775 531.761 916.253 488.743L916.254 488.743C960.7 473.505 999.715 460.129 1038.44 454.9C1141.8 440.944 1226.54 469.145 1322.17 510.162L1321.38 512C1225.82 471.016 1141.5 443.002 1038.7 456.882C1000.35 462.061 961.551 475.363 917.265 490.546L917.263 490.547L917.262 490.548C791.76 533.575 622.203 591.707 293.91 522.869C182.986 499.61 109.004 497.512 56.0878 506.702C3.21355 515.884 -28.6901 536.346 -55.4592 558.36C-62.3083 563.993 -68.8373 569.744 -75.3064 575.442C-94.0852 591.984 -112.36 608.081 -136.496 619.544ZM-140.789 646.665C-173.327 662.117 -216.486 669.171 -286.032 658.119L-285.719 656.144C-216.438 667.153 -173.715 660.087 -141.647 644.858C-117.786 633.527 -99.805 617.689 -81.0865 601.202C-74.5803 595.471 -67.9849 589.662 -61.0225 583.937C-34.0674 561.769 -1.8532 541.109 51.4527 531.852C104.717 522.602 178.977 524.747 290.028 548.032C617.711 616.743 786.482 558.883 911.96 515.864C956.407 500.626 995.422 487.25 1034.14 482.021C1137.5 468.065 1222.24 496.266 1317.88 537.283L1317.09 539.121C1221.53 498.137 1137.21 470.123 1034.41 484.003C996.058 489.182 957.258 502.484 912.972 517.668L912.97 517.668L912.969 517.669C787.467 560.697 617.91 618.828 289.617 549.99C178.693 526.731 104.711 524.633 51.7949 533.823C-1.07942 543.005 -32.983 563.467 -59.7522 585.481C-66.6013 591.114 -73.1302 596.865 -79.5994 602.563C-98.3781 619.105 -116.653 635.202 -140.789 646.665ZM-290.325 685.241C-220.779 696.293 -177.62 689.239 -145.082 673.787C-120.946 662.325 -102.671 646.227 -83.8923 629.685C-77.4232 623.987 -70.8942 618.236 -64.0452 612.603C-37.276 590.589 -5.37238 570.127 47.5019 560.945C100.418 551.755 174.4 553.853 285.324 577.112C613.617 645.951 783.174 587.819 908.676 544.791L908.677 544.79L908.679 544.79C952.965 529.607 991.765 516.304 1030.12 511.126C1132.92 497.245 1217.24 525.259 1312.79 566.243L1313.58 564.405C1217.95 523.388 1133.21 495.187 1029.85 509.144C991.129 514.372 952.114 527.748 907.668 542.986L907.667 542.986C782.189 586.005 613.418 643.865 285.735 575.155C174.684 551.869 100.424 549.724 47.1597 558.974C-6.14617 568.232 -38.3603 588.891 -65.3155 611.059C-72.2779 616.784 -78.8732 622.593 -85.3795 628.324C-104.098 644.811 -122.079 660.649 -145.94 671.98C-178.008 687.209 -220.731 694.276 -290.012 683.266L-290.325 685.241ZM-149.375 700.908C-181.913 716.36 -225.072 723.414 -294.618 712.362L-294.304 710.387C-225.024 721.397 -182.301 714.33 -150.233 699.101C-126.372 687.77 -108.391 671.932 -89.6724 655.445C-83.1662 649.715 -76.5709 643.905 -69.6085 638.18C-42.6533 616.012 -10.4391 595.353 42.8668 586.095C96.1307 576.845 170.391 578.99 281.442 602.276C609.125 670.986 777.896 613.126 903.374 570.107C947.821 554.869 986.836 541.493 1025.56 536.265C1128.92 522.308 1213.66 550.509 1309.29 591.526L1308.5 593.364C1212.95 552.38 1128.63 524.366 1025.83 538.247C987.472 543.425 948.672 556.728 904.385 571.911L904.383 571.912C778.881 614.94 609.324 673.072 281.031 604.233C170.108 580.974 96.1253 578.876 43.209 588.066C-9.66534 597.248 -41.5689 617.71 -68.3381 639.724C-75.1872 645.357 -81.7161 651.108 -88.1853 656.807C-106.964 673.348 -125.239 689.446 -149.375 700.908ZM-298.911 739.484C-229.365 750.536 -186.206 743.482 -153.668 728.03C-129.531 716.568 -111.257 700.47 -92.4783 683.929C-86.0091 678.23 -79.4802 672.479 -72.6311 666.847C-45.8619 644.832 -13.9583 624.37 38.916 615.188C91.8323 605.998 165.815 608.096 276.738 631.355C605.031 700.194 774.588 642.062 900.09 599.034L900.091 599.034L900.094 599.033C944.379 583.85 983.179 570.547 1021.53 565.369C1124.33 551.488 1208.65 579.502 1304.21 620.486L1305 618.648C1209.37 577.631 1124.62 549.431 1021.27 563.387C982.543 568.615 943.528 581.991 899.081 597.229C773.603 640.248 604.832 698.109 277.149 629.398C166.098 606.112 91.8377 603.967 38.5738 613.217C-14.7321 622.475 -46.9463 643.134 -73.9014 665.302C-80.8638 671.028 -87.4592 676.837 -93.9654 682.567C-112.684 699.054 -130.665 714.892 -154.526 726.223C-186.594 741.452 -229.317 748.519 -298.597 737.509L-298.911 739.484Z" fill="url(#paint0_radial_930_26351)"/>
</g>
<defs>
<radialGradient id="paint0_radial_930_26351" cx="0" cy="0" r="1" gradientUnits="userSpaceOnUse" gradientTransform="translate(-11.0001 443) rotate(-20.8827) scale(1262.43 1022.76)">

  <stop offset="-.75" stop-color="#221E3A">
    <animate attributeName="offset" values="-.5; -0.25; 0; 0.25; 0.5; 0.75; 1;" dur="2s" repeatCount="indefinite"></animate>
  </stop>

  <stop offset="-.75" stop-color="#3A3366">
    <animate attributeName="offset" values="-0.25; 0; 0.25; 0.5; .75; 1; 1.25;" dur="2s" repeatCount="indefinite"></animate>
  </stop>

  <stop offset="0" stop-color="#221E3A">
    <animate attributeName="offset" values="0; 0.25; .5; 0.75; 1; 1.25; 1.5;" dur="2s" repeatCount="indefinite"></animate>
  </stop>

</radialGradient>
</defs>

</svg>
