<svg width="1440" height="654" viewBox="0 0 1440 654" fill="none" xmlns="http://www.w3.org/2000/svg" transform="translate3d(0,0,0)">
<g clip-path="url(#clip0_930_26351)">
<path fill-rule="evenodd" clip-rule="evenodd" d="M-91.6038 -41.4835C-16.1113 -56.117 25.5295 -79.4723 53.1348 -107.468C73.6149 -128.238 86.3484 -151.57 99.4405 -175.558C103.952 -183.825 108.507 -192.17 113.435 -200.515C132.691 -233.118 157.801 -266.049 208.654 -295.234C259.544 -324.441 336.27 -349.926 458.807 -367.491C821.425 -419.47 973.699 -542.445 1086.43 -633.485C1126.22 -665.617 1161.08 -693.77 1198.52 -713.421C1298.86 -766.079 1395.89 -768.824 1509.27 -762.456L1509.38 -764.453C1395.92 -770.826 1298.43 -768.112 1197.59 -715.191C1159.82 -695.369 1124.78 -667.074 1084.86 -634.836C972.152 -543.813 820.525 -421.361 458.523 -369.471C335.858 -351.888 258.855 -326.351 207.659 -296.969C156.426 -267.566 131.092 -234.342 111.713 -201.532C106.711 -193.062 102.114 -184.641 97.5793 -176.332L97.5775 -176.329C84.5233 -152.412 71.9768 -129.426 51.7107 -108.872C24.4705 -81.2468 -16.7561 -58.0291 -91.9844 -43.4468L-91.6038 -41.4835ZM53.1348 -72.7261C25.5295 -44.7298 -16.1113 -21.3745 -91.6038 -6.74103L-91.9844 -8.70447C-16.7561 -23.2868 24.4705 -46.5044 51.7107 -74.1303C71.9768 -94.6834 84.5233 -117.67 97.5775 -141.587L97.5793 -141.59C102.114 -149.899 106.711 -158.32 111.713 -166.79C131.092 -199.6 156.426 -232.823 207.659 -262.227C258.855 -291.609 335.858 -317.145 458.523 -334.728C820.525 -386.619 972.152 -509.07 1084.86 -600.094C1124.78 -632.331 1159.82 -660.627 1197.59 -680.449C1298.43 -733.37 1395.92 -736.083 1509.38 -729.71L1509.27 -727.713C1395.89 -734.082 1298.86 -731.337 1198.52 -678.678C1161.08 -659.028 1126.22 -630.874 1086.43 -598.743C973.699 -507.703 821.425 -384.728 458.807 -332.749C336.27 -315.184 259.544 -289.698 208.654 -260.492C157.801 -231.307 132.691 -198.376 113.435 -165.773C108.507 -157.428 103.952 -149.083 99.4405 -140.816C86.3484 -116.827 73.6149 -93.4962 53.1348 -72.7261ZM-91.6038 28.0007C-16.1113 13.3672 25.5295 -9.98816 53.1348 -37.9844C73.6149 -58.7545 86.3484 -82.086 99.4405 -106.074C103.952 -114.341 108.507 -122.686 113.435 -131.031C132.691 -163.634 157.801 -196.565 208.654 -225.75C259.544 -254.957 336.27 -280.442 458.807 -298.007C821.425 -349.986 973.699 -472.961 1086.43 -564.001C1126.22 -596.133 1161.08 -624.286 1198.52 -643.936C1298.86 -696.595 1395.89 -699.34 1509.27 -692.972L1509.38 -694.968C1395.92 -701.342 1298.43 -698.628 1197.59 -645.707C1159.82 -625.885 1124.78 -597.59 1084.86 -565.352C972.152 -474.329 820.525 -351.877 458.523 -299.987C335.858 -282.403 258.855 -256.867 207.659 -227.485C156.426 -198.082 131.092 -164.858 111.713 -132.048C106.711 -123.578 102.114 -115.157 97.5793 -106.848L97.5775 -106.845C84.5233 -82.9284 71.9768 -59.9417 51.7107 -39.3886C24.4705 -11.7627 -16.7561 11.4549 -91.9844 26.0373L-91.6038 28.0007ZM53.1348 -3.24274C25.5295 24.7536 -16.1113 48.1089 -91.6038 62.7424L-91.9844 60.779C-16.7561 46.1966 24.4705 22.979 51.7107 -4.64697C71.9768 -25.2 84.5233 -48.1867 97.5775 -72.1033L97.5793 -72.1068C102.114 -80.4155 106.711 -88.8366 111.713 -97.3068C131.092 -130.117 156.426 -163.34 207.659 -192.743C258.855 -222.125 335.858 -247.662 458.523 -265.245C820.525 -317.136 972.152 -439.587 1084.86 -530.611C1124.78 -562.848 1159.82 -591.143 1197.59 -610.966C1298.43 -663.887 1395.92 -666.6 1509.38 -660.227L1509.27 -658.23C1395.89 -664.598 1298.86 -661.853 1198.52 -609.195C1161.08 -589.545 1126.22 -561.391 1086.43 -529.26C973.699 -438.219 821.425 -315.244 458.807 -263.265C336.27 -245.7 259.544 -220.215 208.654 -191.009C157.801 -161.823 132.691 -128.892 113.435 -96.2896C108.507 -87.9445 103.952 -79.5996 99.4405 -71.3327C86.3484 -47.3443 73.6149 -24.0128 53.1348 -3.24274ZM-91.6038 97.4842C-16.1113 82.8506 25.5295 59.4953 53.1348 31.4991C73.6149 10.729 86.3484 -12.6025 99.4405 -36.5909C103.952 -44.8579 108.507 -53.2029 113.435 -61.5479C132.691 -94.1508 157.801 -127.082 208.654 -156.267C259.544 -185.473 336.27 -210.959 458.807 -228.523C821.425 -280.502 973.699 -403.478 1086.43 -494.518C1126.22 -526.649 1161.08 -554.803 1198.52 -574.453C1298.86 -627.111 1395.89 -629.857 1509.27 -623.488L1509.38 -625.485C1395.92 -631.858 1298.43 -629.145 1197.59 -576.224C1159.82 -556.401 1124.78 -528.106 1084.86 -495.869C972.152 -404.845 820.525 -282.394 458.523 -230.503C335.858 -212.92 258.855 -187.383 207.659 -158.001C156.426 -128.598 131.092 -95.3751 111.713 -62.5649C106.711 -54.0947 102.114 -45.6737 97.5793 -37.3651L97.5775 -37.3616C84.5233 -13.4449 71.9768 9.54172 51.7107 30.0948C24.4705 57.7208 -16.7561 80.9384 -91.9844 95.5207L-91.6038 97.4842ZM53.1348 66.2419C25.5295 94.2381 -16.1113 117.594 -91.6038 132.227L-91.9844 130.264C-16.7561 115.681 24.4705 92.4636 51.7107 64.8376C71.9768 44.2845 84.5233 21.2979 97.5775 -2.61884L97.5793 -2.62231C102.114 -10.9309 106.711 -19.3519 111.713 -27.8221C131.092 -60.6323 156.426 -93.8556 207.659 -123.259C258.855 -152.641 335.858 -178.177 458.523 -195.76C820.525 -247.651 972.152 -370.102 1084.86 -461.126C1124.78 -493.363 1159.82 -521.659 1197.59 -541.481C1298.43 -594.402 1395.92 -597.115 1509.38 -590.742L1509.27 -588.745C1395.89 -595.114 1298.86 -592.369 1198.52 -539.71C1161.08 -520.061 1126.22 -491.908 1086.43 -459.778V-459.777V-459.776V-459.775C973.699 -368.735 821.425 -245.76 458.807 -193.781C336.27 -176.216 259.544 -150.73 208.654 -121.524C157.801 -92.3391 132.691 -59.408 113.435 -26.8051C108.507 -18.4601 103.952 -10.1151 99.4405 -1.84814C86.3484 22.1403 73.6149 45.4718 53.1348 66.2419ZM-91.6038 166.968C-16.1113 152.334 25.5295 128.979 53.1348 100.983C73.6149 80.2124 86.3484 56.881 99.4405 32.8926C103.952 24.6256 108.507 16.2807 113.435 7.93561C132.691 -24.6672 157.801 -57.5984 208.654 -86.7835C259.544 -115.99 336.27 -141.475 458.807 -159.04C821.425 -211.019 973.699 -333.994 1086.43 -425.034V-425.035V-425.036C1126.22 -457.167 1161.08 -485.32 1198.52 -504.97C1298.86 -557.628 1395.89 -560.373 1509.27 -554.005L1509.38 -556.002C1395.92 -562.375 1298.43 -559.661 1197.59 -506.741C1159.82 -486.918 1124.78 -458.623 1084.86 -426.385C972.152 -335.362 820.525 -212.91 458.523 -161.02C335.858 -143.437 258.855 -117.9 207.659 -88.5181C156.426 -59.1149 131.092 -25.8916 111.713 6.91852C106.711 15.3887 102.114 23.8096 97.5793 32.1183L97.5775 32.1219C84.5233 56.0386 71.9768 79.0251 51.7107 99.5782C24.4705 127.204 -16.7561 150.422 -91.9844 165.004L-91.6038 166.968ZM53.1348 135.726C25.5295 163.722 -16.1113 187.077 -91.6038 201.711L-91.9844 199.747C-16.7561 185.165 24.4705 161.947 51.7107 134.321C71.9768 113.768 84.5233 90.7814 97.5775 66.8647L97.5793 66.8611C102.114 58.5524 106.711 50.1315 111.713 41.6614C131.092 8.85116 156.426 -24.3721 207.659 -53.7753C258.855 -83.1574 335.858 -108.694 458.523 -126.277C820.525 -178.168 972.152 -300.619 1084.86 -391.643C1124.78 -423.88 1159.82 -452.175 1197.59 -471.998C1298.43 -524.919 1395.92 -527.632 1509.38 -521.259L1509.27 -519.262C1395.89 -525.63 1298.86 -522.885 1198.52 -470.227C1161.08 -450.577 1126.22 -422.424 1086.43 -390.293V-390.292C973.699 -299.251 821.425 -176.276 458.807 -124.297C336.27 -106.732 259.544 -81.2471 208.654 -52.0407C157.801 -22.8556 132.691 10.0755 113.435 42.6783C108.507 51.0234 103.952 59.3684 99.4405 67.6354C86.3484 91.6238 73.6149 114.955 53.1348 135.726ZM-91.6038 236.453C-16.1113 221.819 25.5295 198.464 53.1348 170.468C73.6149 149.698 86.3484 126.366 99.4405 102.378C103.952 94.1107 108.507 85.7659 113.435 77.4208C132.691 44.818 157.801 11.8867 208.654 -17.2985C259.544 -46.5048 336.27 -71.9902 458.807 -89.5551C821.425 -141.534 973.699 -264.509 1086.43 -355.549V-355.55V-355.551C1126.22 -387.681 1161.08 -415.834 1198.52 -435.484C1298.86 -488.143 1395.89 -490.888 1509.27 -484.52L1509.38 -486.516C1395.92 -492.89 1298.43 -490.176 1197.59 -437.255C1159.82 -417.433 1124.78 -389.137 1084.86 -356.9C972.152 -265.877 820.525 -143.425 458.523 -91.5349C335.858 -73.9516 258.855 -48.415 207.659 -19.033C156.426 10.3702 131.092 43.5936 111.713 76.4037C106.711 84.8739 102.114 93.2949 97.5793 101.604L97.5775 101.607C84.5233 125.524 71.9768 148.511 51.7107 169.064C24.4705 196.69 -16.7561 219.907 -91.9844 234.49L-91.6038 236.453ZM53.1348 205.21C25.5295 233.206 -16.1113 256.561 -91.6038 271.195L-91.9844 269.231C-16.7561 254.649 24.4705 231.431 51.7107 203.805C71.9768 183.252 84.5233 160.266 97.5775 136.349L97.5793 136.345C102.114 128.037 106.711 119.616 111.713 111.146C131.092 78.3352 156.426 45.1119 207.659 15.7087C258.855 -13.6733 335.858 -39.2099 458.523 -56.7932C820.525 -108.684 972.152 -231.135 1084.86 -322.159C1124.78 -354.396 1159.82 -382.691 1197.59 -402.514C1298.43 -455.435 1395.92 -458.148 1509.38 -451.775L1509.27 -449.778C1395.89 -456.146 1298.86 -453.401 1198.52 -400.743C1161.08 -381.093 1126.22 -352.94 1086.43 -320.809V-320.808V-320.807C973.699 -229.767 821.425 -106.792 458.807 -54.8134C336.27 -37.2485 259.544 -11.7631 208.654 17.4432C157.801 46.6284 132.691 79.5597 113.435 112.163C108.507 120.508 103.952 128.853 99.4405 137.12C86.3484 161.108 73.6149 184.44 53.1348 205.21ZM-91.6038 305.937C-16.1113 291.303 25.5295 267.948 53.1348 239.951C73.6149 219.181 86.3484 195.85 99.4405 171.861C103.952 163.594 108.507 155.25 113.435 146.904C132.691 114.302 157.801 81.3702 208.654 52.1851C259.544 22.9787 336.27 -2.50678 458.807 -20.0717C821.425 -72.0507 973.699 -195.026 1086.43 -286.066V-286.067C1126.22 -318.198 1161.08 -346.351 1198.52 -366.001C1298.86 -418.659 1395.89 -421.405 1509.27 -415.036L1509.38 -417.033C1395.92 -423.406 1298.43 -420.693 1197.59 -367.772C1159.82 -347.949 1124.78 -319.654 1084.86 -287.417C972.152 -196.393 820.525 -73.9421 458.523 -22.0515C335.858 -4.46821 258.855 21.0684 207.659 50.4504C156.426 79.8536 131.092 113.077 111.713 145.887C106.711 154.358 102.114 162.779 97.5793 171.087L97.5775 171.091C84.5233 195.007 71.9768 217.994 51.7107 238.547C24.4705 266.173 -16.7561 289.391 -91.9844 303.973L-91.6038 305.937ZM53.1348 274.693C25.5295 302.689 -16.1113 326.045 -91.6038 340.678L-91.9844 338.715C-16.7561 324.132 24.4705 300.915 51.7107 273.289C71.9768 252.736 84.5233 229.749 97.5775 205.832L97.5793 205.829C102.114 197.52 106.711 189.099 111.713 180.629C131.092 147.819 156.426 114.596 207.659 85.1921C258.855 55.8101 335.858 30.2734 458.523 12.6902C820.525 -39.2004 972.152 -161.651 1084.86 -252.675C1124.78 -284.912 1159.82 -313.208 1197.59 -333.03C1298.43 -385.951 1395.92 -388.664 1509.38 -382.291L1509.27 -380.294C1395.89 -386.663 1298.86 -383.918 1198.52 -331.259C1161.08 -311.609 1126.22 -283.455 1086.43 -251.324C973.699 -160.284 821.425 -37.309 458.807 14.67C336.27 32.2349 259.544 57.7204 208.654 86.9268C157.801 116.112 132.691 149.043 113.435 181.646C108.507 189.991 103.952 198.336 99.4405 206.603C86.3484 230.591 73.6149 253.923 53.1348 274.693ZM-91.6038 375.42C-16.1113 360.786 25.5295 337.431 53.1348 309.435C73.6147 288.665 86.3482 265.334 99.4402 241.345H99.4405C103.952 233.078 108.507 224.733 113.435 216.388C132.691 183.785 157.801 150.854 208.654 121.669C259.544 92.4621 336.27 66.9766 458.807 49.4117C821.425 -2.56724 973.699 -125.542 1086.43 -216.582C1126.22 -248.714 1161.08 -276.867 1198.52 -296.518C1298.86 -349.176 1395.89 -351.921 1509.27 -345.553L1509.38 -347.55C1395.92 -353.923 1298.43 -351.209 1197.59 -298.289C1159.82 -278.466 1124.78 -250.171 1084.86 -217.933C972.152 -126.91 820.525 -4.45866 458.523 47.4319C335.858 65.0152 258.855 90.5518 207.659 119.934C156.426 149.337 131.092 182.561 111.713 215.371C106.711 223.841 102.114 232.262 97.5793 240.571L97.5775 240.574L97.5772 240.575L97.5767 240.576H97.5765L97.576 240.577L97.5754 240.578C84.522 264.493 71.9758 287.478 51.7107 308.031C24.4705 335.656 -16.7561 358.874 -91.9844 373.456L-91.6038 375.42ZM53.1348 344.176C25.5295 372.173 -16.1113 395.528 -91.6038 410.161L-91.9844 408.198C-16.7561 393.616 24.4705 370.398 51.7107 342.772C71.9768 322.219 84.5233 299.232 97.5775 275.316C102.113 267.006 106.71 258.584 111.713 250.112C131.092 217.302 156.426 184.079 207.659 154.676C258.855 125.294 335.858 99.7569 458.523 82.1736C820.525 30.2831 972.152 -92.1683 1084.86 -183.192C1124.78 -215.429 1159.82 -243.724 1197.59 -263.547C1298.43 -316.468 1395.92 -319.181 1509.38 -312.808L1509.27 -310.811C1395.89 -317.18 1298.86 -314.434 1198.52 -261.776C1161.08 -242.126 1126.22 -213.972 1086.43 -181.841C973.699 -90.8008 821.425 32.1745 458.807 84.1534C336.27 101.719 259.544 127.204 208.654 156.41C157.801 185.595 132.691 218.527 113.435 251.13C108.507 259.474 103.952 267.819 99.4405 276.086C86.3484 300.075 73.6149 323.406 53.1348 344.176ZM-91.6038 444.903C-16.1113 430.27 25.5295 406.914 53.1348 378.918C73.6149 358.148 86.3484 334.817 99.4405 310.828C103.952 302.561 108.507 294.216 113.435 285.871C132.691 253.268 157.801 220.337 208.654 191.152C259.544 161.946 336.27 136.46 458.807 118.895C821.425 66.9162 973.699 -56.059 1086.43 -147.099C1126.22 -179.23 1161.08 -207.384 1198.52 -227.034C1298.86 -279.693 1395.89 -282.438 1509.27 -276.069L1509.38 -278.066C1395.92 -284.439 1298.43 -281.726 1197.59 -228.805C1159.82 -208.983 1124.78 -180.687 1084.86 -148.45C972.152 -57.4266 820.525 65.0248 458.523 116.916C335.858 134.499 258.855 160.035 207.659 189.417C156.426 218.821 131.092 252.044 111.713 284.854C106.71 293.325 102.113 301.748 97.5775 310.057C84.5233 333.974 71.9768 356.961 51.7107 377.514C24.4705 405.14 -16.7561 428.357 -91.9844 442.94L-91.6038 444.903ZM53.1348 413.66C25.5295 441.656 -16.1113 465.011 -91.6038 479.645L-91.9844 477.682C-16.7561 463.099 24.4705 439.881 51.7107 412.256C71.9768 391.703 84.5233 368.716 97.5775 344.799C102.113 336.489 106.71 328.067 111.713 319.596C131.092 286.786 156.426 253.562 207.659 224.159C258.855 194.777 335.858 169.24 458.523 151.657C820.525 99.7664 972.152 -22.6849 1084.86 -113.708C1124.78 -145.946 1159.82 -174.241 1197.59 -194.063C1298.43 -246.984 1395.92 -249.698 1509.38 -243.325L1509.27 -241.328C1395.89 -247.696 1298.86 -244.951 1198.52 -192.292C1161.08 -172.642 1126.22 -144.489 1086.43 -112.357C973.699 -21.3173 821.425 101.658 458.807 153.637C336.27 171.202 259.544 196.687 208.654 225.894C157.801 255.079 132.691 288.01 113.435 320.613C108.507 328.958 103.952 337.303 99.4405 345.57C86.3484 369.558 73.6149 392.89 53.1348 413.66ZM-91.6038 514.386C-16.1113 499.753 25.5295 476.397 53.1348 448.401C73.6149 427.631 86.3484 404.299 99.4405 380.311C103.952 372.044 108.507 363.699 113.435 355.354C132.691 322.751 157.801 289.82 208.654 260.635C259.544 231.429 336.27 205.943 458.807 188.378C821.425 136.399 973.699 13.4239 1086.43 -77.6162C1126.22 -109.747 1161.08 -137.901 1198.52 -157.551C1298.86 -210.21 1395.89 -212.955 1509.27 -206.586L1509.38 -208.583C1395.92 -214.956 1298.43 -212.243 1197.59 -159.322C1159.82 -139.5 1124.78 -111.204 1084.86 -78.9673C972.152 12.0564 820.525 134.508 458.523 186.398C335.858 203.982 258.855 229.518 207.659 258.9C156.426 288.303 131.092 321.527 111.713 354.337C106.71 362.808 102.113 371.23 97.5775 379.54C84.5233 403.457 71.9768 426.444 51.7107 446.997C24.4705 474.623 -16.7561 497.84 -91.9844 512.423L-91.6038 514.386ZM53.1348 483.144C25.5295 511.14 -16.1113 534.495 -91.6038 549.129L-91.9844 547.166C-16.7561 532.583 24.4705 509.365 51.7107 481.74C71.9768 461.187 84.5233 438.2 97.5775 414.283C102.113 405.973 106.71 397.551 111.713 389.08C131.092 356.27 156.426 323.046 207.659 293.643C258.855 264.261 335.858 238.724 458.523 221.141C820.525 169.251 972.152 46.7991 1084.86 -44.2245C1124.78 -76.4618 1159.82 -104.757 1197.59 -124.579C1298.43 -177.5 1395.92 -180.214 1509.38 -173.841L1509.27 -171.844C1395.89 -178.212 1298.86 -175.467 1198.52 -122.808C1161.08 -103.158 1126.22 -75.0049 1086.43 -42.8734C973.699 48.1667 821.425 171.142 458.807 223.121C336.27 240.686 259.544 266.171 208.654 295.378C157.801 324.563 132.691 357.494 113.435 390.097C108.507 398.442 103.952 406.787 99.4405 415.054C86.3484 439.042 73.6149 462.374 53.1348 483.144ZM-91.6038 583.87C-16.1113 569.236 25.5295 545.881 53.1348 517.885C73.6149 497.115 86.3484 473.783 99.4405 449.795C103.952 441.528 108.507 433.183 113.435 424.838C132.691 392.235 157.801 359.304 208.654 330.119C259.544 300.912 336.27 275.427 458.807 257.862C821.425 205.883 973.699 82.9074 1086.43 -8.13275C1126.22 -40.2642 1161.08 -68.4177 1198.52 -88.0679C1298.86 -140.726 1395.89 -143.471 1509.27 -137.103L1509.38 -139.1C1395.92 -145.473 1298.43 -142.76 1197.59 -89.8389C1159.82 -70.0163 1124.78 -41.721 1084.86 -9.48383C972.152 81.5399 820.525 203.991 458.523 255.882C335.858 273.465 258.855 299.002 207.659 328.384C156.426 357.787 131.092 391.01 111.713 423.821C106.71 432.292 102.113 440.714 97.5775 449.024C84.5233 472.941 71.9768 495.927 51.7107 516.48C24.4705 544.106 -16.7561 567.324 -91.9844 581.906L-91.6038 583.87ZM53.1348 552.627C25.5295 580.624 -16.1113 603.979 -91.6038 618.612L-91.9844 616.649C-16.7561 602.067 24.4705 578.849 51.7107 551.223C71.9768 530.67 84.5233 507.683 97.5775 483.767C102.113 475.457 106.71 467.035 111.713 458.563C131.092 425.753 156.426 392.53 207.659 363.127C258.855 333.745 335.858 308.208 458.523 290.625C820.525 238.734 972.152 116.283 1084.86 25.259C1124.78 -6.97826 1159.82 -35.2735 1197.59 -55.0961C1298.43 -108.017 1395.92 -110.73 1509.38 -104.357L1509.27 -102.36C1395.89 -108.729 1298.86 -105.983 1198.52 -53.3251C1161.08 -33.6749 1126.22 -5.52143 1086.43 26.61C973.699 117.65 821.425 240.626 458.807 292.604C336.27 310.169 259.544 335.655 208.654 364.861C157.801 394.046 132.691 426.978 113.435 459.58C108.507 467.925 103.952 476.27 99.4405 484.537C86.3484 508.526 73.6149 531.857 53.1348 552.627ZM53.1348 587.368C25.5295 615.364 -16.1113 638.719 -91.6038 653.353L-91.9844 651.39C-16.7561 636.807 24.4705 613.589 51.7107 585.964C71.9768 565.411 84.5233 542.424 97.5775 518.507C102.113 510.197 106.71 501.775 111.713 493.304C131.092 460.494 156.426 427.27 207.659 397.867C258.855 368.485 335.858 342.948 458.523 325.365C820.525 273.475 972.152 151.023 1084.86 59.9995C1124.78 27.7622 1159.82 -0.533089 1197.59 -20.3557C1298.43 -73.2767 1395.92 -75.9899 1509.38 -69.6168L1509.27 -67.6199C1395.89 -73.9884 1298.86 -71.2432 1198.52 -18.5847C1161.08 1.06554 1126.22 29.2191 1086.43 61.3506C973.699 152.391 821.425 275.366 458.807 327.345C336.27 344.91 259.544 370.395 208.654 399.602C157.801 428.787 132.691 461.718 113.435 494.321C108.507 502.666 103.952 511.011 99.4405 519.278C86.3484 543.266 73.6149 566.598 53.1348 587.368Z" fill="url(#paint0_radial_930_26351)"/>
</g>
<defs>
<radialGradient id="paint0_radial_930_26351" cx="0" cy="0" r="1" gradientUnits="userSpaceOnUse" gradientTransform="translate(-11.0001 443) rotate(-20.8827) scale(1262.43 1022.76)">

  <stop offset="-1" stop-color="#151534">
    <animate attributeName="offset" values="-1; -0.5; 0; 0.5; 1; 1.5; 1.5;" dur="4s" repeatCount="indefinite"></animate>
  </stop>

  <stop offset="-1" stop-color="#4D448D">
    <animate attributeName="offset" values="-0.5; 0; 0.5; 1; 1.5; 2; 2;" dur="4s" repeatCount="indefinite"></animate>
  </stop>

  <stop offset="0" stop-color="#151534">
    <animate attributeName="offset" values="0; 0.5; 1; 1.5; 2; 2.5; 2.5;" dur="4s" repeatCount="indefinite"></animate>
  </stop>

</radialGradient>
<clipPath id="clip0_930_26351">
<rect width="1440" height="654" fill="white"/>
</clipPath>
</defs>
</svg>
