<svg width="1168" height="625" viewBox="0 0 1168 625" fill="none" xmlns="http://www.w3.org/2000/svg">
<path class="lines" fill-rule="evenodd" clip-rule="evenodd" d="M0 31.9176C19.4618 22.3498 34.5886 11.6003 46.9478 0H49.8514C36.8683 12.4873 20.861 23.9942 0 34.144V31.9176ZM0 68.8857V66.6594C22.0362 55.826 38.5145 43.4775 51.7107 30.0945C61.1331 20.5387 68.8868 10.4568 75.7987 0H78.1877C71.0256 10.95 62.9742 21.52 53.1348 31.4988C39.5855 45.24 22.6549 57.8632 0 68.8857ZM0 103.629V101.402C22.0362 90.5688 38.5145 78.2203 51.7107 64.8373C71.236 45.0356 83.5957 22.9749 96.1475 0H98.4316C85.6887 23.3377 73.0885 46.0054 53.1348 66.2416C39.5855 79.9828 22.6549 92.6059 0 103.629ZM0 138.369V136.143C22.0362 125.309 38.5145 112.961 51.7107 99.578C71.9767 79.025 84.5232 56.0384 97.5773 32.1219L97.5775 32.1216L97.5793 32.1181C102.114 23.8094 106.711 15.3884 111.713 6.91827C113.074 4.61373 114.465 2.30715 115.892 0H118.246C116.597 2.64583 114.997 5.29168 113.435 7.93536C108.507 16.2804 103.952 24.6253 99.4405 32.8923L99.4403 32.8926C86.3483 56.8809 73.6148 80.2122 53.1348 100.982C39.5855 114.723 22.6549 127.347 0 138.369ZM0 173.112V170.886C22.0362 160.052 38.5145 147.704 51.7107 134.321C71.9767 113.768 84.5232 90.7812 97.5773 66.8647L97.5775 66.8644L97.5793 66.8609C102.114 58.5522 106.711 50.1312 111.713 41.6611C119.935 27.7407 129.229 13.7459 141.118 0H143.771C131.423 14.0609 121.868 28.401 113.435 42.6782C108.507 51.0232 103.952 59.3681 99.4405 67.6351L99.4404 67.6354C86.3483 91.6237 73.6148 114.955 53.1348 135.725C39.5855 149.466 22.6549 162.089 0 173.112ZM0 207.854V205.628C22.0362 194.795 38.5145 182.446 51.7107 169.063C71.9767 148.51 84.5232 125.524 97.5773 101.607L97.5775 101.607L97.5793 101.603C102.114 93.2946 106.711 84.8736 111.713 76.4034C127.013 50.4987 146.026 24.3364 178.566 0H181.929C148.321 24.5937 128.973 51.114 113.435 77.4205C108.507 85.7656 103.952 94.1105 99.4405 102.377L99.4403 102.378C86.3483 126.366 73.6148 149.697 53.1348 170.467C39.5855 184.209 22.6549 196.832 0 207.854ZM0 242.596V240.37C22.0362 229.536 38.5145 217.188 51.7107 203.805C71.9767 183.252 84.5232 160.265 97.5773 136.349L97.5775 136.348L97.5793 136.345C102.114 128.036 106.711 119.615 111.713 111.145C131.092 78.335 156.426 45.1116 207.659 15.7084C217.021 10.3353 227.246 5.0908 238.456 0H243.35C230.587 5.63417 219.078 11.4606 208.654 17.4431C157.801 46.6282 132.691 79.5594 113.435 112.162C108.507 120.507 103.952 128.852 99.4405 137.119L99.4404 137.119C86.3483 161.108 73.6148 184.439 53.1348 205.209C39.5855 218.95 22.6549 231.573 0 242.596ZM0 277.338V275.111C22.0362 264.278 38.5145 251.93 51.7107 238.547C71.9767 217.994 84.5232 195.007 97.5773 171.09L97.5775 171.09L97.5793 171.087C102.114 162.778 106.711 154.357 111.713 145.887C131.092 113.077 156.426 79.8534 207.659 50.4502C240.304 31.715 283.441 14.5432 342.219 0H350.706C287.945 14.9145 242.564 32.7236 208.654 52.1848C157.801 81.3699 132.691 114.301 113.435 146.904C108.507 155.249 103.952 163.594 99.4405 171.861L99.4403 171.861C86.3483 195.85 73.6148 219.181 53.1348 239.951C39.5855 253.692 22.6549 266.315 0 277.338ZM0 312.08V309.853C22.0362 299.02 38.5145 286.671 51.7107 273.288C71.9767 252.735 84.5232 229.749 97.5773 205.832L97.5775 205.832L97.5793 205.828C102.114 197.52 106.711 189.099 111.713 180.629C131.092 147.818 156.426 114.595 207.659 85.1919C258.855 55.8099 335.858 30.2733 458.523 12.69C485.414 8.83542 511.143 4.59148 535.782 0H546.507C518.713 5.35738 489.514 10.2681 458.807 14.6698C336.27 32.2347 259.544 57.7202 208.654 86.9265C157.801 116.112 132.691 149.043 113.435 181.646C108.507 189.991 103.952 198.336 99.4405 206.603L99.4404 206.603C86.3483 230.591 73.6148 253.923 53.1348 274.693C39.5855 288.434 22.6549 301.057 0 312.08ZM0 346.821V344.595C22.0362 333.761 38.5145 321.413 51.7107 308.03C71.9758 287.478 84.522 264.492 97.5754 240.577L97.576 240.576L97.5765 240.576L97.5767 240.575L97.5772 240.574L97.5775 240.574L97.5793 240.57C102.114 232.261 106.711 223.84 111.713 215.37C131.092 182.56 156.426 149.337 207.659 119.934C258.855 90.5515 335.858 65.0149 458.523 47.4316C544.325 35.1325 618.309 18.8692 682.757 0H689.751C623.699 19.7169 547.552 36.6904 458.807 49.4114C336.27 66.9763 259.544 92.4618 208.654 121.668C157.801 150.853 132.691 183.784 113.435 216.387C108.507 224.732 103.952 233.077 99.4405 241.344L99.4402 241.345C86.3482 265.333 73.6147 288.664 53.1348 309.434C39.5855 323.175 22.6549 335.799 0 346.821ZM0 381.563V379.336C22.0362 368.503 38.5145 356.155 51.7107 342.772C71.9766 322.219 84.523 299.232 97.577 275.316L97.5775 275.315C102.113 267.005 106.71 258.583 111.713 250.112C131.092 217.302 156.426 184.078 207.659 154.675C258.855 125.293 335.858 99.7566 458.523 82.1733C593.482 62.8279 699.201 33.6752 784.565 0H789.917C703.587 34.5189 596.322 64.4412 458.807 84.1531C336.27 101.718 259.544 127.203 208.654 156.41C157.801 185.595 132.691 218.526 113.435 251.129C108.507 259.474 103.952 267.819 99.4405 276.086L99.4402 276.086C86.3482 300.075 73.6147 323.406 53.1348 344.176C39.5855 357.917 22.6549 370.54 0 381.563ZM0 416.305V414.078C22.0362 403.245 38.5145 390.896 51.7107 377.513C71.9766 356.961 84.523 333.974 97.577 310.058L97.5775 310.057C102.113 301.747 106.71 293.325 111.713 284.854C131.092 252.043 156.426 218.82 207.659 189.417C258.855 160.035 335.858 134.498 458.523 116.915C638.163 91.1649 765.997 48.0388 862.978 0H867.418C769.801 48.8395 640.794 92.8082 458.807 118.895C336.27 136.46 259.544 161.945 208.654 191.152C157.801 220.337 132.691 253.268 113.435 285.871C108.507 294.216 103.952 302.561 99.4405 310.828L99.4402 310.828C86.3482 334.816 73.6147 358.148 53.1348 378.918C39.5855 392.659 22.6549 405.282 0 416.305ZM0 451.046V448.82C22.0362 437.987 38.5145 425.638 51.7107 412.255C71.9766 391.702 84.523 368.716 97.577 344.8L97.5775 344.799C102.113 336.489 106.71 328.067 111.713 319.595C131.092 286.785 156.426 253.562 207.659 224.159C258.855 194.777 335.858 169.24 458.523 151.657C680.646 119.817 823.563 61.4109 926.884 0H930.77C827.002 62.1374 683.166 121.476 458.807 153.637C336.27 171.201 259.544 196.687 208.654 225.893C157.801 255.078 132.691 288.01 113.435 320.612C108.507 328.957 103.952 337.302 99.4405 345.569L99.4402 345.57C86.3482 369.558 73.6147 392.889 53.1348 413.659C39.5855 427.4 22.6549 440.024 0 451.046ZM0 485.787V483.561C22.0362 472.728 38.5145 460.379 51.7107 446.996C71.9766 426.443 84.523 403.457 97.577 379.541L97.5775 379.54C102.113 371.23 106.71 362.808 111.713 354.337C131.092 321.526 156.426 288.303 207.659 258.9C258.855 229.518 335.858 203.981 458.523 186.398C722.337 148.582 874.422 73.2912 981.139 0H984.681C877.634 73.9091 724.818 150.247 458.807 188.378C336.27 205.943 259.544 231.428 208.654 260.635C157.801 289.82 132.691 322.751 113.435 355.354C108.507 363.699 103.952 372.044 99.4405 380.311L99.4402 380.311C86.3482 404.299 73.6147 427.631 53.1348 448.401C39.5855 462.142 22.6549 474.765 0 485.787ZM0 520.53V518.304C22.0362 507.471 38.5145 495.122 51.7107 481.739C71.9766 461.186 84.523 438.2 97.577 414.284L97.5775 414.283C102.113 405.973 106.71 397.551 111.713 389.079C131.092 356.269 156.426 323.046 207.659 293.643C258.855 264.261 335.858 238.724 458.523 221.141C764.398 177.296 920.077 83.0737 1028.99 0H1032.33C923.162 83.5358 766.912 178.956 458.807 223.121C336.27 240.685 259.544 266.171 208.654 295.377C157.801 324.562 132.691 357.494 113.435 390.096C108.507 398.441 103.952 406.786 99.4405 415.053L99.4402 415.054C86.3482 439.042 73.6147 462.373 53.1348 483.143C39.5855 496.884 22.6549 509.508 0 520.53ZM0 555.271V553.045C22.0362 542.211 38.5145 529.863 51.7107 516.48C71.9766 495.927 84.523 472.941 97.577 449.024L97.5775 449.023C102.113 440.714 106.71 432.291 111.713 423.82C131.092 391.01 156.426 357.786 207.659 328.383C258.855 299.001 335.858 273.465 458.523 255.881C808.094 205.773 961.491 89.8661 1073.11 0H1076.35C964.537 90.0967 810.734 207.415 458.807 257.861C336.27 275.426 259.544 300.912 208.654 330.118C157.801 359.303 132.691 392.234 113.435 424.837C108.507 433.182 103.952 441.527 99.4405 449.794L99.4402 449.795C86.3482 473.783 73.6147 497.114 53.1348 517.884C39.5855 531.625 22.6549 544.248 0 555.271ZM0 590.014V587.787C22.0362 576.954 38.5145 564.606 51.7107 551.223C71.9766 530.67 84.523 507.683 97.577 483.767L97.5775 483.766C102.113 475.456 106.71 467.034 111.713 458.563C131.092 425.753 156.426 392.529 207.659 363.126C258.855 333.744 335.858 308.208 458.523 290.624C820.525 238.734 972.152 116.282 1084.86 25.2587C1095.69 16.5194 1106.15 8.06969 1116.4 0H1119.69C1108.89 8.46977 1097.86 17.3755 1086.43 26.6098C973.699 117.65 821.425 240.625 458.807 292.604C336.27 310.169 259.544 335.654 208.654 364.861C157.801 394.046 132.691 426.977 113.435 459.58C108.507 467.925 103.952 476.27 99.4405 484.537L99.4402 484.537C86.3482 508.526 73.6147 531.857 53.1348 552.627C39.5855 566.368 22.6549 578.991 0 590.014ZM0 624.754V622.528C22.0362 611.695 38.5145 599.346 51.7107 585.963C71.9766 565.41 84.523 542.424 97.577 518.507L97.5775 518.507C102.113 510.197 106.71 501.775 111.713 493.303C131.092 460.493 156.426 427.27 207.659 397.867C258.855 368.485 335.858 342.948 458.523 325.365C820.525 273.474 972.152 151.023 1084.86 59.9992C1112.62 37.5866 1138.01 17.0793 1163.6 0H1167.24C1140.99 17.2875 1114.98 38.2948 1086.43 61.3503C973.699 152.39 821.425 275.366 458.807 327.344C336.27 344.909 259.544 370.395 208.654 399.601C157.801 428.786 132.691 461.718 113.435 494.32C108.507 502.665 103.952 511.01 99.4405 519.277L99.4402 519.278C86.3482 543.266 73.6147 566.597 53.1348 587.367C39.5855 601.109 22.6549 613.732 0 624.754Z" fill="rgba(170,210,255,0.1)"/>
</svg>
