<svg width="218" height="231" viewBox="0 0 218 231" fill="none" xmlns="http://www.w3.org/2000/svg">
<g filter="url(#filter0_dd_1002_24998)">
<rect x="31" y="24" width="140" height="140" rx="24" fill="#343539"/>
</g>
<g filter="url(#filter1_d_1002_24998)">
<path d="M31 48C31 34.7452 41.7452 24 55 24H147C160.255 24 171 34.7452 171 48V56H31V48Z" fill="#4D4F54"/>
</g>
<mask id="mask0_1002_24998" style="mask-type:alpha" maskUnits="userSpaceOnUse" x="33" y="24" width="136" height="138">
<rect x="33" y="24" width="136" height="138" rx="24" fill="#343539"/>
</mask>
<g mask="url(#mask0_1002_24998)">
<g filter="url(#filter2_d_1002_24998)">
<rect x="69" y="76" width="64" height="10" rx="2" fill="#4D4F54"/>
</g>
<g filter="url(#filter3_d_1002_24998)">
<rect x="69" y="100" width="64" height="6" rx="2" fill="#4D4F54"/>
</g>
<g filter="url(#filter4_d_1002_24998)">
<rect x="69" y="146" width="64" height="10" rx="2" fill="#4D4F54"/>
</g>
<rect x="17" y="64" width="48" height="10" rx="2" fill="#4D4F54"/>
<rect x="137" y="64" width="48" height="10" rx="2" fill="#4D4F54"/>
<rect x="137" y="76" width="48" height="6" rx="2" fill="#4D4F54"/>
<rect x="17" y="146" width="48" height="10" rx="2" fill="#4D4F54"/>
<rect x="137" y="84" width="48" height="10" rx="2" fill="#4D4F54"/>
<g filter="url(#filter5_d_1002_24998)">
<rect x="69" y="68" width="64" height="6" rx="2" fill="#4D4F54"/>
</g>
<path fill-rule="evenodd" clip-rule="evenodd" d="M17 78C17 76.8954 17.8954 76 19 76H63C64.1046 76 65 76.8954 65 78V84C65 85.1046 64.1046 86 63 86H19C17.8954 86 17 85.1046 17 84V78ZM71 88C69.8954 88 69 88.8954 69 90V96C69 97.1046 69.8954 98 71 98H131C132.105 98 133 97.1046 133 96V90C133 88.8954 132.105 88 131 88H71ZM71 134C69.8954 134 69 134.895 69 136V142C69 143.105 69.8954 144 71 144H131C132.105 144 133 143.105 133 142V136C133 134.895 132.105 134 131 134H71ZM139 122C137.895 122 137 122.895 137 124V126C137 127.105 137.895 128 139 128H183C184.105 128 185 127.105 185 126V124C185 122.895 184.105 122 183 122H139Z" fill="url(#paint0_radial_1002_24998)"/>
</g>
<g filter="url(#filter6_ddi_1002_24998)">
<path d="M135.957 114.393C136.318 114.393 136.602 114.129 136.67 113.738C137.471 107.586 138.34 106.707 144.346 106.043C144.736 106.004 145.02 105.711 145.02 105.33C145.02 104.949 144.736 104.656 144.346 104.607C138.34 103.943 137.48 103.074 136.67 96.9121C136.602 96.5312 136.318 96.2676 135.957 96.2676C135.596 96.2676 135.303 96.5312 135.234 96.9121C134.434 103.074 133.574 103.953 127.568 104.607C127.168 104.656 126.885 104.949 126.885 105.33C126.885 105.711 127.168 105.994 127.568 106.043C133.574 106.844 134.385 107.596 135.234 113.738C135.303 114.129 135.596 114.393 135.957 114.393Z" fill="#FDFFE6"/>
</g>
<g filter="url(#filter7_ddi_1002_24998)">
<path d="M113.752 87.2036C114.253 87.2036 114.636 86.8477 114.728 86.3203C115.796 78.0278 116.969 76.8545 125.051 75.958C125.591 75.9053 125.974 75.4966 125.974 74.9956C125.974 74.4814 125.591 74.0859 125.051 74.02C116.969 73.1235 115.809 71.9634 114.728 63.6709C114.636 63.1436 114.253 62.7876 113.752 62.7876C113.278 62.7876 112.882 63.1436 112.79 63.6709C111.709 71.9634 110.549 73.1367 102.467 74.02C101.927 74.0859 101.544 74.4814 101.544 74.9956C101.544 75.4966 101.927 75.8921 102.467 75.958C110.549 77.0391 111.643 78.041 112.79 86.3203C112.882 86.8477 113.278 87.2036 113.752 87.2036Z" fill="#FDFFE6"/>
</g>
<g filter="url(#filter8_dd_1002_24998)">
<path d="M129.094 174.9L175.609 47.1017C175.609 47.1017 177.721 45.6858 181.949 47.2249C186.178 48.764 186.885 51.206 186.885 51.206L140.371 179.004C140.371 179.004 138.277 180.371 134.048 178.831C129.82 177.292 129.094 174.9 129.094 174.9Z" fill="url(#paint1_linear_1002_24998)"/>
<path d="M129.094 174.9L175.609 47.1017C175.609 47.1017 177.721 45.6858 181.949 47.2249C186.178 48.764 186.885 51.206 186.885 51.206L140.371 179.004C140.371 179.004 138.277 180.371 134.048 178.831C129.82 177.292 129.094 174.9 129.094 174.9Z" fill="url(#paint2_radial_1002_24998)"/>
<path d="M129.094 174.9L175.609 47.1017C175.609 47.1017 177.721 45.6858 181.949 47.2249C186.178 48.764 186.885 51.206 186.885 51.206L140.371 179.004C140.371 179.004 138.277 180.371 134.048 178.831C129.82 177.292 129.094 174.9 129.094 174.9Z" fill="url(#paint3_radial_1002_24998)" fill-opacity="0.2"/>
</g>
<g filter="url(#filter9_dd_1002_24998)">
<path d="M167.402 69.6543L175.611 47.1017C175.611 47.1017 177.722 45.6858 181.951 47.2249C186.18 48.7639 186.887 51.2059 186.887 51.2059L178.679 73.7585C178.679 73.7585 177.953 71.3661 173.725 69.827C169.496 68.2879 167.402 69.6543 167.402 69.6543Z" fill="url(#paint4_linear_1002_24998)"/>
</g>
<defs>
<filter id="filter0_dd_1002_24998" x="0" y="13" width="202" height="202" filterUnits="userSpaceOnUse" color-interpolation-filters="sRGB">
<feFlood flood-opacity="0" result="BackgroundImageFix"/>
<feColorMatrix in="SourceAlpha" type="matrix" values="0 0 0 0 0 0 0 0 0 0 0 0 0 0 0 0 0 0 127 0" result="hardAlpha"/>
<feOffset dy="2"/>
<feGaussianBlur stdDeviation="4"/>
<feColorMatrix type="matrix" values="0 0 0 0 0 0 0 0 0 0 0 0 0 0 0 0 0 0 0.2 0"/>
<feBlend mode="normal" in2="BackgroundImageFix" result="effect1_dropShadow_1002_24998"/>
<feColorMatrix in="SourceAlpha" type="matrix" values="0 0 0 0 0 0 0 0 0 0 0 0 0 0 0 0 0 0 127 0" result="hardAlpha"/>
<feMorphology radius="1" operator="dilate" in="SourceAlpha" result="effect2_dropShadow_1002_24998"/>
<feOffset dy="20"/>
<feGaussianBlur stdDeviation="15"/>
<feColorMatrix type="matrix" values="0 0 0 0 0 0 0 0 0 0 0 0 0 0 0 0 0 0 0.1 0"/>
<feBlend mode="normal" in2="effect1_dropShadow_1002_24998" result="effect2_dropShadow_1002_24998"/>
<feBlend mode="normal" in="SourceGraphic" in2="effect2_dropShadow_1002_24998" result="shape"/>
</filter>
<filter id="filter1_d_1002_24998" x="29.5" y="23" width="143" height="35" filterUnits="userSpaceOnUse" color-interpolation-filters="sRGB">
<feFlood flood-opacity="0" result="BackgroundImageFix"/>
<feColorMatrix in="SourceAlpha" type="matrix" values="0 0 0 0 0 0 0 0 0 0 0 0 0 0 0 0 0 0 127 0" result="hardAlpha"/>
<feMorphology radius="0.5" operator="dilate" in="SourceAlpha" result="effect1_dropShadow_1002_24998"/>
<feOffset dy="0.5"/>
<feGaussianBlur stdDeviation="0.5"/>
<feColorMatrix type="matrix" values="0 0 0 0 0 0 0 0 0 0 0 0 0 0 0 0 0 0 0.1 0"/>
<feBlend mode="normal" in2="BackgroundImageFix" result="effect1_dropShadow_1002_24998"/>
<feBlend mode="normal" in="SourceGraphic" in2="effect1_dropShadow_1002_24998" result="shape"/>
</filter>
<filter id="filter2_d_1002_24998" x="67.5" y="75" width="67" height="13" filterUnits="userSpaceOnUse" color-interpolation-filters="sRGB">
<feFlood flood-opacity="0" result="BackgroundImageFix"/>
<feColorMatrix in="SourceAlpha" type="matrix" values="0 0 0 0 0 0 0 0 0 0 0 0 0 0 0 0 0 0 127 0" result="hardAlpha"/>
<feMorphology radius="0.5" operator="dilate" in="SourceAlpha" result="effect1_dropShadow_1002_24998"/>
<feOffset dy="0.5"/>
<feGaussianBlur stdDeviation="0.5"/>
<feColorMatrix type="matrix" values="0 0 0 0 0 0 0 0 0 0 0 0 0 0 0 0 0 0 0.1 0"/>
<feBlend mode="normal" in2="BackgroundImageFix" result="effect1_dropShadow_1002_24998"/>
<feBlend mode="normal" in="SourceGraphic" in2="effect1_dropShadow_1002_24998" result="shape"/>
</filter>
<filter id="filter3_d_1002_24998" x="67.5" y="99" width="67" height="9" filterUnits="userSpaceOnUse" color-interpolation-filters="sRGB">
<feFlood flood-opacity="0" result="BackgroundImageFix"/>
<feColorMatrix in="SourceAlpha" type="matrix" values="0 0 0 0 0 0 0 0 0 0 0 0 0 0 0 0 0 0 127 0" result="hardAlpha"/>
<feMorphology radius="0.5" operator="dilate" in="SourceAlpha" result="effect1_dropShadow_1002_24998"/>
<feOffset dy="0.5"/>
<feGaussianBlur stdDeviation="0.5"/>
<feColorMatrix type="matrix" values="0 0 0 0 0 0 0 0 0 0 0 0 0 0 0 0 0 0 0.1 0"/>
<feBlend mode="normal" in2="BackgroundImageFix" result="effect1_dropShadow_1002_24998"/>
<feBlend mode="normal" in="SourceGraphic" in2="effect1_dropShadow_1002_24998" result="shape"/>
</filter>
<filter id="filter4_d_1002_24998" x="67.5" y="145" width="67" height="13" filterUnits="userSpaceOnUse" color-interpolation-filters="sRGB">
<feFlood flood-opacity="0" result="BackgroundImageFix"/>
<feColorMatrix in="SourceAlpha" type="matrix" values="0 0 0 0 0 0 0 0 0 0 0 0 0 0 0 0 0 0 127 0" result="hardAlpha"/>
<feMorphology radius="0.5" operator="dilate" in="SourceAlpha" result="effect1_dropShadow_1002_24998"/>
<feOffset dy="0.5"/>
<feGaussianBlur stdDeviation="0.5"/>
<feColorMatrix type="matrix" values="0 0 0 0 0 0 0 0 0 0 0 0 0 0 0 0 0 0 0.1 0"/>
<feBlend mode="normal" in2="BackgroundImageFix" result="effect1_dropShadow_1002_24998"/>
<feBlend mode="normal" in="SourceGraphic" in2="effect1_dropShadow_1002_24998" result="shape"/>
</filter>
<filter id="filter5_d_1002_24998" x="67.5" y="67" width="67" height="9" filterUnits="userSpaceOnUse" color-interpolation-filters="sRGB">
<feFlood flood-opacity="0" result="BackgroundImageFix"/>
<feColorMatrix in="SourceAlpha" type="matrix" values="0 0 0 0 0 0 0 0 0 0 0 0 0 0 0 0 0 0 127 0" result="hardAlpha"/>
<feMorphology radius="0.5" operator="dilate" in="SourceAlpha" result="effect1_dropShadow_1002_24998"/>
<feOffset dy="0.5"/>
<feGaussianBlur stdDeviation="0.5"/>
<feColorMatrix type="matrix" values="0 0 0 0 0 0 0 0 0 0 0 0 0 0 0 0 0 0 0.1 0"/>
<feBlend mode="normal" in2="BackgroundImageFix" result="effect1_dropShadow_1002_24998"/>
<feBlend mode="normal" in="SourceGraphic" in2="effect1_dropShadow_1002_24998" result="shape"/>
</filter>
<filter id="filter6_ddi_1002_24998" x="116.883" y="86.2676" width="38.1367" height="38.125" filterUnits="userSpaceOnUse" color-interpolation-filters="sRGB">
<feFlood flood-opacity="0" result="BackgroundImageFix"/>
<feColorMatrix in="SourceAlpha" type="matrix" values="0 0 0 0 0 0 0 0 0 0 0 0 0 0 0 0 0 0 127 0" result="hardAlpha"/>
<feOffset/>
<feGaussianBlur stdDeviation="5"/>
<feColorMatrix type="matrix" values="0 0 0 0 1 0 0 0 0 0.924583 0 0 0 0 0.245833 0 0 0 0.3 0"/>
<feBlend mode="normal" in2="BackgroundImageFix" result="effect1_dropShadow_1002_24998"/>
<feColorMatrix in="SourceAlpha" type="matrix" values="0 0 0 0 0 0 0 0 0 0 0 0 0 0 0 0 0 0 127 0" result="hardAlpha"/>
<feOffset/>
<feGaussianBlur stdDeviation="3"/>
<feColorMatrix type="matrix" values="0 0 0 0 0.996833 0 0 0 0 1 0 0 0 0 0.841667 0 0 0 0.65 0"/>
<feBlend mode="normal" in2="effect1_dropShadow_1002_24998" result="effect2_dropShadow_1002_24998"/>
<feBlend mode="normal" in="SourceGraphic" in2="effect2_dropShadow_1002_24998" result="shape"/>
<feColorMatrix in="SourceAlpha" type="matrix" values="0 0 0 0 0 0 0 0 0 0 0 0 0 0 0 0 0 0 127 0" result="hardAlpha"/>
<feOffset/>
<feGaussianBlur stdDeviation="2.5"/>
<feComposite in2="hardAlpha" operator="arithmetic" k2="-1" k3="1"/>
<feColorMatrix type="matrix" values="0 0 0 0 0.95 0 0 0 0 0.862917 0 0 0 0 0.0791667 0 0 0 0.55 0"/>
<feBlend mode="normal" in2="shape" result="effect3_innerShadow_1002_24998"/>
</filter>
<filter id="filter7_ddi_1002_24998" x="91.543" y="52.7871" width="44.4297" height="44.416" filterUnits="userSpaceOnUse" color-interpolation-filters="sRGB">
<feFlood flood-opacity="0" result="BackgroundImageFix"/>
<feColorMatrix in="SourceAlpha" type="matrix" values="0 0 0 0 0 0 0 0 0 0 0 0 0 0 0 0 0 0 127 0" result="hardAlpha"/>
<feOffset/>
<feGaussianBlur stdDeviation="5"/>
<feColorMatrix type="matrix" values="0 0 0 0 1 0 0 0 0 0.924583 0 0 0 0 0.245833 0 0 0 0.3 0"/>
<feBlend mode="normal" in2="BackgroundImageFix" result="effect1_dropShadow_1002_24998"/>
<feColorMatrix in="SourceAlpha" type="matrix" values="0 0 0 0 0 0 0 0 0 0 0 0 0 0 0 0 0 0 127 0" result="hardAlpha"/>
<feOffset/>
<feGaussianBlur stdDeviation="3"/>
<feColorMatrix type="matrix" values="0 0 0 0 0.996833 0 0 0 0 1 0 0 0 0 0.841667 0 0 0 0.65 0"/>
<feBlend mode="normal" in2="effect1_dropShadow_1002_24998" result="effect2_dropShadow_1002_24998"/>
<feBlend mode="normal" in="SourceGraphic" in2="effect2_dropShadow_1002_24998" result="shape"/>
<feColorMatrix in="SourceAlpha" type="matrix" values="0 0 0 0 0 0 0 0 0 0 0 0 0 0 0 0 0 0 127 0" result="hardAlpha"/>
<feOffset/>
<feGaussianBlur stdDeviation="2.5"/>
<feComposite in2="hardAlpha" operator="arithmetic" k2="-1" k3="1"/>
<feColorMatrix type="matrix" values="0 0 0 0 0.95 0 0 0 0 0.862917 0 0 0 0 0.0791667 0 0 0 0.55 0"/>
<feBlend mode="normal" in2="shape" result="effect3_innerShadow_1002_24998"/>
</filter>
<filter id="filter8_dd_1002_24998" x="98.0938" y="35.5078" width="119.793" height="195.055" filterUnits="userSpaceOnUse" color-interpolation-filters="sRGB">
<feFlood flood-opacity="0" result="BackgroundImageFix"/>
<feColorMatrix in="SourceAlpha" type="matrix" values="0 0 0 0 0 0 0 0 0 0 0 0 0 0 0 0 0 0 127 0" result="hardAlpha"/>
<feOffset dy="2"/>
<feGaussianBlur stdDeviation="4"/>
<feColorMatrix type="matrix" values="0 0 0 0 0 0 0 0 0 0 0 0 0 0 0 0 0 0 0.2 0"/>
<feBlend mode="normal" in2="BackgroundImageFix" result="effect1_dropShadow_1002_24998"/>
<feColorMatrix in="SourceAlpha" type="matrix" values="0 0 0 0 0 0 0 0 0 0 0 0 0 0 0 0 0 0 127 0" result="hardAlpha"/>
<feMorphology radius="1" operator="dilate" in="SourceAlpha" result="effect2_dropShadow_1002_24998"/>
<feOffset dy="20"/>
<feGaussianBlur stdDeviation="15"/>
<feColorMatrix type="matrix" values="0 0 0 0 0 0 0 0 0 0 0 0 0 0 0 0 0 0 0.1 0"/>
<feBlend mode="normal" in2="effect1_dropShadow_1002_24998" result="effect2_dropShadow_1002_24998"/>
<feBlend mode="normal" in="SourceGraphic" in2="effect2_dropShadow_1002_24998" result="shape"/>
</filter>
<filter id="filter9_dd_1002_24998" x="136.402" y="35.5078" width="81.4844" height="89.25" filterUnits="userSpaceOnUse" color-interpolation-filters="sRGB">
<feFlood flood-opacity="0" result="BackgroundImageFix"/>
<feColorMatrix in="SourceAlpha" type="matrix" values="0 0 0 0 0 0 0 0 0 0 0 0 0 0 0 0 0 0 127 0" result="hardAlpha"/>
<feOffset dy="2"/>
<feGaussianBlur stdDeviation="4"/>
<feColorMatrix type="matrix" values="0 0 0 0 0 0 0 0 0 0 0 0 0 0 0 0 0 0 0.2 0"/>
<feBlend mode="normal" in2="BackgroundImageFix" result="effect1_dropShadow_1002_24998"/>
<feColorMatrix in="SourceAlpha" type="matrix" values="0 0 0 0 0 0 0 0 0 0 0 0 0 0 0 0 0 0 127 0" result="hardAlpha"/>
<feMorphology radius="1" operator="dilate" in="SourceAlpha" result="effect2_dropShadow_1002_24998"/>
<feOffset dy="20"/>
<feGaussianBlur stdDeviation="15"/>
<feColorMatrix type="matrix" values="0 0 0 0 0 0 0 0 0 0 0 0 0 0 0 0 0 0 0.1 0"/>
<feBlend mode="normal" in2="effect1_dropShadow_1002_24998" result="effect2_dropShadow_1002_24998"/>
<feBlend mode="normal" in="SourceGraphic" in2="effect2_dropShadow_1002_24998" result="shape"/>
</filter>
<radialGradient id="paint0_radial_1002_24998" cx="0" cy="0" r="1" gradientUnits="userSpaceOnUse" gradientTransform="translate(38 147.825) rotate(-33.1864) scale(199.547 126.487)">
<stop stop-color="#FFDFC2"/>
<stop offset="0.300591" stop-color="#FFD6F7"/>
<stop offset="0.65625" stop-color="#B391FF"/>
<stop offset="1" stop-color="#4175B6"/>
</radialGradient>
<linearGradient id="paint1_linear_1002_24998" x1="152.361" y1="110.976" x2="163.637" y2="115.08" gradientUnits="userSpaceOnUse">
<stop stop-color="#CEC8FF"/>
<stop offset="0.145833" stop-color="#9B93DB"/>
<stop offset="0.28125" stop-color="#CFC9FF"/>
<stop offset="0.59375" stop-color="#7C5AE0"/>
<stop offset="0.713542" stop-color="#784CD5"/>
<stop offset="0.802083" stop-color="#6947D0"/>
<stop offset="1" stop-color="#8F81E4"/>
</linearGradient>
<radialGradient id="paint2_radial_1002_24998" cx="0" cy="0" r="1" gradientUnits="userSpaceOnUse" gradientTransform="translate(165.5 72.5019) rotate(97.0228) scale(69.5216 811.391)">
<stop stop-color="white" stop-opacity="0.15"/>
<stop offset="1" stop-color="white" stop-opacity="0"/>
</radialGradient>
<radialGradient id="paint3_radial_1002_24998" cx="0" cy="0" r="1" gradientUnits="userSpaceOnUse" gradientTransform="translate(153.5 110.002) rotate(55.751) scale(28.4297)">
<stop stop-color="#FEF527"/>
<stop offset="1" stop-color="#FFF500" stop-opacity="0"/>
</radialGradient>
<linearGradient id="paint4_linear_1002_24998" x1="152.362" y1="110.976" x2="163.639" y2="115.08" gradientUnits="userSpaceOnUse">
<stop stop-color="#FCFCFF"/>
<stop offset="0.0885417" stop-color="#EDEBFF"/>
<stop offset="0.203125" stop-color="#F9F9FF"/>
<stop offset="0.510417" stop-color="#EBE4FF"/>
<stop offset="0.713542" stop-color="#E6DBFC"/>
<stop offset="0.802083" stop-color="#D7CEF5"/>
<stop offset="1" stop-color="#D7E7FF"/>
</linearGradient>
</defs>
</svg>
