<svg width="406" height="118" viewBox="0 0 406 118" fill="none" xmlns="http://www.w3.org/2000/svg">
<path d="M7.69994 79.1C4.99994 79.1 3.19994 81.8 4.49994 84.2C14.7999 103.2 34.8999 116 57.9999 116C81.0999 116 101.2 103.1 111.5 84.2C112.8 81.8 111 79.1 108.3 79.1H7.69994Z" fill="url(#paint0_linear_716_691)"/>
<path d="M63.9763 0H52.0236C48.7905 0 46.2432 2.64526 46.2432 5.7804V24.8851C46.2432 26.6486 44.1858 27.4324 42.9122 26.2567L29.3919 12.7365C27.1385 10.4831 23.4155 10.4831 21.1622 12.7365L12.7365 21.1622C10.4831 23.4155 10.4831 27.1385 12.7365 29.3919L26.2568 42.9121C27.4324 44.0878 26.6486 46.2432 24.8851 46.2432H5.7804C2.54729 46.2432 0 48.8885 0 52.0236V63.9763C0 67.2094 2.64526 69.7567 5.7804 69.7567H28.0203C29 69.7567 29.9797 69.3649 30.7635 68.679L55.2568 44.2838C56.7264 42.8142 59.1757 42.8142 60.7432 44.2838L85.2365 68.679C85.9223 69.3649 86.902 69.7567 87.9797 69.7567H110.22C113.453 69.7567 116 67.1115 116 63.9763V52.0236C116 48.7905 113.355 46.2432 110.22 46.2432H91.1148C89.3513 46.2432 88.5676 44.1858 89.7432 42.9121L103.264 29.3919C105.517 27.1385 105.517 23.4155 103.264 21.1622L94.8378 12.7365C92.5845 10.4831 88.8615 10.4831 86.6081 12.7365L73.0878 26.2567C71.9121 27.4324 69.7568 26.6486 69.7568 24.8851V5.7804C69.7568 2.64526 67.1115 0 63.9763 0Z" fill="url(#paint1_linear_716_691)"/>
<path d="M259.55 37.27H239.94V107.99H259.55V37.27Z" fill="white"/>
<path d="M310.89 66.93L298.09 64.35C291.51 62.92 289.07 60.67 289.11 57.26C289.06 53.02 293.85 50.26 299.93 50.26C306.74 50.26 310.8 53.99 311.76 58.55L329.72 57.44C327.97 44.41 317.47 36.35 299.61 36.35C281.52 36.35 269.59 44.73 269.64 58.36C269.59 68.95 276.27 75.81 290.08 78.57L302.33 81.01C308.5 82.25 311.31 84.51 311.4 88.05C311.31 92.24 306.75 95.23 299.89 95.23C292.89 95.23 288.24 92.24 287.04 86.48L267.75 87.49C269.59 101.03 281.1 109.36 299.84 109.36C318.16 109.36 331.29 100.01 331.33 86.06C331.29 75.86 324.61 69.73 310.89 66.93Z" fill="white"/>
<path d="M405.93 77.65V72.26C405.93 48.23 391.38 36.35 372.69 36.35C351.88 36.35 338.39 51.13 338.39 72.95C338.39 95.37 351.7 109.37 373.47 109.37C390.97 109.37 402.75 100.85 405.52 87.73L387.38 86.53C385.4 91.92 380.34 94.73 373.8 94.73C363.99 94.73 357.78 88.24 357.78 77.69V77.64H405.93V77.65ZM373.01 51C381.53 51 387.42 57.08 387.47 65.5H357.77C358.19 57.44 364.31 51 373.01 51Z" fill="white"/>
<path d="M215.15 84.95L206.78 72.62C219.73 68.65 226.99 58.75 226.99 44.5C226.99 25.76 214.6 13.7 193.2 13.7H156V107.99H175.94V74.56H184.99L197.5 92.97C208.01 108.45 221.97 108.7 230.14 108.47V91.32H227.19C222.36 91.32 217.85 88.93 215.15 84.95ZM175.93 30H189.37C200.88 30 206.45 35.11 206.45 44.5C206.45 53.85 200.88 58.54 189.46 58.54H175.92V30H175.93Z" fill="white"/>
<path d="M249.82 28.82C255.68 28.82 260.43 24.0697 260.43 18.21C260.43 12.3503 255.68 7.59998 249.82 7.59998C243.96 7.59998 239.21 12.3503 239.21 18.21C239.21 24.0697 243.96 28.82 249.82 28.82Z" fill="white"/>
<defs>
<linearGradient id="paint0_linear_716_691" x1="57.9932" y1="118.049" x2="57.9932" y2="79.4688" gradientUnits="userSpaceOnUse">
<stop stop-color="#767DF9"/>
<stop offset="0.4958" stop-color="#7161EC"/>
<stop offset="1" stop-color="#5730E3"/>
</linearGradient>
<linearGradient id="paint1_linear_716_691" x1="57.9922" y1="0.0331149" x2="57.9922" y2="69.7907" gradientUnits="userSpaceOnUse">
<stop stop-color="#FF7557"/>
<stop offset="1" stop-color="#FFAF66"/>
</linearGradient>
</defs>
</svg>
