<?xml version="1.0" encoding="UTF-8"?>
<svg width="24px" height="25px" viewBox="0 0 24 25" version="1.1" xmlns="http://www.w3.org/2000/svg" xmlns:xlink="http://www.w3.org/1999/xlink">
    <title>icon4</title>
    <defs>
        <linearGradient x1="88.1549343%" y1="5.20260037%" x2="16.9876778%" y2="91.6071602%" id="linearGradient-1">
            <stop stop-color="#E55CAE" offset="0%"></stop>
            <stop stop-color="#FE3922" offset="100%"></stop>
        </linearGradient>
        <path d="M11.9648438,24.4921875 C13.5976562,24.4921875 15.1347656,24.1796875 16.5761719,23.5546875 C18.0175781,22.9296875 19.2890625,22.0664062 20.390625,20.9648438 C21.4921875,19.8632812 22.3554688,18.5917969 22.9804688,17.1503906 C23.6054688,15.7089844 23.9179688,14.171875 23.9179688,12.5390625 C23.9179688,10.90625 23.6054688,9.36914062 22.9804688,7.92773438 C22.3554688,6.48632812 21.4921875,5.21484375 20.390625,4.11328125 C19.2890625,3.01171875 18.015625,2.1484375 16.5703125,1.5234375 C15.125,0.8984375 13.5859375,0.5859375 11.953125,0.5859375 C10.3203125,0.5859375 8.78320312,0.8984375 7.34179688,1.5234375 C5.90039062,2.1484375 4.63085938,3.01171875 3.53320312,4.11328125 C2.43554688,5.21484375 1.57421875,6.48632812 0.94921875,7.92773438 C0.32421875,9.36914062 0.01171875,10.90625 0.01171875,12.5390625 C0.01171875,14.171875 0.32421875,15.7089844 0.94921875,17.1503906 C1.57421875,18.5917969 2.4375,19.8632812 3.5390625,20.9648438 C4.640625,22.0664062 5.91210938,22.9296875 7.35351563,23.5546875 C8.79492188,24.1796875 10.3320312,24.4921875 11.9648438,24.4921875 Z M11.9648438,22.5 C10.5820312,22.5 9.2890625,22.2421875 8.0859375,21.7265625 C6.8828125,21.2109375 5.82617188,20.4980469 4.91601562,19.5878906 C4.00585938,18.6777344 3.29492188,17.6210938 2.78320312,16.4179688 C2.27148438,15.2148438 2.015625,13.921875 2.015625,12.5390625 C2.015625,11.15625 2.27148438,9.86328125 2.78320312,8.66015625 C3.29492188,7.45703125 4.00390625,6.3984375 4.91015625,5.484375 C5.81640625,4.5703125 6.87109375,3.85742188 8.07421875,3.34570312 C9.27734375,2.83398438 10.5703125,2.578125 11.953125,2.578125 C13.3359375,2.578125 14.6289062,2.83398438 15.8320312,3.34570312 C17.0351562,3.85742188 18.09375,4.5703125 19.0078125,5.484375 C19.921875,6.3984375 20.6367188,7.45703125 21.1523438,8.66015625 C21.6679688,9.86328125 21.9257812,11.15625 21.9257812,12.5390625 C21.9257812,13.921875 21.6699219,15.2148438 21.1582031,16.4179688 C20.6464844,17.6210938 19.9355469,18.6777344 19.0253906,19.5878906 C18.1152344,20.4980469 17.0566406,21.2109375 15.8496094,21.7265625 C14.6425781,22.2421875 13.3476562,22.5 11.9648438,22.5 Z M11.9648438,19.96875 C12.9804688,19.96875 13.9375,19.7734375 14.8359375,19.3828125 C15.734375,18.9921875 16.5253906,18.4550781 17.2089844,17.7714844 C17.8925781,17.0878906 18.4277344,16.2988281 18.8144531,15.4042969 C19.2011719,14.5097656 19.3945312,13.5546875 19.3945312,12.5390625 C19.3945312,11.5234375 19.1992188,10.5664062 18.8085938,9.66796875 C18.4179688,8.76953125 17.8808594,7.97851562 17.1972656,7.29492188 C16.5136719,6.61132812 15.7246094,6.07421875 14.8300781,5.68359375 C13.9355469,5.29296875 12.9804688,5.09765625 11.9648438,5.09765625 C10.9492188,5.09765625 9.9921875,5.29296875 9.09375,5.68359375 C8.1953125,6.07421875 7.40429688,6.61132812 6.72070312,7.29492188 C6.03710938,7.97851562 5.50195312,8.76953125 5.11523438,9.66796875 C4.72851562,10.5664062 4.53515625,11.5234375 4.53515625,12.5390625 C4.53515625,13.5546875 4.73046875,14.5097656 5.12109375,15.4042969 C5.51171875,16.2988281 6.04882812,17.0878906 6.73242188,17.7714844 C7.41601562,18.4550781 8.20507812,18.9921875 9.09960938,19.3828125 C9.99414062,19.7734375 10.9492188,19.96875 11.9648438,19.96875 Z M11.9648438,18.0820312 C11.2148438,18.0820312 10.5058594,17.9355469 9.83789062,17.6425781 C9.16992188,17.3496094 8.58007812,16.9472656 8.06835938,16.4355469 C7.55664062,15.9238281 7.15429688,15.3339844 6.86132812,14.6660156 C6.56835938,13.9980469 6.421875,13.2890625 6.421875,12.5390625 C6.421875,11.78125 6.56640625,11.0664062 6.85546875,10.3945312 C7.14453125,9.72265625 7.54492188,9.13085938 8.05664062,8.61914062 C8.56835938,8.10742188 9.15820312,7.70703125 9.82617188,7.41796875 C10.4941406,7.12890625 11.2070312,6.984375 11.9648438,6.984375 C12.7148438,6.984375 13.4238281,7.13085938 14.0917969,7.42382812 C14.7597656,7.71679688 15.3496094,8.11914062 15.8613281,8.63085938 C16.3730469,9.14257812 16.7753906,9.73242188 17.0683594,10.4003906 C17.3613281,11.0683594 17.5078125,11.78125 17.5078125,12.5390625 C17.5078125,13.296875 17.3632812,14.0097656 17.0742188,14.6777344 C16.7851562,15.3457031 16.3847656,15.9355469 15.8730469,16.4472656 C15.3613281,16.9589844 14.7714844,17.359375 14.1035156,17.6484375 C13.4355469,17.9375 12.7226562,18.0820312 11.9648438,18.0820312 Z M11.9765625,15.5742188 C12.53125,15.5742188 13.0390625,15.4375 13.5,15.1640625 C13.9609375,14.890625 14.328125,14.5234375 14.6015625,14.0625 C14.875,13.6015625 15.0117188,13.0898438 15.0117188,12.5273438 C15.0117188,11.9726562 14.875,11.4667969 14.6015625,11.0097656 C14.328125,10.5527344 13.9609375,10.1875 13.5,9.9140625 C13.0390625,9.640625 12.53125,9.50390625 11.9765625,9.50390625 C11.4140625,9.50390625 10.9023438,9.640625 10.4414062,9.9140625 C9.98046875,10.1875 9.61328125,10.5527344 9.33984375,11.0097656 C9.06640625,11.4667969 8.9296875,11.9726562 8.9296875,12.5273438 C8.9296875,13.0898438 9.06640625,13.6015625 9.33984375,14.0625 C9.61328125,14.5234375 9.98242188,14.890625 10.4472656,15.1640625 C10.9121094,15.4375 11.421875,15.5742188 11.9765625,15.5742188 Z" id="path-2"></path>
    </defs>
    <g id="Page-2" stroke="none" stroke-width="1" fill="none" fill-rule="evenodd">
        <g id="icon4" fill-rule="nonzero">
            <use fill="#3AD91B" xlink:href="#path-2"></use>
            <use fill="url(#linearGradient-1)" xlink:href="#path-2"></use>
        </g>
    </g>
</svg>