<?xml version="1.0" encoding="UTF-8"?>
<svg width="25px" height="25px" viewBox="0 0 25 25" version="1.1" xmlns="http://www.w3.org/2000/svg" xmlns:xlink="http://www.w3.org/1999/xlink">
    <title>icon3</title>
    <defs>
        <linearGradient x1="88.1549343%" y1="5.22292028%" x2="16.9876778%" y2="91.5882874%" id="linearGradient-1">
            <stop stop-color="#5CE569" offset="0%"></stop>
            <stop stop-color="#3A9B39" offset="98.416159%"></stop>
            <stop stop-color="#FEA122" offset="100%"></stop>
        </linearGradient>
        <path d="M10.4638672,24.7856691 C11.2516276,24.7820638 12.0286458,24.3971354 12.7949219,23.6308594 L23.2685547,13.1357422 C23.5406901,12.8636068 23.7358398,12.6183268 23.8540039,12.3999023 C23.972168,12.1814779 24.0473633,11.9451497 24.0795898,11.690918 C24.1118164,11.4366862 24.1279297,11.1197917 24.1279297,10.7402344 L24.1279297,6.65820312 C24.1279297,6.27864583 24.0939128,5.96891276 24.0258789,5.72900391 C23.9578451,5.48909505 23.8450521,5.26708984 23.6875,5.06298828 C23.5299479,4.85888672 23.3151042,4.62076823 23.0429688,4.34863281 L20.5722656,1.87792969 C20.3001302,1.61295573 20.0638021,1.39990234 19.8632812,1.23876953 C19.6627604,1.07763672 19.4425456,0.963053385 19.2026367,0.895019531 C18.9627279,0.826985677 18.6529948,0.79296875 18.2734375,0.79296875 L14.1806641,0.79296875 C13.8082682,0.79296875 13.4931641,0.809082031 13.2353516,0.841308594 C12.9775391,0.873535156 12.7394206,0.950520833 12.5209961,1.07226562 C12.3025716,1.19401042 12.0608724,1.38736979 11.7958984,1.65234375 L1.29003906,12.1367188 C0.523763021,12.9029948 0.137044271,13.680013 0.129786036,14.4677734 C0.122721354,15.2555339 0.513020833,16.0432943 1.30078125,16.8310547 L8.10058594,23.6201172 C8.88834635,24.4007161 9.67610677,24.7892253 10.4638672,24.7856691 Z M16.46875,9.38671875 C16.046224,9.38671875 15.6953125,9.24348958 15.4160156,8.95703125 C15.1367188,8.67057292 14.9970703,8.32324219 14.9970703,7.91503906 C14.9970703,7.49967448 15.1367188,7.15055339 15.4160156,6.86767578 C15.6953125,6.58479818 16.046224,6.44335938 16.46875,6.44335938 C16.8841146,6.44335938 17.2332357,6.58479818 17.5161133,6.86767578 C17.7989909,7.15055339 17.9404297,7.49967448 17.9404297,7.91503906 C17.9404297,8.32324219 17.7989909,8.67057292 17.5161133,8.95703125 C17.2332357,9.24348958 16.8841146,9.38671875 16.46875,9.38671875 Z" id="path-2"></path>
    </defs>
    <g id="Page-2" stroke="none" stroke-width="1" fill="none" fill-rule="evenodd">
        <g id="icon3" fill-rule="nonzero">
            <use fill="#3AD91B" xlink:href="#path-2"></use>
            <use fill="url(#linearGradient-1)" xlink:href="#path-2"></use>
        </g>
    </g>
</svg>