<?xml version="1.0" encoding="UTF-8"?>
<svg width="26px" height="26px" viewBox="0 0 26 26" version="1.1" xmlns="http://www.w3.org/2000/svg" xmlns:xlink="http://www.w3.org/1999/xlink">
    <title>icon4</title>
    <defs>
        <linearGradient x1="88.1549343%" y1="5.20260037%" x2="16.9876778%" y2="91.6071602%" id="linearGradient-1">
            <stop stop-color="#E55CAE" offset="0%"></stop>
            <stop stop-color="#FE3922" offset="100%"></stop>
        </linearGradient>
    </defs>
    <g id="Page-2" stroke="none" stroke-width="1" fill="none" fill-rule="evenodd">
        <g id="Desktop-HD" transform="translate(-165.000000, -1285.000000)" fill="url(#linearGradient-1)" fill-rule="nonzero">
            <g id="Group-7" transform="translate(154.000000, 1274.000000)">
                <g id="icon4" transform="translate(11.000000, 11.000000)">
                    <path d="M13,0 C20.1797017,0 26,5.82029825 26,13 C26,20.1797017 20.1797017,26 13,26 C5.82029825,26 0,20.1797017 0,13 C0,5.82029825 5.82029825,0 13,0 Z M13,2 C6.92486775,2 2,6.92486775 2,13 C2,19.0751322 6.92486775,24 13,24 C19.0751322,24 24,19.0751322 24,13 C24,6.92486775 19.0751322,2 13,2 Z M13,5 C17.418278,5 21,8.581722 21,13 C21,17.418278 17.418278,21 13,21 C8.581722,21 5,17.418278 5,13 C5,8.581722 8.581722,5 13,5 Z M13,7 C9.6862915,7 7,9.6862915 7,13 C7,16.3137085 9.6862915,19 13,19 C16.3137085,19 19,16.3137085 19,13 C19,9.6862915 16.3137085,7 13,7 Z M13,10 C14.6568542,10 16,11.3431458 16,13 C16,14.6568542 14.6568542,16 13,16 C11.3431458,16 10,14.6568542 10,13 C10,11.3431458 11.3431458,10 13,10 Z" id="Combined-Shape"></path>
                </g>
            </g>
        </g>
    </g>
</svg>