<?xml version="1.0" encoding="UTF-8"?>
<svg width="22px" height="23px" viewBox="0 0 22 23" version="1.1" xmlns="http://www.w3.org/2000/svg" xmlns:xlink="http://www.w3.org/1999/xlink">
    <title>icon2</title>
    <defs>
        <linearGradient x1="85.5187694%" y1="5.20260037%" x2="19.2685342%" y2="91.6071602%" id="linearGradient-1">
            <stop stop-color="#E320C3" offset="0%"></stop>
            <stop stop-color="#640677" offset="100%"></stop>
            <stop stop-color="#FEA122" offset="100%"></stop>
        </linearGradient>
        <path d="M12.6381836,5.49902344 C12.7599284,5.49902344 12.8351237,5.43098958 12.8637695,5.29492188 C12.9425456,4.85091146 13.0159505,4.50179036 13.0839844,4.24755859 C13.1520182,3.99332682 13.2504883,3.79996745 13.3793945,3.66748047 C13.5083008,3.53499349 13.7016602,3.43115234 13.9594727,3.35595703 C14.2172852,3.28076172 14.5789388,3.20019531 15.0444336,3.11425781 C15.1805013,3.08561198 15.2485352,3.01041667 15.2485352,2.88867188 C15.2485352,2.75976562 15.1805013,2.68457031 15.0444336,2.66308594 C14.5789388,2.56998698 14.2190755,2.48404948 13.9648438,2.40527344 C13.710612,2.3264974 13.5208333,2.22086589 13.3955078,2.08837891 C13.2701823,1.95589193 13.1735026,1.76432292 13.1054688,1.51367188 C13.0374349,1.26302083 12.9568685,0.915690104 12.8637695,0.471679688 C12.8351237,0.342773438 12.7599284,0.278320312 12.6381836,0.278320312 C12.5164388,0.278320312 12.4412435,0.342773438 12.4125977,0.471679688 C12.3194987,0.915690104 12.2389323,1.26302083 12.1708984,1.51367188 C12.1028646,1.76432292 12.0079753,1.95589193 11.8862305,2.08837891 C11.7644857,2.22086589 11.574707,2.3264974 11.3168945,2.40527344 C11.059082,2.48404948 10.6974284,2.56998698 10.2319336,2.66308594 C10.0958659,2.68457031 10.027832,2.75976562 10.027832,2.88867188 C10.027832,3.01041667 10.0958659,3.08561198 10.2319336,3.11425781 C10.6974284,3.20735677 11.059082,3.29150391 11.3168945,3.36669922 C11.574707,3.44189453 11.7680664,3.54394531 11.8969727,3.67285156 C12.0258789,3.80175781 12.124349,3.99332682 12.1923828,4.24755859 C12.2604167,4.50179036 12.3338216,4.85091146 12.4125977,5.29492188 C12.4412435,5.43098958 12.5164388,5.49902344 12.6381836,5.49902344 Z M17.7729492,12.7607422 C17.987793,12.7607422 18.1095378,12.6461589 18.1381836,12.4169922 C18.2241211,11.7008464 18.3172201,11.1386719 18.4174805,10.7304688 C18.5177409,10.3222656 18.6735026,10.0143229 18.8847656,9.80664062 C19.0960286,9.59895833 19.4093424,9.44140625 19.824707,9.33398438 C20.2400716,9.2265625 20.8129883,9.1155599 21.543457,9.00097656 C21.7941081,8.95800781 21.9194336,8.83626302 21.9194336,8.63574219 C21.9194336,8.43522135 21.808431,8.31347656 21.5864258,8.27050781 C20.855957,8.1344401 20.2794596,8.01090495 19.8569336,7.89990234 C19.4344076,7.78889974 19.1139323,7.63313802 18.8955078,7.43261719 C18.6770833,7.23209635 18.5177409,6.93310547 18.4174805,6.53564453 C18.3172201,6.13818359 18.2241211,5.57779948 18.1381836,4.85449219 C18.1095378,4.62532552 17.987793,4.51074219 17.7729492,4.51074219 C17.5581055,4.51074219 17.4399414,4.62174479 17.418457,4.84375 C17.3253581,5.57421875 17.2286784,6.14713542 17.128418,6.5625 C17.0281576,6.97786458 16.8741862,7.28938802 16.6665039,7.49707031 C16.4588216,7.7047526 16.1437174,7.86051432 15.7211914,7.96435547 C15.2986654,8.06819661 14.7150065,8.1702474 13.9702148,8.27050781 C13.8771159,8.28483073 13.7983398,8.32421875 13.7338867,8.38867188 C13.6694336,8.453125 13.637207,8.53548177 13.637207,8.63574219 C13.637207,8.83626302 13.7482096,8.95800781 13.9702148,9.00097656 C14.7150065,9.14420573 15.296875,9.27132161 15.7158203,9.38232422 C16.1347656,9.49332682 16.4498698,9.65087891 16.6611328,9.85498047 C16.8723958,10.059082 17.0263672,10.3616536 17.1230469,10.7626953 C17.2197266,11.163737 17.3181966,11.7223307 17.418457,12.4384766 C17.4256185,12.5315755 17.4632161,12.6085612 17.53125,12.6694336 C17.5992839,12.730306 17.6798503,12.7607422 17.7729492,12.7607422 Z M9.68408203,22.5791016 C10.9731445,22.5791016 12.1691081,22.3714193 13.2719727,21.9560547 C14.3748372,21.5406901 15.3434245,20.940918 16.1777344,20.1567383 C17.0120443,19.3725586 17.6691081,18.421875 18.1489258,17.3046875 C18.3136393,16.9036458 18.2957357,16.5992839 18.0952148,16.3916016 C17.9233398,16.2197266 17.6619466,16.2018229 17.3110352,16.3378906 C16.8670247,16.5097656 16.3907878,16.6386719 15.8823242,16.7246094 C15.3738607,16.8105469 14.8260091,16.8535156 14.2387695,16.8535156 C12.6202799,16.8535156 11.211263,16.5330404 10.0117188,15.8920898 C8.81217448,15.2511393 7.88297526,14.3470052 7.22412109,13.1796875 C6.56526693,12.0123698 6.23583984,10.6302083 6.23583984,9.03320312 C6.23583984,8.42447917 6.28955078,7.81217448 6.39697266,7.19628906 C6.50439453,6.58040365 6.6476237,6.08984375 6.82666016,5.72460938 C7.02001953,5.33789063 7.02718099,5.03352865 6.84814453,4.81152344 C6.65478516,4.58951823 6.33968099,4.56445313 5.90283203,4.73632813 C4.80712891,5.17317708 3.84570312,5.82486979 3.01855469,6.69140625 C2.19140625,7.55794271 1.54866536,8.5694987 1.09033203,9.72607422 C0.631998698,10.8826497 0.402832031,12.1197917 0.402832031,13.4375 C0.402832031,14.7408854 0.628417969,15.9475911 1.07958984,17.0576172 C1.53076172,18.1676432 2.17171224,19.1362305 3.00244141,19.9633789 C3.83317057,20.7905273 4.81429036,21.4332682 5.94580078,21.8916016 C7.0773112,22.3499349 8.32340495,22.5791016 9.68408203,22.5791016 Z" id="path-2"></path>
    </defs>
    <g id="Page-2" stroke="none" stroke-width="1" fill="none" fill-rule="evenodd">
        <g id="icon2" fill-rule="nonzero">
            <use fill="#861BD9" xlink:href="#path-2"></use>
            <use fill="url(#linearGradient-1)" xlink:href="#path-2"></use>
        </g>
    </g>
</svg>