<?xml version="1.0" encoding="UTF-8"?>
<svg width="26px" height="24px" viewBox="0 0 26 24" version="1.1" xmlns="http://www.w3.org/2000/svg" xmlns:xlink="http://www.w3.org/1999/xlink">
    <title>icon1</title>
    <defs>
        <linearGradient x1="88.1549343%" y1="11.5761944%" x2="16.9876778%" y2="85.6874606%" id="linearGradient-1">
            <stop stop-color="#FFD71C" offset="0%"></stop>
            <stop stop-color="#FEA122" offset="100%"></stop>
            <stop stop-color="#FEA122" offset="100%"></stop>
        </linearGradient>
    </defs>
    <g id="Page-2" stroke="none" stroke-width="1" fill="none" fill-rule="evenodd">
        <path d="M22.1899414,23.7597656 C23.3142904,23.7597656 24.1575521,23.4822591 24.7197266,22.9272461 C25.281901,22.3722331 25.5629883,21.5432943 25.5629883,20.4404297 L25.5629883,4.05859375 C25.5629883,2.94856771 25.281901,2.11604818 24.7197266,1.56103516 C24.1575521,1.00602214 23.3142904,0.728515625 22.1899414,0.728515625 L8.80517578,0.728515625 C7.68082682,0.728515625 6.8375651,1.00602214 6.27539062,1.56103516 C5.71321615,2.11604818 5.43212891,2.94856771 5.43212891,4.05859375 L5.43212891,9.18261719 L2.86474609,9.18261719 C2.18440755,9.18261719 1.65266927,9.35986328 1.26953125,9.71435547 C0.886393229,10.0688477 0.694824219,10.5647786 0.694824219,11.2021484 L0.694824219,20.515625 C0.694824219,21.2317708 0.812988281,21.8297526 1.04931641,22.3095703 C1.28564453,22.789388 1.64371745,23.1510417 2.12353516,23.3945312 C2.60335286,23.6380208 3.20849609,23.7597656 3.93896484,23.7597656 L22.1899414,23.7597656 Z M22.168457,22.0302734 L6.79638672,22.0302734 C7.0398763,21.5576172 7.16162109,21.0169271 7.16162109,20.4082031 L7.16162109,4.15527344 C7.16162109,3.59667969 7.30664062,3.17415365 7.59667969,2.88769531 C7.88671875,2.60123698 8.30029297,2.45800781 8.83740234,2.45800781 L22.168457,2.45800781 C22.6984049,2.45800781 23.1083984,2.60123698 23.3984375,2.88769531 C23.6884766,3.17415365 23.8334961,3.59667969 23.8334961,4.15527344 L23.8334961,20.34375 C23.8334961,20.9023438 23.6884766,21.3230794 23.3984375,21.605957 C23.1083984,21.8888346 22.6984049,22.0302734 22.168457,22.0302734 Z M21.0620117,7.13085938 C21.2482096,7.13085938 21.4057617,7.06461589 21.534668,6.93212891 C21.6635742,6.79964193 21.7280273,6.64029948 21.7280273,6.45410156 C21.7280273,6.2750651 21.6635742,6.12288411 21.534668,5.99755859 C21.4057617,5.87223307 21.2482096,5.80957031 21.0620117,5.80957031 L9.95458984,5.80957031 C9.76123047,5.80957031 9.60009766,5.87223307 9.47119141,5.99755859 C9.34228516,6.12288411 9.27783203,6.2750651 9.27783203,6.45410156 C9.27783203,6.64029948 9.34228516,6.79964193 9.47119141,6.93212891 C9.60009766,7.06461589 9.76123047,7.13085938 9.95458984,7.13085938 L21.0620117,7.13085938 Z M21.0620117,10.9121094 C21.2482096,10.9121094 21.4057617,10.8494466 21.534668,10.7241211 C21.6635742,10.5987956 21.7280273,10.4430339 21.7280273,10.2568359 C21.7280273,10.070638 21.6635742,9.91308594 21.534668,9.78417969 C21.4057617,9.65527344 21.2482096,9.59082031 21.0620117,9.59082031 L9.95458984,9.59082031 C9.76123047,9.59082031 9.60009766,9.65527344 9.47119141,9.78417969 C9.34228516,9.91308594 9.27783203,10.070638 9.27783203,10.2568359 C9.27783203,10.4430339 9.34228516,10.5987956 9.47119141,10.7241211 C9.60009766,10.8494466 9.76123047,10.9121094 9.95458984,10.9121094 L21.0620117,10.9121094 Z M3.93896484,22.0302734 C3.50927734,22.0302734 3.14941406,21.8852539 2.859375,21.5952148 C2.56933594,21.3051758 2.42431641,20.9453125 2.42431641,20.515625 L2.42431641,11.5351562 C2.42431641,11.3417969 2.47981771,11.1896159 2.59082031,11.0786133 C2.70182292,10.9676107 2.85758464,10.9121094 3.05810547,10.9121094 L5.43212891,10.9121094 L5.43212891,20.515625 C5.43212891,20.9596354 5.28710938,21.3230794 4.99707031,21.605957 C4.70703125,21.8888346 4.35432943,22.0302734 3.93896484,22.0302734 Z M13.3706055,18.7646484 C13.7788086,18.7646484 14.0992839,18.6482747 14.3320312,18.4155273 C14.5647786,18.1827799 14.6811523,17.858724 14.6811523,17.4433594 L14.6811523,14.6396484 C14.6811523,14.2314453 14.5647786,13.9109701 14.3320312,13.6782227 C14.0992839,13.4454753 13.7788086,13.3291016 13.3706055,13.3291016 L10.5883789,13.3291016 C10.1730143,13.3291016 9.84895833,13.4454753 9.61621094,13.6782227 C9.38346354,13.9109701 9.26708984,14.2314453 9.26708984,14.6396484 L9.26708984,17.4433594 C9.26708984,17.858724 9.38346354,18.1827799 9.61621094,18.4155273 C9.84895833,18.6482747 10.1730143,18.7646484 10.5883789,18.7646484 L13.3706055,18.7646484 Z M21.0620117,14.7041016 C21.2482096,14.7041016 21.4039714,14.6414388 21.5292969,14.5161133 C21.6546224,14.3907878 21.7172852,14.2386068 21.7172852,14.0595703 C21.7172852,13.8662109 21.6546224,13.7050781 21.5292969,13.5761719 C21.4039714,13.4472656 21.2482096,13.3828125 21.0620117,13.3828125 L16.6147461,13.3828125 C16.4213867,13.3828125 16.2620443,13.4472656 16.1367188,13.5761719 C16.0113932,13.7050781 15.9487305,13.8662109 15.9487305,14.0595703 C15.9487305,14.2386068 16.0113932,14.3907878 16.1367188,14.5161133 C16.2620443,14.6414388 16.4213867,14.7041016 16.6147461,14.7041016 L21.0620117,14.7041016 Z M21.0620117,18.5712891 C21.2482096,18.5712891 21.4039714,18.5086263 21.5292969,18.3833008 C21.6546224,18.2579753 21.7172852,18.1057943 21.7172852,17.9267578 C21.7172852,17.7333984 21.6546224,17.5722656 21.5292969,17.4433594 C21.4039714,17.3144531 21.2482096,17.25 21.0620117,17.25 L16.6147461,17.25 C16.4213867,17.25 16.2620443,17.3144531 16.1367188,17.4433594 C16.0113932,17.5722656 15.9487305,17.7333984 15.9487305,17.9267578 C15.9487305,18.1057943 16.0113932,18.2579753 16.1367188,18.3833008 C16.2620443,18.5086263 16.4213867,18.5712891 16.6147461,18.5712891 L21.0620117,18.5712891 Z" id="icon1" fill="url(#linearGradient-1)" fill-rule="nonzero"></path>
    </g>
</svg>