<?xml version="1.0" encoding="UTF-8"?>
<svg width="24px" height="24px" viewBox="0 0 24 24" version="1.1" xmlns="http://www.w3.org/2000/svg" xmlns:xlink="http://www.w3.org/1999/xlink">
    <title>icon3</title>
    <defs>
        <linearGradient x1="88.1549343%" y1="24.8033268%" x2="16.9876778%" y2="73.4022963%" id="linearGradient-1">
            <stop stop-color="#5CE569" offset="0%"></stop>
            <stop stop-color="#3A9B39" offset="100%"></stop>
        </linearGradient>
        <linearGradient x1="88.1549343%" y1="5.20260037%" x2="16.9876778%" y2="91.6071602%" id="linearGradient-2">
            <stop stop-color="#5CE569" offset="0%"></stop>
            <stop stop-color="#3A9B39" offset="100%"></stop>
        </linearGradient>
    </defs>
    <g id="Page-2" stroke="none" stroke-width="1" fill="none" fill-rule="evenodd">
        <g id="Desktop-HD" transform="translate(-222.000000, -1286.000000)" fill-rule="nonzero">
            <g id="Group-7" transform="translate(210.000000, 1274.000000)">
                <g id="icon3" transform="translate(12.000000, 12.000000)">
                    <path d="M8,6.5 C8.5775168,6.5 9.09274097,7.00127755 9.70626569,8.2499214 L9.90346526,8.66936021 L10.0048669,8.89825019 L10.1962093,9.35197608 L10.3953253,9.85094949 L10.6030804,10.3964969 L10.8203405,10.9899448 L11.3559524,12.4911996 L11.5855052,13.1098745 L11.8097478,13.6906096 L12.0298969,14.2341423 L12.1388165,14.4921884 L12.247169,14.7412105 L12.462781,15.2125518 C13.5745822,17.5567907 14.6686206,18.5 16.5,18.5 C18.8565147,18.5 19.9188265,17.3932685 20.7395947,15.061789 L20.8236833,14.8162278 L21.0175341,14.2304134 L21.148601,13.8583754 L21.2724597,13.5409161 C21.5933717,12.770171 21.8732464,12.5313965 22.3863739,12.5029854 L22.5,12.5 L22.9991862,12.4998662 L23,18.2083333 C23,20.8546978 20.9479718,23 18.4166667,23 L5.58333333,23 C3.05202823,23 1,20.8546978 1,18.2083333 L0.999186225,12.4998662 L1.5,12.5 L1.71686884,12.4965737 C3.62973038,12.434717 4.50452628,11.5303686 5.45916608,9.38254196 L5.85693058,8.45401548 L6.02944828,8.07533911 C6.61733433,6.8374334 7.05853619,6.5 8,6.5 Z" id="Shape" fill-opacity="0.2" fill="url(#linearGradient-1)"></path>
                    <path d="M19,0 C21.7614237,0 24,2.23857625 24,5 L24,19 C24,21.7614237 21.7614237,24 19,24 L5,24 C2.23857625,24 0,21.7614237 0,19 L0,5 C0,2.23857625 2.23857625,0 5,0 L19,0 Z M8,7.5 C7.05853619,7.5 6.61733433,7.8374334 6.02944828,9.07533911 L5.85693058,9.45401548 L5.67307692,9.88461538 C4.67796052,12.2728948 3.85311347,13.3283673 2.00118271,13.4805155 L2,19 C2,20.5976809 3.24891996,21.9036609 4.82372721,21.9949073 L5,22 L19,22 C20.5976809,22 21.9036609,20.75108 21.9949073,19.1762728 L22,19 L22.0002172,13.5850843 C21.7113879,13.7093653 21.502464,13.988507 21.2724597,14.5409161 L21.148601,14.8583754 L21.0175341,15.2304134 L20.8236833,15.8162278 C19.9905505,18.3156262 18.9377738,19.5 16.5,19.5 C14.6686206,19.5 13.5745822,18.5567907 12.462781,16.2125518 L12.247169,15.7412105 C12.1750893,15.5781833 12.1027328,15.4092015 12.0298969,15.2341423 L11.8097478,14.6906096 L11.5855052,14.1098745 L11.3559524,13.4911996 L10.8203405,11.9899448 L10.6030804,11.3964969 L10.3953253,10.8509495 L10.1962093,10.3519761 L10.0048669,9.89825019 C9.25389034,8.17207295 8.66870366,7.5 8,7.5 Z M19,2 L5,2 C3.40231912,2 2.09633912,3.24891996 2.00509269,4.82372721 L2,5 L2.00074632,11.4568823 C2.62002904,11.3331564 2.99787825,10.9199646 3.47055172,9.92466089 L3.64306942,9.54598452 L3.82692308,9.11538462 C4.90759248,6.52177806 5.78745691,5.5 8,5.5 C9.75533109,5.5 10.7294169,6.48233156 11.8343881,9.06486156 L12.0433267,9.56798911 L12.2566691,10.1095264 C12.2926674,10.2030337 12.3289048,10.2981791 12.3654092,10.3949815 L12.5878624,10.9958304 L13.1226571,12.4953755 L13.3507549,13.1178351 L13.5703703,13.6933097 L13.7824643,14.2229946 C13.8520154,14.3920574 13.920473,14.5536878 13.9879973,14.708085 L14.1879301,15.1497761 L14.3832235,15.5492633 C15.0919675,16.9381364 15.7265222,17.5 16.5,17.5 C17.7455814,17.5 18.2519711,17.042414 18.7859016,15.5865606 L19.1275628,14.5770646 L19.2868835,14.1325265 C19.911426,12.4751239 20.60313,11.6707584 21.9992582,11.5246108 L22,5 C22,3.40231912 20.75108,2.09633912 19.1762728,2.00509269 L19,2 Z" id="Combined-Shape" fill="url(#linearGradient-2)"></path>
                </g>
            </g>
        </g>
    </g>
</svg>