<?xml version="1.0" encoding="UTF-8"?>
<svg width="28px" height="26px" viewBox="0 0 28 26" version="1.1" xmlns="http://www.w3.org/2000/svg" xmlns:xlink="http://www.w3.org/1999/xlink">
    <title>icon1</title>
    <defs>
        <linearGradient x1="88.1549343%" y1="11.3736707%" x2="16.9876778%" y2="85.8755616%" id="linearGradient-1">
            <stop stop-color="#FFD71C" offset="0%"></stop>
            <stop stop-color="#FEA122" offset="100%"></stop>
            <stop stop-color="#FEA122" offset="100%"></stop>
        </linearGradient>
        <linearGradient x1="88.1549343%" y1="32.5010158%" x2="16.9876778%" y2="66.252797%" id="linearGradient-2">
            <stop stop-color="#FFD71C" offset="0%"></stop>
            <stop stop-color="#FEA122" offset="100%"></stop>
            <stop stop-color="#FEA122" offset="100%"></stop>
        </linearGradient>
    </defs>
    <g id="Page-2" stroke="none" stroke-width="1" fill="none" fill-rule="evenodd">
        <g id="Desktop-HD" transform="translate(-336.000000, -1286.000000)" fill-rule="nonzero">
            <g id="Group-7" transform="translate(325.000000, 1274.000000)">
                <g id="icon1" transform="translate(11.000000, 12.000000)">
                    <path d="M21,12 C24.8659932,12 28,15.1340068 28,19 C28,22.8659932 24.8659932,26 21,26 C17.1340068,26 14,22.8659932 14,19 C14,15.1340068 17.1340068,12 21,12 Z M20.4,9.69890834e-13 C22.3882251,9.69890834e-13 24,1.54461761 24,3.45 L24.000578,10.5123214 C23.3637972,10.2872025 22.69412,10.1317143 22.0006955,10.0550057 L22,7 L2,7 L2,19.8125 C2,20.4214926 2.48255024,20.9234148 3.10422359,20.9920108 L3.25,21 L12.2232234,21.0009121 C12.3824512,21.7022881 12.6235947,22.3725454 12.9360629,23.001093 L3.6,23 C1.6117749,23 -3.0375702e-13,21.4553824 -3.0375702e-13,19.55 L-3.0375702e-13,3.45 C-3.0375702e-13,1.54461761 1.6117749,9.69890834e-13 3.6,9.69890834e-13 L20.4,9.69890834e-13 Z M23.3072307,15.9253324 L23.2407047,16.0168121 L20.416,20.454 L19.2027819,18.9377745 L19.1267819,18.8539995 C18.8061951,18.542167 18.2960536,18.5105948 17.9377745,18.7972181 C17.5794953,19.0838414 17.4983152,19.5884709 17.7321694,19.9696895 L17.7972181,20.0622255 L19.7972181,22.5622255 L19.8788931,22.6516613 C20.2516114,23.0091512 20.8557295,22.9764935 21.1877376,22.5809072 L21.2592953,22.4831879 L24.7592953,16.9831879 L24.8139894,16.8841788 C25.0053847,16.4799719 24.8702777,15.9870345 24.4831879,15.7407047 C24.0960982,15.4943748 23.5923331,15.5807572 23.3072307,15.9253324 Z" fill="url(#linearGradient-1)"></path>
                    <path d="M7,17 C7.55228475,17 8,17.4477153 8,18 C8,18.5522847 7.55228475,19 7,19 L5,19 C4.44771525,19 4,18.5522847 4,18 C4,17.4477153 4.44771525,17 5,17 L7,17 Z M7,13 C7.55228475,13 8,13.4477153 8,14 C8,14.5522847 7.55228475,15 7,15 L5,15 C4.44771525,15 4,14.5522847 4,14 C4,13.4477153 4.44771525,13 5,13 L7,13 Z M13,13 C13.5522847,13 14,13.4477153 14,14 C14,14.5522847 13.5522847,15 13,15 L11,15 C10.4477153,15 10,14.5522847 10,14 C10,13.4477153 10.4477153,13 11,13 L13,13 Z M13,9 C13.5522847,9 14,9.44771525 14,10 C14,10.5522847 13.5522847,11 13,11 L11,11 C10.4477153,11 10,10.5522847 10,10 C10,9.44771525 10.4477153,9 11,9 L13,9 Z M19,9 C19.5522847,9 20,9.44771525 20,10 C20,10.5522847 19.5522847,11 19,11 L17,11 C16.4477153,11 16,10.5522847 16,10 C16,9.44771525 16.4477153,9 17,9 L19,9 Z" id="Combined-Shape" fill="url(#linearGradient-2)"></path>
                </g>
            </g>
        </g>
    </g>
</svg>