<svg width="26" height="26" viewBox="0 0 26 26" fill="none" xmlns="http://www.w3.org/2000/svg">
<path d="M13 26C20.1797 26 26 20.1797 26 13C26 5.8203 20.1797 0 13 0C5.8203 0 0 5.8203 0 13C0 20.1797 5.8203 26 13 26Z" fill="url(#paint0_angular)" fill-opacity="0.4"/>
<path d="M13 0C20.1797 0 26 5.8203 26 13C26 20.1797 20.1797 26 13 26C5.8203 26 0 20.1797 0 13C0 5.8203 5.8203 0 13 0ZM13 2C6.92487 2 2 6.92487 2 13C2 19.0751 6.92487 24 13 24C19.0751 24 24 19.0751 24 13C24 6.92487 19.0751 2 13 2ZM13 4C13.5128 4 13.9355 4.38604 13.9933 4.88338L14 5V14C14 14.2645 13.8953 14.5163 13.712 14.7022L13.6139 14.7894L9.11394 18.2894C8.67799 18.6284 8.04972 18.5499 7.71065 18.1139C7.39766 17.7115 7.4405 17.1452 7.79183 16.7938L7.88606 16.7106L12 13.51V5C12 4.48716 12.386 4.06449 12.8834 4.00673L13 4Z" fill="url(#paint1_linear)"/>
<defs>
<radialGradient id="paint0_angular" cx="0" cy="0" r="1" gradientUnits="userSpaceOnUse" gradientTransform="translate(13 13) rotate(-90) scale(11.5)">
<stop stop-color="#4FC5EB" stop-opacity="0"/>
<stop offset="0.338716" stop-color="#4DC0EC" stop-opacity="0"/>
<stop offset="0.665525" stop-color="#47B5EE" stop-opacity="0.6807"/>
<stop offset="1" stop-color="#42A9F1"/>
</radialGradient>
<linearGradient id="paint1_linear" x1="22.9203" y1="1.35268" x2="4.4168" y2="23.8179" gradientUnits="userSpaceOnUse">
<stop stop-color="#5CE3E5"/>
<stop offset="1" stop-color="#2262FE"/>
</linearGradient>
</defs>
</svg>
