<?xml version="1.0" encoding="UTF-8"?>
<svg width="26px" height="27px" viewBox="0 0 26 27" version="1.1" xmlns="http://www.w3.org/2000/svg" xmlns:xlink="http://www.w3.org/1999/xlink">
    <title>icon2</title>
    <defs>
        <linearGradient x1="85.3809816%" y1="5.20260037%" x2="19.3877506%" y2="91.6071602%" id="linearGradient-1">
            <stop stop-color="#FF83EA" offset="0%"></stop>
            <stop stop-color="#B906DC" offset="100%"></stop>
        </linearGradient>
    </defs>
    <g id="Page-2" stroke="none" stroke-width="1" fill="none" fill-rule="evenodd">
        <g id="Desktop-HD" transform="translate(-277.000000, -1283.000000)" fill="url(#linearGradient-1)" fill-rule="nonzero">
            <g id="Group-7" transform="translate(266.000000, 1274.000000)">
                <g id="icon2-copy-2" transform="translate(11.000000, 9.000000)">
                    <path d="M14.5,7 C14.6632373,7 14.7640604,6.90877915 14.8024691,6.72633745 C14.9080933,6.13100137 15.0065158,5.66289438 15.0977366,5.32201646 C15.1889575,4.98113855 15.3209877,4.72187929 15.4938272,4.54423868 C15.6666667,4.36659808 15.9259259,4.22736626 16.2716049,4.12654321 C16.617284,4.02572016 17.1021948,3.91769547 17.7263374,3.80246914 C17.9087791,3.76406036 18,3.66323731 18,3.5 C18,3.32716049 17.9087791,3.22633745 17.7263374,3.19753086 C17.1021948,3.07270233 16.6196845,2.95747599 16.2788066,2.85185185 C15.9379287,2.74622771 15.6834705,2.60459534 15.5154321,2.42695473 C15.3473937,2.24931413 15.2177641,1.99245542 15.1265432,1.6563786 C15.0353224,1.32030178 14.9272977,0.854595336 14.8024691,0.259259259 C14.7640604,0.0864197531 14.6632373,0 14.5,0 C14.3367627,0 14.2359396,0.0864197531 14.1975309,0.259259259 C14.0727023,0.854595336 13.9646776,1.32030178 13.8734568,1.6563786 C13.7822359,1.99245542 13.6550069,2.24931413 13.4917695,2.42695473 C13.3285322,2.60459534 13.0740741,2.74622771 12.7283951,2.85185185 C12.382716,2.95747599 11.8978052,3.07270233 11.2736626,3.19753086 C11.0912209,3.22633745 11,3.32716049 11,3.5 C11,3.66323731 11.0912209,3.76406036 11.2736626,3.80246914 C11.8978052,3.92729767 12.382716,4.04012346 12.7283951,4.1409465 C13.0740741,4.24176955 13.3333333,4.37860082 13.5061728,4.55144033 C13.6790123,4.72427984 13.8110425,4.98113855 13.9022634,5.32201646 C13.9934842,5.66289438 14.0919067,6.13100137 14.1975309,6.72633745 C14.2359396,6.90877915 14.3367627,7 14.5,7 Z M20.9935149,15 C21.2529183,15 21.3999135,14.875 21.4345006,14.625 C21.538262,13.84375 21.6506701,13.2304688 21.771725,12.7851562 C21.8927799,12.3398438 22.0808474,12.0039062 22.3359274,11.7773438 C22.5910073,11.5507812 22.9693039,11.3789062 23.4708171,11.2617188 C23.9723303,11.1445312 24.6640726,11.0234375 25.5460441,10.8984375 C25.8486814,10.8515625 26,10.71875 26,10.5 C26,10.28125 25.8659749,10.1484375 25.5979248,10.1015625 C24.7159533,9.953125 24.0198876,9.81835938 23.5097276,9.69726562 C22.9995677,9.57617188 22.6126243,9.40625 22.3488975,9.1875 C22.0851708,8.96875 21.8927799,8.64257812 21.771725,8.20898438 C21.6506701,7.77539062 21.538262,7.1640625 21.4345006,6.375 C21.3999135,6.125 21.2529183,6 20.9935149,6 C20.7341115,6 20.5914397,6.12109375 20.5654994,6.36328125 C20.4530912,7.16015625 20.3363597,7.78515625 20.2153048,8.23828125 C20.0942499,8.69140625 19.9083441,9.03125 19.6575875,9.2578125 C19.406831,9.484375 19.0263727,9.65429688 18.5162127,9.76757812 C18.0060527,9.88085938 17.3013403,9.9921875 16.4020752,10.1015625 C16.2896671,10.1171875 16.1945525,10.1601562 16.1167315,10.2304688 C16.0389105,10.3007812 16,10.390625 16,10.5 C16,10.71875 16.1340251,10.8515625 16.4020752,10.8984375 C17.3013403,11.0546875 18.0038911,11.1933594 18.5097276,11.3144531 C19.0155642,11.4355469 19.3960225,11.6074219 19.6511025,11.8300781 C19.9061824,12.0527344 20.0920882,12.3828125 20.2088197,12.8203125 C20.3255512,13.2578125 20.4444444,13.8671875 20.5654994,14.6484375 C20.5741461,14.75 20.6195417,14.8339844 20.7016861,14.9003906 C20.7838305,14.9667969 20.8811068,15 20.9935149,15 Z M10.9145209,27 C12.4304266,27 13.8368502,26.7571004 15.1337918,26.2713013 C16.4307333,25.7855022 17.569768,25.084025 18.5508958,24.1668697 C19.5320237,23.2497145 20.3047145,22.1378208 20.8689683,20.8311886 C21.0626673,20.3621412 21.0416131,20.0061677 20.8058055,19.7632681 C20.6036848,19.5622478 20.2962928,19.5413082 19.8836296,19.7004492 C19.3614843,19.9014696 18.8014414,20.0522348 18.2035008,20.152745 C17.6055602,20.2532552 16.9613003,20.3035102 16.270721,20.3035102 C14.3674172,20.3035102 12.7104481,19.9286911 11.2998136,19.1790528 C9.88917918,18.4294145 8.79646383,17.3719638 8.02166759,16.0067007 C7.24687135,14.6414376 6.85947323,13.0248991 6.85947323,11.1570852 C6.85947323,10.4451382 6.92263597,9.72900327 7.04896144,9.00868042 C7.17528692,8.28835757 7.34372088,7.71461205 7.55426334,7.28744384 C7.78164919,6.8351481 7.79007089,6.4791746 7.57952843,6.21952334 C7.35214258,5.95987208 6.98158786,5.93055661 6.46786426,6.13157694 C5.17934443,6.64250362 4.04873144,7.4047057 3.07602529,8.4181832 C2.10331914,9.4316607 1.34747172,10.6147491 0.808483033,11.9674484 C0.269494344,13.3201477 0,14.7670753 0,16.3082312 C0,17.8326353 0.265283495,19.2439656 0.795850485,20.5422219 C1.32641748,21.8404782 2.08015947,22.9733115 3.05707647,23.9407218 C4.03399347,24.9081322 5.18776613,25.6598645 6.51839445,26.1959187 C7.84902278,26.7319729 9.31439827,27 10.9145209,27 Z" id="icon2"></path>
                </g>
            </g>
        </g>
    </g>
</svg>