<?xml version="1.0" encoding="UTF-8"?>
<svg width="28px" height="26px" viewBox="0 0 28 26" version="1.1" xmlns="http://www.w3.org/2000/svg" xmlns:xlink="http://www.w3.org/1999/xlink">
    <title>icon1</title>
    <defs>
        <linearGradient x1="88.1549343%" y1="8.85601503%" x2="16.9876778%" y2="88.2139229%" id="linearGradient-1">
            <stop stop-color="#FFD71C" offset="0%"></stop>
            <stop stop-color="#FEA122" offset="100%"></stop>
            <stop stop-color="#FEA122" offset="100%"></stop>
        </linearGradient>
        <linearGradient x1="88.1549343%" y1="11.3736707%" x2="16.9876778%" y2="85.8755616%" id="linearGradient-2">
            <stop stop-color="#FFD71C" offset="0%"></stop>
            <stop stop-color="#FEA122" offset="100%"></stop>
            <stop stop-color="#FEA122" offset="100%"></stop>
        </linearGradient>
    </defs>
    <g id="Page-2" stroke="none" stroke-width="1" fill="none" fill-rule="evenodd">
        <g id="Desktop-HD" transform="translate(-333.000000, -1408.000000)" fill-rule="nonzero">
            <g id="Group-7-Copy-5" transform="translate(322.000000, 1396.000000)">
                <g id="icon1" transform="translate(11.000000, 12.000000)">
                    <path d="M20.4,0 C22.3882251,0 24,1.54461761 24,3.45 L24.000578,10.5123214 C23.0620779,10.1805368 22.0521223,10 21,10 C16.0294373,10 12,14.0294373 12,19 C12,20.437276 12.3369098,21.7958624 12.9360629,23.001093 L3.6,23 C1.6117749,23 0,21.4553824 0,19.55 L0,3.45 C0,1.54461761 1.6117749,0 3.6,0 L20.4,0 Z" id="Combined-Shape" fill="url(#linearGradient-1)" opacity="0.2"></path>
                    <path d="M21,12 C24.8659932,12 28,15.1340068 28,19 C28,22.8659932 24.8659932,26 21,26 C17.1340068,26 14,22.8659932 14,19 C14,15.1340068 17.1340068,12 21,12 Z M20.4,1.29318778e-12 C22.3882251,1.29318778e-12 24,1.54461761 24,3.45 L24.000578,10.5123214 C23.3637972,10.2872025 22.69412,10.1317143 22.0006955,10.0550057 L22,7 L2,7 L2,19.8125 C2,20.4214926 2.48255024,20.9234148 3.10422359,20.9920108 L3.25,21 L12.2232234,21.0009121 C12.3824512,21.7022881 12.6235947,22.3725454 12.9360629,23.001093 L3.6,23 C1.6117749,23 -4.05009359e-13,21.4553824 -4.05009359e-13,19.55 L-4.05009359e-13,3.45 C-4.05009359e-13,1.54461761 1.6117749,1.29318778e-12 3.6,1.29318778e-12 L20.4,1.29318778e-12 Z M23.3072307,15.9253324 L23.2407047,16.0168121 L20.416,20.454 L19.2027819,18.9377745 L19.1267819,18.8539995 C18.8061951,18.542167 18.2960536,18.5105948 17.9377745,18.7972181 C17.5794953,19.0838414 17.4983152,19.5884709 17.7321694,19.9696895 L17.7972181,20.0622255 L19.7972181,22.5622255 L19.8788931,22.6516613 C20.2516114,23.0091512 20.8557295,22.9764935 21.1877376,22.5809072 L21.2592953,22.4831879 L24.7592953,16.9831879 L24.8139894,16.8841788 C25.0053847,16.4799719 24.8702777,15.9870345 24.4831879,15.7407047 C24.0960982,15.4943748 23.5923331,15.5807572 23.3072307,15.9253324 Z" fill="url(#linearGradient-2)"></path>
                </g>
            </g>
        </g>
    </g>
</svg>