<?xml version="1.0" encoding="UTF-8"?>
<svg width="24px" height="25px" viewBox="0 0 24 25" version="1.1" xmlns="http://www.w3.org/2000/svg" xmlns:xlink="http://www.w3.org/1999/xlink">
    <title>icon5</title>
    <defs>
        <linearGradient x1="88.1549343%" y1="5.20260037%" x2="16.9876778%" y2="91.6071602%" id="linearGradient-1">
            <stop stop-color="#5CE3E5" offset="0%"></stop>
            <stop stop-color="#2262FE" offset="100%"></stop>
        </linearGradient>
        <path d="M11.9648438,24.4921875 C13.5976562,24.4921875 15.1347656,24.1796875 16.5761719,23.5546875 C18.0175781,22.9296875 19.2890625,22.0664062 20.390625,20.9648438 C21.4921875,19.8632812 22.3554688,18.5917969 22.9804688,17.1503906 C23.6054688,15.7089844 23.9179688,14.171875 23.9179688,12.5390625 C23.9179688,10.90625 23.6054688,9.36914062 22.9804688,7.92773438 C22.3554688,6.48632812 21.4921875,5.21484375 20.390625,4.11328125 C19.2890625,3.01171875 18.015625,2.1484375 16.5703125,1.5234375 C15.125,0.8984375 13.5859375,0.5859375 11.953125,0.5859375 C10.3203125,0.5859375 8.78320312,0.8984375 7.34179688,1.5234375 C5.90039062,2.1484375 4.63085938,3.01171875 3.53320312,4.11328125 C2.43554688,5.21484375 1.57421875,6.48632812 0.94921875,7.92773438 C0.32421875,9.36914062 0.01171875,10.90625 0.01171875,12.5390625 C0.01171875,14.171875 0.32421875,15.7089844 0.94921875,17.1503906 C1.57421875,18.5917969 2.4375,19.8632812 3.5390625,20.9648438 C4.640625,22.0664062 5.91210938,22.9296875 7.35351563,23.5546875 C8.79492188,24.1796875 10.3320312,24.4921875 11.9648438,24.4921875 Z M11.9648438,22.5 C10.5820312,22.5 9.2890625,22.2421875 8.0859375,21.7265625 C6.8828125,21.2109375 5.82617188,20.4980469 4.91601562,19.5878906 C4.00585938,18.6777344 3.29492188,17.6210938 2.78320312,16.4179688 C2.27148438,15.2148438 2.015625,13.921875 2.015625,12.5390625 C2.015625,11.15625 2.27148438,9.86328125 2.78320312,8.66015625 C3.29492188,7.45703125 4.00390625,6.3984375 4.91015625,5.484375 C5.81640625,4.5703125 6.87109375,3.85742188 8.07421875,3.34570312 C9.27734375,2.83398438 10.5703125,2.578125 11.953125,2.578125 C13.3359375,2.578125 14.6289062,2.83398438 15.8320312,3.34570312 C17.0351562,3.85742188 18.09375,4.5703125 19.0078125,5.484375 C19.921875,6.3984375 20.6367188,7.45703125 21.1523438,8.66015625 C21.6679688,9.86328125 21.9257812,11.15625 21.9257812,12.5390625 C21.9257812,13.921875 21.6699219,15.2148438 21.1582031,16.4179688 C20.6464844,17.6210938 19.9355469,18.6777344 19.0253906,19.5878906 C18.1152344,20.4980469 17.0566406,21.2109375 15.8496094,21.7265625 C14.6425781,22.2421875 13.3476562,22.5 11.9648438,22.5 Z M11.953125,13.8046875 C12.1875,13.8046875 12.3828125,13.7265625 12.5390625,13.5703125 C12.6953125,13.4140625 12.7734375,13.21875 12.7734375,12.984375 L12.7734375,5.0859375 C12.7734375,4.859375 12.6953125,4.66796875 12.5390625,4.51171875 C12.3828125,4.35546875 12.1875,4.27734375 11.953125,4.27734375 C11.7265625,4.27734375 11.5351562,4.35546875 11.3789062,4.51171875 C11.2226562,4.66796875 11.1445312,4.859375 11.1445312,5.0859375 L11.1445312,12.1757812 L5.8359375,12.1757812 C5.6015625,12.1757812 5.40625,12.2539062 5.25,12.4101562 C5.09375,12.5664062 5.015625,12.7578125 5.015625,12.984375 C5.015625,13.21875 5.09375,13.4140625 5.25,13.5703125 C5.40625,13.7265625 5.6015625,13.8046875 5.8359375,13.8046875 L11.953125,13.8046875 Z" id="path-2"></path>
    </defs>
    <g id="Page-2" stroke="none" stroke-width="1" fill="none" fill-rule="evenodd">
        <g id="icon5" fill-rule="nonzero">
            <use fill="#1BC0D9" xlink:href="#path-2"></use>
            <use fill="url(#linearGradient-1)" xlink:href="#path-2"></use>
        </g>
    </g>
</svg>