<svg width="1467" height="1301" viewBox="0 0 1467 1301" fill="none" xmlns="http://www.w3.org/2000/svg">
<path fill-rule="evenodd" clip-rule="evenodd" d="M0.380597 664.365C69.5126 650.965 107.656 629.575 132.947 603.926C151.708 584.9 163.374 563.523 175.363 541.556C179.493 533.989 183.661 526.351 188.171 518.716C205.796 488.873 228.778 458.734 275.323 432.021C321.905 405.287 392.143 381.955 504.332 365.874C836.371 318.278 975.82 205.66 1079.04 122.303L1079.04 122.302C1115.46 92.887 1147.37 67.1162 1181.64 49.132C1273.49 0.929003 1362.31 -1.58586 1466.12 4.24493L1466.23 2.2481C1362.34 -3.58737 1273.06 -1.10442 1180.71 47.361C1146.11 65.5178 1114.03 91.4309 1077.47 120.952C974.273 204.292 835.471 316.386 504.048 363.894C391.731 379.994 321.215 403.377 274.327 430.287C227.402 457.217 204.197 487.649 186.449 517.699C181.865 525.46 177.654 533.174 173.501 540.784L173.5 540.785C161.549 562.68 150.07 583.712 131.523 602.522C106.597 627.8 68.8678 649.052 0 662.402L0.380597 664.365ZM132.947 635.735C107.656 661.384 69.5126 682.774 0.380597 696.175L0 694.211C68.8678 680.862 106.597 659.61 131.523 634.331C150.07 615.522 161.549 594.49 173.5 572.595L173.501 572.594C177.654 564.984 181.865 557.27 186.449 549.508C204.197 519.459 227.402 489.027 274.327 462.096C321.215 435.187 391.731 411.803 504.048 395.703C835.471 348.196 974.273 236.102 1077.47 152.761C1114.03 123.24 1146.11 97.3273 1180.71 79.1706C1273.06 30.7052 1362.34 28.2222 1466.23 34.0577L1466.12 36.0545C1362.31 30.2237 1273.49 32.7386 1181.64 80.9416C1147.37 98.9258 1115.46 124.697 1079.04 154.111L1079.04 154.112C975.82 237.469 836.371 350.087 504.332 397.683C392.143 413.765 321.905 437.097 275.323 463.831C228.778 490.544 205.796 520.683 188.171 550.525C183.661 558.161 179.493 565.798 175.363 573.366C163.374 595.332 151.708 616.709 132.947 635.735ZM0.380597 727.984C69.5126 714.584 107.656 693.194 132.947 667.545C151.708 648.519 163.374 627.142 175.363 605.175C179.493 597.608 183.661 589.97 188.171 582.335C205.796 552.493 228.778 522.353 275.323 495.64C321.905 468.907 392.143 445.574 504.332 429.493C836.371 381.897 975.82 269.279 1079.04 185.922L1079.04 185.921C1115.46 156.506 1147.37 130.735 1181.64 112.751C1273.49 64.5481 1362.31 62.0333 1466.12 67.8641L1466.23 65.8672C1362.34 60.0318 1273.06 62.5147 1180.71 110.98C1146.11 129.137 1114.03 155.05 1077.47 184.571C974.273 267.911 835.471 380.006 504.048 427.513C391.731 443.613 321.215 466.996 274.327 493.906C227.402 520.837 204.197 551.268 186.449 581.318C181.865 589.079 177.654 596.793 173.501 604.403L173.5 604.404C161.549 626.299 150.07 647.331 131.523 666.141C106.597 691.419 68.8678 712.672 0 726.021L0.380597 727.984ZM132.947 699.355C107.656 725.004 69.5126 746.393 0.380597 759.794L0 757.831C68.8678 744.481 106.597 723.229 131.523 697.95C150.07 679.141 161.549 658.109 173.5 636.214L173.501 636.213C177.654 628.603 181.865 620.889 186.449 613.127C204.197 583.078 227.402 552.646 274.327 525.715C321.215 498.806 391.731 475.422 504.048 459.322C835.471 411.815 974.273 299.721 1077.47 216.38C1114.03 186.86 1146.11 160.946 1180.71 142.79C1273.06 94.3243 1362.34 91.8413 1466.23 97.6768L1466.12 99.6736C1362.31 93.8428 1273.49 96.3577 1181.64 144.561C1147.37 162.545 1115.46 188.316 1079.04 217.73L1079.04 217.732C975.82 301.088 836.371 413.707 504.332 461.302C392.143 477.384 321.905 500.716 275.323 527.45C228.778 554.163 205.796 584.302 188.171 614.145C183.661 621.78 179.493 629.417 175.363 636.985C163.374 658.951 151.708 680.328 132.947 699.355ZM0.380597 791.604C69.5126 778.203 107.656 756.813 132.947 731.164C151.708 712.138 163.374 690.761 175.363 668.794C179.493 661.227 183.661 653.59 188.171 645.954C205.796 616.112 228.778 585.972 275.323 559.26C321.905 532.526 392.143 509.193 504.332 493.112C836.371 445.516 975.82 332.898 1079.04 249.541L1079.04 249.54C1115.46 220.125 1147.37 194.355 1181.64 176.37C1273.49 128.167 1362.31 125.652 1466.12 131.483L1466.23 129.486C1362.34 123.651 1273.06 126.134 1180.71 174.599C1146.11 192.756 1114.03 218.669 1077.47 248.19C974.273 331.531 835.471 443.625 504.048 491.132C391.731 507.232 321.215 530.615 274.327 557.525C227.402 584.456 204.197 614.887 186.449 644.937C181.865 652.698 177.654 660.412 173.501 668.022L173.5 668.024C161.549 689.919 150.07 710.951 131.523 729.76C106.597 755.039 68.8678 776.291 0 789.64L0.380597 791.604ZM132.947 762.975C107.656 788.624 69.5126 810.014 0.380597 823.414L0 821.451C68.8678 808.101 106.597 786.849 131.523 761.57C150.07 742.761 161.549 721.729 173.5 699.834L173.501 699.833C177.654 692.223 181.865 684.509 186.449 676.748C204.197 646.698 227.402 616.266 274.327 589.336C321.215 562.426 391.731 539.043 504.048 522.943C835.471 475.435 974.273 363.341 1077.47 280.001C1114.03 250.48 1146.11 224.567 1180.71 206.41C1273.06 157.944 1362.34 155.461 1466.23 161.297L1466.12 163.294C1362.31 157.463 1273.49 159.978 1181.64 208.181C1147.37 226.165 1115.46 251.935 1079.04 281.349L1079.04 281.35L1079.04 281.352C975.82 364.709 836.371 477.327 504.332 524.922C392.143 541.004 321.905 564.336 275.323 591.07C228.778 617.783 205.796 647.922 188.171 677.765C183.661 685.4 179.493 693.037 175.363 700.605C163.374 722.572 151.708 743.948 132.947 762.975ZM0.380597 855.223C69.5126 841.822 107.656 820.432 132.947 794.783C151.708 775.757 163.374 754.38 175.363 732.413C179.493 724.846 183.661 717.209 188.171 709.573C205.796 679.731 228.778 649.591 275.323 622.879C321.905 596.145 392.143 572.812 504.332 556.731C836.371 509.135 975.82 396.517 1079.04 313.16L1079.04 313.159C1115.46 283.744 1147.37 257.974 1181.64 239.989C1273.49 191.786 1362.31 189.272 1466.12 195.102L1466.23 193.106C1362.34 187.27 1273.06 189.753 1180.71 238.218C1146.11 256.375 1114.03 282.288 1077.47 311.809C974.273 395.15 835.471 507.244 504.048 554.751C391.731 570.851 321.215 594.235 274.327 621.144C227.402 648.075 204.197 678.506 186.449 708.556C181.865 716.317 177.654 724.032 173.501 731.641L173.5 731.643C161.549 753.538 150.07 774.57 131.523 793.379C106.597 818.658 68.8678 839.91 0 853.259L0.380597 855.223ZM132.947 826.594C107.656 852.243 69.5126 873.633 0.380597 887.033L0 885.07C68.8678 871.72 106.597 850.468 131.523 825.19C150.07 806.38 161.549 785.348 173.5 763.453L173.501 763.452C177.654 755.842 181.865 748.128 186.449 740.367C204.197 710.317 227.402 679.885 274.327 652.955C321.215 626.045 391.731 602.662 504.048 586.562C835.471 539.054 974.273 426.96 1077.47 343.62C1114.03 314.099 1146.11 288.186 1180.71 270.029C1273.06 221.564 1362.34 219.081 1466.23 224.916L1466.12 226.913C1362.31 221.082 1273.49 223.597 1181.64 271.8C1147.37 289.784 1115.46 315.555 1079.04 344.969L1079.04 344.971C975.82 428.328 836.371 540.946 504.332 588.541C392.143 604.623 321.905 627.955 275.323 654.689C228.778 681.402 205.796 711.541 188.171 741.384C183.661 749.019 179.493 756.657 175.363 764.224C163.374 786.191 151.708 807.568 132.947 826.594ZM0.380597 918.843C69.5126 905.442 107.656 884.052 132.947 858.403C151.708 839.377 163.374 818 175.363 796.034C179.493 788.466 183.661 780.829 188.171 773.193C205.796 743.351 228.778 713.212 275.323 686.499C321.905 659.765 392.143 636.433 504.332 620.351C836.371 572.755 975.82 460.137 1079.04 376.78L1079.04 376.779C1115.46 347.364 1147.37 321.594 1181.64 303.61C1273.49 255.407 1362.31 252.892 1466.12 258.722L1466.23 256.726C1362.34 250.89 1273.06 253.373 1180.71 301.839C1146.11 319.995 1114.03 345.908 1077.47 375.429C974.273 458.77 835.471 570.864 504.048 618.371C391.731 634.471 321.215 657.855 274.327 684.764C227.402 711.695 204.197 742.127 186.449 772.176C181.865 779.938 177.654 787.652 173.501 795.262L173.5 795.263C161.549 817.158 150.07 838.19 131.523 856.999C106.597 882.278 68.8678 903.53 0 916.879L0.380597 918.843ZM132.947 890.213C107.656 915.862 69.5126 937.252 0.380597 950.652L0 948.689C68.8678 935.34 106.597 914.087 131.523 888.809C150.07 869.999 161.549 848.967 173.5 827.072L173.501 827.071C177.654 819.461 181.865 811.747 186.449 803.986C204.197 773.936 227.402 743.505 274.327 716.574C321.215 689.664 391.731 666.281 504.048 650.181C835.471 602.674 974.273 490.579 1077.47 407.239C1114.03 377.718 1146.11 351.805 1180.71 333.648C1273.06 285.183 1362.34 282.7 1466.23 288.535L1466.12 290.532C1362.31 284.701 1273.49 287.216 1181.64 335.419C1147.37 353.403 1115.46 379.174 1079.04 408.588L1079.04 408.59C975.82 491.947 836.371 604.565 504.332 652.161C392.143 668.242 321.905 691.575 275.323 718.308C228.778 745.021 205.796 775.161 188.171 805.003C183.661 812.638 179.493 820.276 175.363 827.843C163.374 849.81 151.708 871.187 132.947 890.213ZM0.380597 982.462C69.5126 969.061 107.656 947.672 132.947 922.023C151.708 902.996 163.374 881.619 175.363 859.653C179.493 852.085 183.661 844.448 188.171 836.812C205.796 806.97 228.778 776.831 275.323 750.118C321.905 723.384 392.143 700.052 504.332 683.97C836.371 636.375 975.82 523.756 1079.04 440.399L1079.04 440.398C1115.46 410.983 1147.37 385.213 1181.64 367.229C1273.49 319.026 1362.31 316.511 1466.12 322.342L1466.23 320.345C1362.34 314.509 1273.06 316.992 1180.71 365.458C1146.11 383.614 1114.03 409.528 1077.47 439.048C974.273 522.389 835.471 634.483 504.048 681.99C391.731 698.09 321.215 721.474 274.327 748.383C227.402 775.314 204.197 805.746 186.449 835.795C181.865 843.557 177.654 851.271 173.501 858.881L173.5 858.882C161.549 880.777 150.07 901.809 131.523 920.618C106.597 945.897 68.8678 967.149 0 980.499L0.380597 982.462ZM132.947 953.832C107.656 979.481 69.5126 1000.87 0.380597 1014.27L0 1012.31C68.8678 998.959 106.597 977.707 131.523 952.428C150.07 933.619 161.549 912.587 173.5 890.692L173.501 890.69C177.654 883.08 181.865 875.366 186.449 867.605C204.197 837.555 227.402 807.124 274.327 780.193C321.215 753.283 391.731 729.9 504.048 713.8C835.471 666.293 974.273 554.198 1077.47 470.858C1114.03 441.337 1146.11 415.424 1180.71 397.267C1273.06 348.802 1362.34 346.319 1466.23 352.154L1466.12 354.151C1362.31 348.32 1273.49 350.835 1181.64 399.038C1147.37 417.022 1115.46 442.793 1079.04 472.207L1079.04 472.209C975.82 555.566 836.371 668.184 504.332 715.78C392.143 731.861 321.905 755.194 275.323 781.928C228.778 808.64 205.796 838.78 188.171 868.622C183.661 876.258 179.493 883.895 175.363 891.462C163.374 913.429 151.708 934.806 132.947 953.832ZM0.380597 1046.08C69.5126 1032.68 107.656 1011.29 132.947 985.642C151.708 966.615 163.374 945.239 175.363 923.272C179.493 915.704 183.661 908.067 188.171 900.432C205.796 870.589 228.778 840.45 275.323 813.737C321.905 787.003 392.143 763.671 504.332 747.589C836.371 699.994 975.82 587.376 1079.04 504.019L1079.04 504.017C1115.46 474.603 1147.37 448.832 1181.64 430.848C1273.49 382.645 1362.31 380.13 1466.12 385.961L1466.23 383.964C1362.34 378.128 1273.06 380.611 1180.71 429.077C1146.11 447.234 1114.03 473.147 1077.47 502.668C974.273 586.008 835.471 698.102 504.048 745.61C391.731 761.71 321.215 785.093 274.327 812.003C227.402 838.933 204.197 869.365 186.449 899.415C181.865 907.176 177.654 914.89 173.501 922.5L173.5 922.501C161.549 944.396 150.07 965.428 131.523 984.237C106.597 1009.52 68.8678 1030.77 0 1044.12L0.380597 1046.08ZM132.947 1017.45C107.656 1043.1 69.5126 1064.49 0.380597 1077.89L0 1075.93C68.8678 1062.58 106.597 1041.33 131.523 1016.05C150.07 997.238 161.549 976.206 173.5 954.311L173.501 954.309C177.654 946.7 181.865 938.985 186.449 931.224C204.197 901.174 227.402 870.743 274.327 843.812C321.215 816.903 391.731 793.519 504.048 777.419C835.471 729.912 974.273 617.818 1077.47 534.477C1114.03 504.956 1146.11 479.043 1180.71 460.886C1273.06 412.421 1362.34 409.938 1466.23 415.773L1466.12 417.77C1362.31 411.94 1273.49 414.454 1181.64 462.657C1147.37 480.642 1115.46 506.412 1079.04 535.827L1079.04 535.828C975.82 619.185 836.371 731.803 504.332 779.399C392.143 795.48 321.905 818.813 275.323 845.547C228.778 872.259 205.796 902.399 188.171 932.241C183.661 939.877 179.493 947.514 175.363 955.081C163.374 977.048 151.708 998.425 132.947 1017.45ZM0.380597 1109.7C69.5126 1096.3 107.656 1074.91 132.947 1049.26C151.708 1030.23 163.374 1008.86 175.363 986.891C179.493 979.324 183.661 971.686 188.171 964.051C205.796 934.208 228.778 904.069 275.323 877.356C321.905 850.622 392.143 827.29 504.332 811.208C836.371 763.613 975.82 650.995 1079.04 567.638L1079.04 567.636C1115.46 538.222 1147.37 512.451 1181.64 494.467C1273.49 446.264 1362.31 443.749 1466.12 449.58L1466.23 447.583C1362.34 441.748 1273.06 444.231 1180.71 492.696C1146.11 510.853 1114.03 536.766 1077.47 566.287C974.273 649.627 835.471 761.721 504.048 809.229C391.731 825.329 321.215 848.712 274.327 875.622C227.402 902.552 204.197 932.984 186.449 963.034C181.865 970.795 177.654 978.509 173.501 986.119L173.5 986.12C161.549 1008.02 150.07 1029.05 131.523 1047.86C106.597 1073.14 68.8678 1094.39 0 1107.74L0.380597 1109.7ZM132.947 1081.07C107.656 1106.72 69.5126 1128.11 0.380597 1141.51L0 1139.55C68.8678 1126.2 106.597 1104.94 131.523 1079.67C150.07 1060.86 161.549 1039.82 173.5 1017.93L173.501 1017.93C177.654 1010.32 181.865 1002.6 186.449 994.843C204.197 964.793 227.402 934.362 274.327 907.431C321.215 880.522 391.731 857.138 504.048 841.038C835.471 793.531 974.273 681.437 1077.47 598.096C1114.03 568.575 1146.11 542.662 1180.71 524.505C1273.06 476.04 1362.34 473.557 1466.23 479.393L1466.12 481.389C1362.31 475.559 1273.49 478.073 1181.64 526.276C1147.37 544.261 1115.46 570.031 1079.04 599.446L1079.04 599.447C975.82 682.804 836.371 795.422 504.332 843.018C392.143 859.1 321.905 882.432 275.323 909.166C228.778 935.878 205.796 966.018 188.171 995.86C183.661 1003.5 179.493 1011.13 175.363 1018.7C163.374 1040.67 151.708 1062.04 132.947 1081.07ZM0.380597 1173.32C69.5126 1159.92 107.656 1138.53 132.947 1112.88C151.708 1093.85 163.374 1072.48 175.363 1050.51C179.493 1042.94 183.661 1035.3 188.171 1027.67C205.796 997.827 228.778 967.687 275.323 940.974C321.905 914.24 392.143 890.908 504.332 874.827C836.371 827.231 975.82 714.613 1079.04 631.256L1079.04 631.254C1115.46 601.84 1147.37 576.069 1181.64 558.085C1273.49 509.882 1362.31 507.367 1466.12 513.198L1466.23 511.201C1362.34 505.366 1273.06 507.849 1180.71 556.314C1146.11 574.471 1114.03 600.384 1077.47 629.905C974.273 713.245 835.471 825.34 504.048 872.847C391.731 888.947 321.215 912.33 274.327 939.24C227.402 966.17 204.197 996.602 186.449 1026.65C181.865 1034.41 177.654 1042.13 173.5 1049.74C161.549 1071.63 150.07 1092.67 131.523 1111.47C106.597 1136.75 68.8678 1158.01 0 1171.35L0.380597 1173.32ZM132.947 1144.69C107.656 1170.34 69.5126 1191.73 0.380597 1205.13L0 1203.17C68.8678 1189.82 106.597 1168.56 131.523 1143.29C150.07 1124.48 161.549 1103.44 173.5 1081.55C177.654 1073.94 181.865 1066.22 186.449 1058.46C204.197 1028.41 227.402 997.981 274.327 971.05C321.215 944.141 391.731 920.757 504.048 904.657C835.471 857.15 974.273 745.056 1077.47 661.715C1114.03 632.195 1146.11 606.281 1180.71 588.125C1273.06 539.659 1362.34 537.176 1466.23 543.012L1466.12 545.009C1362.31 539.178 1273.49 541.693 1181.64 589.896C1147.37 607.88 1115.46 633.65 1079.04 663.065L1079.04 663.066C975.82 746.423 836.371 859.042 504.332 906.637C392.143 922.719 321.905 946.051 275.323 972.785C228.778 999.498 205.796 1029.64 188.171 1059.48C183.661 1067.11 179.493 1074.75 175.363 1082.32C163.374 1104.29 151.708 1125.66 132.947 1144.69ZM0.380597 1236.94C69.5126 1223.54 107.656 1202.15 132.947 1176.5C151.708 1157.47 163.374 1136.09 175.363 1114.13C179.493 1106.56 183.661 1098.92 188.171 1091.29C205.796 1061.45 228.778 1031.31 275.323 1004.59C321.905 977.86 392.143 954.527 504.332 938.446C836.371 890.85 975.82 778.232 1079.04 694.875L1079.04 694.873C1115.46 665.459 1147.37 639.688 1181.64 621.704C1273.49 573.501 1362.31 570.986 1466.12 576.817L1466.23 574.82C1362.34 568.985 1273.06 571.468 1180.71 619.933C1146.11 638.09 1114.03 664.003 1077.47 693.524C974.273 776.864 835.471 888.959 504.048 936.466C391.731 952.566 321.215 975.949 274.327 1002.86C227.402 1029.79 204.197 1060.22 186.449 1090.27C181.865 1098.03 177.654 1105.75 173.5 1113.36C161.549 1135.25 150.07 1156.28 131.523 1175.09C106.597 1200.37 68.8678 1221.62 0 1234.97L0.380597 1236.94ZM132.947 1208.31C107.656 1233.96 69.5126 1255.35 0.380597 1268.75L0 1266.78C68.8678 1253.44 106.597 1232.18 131.523 1206.9C150.07 1188.1 161.549 1167.06 173.5 1145.17C177.654 1137.56 181.865 1129.84 186.449 1122.08C204.197 1092.03 227.402 1061.6 274.327 1034.67C321.215 1007.76 391.731 984.376 504.048 968.276C835.471 920.769 974.273 808.675 1077.47 725.335C1114.03 695.814 1146.11 669.901 1180.71 651.744C1273.06 603.278 1362.34 600.795 1466.23 606.631L1466.12 608.628C1362.31 602.797 1273.49 605.312 1181.64 653.515C1147.37 671.499 1115.46 697.27 1079.04 726.684L1079.04 726.686C975.82 810.042 836.371 922.661 504.332 970.256C392.143 986.338 321.905 1009.67 275.323 1036.4C228.778 1063.12 205.796 1093.26 188.171 1123.1C183.661 1130.73 179.493 1138.37 175.363 1145.94C163.374 1167.91 151.708 1189.28 132.947 1208.31ZM132.947 1240.12C107.656 1265.77 69.5126 1287.16 0.380597 1300.56L0 1298.59C68.8678 1285.24 106.597 1263.99 131.523 1238.71C150.07 1219.9 161.549 1198.87 173.5 1176.98C177.654 1169.37 181.865 1161.65 186.449 1153.89C204.197 1123.84 227.402 1093.41 274.327 1066.48C321.215 1039.57 391.731 1016.19 504.048 1000.09C835.471 952.578 974.273 840.484 1077.47 757.143C1114.03 727.622 1146.11 701.709 1180.71 683.552C1273.06 635.087 1362.34 632.604 1466.23 638.439L1466.12 640.436C1362.31 634.605 1273.49 637.12 1181.64 685.323C1147.37 703.307 1115.46 729.078 1079.04 758.492L1079.04 758.494C975.82 841.851 836.371 954.469 504.332 1002.06C392.143 1018.15 321.905 1041.48 275.323 1068.21C228.778 1094.93 205.796 1125.06 188.171 1154.91C183.661 1162.54 179.493 1170.18 175.363 1177.75C163.374 1199.71 151.708 1221.09 132.947 1240.12Z" fill="url(#paint0_radial_809_14098)"/>
<defs>
<radialGradient id="paint0_radial_809_14098" cx="0" cy="0" r="1" gradientUnits="userSpaceOnUse" gradientTransform="translate(36.1835 1149.25) rotate(-32.632) scale(1434.42 1478.1)">
<stop stop-color="#FCBD85"/>
<stop offset="0.21875" stop-color="#ED8CDB"/>
<stop offset="0.65625" stop-color="#9A7CDB"/>
<stop offset="1" stop-color="#729CD0"/>
</radialGradient>
</defs>
</svg>
