<svg width="150" height="90" xmlns="http://www.w3.org/2000/svg"><path d="M92.798 17l1.039.26c-.853 4.587-1.559 9.62-1.559 14.284 9.185-5.364 18.835-9.797 29.097-12.616 2.918-.801 6.06-1.377 9.092-1.408 1.13-.011 3.958.611 1.819 1.817-1.906-1.799-6.532-.315-8.833.23-8.24 1.952-15.588 5.288-23.121 9.056-1.925.963-3.814 1.974-5.716 2.978-.859.454-1.996.823-2.405 1.788-.493 1.164-.193 2.888-.193 4.129 0 .575.006 1.152.013 1.73l.022 1.736c.026 2.316.02 4.637-.254 6.922-.214 1.778-.56 3.828-1.914 5.136-2.629 2.536-6.241-1.565-7.999-3.318-.256.324-.445.644-.815.858-.309.179-.637.349-1.002.37-2.705.16-1.303-3.127-2.236-4.604-.946-1.497-3.19-2.414-3.165-4.414.026-2.168 2.762-2.36 4.02-3.543 1.2-1.13 1.712-5.05 1.38-6.587-1.466 5.087-5.914 9.18-9.612 12.716-.945.903-1.986 1.902-3.118 2.568-.512.301-1.305.648-1.662-.047-.633-1.235.198-3.341.473-4.589.707-3.198 2.4-7.689 1.449-10.908-.588 2.148-1.614 4.19-2.489 6.233-2.276 5.32-5.05 10.42-8.52 15.064-1.386 1.856-3.174 5.336-5.618 5.714.007-2.626.744-5.242 1.33-7.792 1.453-6.317 3.606-12.44 3.606-18.96-2 .936-3.112 3.11-4.208 4.936-1.802 3.002-3.668 5.977-5.7 8.83-.955 1.34-3.053 3.389-3.284 5.045-.102.729.333 1.544.535 2.227.37 1.25.64 2.591.697 3.896.08 1.832.215 3.906-.11 5.714-.627 3.47-2.946 7.096-5.346 9.61-1.17 1.225-2.473 2.783-4.146 3.307-3.303 1.033-2.714-4.272-2.575-6.165.349-4.754 3.864-9.764 6.214-13.765.757-1.287 3.184-3.92 2.725-5.454-.888-2.961-4.91-5.36-7.404-6.791-1.56-.896-3.757-1.704-3.548-3.857.195-2.003 1.62-3.823 2.68-5.454 1.637-2.52 3.13-5.087 4.438-7.792.847-1.75 1.96-4.26 1.174-6.228-.75-1.877-3-1.233-4.484-.808-2.179.625-4.341 1.737-6.235 2.97-.652.425-1.722.942-1.993 1.73-.19.548.294 1.289.434 1.817-1.833-.142-2.374-1.961-1-3.242 2.318-2.163 6.021-3.716 9.054-4.51 1.147-.3 2.746-.569 3.886-.107 2.18.884 1.77 4.513 1.22 6.3-1.2 3.89-3.513 7.52-5.715 10.909-.765 1.177-2.709 3.385-2.304 4.91.365 1.375 2.84 2.222 3.952 2.885 2.526 1.505 5.178 3.488 6.58 6.14l.175.35h.52c1.056-2.125 2.657-4.01 3.982-5.974 2.068-3.068 3.943-6.242 5.946-9.35.639-.992 3.174-4.608 4.537-2.515.412.633.339 1.536.342 2.255.01 1.87-.17 3.634-.616 5.454-1.021 4.156-2.172 8.282-3.075 12.467-.36 1.662-1.017 3.493-.985 5.194 1.429-2.798 3.84-5.167 5.581-7.792 2.824-4.253 5-8.823 6.998-13.505.101-.236.2-.472.298-.709l.586-1.424c.393-.95.802-1.891 1.282-2.798.24-.454.77-1.587 1.476-1.196.833.46.422 3.238.402 4.05-.108 4.394-1.988 8.628-2.334 12.985 3.795-3.716 8.064-7.087 10.858-11.687 1.02-1.68 2.103-5.612 4.21-5.974 0 3.108-.71 6.053-1.3 9.09 2.116-1.247 4.3-2.343 6.495-3.44 1.03-.514 2.464-.967 3.231-1.855.856-.991.944-2.815 1.186-4.054.282-1.45.445-2.92.588-4.393l.171-1.77c.175-1.768.382-3.533.8-5.265zm-51.18 34.543c-3.834 6.886-10.59 14.643-8.572 23.114 2.158-.545 3.708-2.28 5.15-3.895 2.033-2.277 4.125-5.505 4.637-8.571.238-1.426.087-2.973.085-4.415-.004-2.023-.2-4.485-1.3-6.233zM90.72 34.4c-.855 3.695-2.75 7.269-4.87 10.389-1.02 1.502-2.277 2.84-3.183 4.415 1.47 1.034 3.633 3.989 5.691 3.512 1.53-.354 2.144-2.706 2.32-4.031.328-2.455.334-4.925.316-7.397l-.012-1.648-.002-.825c0-1.39.282-3.124-.26-4.415zM79.327 47.61v2.267c.771-.109 1.18-.309 1.814-.756-.531-.713-.994-1.139-1.814-1.512zM89.94 34.14c-2.53.729-4.966 2.269-7.274 3.517-.828.448-2.01.85-2.465 1.733-.63 1.22-.553 3.02-.696 4.36-.072.672-.295 1.406-.056 2.068.281.78 1.523 2.046 2.414 2.035 1.135-.015 2.31-2.247 2.875-3.064 2.272-3.291 3.963-6.85 5.202-10.649zm-11.171 5.454c-.87.508-2.344.97-2.84 1.904-.772 1.455 1.54 2.827 2.58 3.29.001-1.602.721-3.695.26-5.194z" fill="#FFF"/></svg>