<svg width="150" height="90" xmlns="http://www.w3.org/2000/svg"><g fill="none"><path d="M69.763 0c.894.931.442 2.182.078 3.315-.876 2.727-1.912 5.41-3.02 8.051-4.734 11.279-9.788 22.507-14.894 33.625-.276.6-.57 1.199-.867 1.797l-.448.899c-1.194 2.398-2.357 4.826-2.675 7.486-.137 1.145-.598 2.795.545 3.584 1.4.966 3.13-.448 4.229-1.253 3.116-2.284 5.667-5.185 8.269-8.014 2.45-2.666 4.583-5.623 6.74-8.525 1.492-2.008 3.234-4.128 4.316-6.393.985-2.063 1.387-4.474 2.154-6.63 1.684-4.731 3.614-9.371 5.62-13.971 1.256-2.876 2.566-5.823 4.167-8.525.667-1.126 1.376-2.576 2.839-2.368-.771 3.975-2.336 7.627-3.837 11.366-1.891 4.712-3.842 9.457-6.172 13.971-1.19 2.304-2.785 4.479-3.793 6.867-1.014 2.401-1.415 5.267-1.925 7.814-.796 3.981-1.766 8.244-1.8 12.314.855-.38 1.805-.687 2.777-.986l.976-.3c1.63-.503 3.25-1.052 4.516-1.959 1.73-1.241 2.935-3.567 4.148-5.28 1.737-2.454 3.594-4.955 5.069-7.577 1.257-2.234 2.116-4.76 3.153-7.104 1.924-4.351 4.02-8.627 6.329-12.787.876-1.578 1.787-3.859 3.585-4.499.363 1.322-.186 2.548-.666 3.789-.864 2.238-1.756 4.481-2.828 6.63-1.282 2.57-2.584 5.135-4.1 7.577-1.418 2.284-3.194 4.464-4.396 6.867-1.403 2.806-2.445 6.584-2.694 9.709 2.33-.54 4.627-1.35 6.914-2.188l1.959-.72a83.77 83.77 0 013.916-1.349c5.39-1.674 10.91-2.859 16.342-4.368 3.266-.908 6.812-2.447 10.185-2.741-.294.907-1.079 1.202-1.924 1.437l-.34.093c-.115.03-.229.061-.342.094-2.287.658-4.564 1.35-6.868 1.955-6.419 1.687-12.859 3.243-19.184 5.263-3.604 1.152-7.401 3.15-11.132 3.708-.142 3.322-.935 6.623-1.163 9.945-.195 2.844.024 5.723.512 8.525.284 1.63.862 2.881 1.803 4.24.226.326.887 1.066.35 1.423-.446.297-1.08-.055-1.43-.34-.976-.79-1.608-2.035-2.462-2.956-1.214-1.31-2.5-2.607-4.005-3.583-3.04-1.975-6.448-2.785-9.71-4.23 0 6.685.478 15.896-6.868 18.972-4.365 1.828-9.357.104-13.027-2.404-1.894-1.295-3.786-2.923-3.096-5.44.486-1.77 2.102-2.962 3.625-3.982l.453-.301.44-.294c4.25-2.865 8.851-5.135 13.262-7.736-3.668-.29-7.24-1.053-10.92-1.169l-.922-.015v-.947c4.286 0 8.344-1.524 12.316-3.033 1.21-.459 3.26-.773 4.12-1.802.848-1.014.677-3.585.854-4.873.36-2.619.808-5.223 1.326-7.814.308-1.54.863-3.164.805-4.736-1.057 2.225-2.819 4.192-4.293 6.156-3.173 4.23-6.642 8.513-10.628 12.009-1.598 1.402-3.534 3.249-5.684 3.692-1.01.208-2.498.038-3.173-.837-.657-.852-.32-2.258-.616-3.26-1.024 3.55-3.536 6.976-5.347 10.181-3.944 6.979-7.986 14.003-12.89 20.364.629-.344 1.224-.694 1.895-.947.065.44.15.68-.151 1.065-.428.546-1.182.858-1.744 1.243-.256.175-.5.39-.742.61l-.29.268c-.675.623-1.363 1.208-2.284 1.077.497-1.5 1.636-2.735 2.525-4.026.298-.434.598-.866.9-1.298l1.811-2.589a130.384 130.384 0 002.653-3.927c5.124-7.954 10.034-16.302 14.075-24.863.703-1.489.896-3.175 1.405-4.736.989-3.034 2.124-6.017 3.258-8.998 3.489-9.17 7.605-18.13 11.793-26.995C65.35 8.228 67.01 3.611 69.763 0zm-4.737 63.047c-1.812.194-3.644 1.748-5.21 2.6-3.203 1.74-6.502 3.475-9.474 5.595-1.65 1.176-4.761 2.997-3.786 5.479.63 1.604 2.397 2.586 3.786 3.451 4.596 2.86 10.833 3.393 14.634-1.083 1.663-1.96 1.959-4.418 2.221-6.867.314-2.93.435-5.812.435-8.761-.841-.174-1.738-.507-2.606-.414zm18.71-11.9c-1.746.477-3.935 1.041-5.447 2.06-2.207 1.487-3.922 3.678-6.157 5.2-1.249.85-4.34 2.028-3.41 4.04.51 1.105 3.508 1.528 4.594 1.96 2.323.927 4.618 1.991 6.631 3.496 1.273.95 2.254 2.22 3.553 3.135-1.563-5.561-.904-11.257-.159-16.884l.24-1.806.156-1.2zm-16.34 10.195l-1.184.71c.476.29.866.39 1.42.474-.02-.465-.052-.765-.236-1.184zm.473-4.512c-3.426 1.526-7.093 2.63-10.657 3.789 1.52.644 3.568.574 5.21.85.837.14 1.768.416 2.605.165 2.072-.622 3.628-2.614 2.842-4.804zm8.053-2.841c-2.334.637-4.516 1.81-6.868 2.368l-.237 3.078c2.527-1.181 5.486-3.155 7.105-5.446zm9.237-10.42c-1.735 2.572-4.245 5.208-5.447 8.052 1.397-.54 2.801-1.083 4.263-1.42.184-1.431.517-2.868.884-4.263.211-.801.545-1.562.3-2.368zM68.105 4.5c-1.402 3.564-3.302 6.94-4.9 10.419-3.128 6.81-6.241 13.64-9.026 20.6-1.327 3.317-3.012 6.701-3.837 10.183.931-1.128 1.414-2.689 1.995-4.025.895-2.056 1.803-4.107 2.709-6.157a2991.72 2991.72 0 019.105-20.364c1.124-2.491 2.22-5.014 3.168-7.578.354-.957 1.001-2.055.786-3.078zm30.08 13.497c-2.948 4.997-5.614 10.26-7.817 15.629 1.187-1.088 1.91-2.628 2.678-4.026a100.719 100.719 0 003.553-7.104c.595-1.32 1.632-3.033 1.585-4.499zM84.92 5.683c-2.714 5.156-5.13 10.454-7.295 15.865-1.14 2.85-2.432 5.763-3.126 8.761 1.523-1.819 2.409-4.253 3.389-6.393 1.786-3.899 3.45-7.858 5.043-11.84.663-1.658 2.514-4.617 1.99-6.393z" fill="#FFF"/><path fill="#000" d="M85.158 5.21l.237.237-.237-.236M74.263 30.553l.237.236-.237-.236m15.869 3.315l.236.237-.236-.237m-4.737 9.237l.237.237-.237-.237m-35.29 2.842l.237.237-.237-.237M84.921 49.5l.237.237-.237-.237m-38.053 6.197c-.013.013-.026.264.08.158.013-.013.026-.263-.08-.158M25 89.763l.237.237-.237-.237z"/></g></svg>